<?xml version="1.0" standalone="no"?>
<!DOCTYPE svg PUBLIC "-//W3C//DTD SVG 1.1//EN" "http://www.w3.org/Graphics/SVG/1.1/DTD/svg11.dtd">
<svg xmlns="http://www.w3.org/2000/svg">
<defs >
<font id="Glory" horiz-adv-x="468" ><font-face
    font-family="Glory Thin Medium"
    units-per-em="1000"
    panose-1="0 0 0 0 0 0 0 0 0 0"
    ascent="900"
    descent="-220"
    alphabetic="0" />
<glyph unicode=" " horiz-adv-x="238" />
<glyph unicode="!" horiz-adv-x="238" d="M90 222Q85 222 84 224T82 233L71 664Q71 669 72 671T79 673H160Q168 673 168 665L157 233Q156 226 155 224T146 222H90ZM164 29Q164 9 155 -1T116 -11Q91 -11 80 -1T68 29Q68 49 79 59T116 70Q146 70 155 60T164 29Z" />
<glyph unicode="&quot;" horiz-adv-x="356" d="M73 457Q70 457 68 459T65 470L60 692Q60 702 62 704T72 707H124Q133 707 134 705T136 696L131 468Q130 461 128 459T120 457H73ZM232 457Q228 457 226 459T224 470L219 692Q219 702 221 704T231 707H283Q291 707
293 705T295 696L290 468Q290 461 288 459T280 457H232Z" />
<glyph unicode="#" horiz-adv-x="731" d="M203 215H57Q50 215 47 217T45 226L50 267Q51 273 54 275T63 278H207L217 425H76Q70 425 67 426T64 436L70 477Q71 484 73 486T82 488H220L235 696Q236 702 238 704T247 707H294Q301 707 302 704T302 694L287 488L443
487L458 696Q459 702 461 704T470 707H516Q523 707 524 704T524 694L509 487H670Q681 488 684 485T686 477L681 435Q681 429 678 427T670 425H506L496 277H650Q661 278 664 276T667 267L662 224Q661 219 658 217T650 215H492L479 9Q478 6 477 3T468 0H423Q417 0
415 3T413 16L425 215H270L257 9Q256 6 254 3T246 0H200Q195 0 193 3T190 16L203 215ZM274 278L430 277L439 425H284L274 278Z" />
<glyph unicode="$" horiz-adv-x="478" d="M159 36Q143 40 117 48T73 65Q63 71 58 75T53 88Q53 106 53 123T53 158Q53 164 57 164T67 162T79 155Q113 132 145 122T206 112Q249 112 281 134T313 201Q313 228 299 246T261 280T202 310Q167 327 133 347T77 399T55
484Q55 534 77 568T136 619T218 637Q226 637 233 637T248 637L267 736Q268 741 269 743T279 745H325Q333 745 334 743T334 734L314 626Q340 619 365 606T415 576Q422 572 423 569T421 560Q416 548 409 533T393 508Q390 503 386 505T373 513Q360 521 337 532T286
551T234 559Q195 559 168 540T141 481Q141 457 155 440T195 409T251 380Q287 363 321 342T377 288T400 203Q400 153 376 115T312 55T225 31L201 -126Q200 -132 198 -133T188 -134H140Q137 -134 135 -132T135 -118L159 36Z" />
<glyph unicode="%" horiz-adv-x="799" d="M162 0Q157 0 156 3T158 10L551 700Q554 705 556 706T563 707H625Q631 707 632 704T625 689L241 9Q238 5 235 3T226 0H162ZM208 414Q127 414 94 455T60 561Q60 626 93 667T208 709Q288 709 322 668T356 561Q356 497 322
456T208 414ZM208 470Q253 470 273 494T293 561Q293 605 273 629T208 653Q163 653 143 630T122 561Q122 518 142 494T208 470ZM590 0Q510 0 477 41T443 147Q443 212 476 253T590 295Q670 295 704 254T739 147Q739 83 705 42T590 0ZM590 56Q636 56 656 80T676 147Q676
191 656 215T590 239Q546 239 526 216T505 147Q505 104 525 80T590 56Z" />
<glyph unicode="&amp;" horiz-adv-x="696" d="M273 -8Q208 -8 162 10T87 57T44 122T30 193Q30 235 45 271T89 334T154 370Q132 379 116 395T90 432T74 473T69 508Q69 536 80 565T116 619T181 660T279 676Q333 676 384 652T473 568Q479 559 478 554T472 545L428
512Q419 506 411 517Q389 550 355 574T276 599Q242 599 215 587T172 553T156 499Q156 478 166 459T195 426T239 409Q243 409 252 409T272 408T285 407Q297 407 301 406T305 400V338Q305 332 303 331T295 330H241Q208 330 183 312T144 266T130 204Q130 172 145 142T193
92T283 72Q330 72 370 97T440 163T487 249L406 292Q403 294 402 296T405 306L436 357Q439 364 443 365T451 364L644 261Q650 259 650 255T647 247L618 195Q615 189 612 187T602 189L555 214Q538 171 512 132T452 61T373 11T273 -8Z" />
<glyph unicode="&apos;" horiz-adv-x="195" d="M73 457Q69 457 67 459T64 470L60 692Q59 702 61 704T72 707H123Q132 707 133 705T135 696L130 468Q129 461 127 459T120 457H73Z" />
<glyph unicode="(" horiz-adv-x="370" d="M310 -73Q310 -79 307 -80T289 -82Q215 -82 160 -31T75 111T45 320Q45 368 54 420T83 523T132 613T200 677T289 701Q304 701 307 699T310 692V647Q310 642 307 642T292 641Q255 641 228 620T181 564T150 487T132 401T126
321Q126 268 133 218T153 125T185 49T232 -2T293 -22Q306 -22 308 -24T310 -31V-73Z" />
<glyph unicode=")" horiz-adv-x="370" d="M60 -73V-31Q60 -26 63 -24T77 -22Q111 -21 138 -3T185 49T218 125T237 218T244 321Q244 357 239 400T221 486T190 564T143 620T79 641Q69 641 65 641T60 647V692Q60 697 63 699T82 701Q131 701 170 677T239 613T287 523T315
421T325 320Q325 202 295 112T211 -30T82 -82Q67 -82 64 -81T60 -73Z" />
<glyph unicode="*" horiz-adv-x="541" d="M270 421L164 279Q160 273 157 272T148 274L110 305Q105 309 105 312T109 322L218 459L52 511Q38 515 41 524L57 571Q59 577 62 578T73 577L237 520L234 694Q234 701 236 704T244 707H293Q300 707 302 705T304 694L302
519L467 577Q475 580 477 579T483 570L498 524Q501 514 488 510L322 458L430 321Q435 316 435 313T429 304L392 273Q387 270 384 271T375 278L270 421Z" />
<glyph unicode="+" horiz-adv-x="482" d="M214 109Q208 109 207 110T205 117V274H58Q52 274 51 276T50 282V330Q50 335 51 336T58 338H205V495Q205 500 206 501T214 503H265Q269 503 270 502T272 494V338L424 337Q429 337 430 336T432 329V280Q432 276 431 275T424
273L272 274V116Q272 111 270 110T263 109H214Z" />
<glyph unicode="," horiz-adv-x="208" d="M153 28Q153 10 145 -14T126 -63T106 -102Q103 -107 98 -108Q91 -108 82 -108T63 -108Q60 -107 60 -105T62 -96Q66 -87 72 -72T83 -39T92 -10Q75 -9 68 2T60 27Q60 46 70 57T106 68Q127 68 140 60T153 28Z" />
<glyph unicode="-" horiz-adv-x="410" d="M69 244Q63 244 62 246T60 253V301Q60 307 61 308T69 310H341Q347 310 348 309T350 301V251Q350 247 349 246T341 244H69Z" />
<glyph unicode="." horiz-adv-x="187" d="M142 28Q142 8 133 -2T94 -12Q67 -12 56 -2T45 28Q45 48 56 58T94 68Q124 68 133 58T142 28Z" />
<glyph unicode="/" horiz-adv-x="556" d="M121 9Q119 5 116 3T107 0H43Q39 0 39 3T40 10L461 700Q464 705 466 706T473 707H534Q541 707 541 704T534 689L121 9Z" />
<glyph unicode="0" horiz-adv-x="542" d="M497 336Q497 264 486 202T447 92T377 19T271 -7Q208 -7 165 19T95 91T57 200T45 336Q45 410 57 472T95 581T164 654T271 680Q334 680 377 654T447 580T485 471T497 336ZM401 336Q401 466 369 536T270 606Q203 606 172
537T140 336Q140 205 171 136T270 66Q337 66 369 136T401 336Z" />
<glyph unicode="1" horiz-adv-x="338" d="M181 0Q172 0 172 9V564Q172 573 163 568L57 508Q47 502 42 510L15 557Q10 566 19 572L186 667Q193 671 196 672T205 673H253Q263 673 263 663V9Q263 0 254 0H181Z" />
<glyph unicode="2" horiz-adv-x="496" d="M45 0Q38 0 36 1T34 9V61Q34 72 42 76Q92 110 146 152T248 245T324 352T354 467Q354 510 337 539T288 583T216 598Q177 598 146 588T94 566T63 551Q49 546 49 555V616Q49 622 51 625T61 632Q75 640 100 651T157 670T225
678Q279 678 329 657T411 590T443 470Q443 410 421 356T360 253T273 160T173 78Q171 76 172 74T176 72H438Q446 72 446 65V9Q446 3 445 2T435 0H45Z" />
<glyph unicode="3" horiz-adv-x="487" d="M219 -5Q184 -5 150 4T86 30T37 70Q33 75 33 79T37 88L69 128Q78 138 87 129Q114 102 147 88T217 73Q259 73 288 91T332 138T347 195Q347 223 332 251T284 298T203 317Q197 317 191 317T177 317Q173 317 170 320T166 330V379Q166
392 177 392Q184 392 194 392T217 392Q255 393 281 409T321 451T335 502Q335 528 322 550T283 587T218 601Q185 601 149 586T88 550Q76 538 68 551L40 601Q37 605 39 610T43 617Q72 640 104 653T167 672T224 678Q288 678 331 654T396 592T418 511Q418 461 393 421T323
361Q311 357 311 355Q311 354 325 349Q375 332 405 293T435 196Q435 146 410 100T336 24T219 -5Z" />
<glyph unicode="4" horiz-adv-x="505" d="M314 0Q305 0 305 9V170Q305 180 295 180H31Q22 180 22 189V234Q22 240 25 246T31 255L309 663Q313 669 316 671T324 673H382Q391 673 391 664V259Q391 249 401 249H465Q472 249 472 242V187Q472 180 465 180H401Q391
180 391 170V9Q391 0 382 0H314ZM128 249H295Q305 249 305 259V526Q305 531 303 531T299 528L123 260Q119 255 121 252T128 249Z" />
<glyph unicode="5" horiz-adv-x="485" d="M200 -5Q179 -5 153 -1T100 14T50 41Q46 44 44 48T44 55L77 109Q80 115 84 114T93 111Q122 94 146 87T199 79Q224 79 251 87T301 114T338 159T352 224Q352 266 334 297T281 346T198 364Q184 364 166 363T129 359T95 350Q85
347 81 348T77 358V661Q77 667 79 670T89 673H376Q381 673 383 672T385 665V608Q385 599 376 599H162Q154 599 154 591V438Q154 433 156 431T164 429Q176 431 187 431T207 431Q286 431 337 405T414 333T440 229Q440 158 406 105T318 23T200 -5Z" />
<glyph unicode="6" horiz-adv-x="551" d="M279 -12Q218 -11 164 20T75 120T40 300Q40 366 61 433T123 556T226 645T372 679Q380 679 396 678T427 673Q433 672 438 669T443 654Q443 642 443 631T443 607Q443 599 441 597T431 598Q425 599 413 601T385 603T353 600T322
589Q281 585 247 563T187 508T146 435T128 356Q127 348 129 346T137 352Q161 384 206 405T302 426Q360 426 400 408T466 360T504 293T516 217Q516 160 488 107T407 21T279 -12ZM279 67Q327 67 360 88T410 144T427 215Q428 249 413 279T367 328T289 347Q256 347
225 332T169 294T130 247Q130 213 141 181T172 123T220 82T279 67Z" />
<glyph unicode="7" horiz-adv-x="465" d="M125 0Q116 0 114 1T111 9Q115 45 129 96T163 206T205 321Q226 377 249 429T292 523T325 593Q326 597 324 598T314 601H31Q26 601 24 602T22 607V665Q22 671 24 672T32 673H432Q436 673 437 672T439 665V630Q439 623 434
613Q419 589 396 543T345 435T288 300Q269 248 251 195T219 93T204 8Q203 3 199 2T191 0H125Z" />
<glyph unicode="8" horiz-adv-x="505" d="M252 -6Q193 -6 143 20T63 90T33 190Q33 249 61 291T133 354Q140 357 142 361T141 367Q104 382 84 415T64 498Q64 549 89 589T158 654T252 678Q305 678 347 654T416 590T442 498Q442 446 422 414T368 364Q367 362 368
359T375 354Q419 332 446 292T473 190Q473 135 443 91T363 20T252 -6ZM253 403Q280 403 303 414T341 446T356 498Q356 525 343 547T305 582T252 595Q224 595 201 582T163 547T149 498Q149 469 164 448T203 415T253 403ZM252 75Q291 75 321 91T369 133T387 192Q387
231 369 258T320 301T254 316Q220 317 189 303T138 260T119 192Q119 160 136 134T184 91T252 75Z" />
<glyph unicode="9" horiz-adv-x="547" d="M246 242Q170 242 123 272T55 350T35 452Q36 508 64 560T145 646T274 679Q327 679 369 659T443 601T490 512T507 394Q508 322 488 251T426 122T319 28T163 -8Q156 -8 141 -7T108 -2Q101 -1 96 3T91 17L92 65Q92 73 94
74T105 74Q119 70 135 69T161 68Q216 68 259 89T332 140Q352 161 367 189T393 245T410 295T419 326Q390 287 343 265T246 242ZM273 600Q225 601 192 579T141 522T124 451Q124 416 137 387T180 339T257 320Q307 320 348 349T416 422Q415 488 395 527T343 583T273
600Z" />
<glyph unicode=":" horiz-adv-x="218" d="M157 28Q157 8 148 -2T108 -12Q82 -12 71 -2T60 28Q60 48 71 58T108 68Q139 68 148 58T157 28ZM157 443Q157 423 148 413T108 402Q82 402 71 412T60 443Q60 463 71 473T108 483Q139 483 148 473T157 443Z" />
<glyph unicode=";" horiz-adv-x="223" d="M163 443Q163 423 154 413T113 403Q87 403 76 413T65 443Q65 463 76 473T113 484Q144 484 153 474T163 443ZM160 28Q160 10 153 -15T134 -63T113 -102Q111 -107 105 -108Q98 -108 89 -108T70 -108Q67 -107 67 -105T70
-96Q74 -87 79 -72T91 -39T100 -10Q82 -9 75 2T68 27Q68 46 78 57T113 68Q135 68 147 60T160 28Z" />
<glyph unicode="&lt;" horiz-adv-x="456" d="M59 274Q55 276 53 279T50 288V333Q50 338 53 340T61 345L387 497Q398 503 402 501T406 493V442Q406 438 403 436T392 430L137 308L391 189Q399 185 402 183T406 175V126Q406 113 390 119L59 274Z" />
<glyph unicode="=" horiz-adv-x="484" d="M58 361Q52 361 51 363T50 370V416Q50 422 51 424T59 426H425Q430 426 432 425T434 417V369Q434 365 433 363T425 361H58ZM58 174Q52 174 51 176T50 183V229Q50 235 51 236T59 238H425Q430 238 432 237T434 229V181Q434
177 433 176T425 174H58Z" />
<glyph unicode="&gt;" horiz-adv-x="436" d="M55 119Q48 115 44 117T40 126V175Q40 180 43 182T54 188L309 308L53 429Q40 435 40 441V492Q40 498 43 500T58 497L384 344Q390 342 393 340T396 333V288Q396 281 393 278T386 274L55 119Z" />
<glyph unicode="?" horiz-adv-x="451" d="M125 171Q118 171 117 174T115 186Q115 236 122 270T144 330T178 374T225 413Q239 423 255 435T285 460T307 490T314 526Q313 562 286 581T214 601Q173 601 139 591T85 571Q77 568 75 567T70 574L53 624Q51 630 56 634T67
642Q95 657 135 665T210 674Q296 674 347 634T399 523Q399 475 381 447T336 400T285 365Q251 341 231 316T201 259T192 183Q192 176 191 174T186 171H125ZM106 29Q106 49 117 59T154 70Q183 70 192 60T201 29Q201 9 192 -1T154 -11Q128 -11 117 -1T106 29Z" />
<glyph unicode="@" horiz-adv-x="842" d="M45 328Q45 400 73 464T152 578T274 656T430 685Q531 685 601 660T714 591T777 494T797 384Q797 335 784 290T746 209T687 154T608 133Q572 133 551 150T519 192T506 242Q506 245 506 247T504 250T499 240Q486 213 467
189T421 150T362 135Q308 135 274 161T225 229T215 322Q222 383 251 434T327 517T434 549Q490 549 529 536T600 502Q610 496 612 488T610 469Q606 454 601 438T592 407Q585 384 578 356T567 298T563 245T574 206T603 191Q637 191 663 220T704 296T719 393Q719 436
704 478T655 554T566 608T429 629Q361 629 305 605T207 539T144 444T121 329Q121 266 142 214T204 123T301 65T427 43Q513 43 589 55T724 96Q732 101 737 103T748 109Q755 113 758 112T765 106L785 76Q790 70 787 66T777 56Q771 53 766 50T752 44Q697 15 619 1T429
-14Q343 -13 273 11T151 80T73 187T45 328ZM518 435Q521 445 524 453T523 466Q505 475 486 479T441 484Q398 484 367 456T317 387T296 305Q294 276 299 252T318 213T358 197Q385 197 405 217T442 268Q458 295 478 340T518 435Z" />
<glyph unicode="A" horiz-adv-x="552" d="M41 0Q34 0 33 4T34 22Q40 69 54 134T87 272T128 419T173 555T217 660Q220 666 224 669T233 673H319Q324 672 328 670T336 660Q356 619 379 556T424 419T465 271T498 132T518 23Q521 9 520 5T511 0H440Q435 0 433 3T428
18Q424 44 417 79T403 148Q402 154 400 155T391 157H161Q155 157 153 156T149 147Q142 114 135 79T124 18Q122 6 120 3T112 0H41ZM180 229H371Q376 229 378 232T378 244Q359 318 339 394T292 538Q290 545 284 545H268Q263 545 260 538Q247 503 231 453T200 348T173
240Q172 236 173 233T180 229Z" />
<glyph unicode="B" horiz-adv-x="527" d="M482 187Q482 119 456 78T385 18T286 0H85Q75 0 75 9V664Q75 673 85 673H236Q284 673 325 669T398 649T447 600T464 508Q464 477 456 447T432 393T391 357Q386 355 386 351T392 344Q430 328 456 285T482 187ZM386 189Q386
240 370 266T324 301T252 310H173Q167 310 167 304V72Q167 69 168 68T173 66H273Q290 66 309 70T346 86T375 123T386 189ZM369 505Q369 551 351 573T302 601T226 607H173Q167 607 167 600V388Q167 382 173 382H262Q299 382 322 396T357 438T369 505Z" />
<glyph unicode="C" horiz-adv-x="456" d="M422 25Q422 9 402 3Q389 -2 369 -4T331 -8T302 -9Q188 -9 118 78T48 335Q48 507 115 593T302 680Q312 680 330 679T369 675T402 668Q412 665 417 661T422 650V590Q422 571 403 584Q387 594 363 600T311 607Q262 607 229
587T177 530T150 447T142 349Q142 314 145 275T159 199T188 130T237 81T311 63Q340 63 364 69T401 84Q414 92 418 91T422 78V25Z" />
<glyph unicode="D" horiz-adv-x="580" d="M532 347Q532 259 515 198T470 98T408 38T341 8T281 0H85Q75 0 75 9V664Q75 673 85 673H281Q313 673 348 667T416 643T475 588T516 494T532 347ZM442 347Q442 437 426 488T385 564T332 594T280 601H175Q169 601 168 600T167
594V79Q167 75 168 74T174 72H263Q289 72 319 81T378 118T424 201T442 347Z" />
<glyph unicode="E" horiz-adv-x="449" d="M85 0Q75 0 75 9V664Q75 673 85 673H406Q414 673 415 672T417 663V612Q417 604 415 603T406 601H174Q169 601 168 600T167 593V383Q167 378 168 377T174 375H361Q369 375 370 373T372 362V316Q372 308 371 306T361 303H174Q169
303 168 302T167 296V81Q167 76 168 74T174 72H404Q414 72 415 70T417 59V13Q417 4 415 2T404 0H85Z" />
<glyph unicode="F" horiz-adv-x="435" d="M85 0Q75 0 75 9V664Q75 673 85 673H406Q414 673 415 672T417 663V612Q417 604 415 603T406 601H174Q169 601 168 600T167 593V383Q167 378 168 377T174 375H355Q363 375 365 373T367 362V316Q367 308 365 306T355 303H174Q169
303 168 302T167 296V13Q167 4 165 2T153 0H85Z" />
<glyph unicode="G" horiz-adv-x="564" d="M504 26Q504 13 489 6T449 -3T397 -6Q221 -6 130 78T38 325Q38 435 79 514T193 635T355 678Q388 678 423 676T481 666Q492 662 496 660T500 648V597Q500 584 495 581T482 582Q457 596 430 601T371 606Q339 606 298 594T220
551T159 467T135 332Q135 247 158 195T219 114T296 76T372 65Q407 65 413 77V296Q413 302 411 303T404 305H268Q262 305 260 307T258 315V366Q258 372 260 374T268 377H489Q500 377 502 375T504 361V26Z" />
<glyph unicode="H" horiz-adv-x="610" d="M99 0Q95 0 91 1T85 9Q81 43 78 96T73 213T70 342Q70 406 72 467T78 579T87 664Q88 668 92 670T100 673Q117 673 135 673T172 673Q178 673 178 664Q173 612 170 559T166 461T163 387Q163 379 164 377T173 375Q239 375
305 375T437 375Q442 375 445 377T448 387Q447 414 445 459T440 558T432 664Q433 673 439 673Q457 673 475 673T511 673Q514 673 518 671T523 664Q529 630 533 579T539 466T540 341Q540 275 538 212T533 96T525 9Q525 3 521 2T512 0Q494 0 476 0T439 0Q434 0 434
9Q439 45 442 85T446 164T448 237T449 293Q449 300 447 301T438 303Q372 303 306 303T172 303Q166 303 164 302T162 293Q162 269 162 235T164 163T168 85T176 9Q177 0 171 0Q153 0 135 0T99 0Z" />
<glyph unicode="I" horiz-adv-x="242" d="M166 9Q166 0 157 0H85Q75 0 75 9V664Q75 673 85 673H157Q166 673 166 664V9Z" />
<glyph unicode="J" horiz-adv-x="308" d="M237 176Q237 107 224 69T180 15T98 -1L23 0Q16 0 8 2T0 11V62Q0 72 9 71Q23 71 43 70T78 69Q114 69 130 87T146 158V664Q146 673 155 673H228Q232 673 234 671T237 664V176Z" />
<glyph unicode="K" horiz-adv-x="538" d="M79 0Q75 0 75 4Q75 171 75 337T75 669Q75 673 79 673Q82 673 94 673T121 673T148 673T163 673Q167 673 167 669Q167 631 167 598T167 533T167 467T167 395Q167 392 167 390T172 387H229Q234 387 237 390T243 397Q263
435 279 468T312 531T346 593T383 664Q386 669 388 671T395 673Q398 673 410 673T436 673T461 673T476 673Q483 673 483 669T477 652Q449 602 424 555T374 460T324 359Q320 350 319 344T318 332Q319 307 328 279T351 221T383 167T420 124Q441 105 466 94T522 82Q524
82 527 81T530 78V5Q530 0 527 0Q474 0 436 11T363 50Q342 67 323 92T288 148T259 209T240 269Q238 277 234 279T228 282Q214 282 200 282T172 282Q172 282 170 281T167 275Q167 236 167 204T167 140T167 76T167 4Q167 0 163 0Q160 0 148 0T121 0T94 0T79 0Z" />
<glyph unicode="L" horiz-adv-x="428" d="M85 0Q75 0 75 9V664Q75 673 85 673H155Q162 673 164 671T166 662V81Q166 76 167 74T174 72H404Q413 72 414 70T416 59V13Q416 4 414 2T403 0H85Z" />
<glyph unicode="M" horiz-adv-x="713" d="M82 0Q70 0 70 11Q70 93 73 183T81 362T94 529T109 664Q110 669 111 671T118 673H164Q172 673 175 671T180 665L349 374Q352 368 356 368T364 373L532 663Q535 669 538 671T549 673H592Q602 673 603 661Q610 606 617 530T630
365T639 186T642 14Q642 6 640 3T629 0H562Q552 0 552 12Q552 51 551 98T548 198T543 300T537 396T531 478Q530 485 526 485T519 480L380 249Q376 243 368 243H342Q334 243 329 251L194 477Q191 483 187 482T182 475Q178 430 174 377T167 263T163 138T161 6Q161
0 155 0H82Z" />
<glyph unicode="N" horiz-adv-x="641" d="M463 194Q465 190 469 190T475 196Q477 230 478 275T479 370T478 473T473 573T464 663Q464 673 470 673H543Q547 673 551 671T555 664Q562 628 565 576T570 461T571 333T568 206T563 93T555 9Q555 3 551 2T541 0H493Q487
0 481 11L176 483Q175 487 172 487T167 482Q165 434 164 382T163 278T164 176T168 84T175 10Q176 0 169 0H98Q93 0 89 1T84 9Q80 43 77 94T73 208T71 335T72 462T77 577T87 664Q88 668 92 670T99 673H147Q153 673 157 666L463 194Z" />
<glyph unicode="O" horiz-adv-x="631" d="M48 334Q48 445 71 521T151 637T314 676Q396 676 448 654T530 588T571 481T583 334Q583 251 572 188T531 81T449 15T314 -7Q209 -7 152 32T71 147T48 334ZM143 334Q143 230 161 173T216 93T313 70Q372 70 411 92T469 171T488
334Q488 439 469 497T411 578T313 601Q254 601 217 578T161 497T143 334Z" />
<glyph unicode="P" horiz-adv-x="488" d="M451 460Q451 396 429 343T362 258T252 226H175Q170 226 169 224T167 217V9Q167 0 157 0H85Q75 0 75 9V664Q75 673 85 673H241Q352 673 401 621T451 460ZM167 303Q167 295 174 295H242Q299 295 330 338T362 459Q361 540
331 573T239 607H174Q170 607 169 606T167 598V303Z" />
<glyph unicode="Q" horiz-adv-x="631" d="M48 333Q48 444 71 520T152 636T314 676Q396 676 448 654T530 588T571 481T583 333Q583 239 568 170T513 59T401 1Q394 -1 387 -2T373 -5Q363 -6 363 -14Q363 -52 372 -74T404 -107T467 -117H502Q512 -117 512 -128V-170Q512
-176 510 -178T501 -183Q498 -184 484 -184T457 -185Q387 -185 347 -166T289 -108T270 -15Q270 -11 268 -9T259 -5Q253 -4 245 -3T226 3Q157 18 118 60T64 170T48 333ZM143 334Q143 230 161 173T216 93T313 70Q372 70 411 92T469 171T488 334Q488 439 469 497T411
578T313 601Q254 601 217 578T161 497T143 334Z" />
<glyph unicode="R" horiz-adv-x="537" d="M85 0Q75 0 75 9V664Q75 673 85 673H237Q313 673 360 655T429 593T451 475Q451 414 428 365T355 292Q343 283 339 275T341 253Q349 227 361 200T390 149T427 111Q445 98 466 90T514 82Q521 82 523 80T526 71V9Q526 5 525
3T517 1T497 0Q457 0 424 12T364 46Q338 67 316 98T276 166T249 240Q248 244 245 250T233 257H174Q167 257 167 245V9Q167 0 157 0H85ZM167 339Q167 334 169 333T175 331H241Q299 331 330 366T361 475Q361 530 347 558T305 596T233 607H174Q170 607 169 606T167
598V339Z" />
<glyph unicode="S" d="M55 30V89Q55 95 59 95T70 91Q90 85 114 79T163 70T205 66Q270 66 302 101T335 191Q335 241 306 269T217 313Q189 320 158 330T100 360T56 412T38 498Q38 562 67 601T143 659T246 677Q269 677 294 674T343 664T385 649Q392 648 393 645T395
637V584Q395 566 373 578Q350 590 320 598T252 607Q197 607 164 580T130 505Q130 471 145 450T184 416T235 396T289 380Q335 366 366 346T413 290T430 198Q430 130 403 85T325 15T206 -9Q177 -9 139 -2T69 15Q61 17 58 20T55 30Z" />
<glyph unicode="T" horiz-adv-x="442" d="M184 0Q180 0 177 2T174 9V593Q174 598 173 599T167 601H31Q24 601 22 602T20 610V665Q20 670 22 671T30 673H410Q418 673 420 671T422 664V610Q422 604 420 603T410 601H274Q269 601 267 600T265 593V9Q265 0 256 0H184Z" />
<glyph unicode="U" horiz-adv-x="634" d="M317 -7Q234 -7 186 12T115 61T83 120T73 174Q69 215 67 263T65 355Q66 404 68 458T74 565T86 663Q86 667 89 670T97 673Q114 673 131 673T165 673Q171 673 172 671T172 657Q168 617 165 574T160 485Q156 406 156 331T162
186Q164 163 171 142T194 103T239 76T315 65Q361 65 390 75T437 103T461 142T470 186Q476 254 476 328T472 480Q470 527 467 571T459 657Q459 669 460 671T467 673Q485 673 502 673T537 673Q543 673 545 670T549 663Q556 618 560 566T567 460T569 358Q570 313 569
265T562 174Q560 156 555 133T537 85T497 40T427 6T317 -7Z" />
<glyph unicode="V" horiz-adv-x="546" d="M236 0Q231 1 227 3T220 12Q199 54 176 117T131 253T90 400T57 539T37 650Q35 663 36 668T44 673H114Q120 673 122 670T127 655Q132 620 141 576T162 484T187 388T214 295T241 214Q247 197 253 173T267 131Q270 126 272
126T277 131Q285 148 292 172T304 214Q317 250 330 294T357 387T383 484T404 576T418 655Q421 667 423 670T431 673H502Q509 673 510 668T509 650Q503 606 489 542T456 403T414 254T370 116T327 13Q323 6 319 4T310 0H236Z" />
<glyph unicode="W" horiz-adv-x="834" d="M231 0Q217 0 212 12Q190 54 167 117T122 253T81 402T48 544T27 660Q26 666 27 669T35 673Q37 673 46 673T68 673T91 673T105 673Q112 673 114 671T117 663Q123 623 136 560T171 409Q187 346 201 294T229 202T253 133Q255
129 256 127T260 124Q262 124 263 124T265 124Q268 124 269 126T272 133Q280 152 290 181T311 244T333 312T352 377T366 429Q367 461 367 499T365 572T363 632T362 661Q362 667 363 670T370 674Q373 674 383 674T406 674T428 674T442 674Q448 674 450 672T452 663Q452
618 455 573T464 488T476 419Q489 347 511 276T559 136Q562 129 563 127T567 124Q569 124 570 124T573 124Q575 124 578 131Q587 151 600 190T629 283T661 401Q673 445 681 480T696 545T708 603T719 660Q720 668 722 670T730 673Q733 673 743 673T765 673T788 673T801
673Q813 673 809 658Q801 615 786 550T752 409T712 257T668 118T625 13Q624 9 620 5T609 0Q601 0 587 0T558 0T534 0Q529 0 525 5T519 12Q504 44 487 86T455 177T424 277Q421 287 418 289T410 278Q395 226 383 187T360 116T339 59T318 13Q316 6 311 3T301 0Q293
0 279 0T252 0T231 0Z" />
<glyph unicode="X" horiz-adv-x="534" d="M360 355Q354 346 354 339T361 321Q368 310 374 301T387 282Q414 239 435 198T473 120T500 57T513 16Q516 6 512 3T501 0H428Q424 0 421 2T415 14Q412 23 402 46T378 101T347 167T313 231T282 282Q275 286 268 286T253
282Q236 258 219 226T185 161T154 98T131 45T119 14Q116 6 114 3T106 0H34Q26 0 23 3T21 16Q23 24 36 59T73 147T133 259Q141 273 151 290T172 321Q176 326 176 337T172 355Q140 405 115 452T72 539T43 610T29 656Q27 666 31 669T41 673H112Q118 673 120 671T125
662Q125 662 131 645T148 598T175 534T208 464T247 400Q249 398 251 396T257 391Q262 388 266 389T275 391Q279 394 280 394T284 399Q304 427 322 462T356 532T383 596T401 644T408 662Q410 669 412 671T421 673H492Q498 673 502 670T505 656Q502 640 489 608T456
533T412 445T360 355Z" />
<glyph unicode="Y" horiz-adv-x="502" d="M309 295Q303 287 301 273T298 247V9Q298 5 295 3T289 0H216Q207 0 207 9V246Q207 266 198 286T181 320Q173 330 161 348T137 387T114 425T98 452Q71 505 53 549T25 621T14 656Q11 666 15 669T27 673H97Q106 673 109 662Q114
645 125 617T151 555T181 492Q194 465 208 440T241 390Q247 381 251 380T262 389Q271 401 281 416T301 449T319 481Q334 512 349 547T377 614T393 663Q395 669 397 671T406 673H478Q483 673 487 670T489 656Q488 650 479 622T453 549T407 453Q401 440 389 420T364
377T336 333T309 295Z" />
<glyph unicode="Z" horiz-adv-x="458" d="M414 673Q419 673 420 671T422 661V622Q422 608 410 589T381 550Q354 519 323 475T261 380T201 275T151 169T115 72H435Q443 72 445 70T447 62V9Q447 3 445 2T436 0H41Q27 0 23 8T21 32Q23 71 38 120T79 224T136 334T199
439T260 531T311 601H40Q33 601 31 603T29 610V664Q29 669 31 671T40 673H414Z" />
<glyph unicode="[" horiz-adv-x="353" d="M277 -103Q277 -113 270 -113H56Q50 -113 48 -110T45 -101V738Q45 748 56 748H267Q274 748 275 747T277 741V697Q277 693 275 692T268 690H132V-54H268Q273 -54 275 -55T277 -62V-103Z" />
<glyph unicode="\" horiz-adv-x="562" d="M464 0Q458 0 455 3T447 11L38 686Q29 699 30 703T38 707H95Q102 707 104 706T111 698L529 12Q533 8 533 4T525 0H464Z" />
<glyph unicode="]" horiz-adv-x="353" d="M83 -113Q75 -113 75 -103V-62Q75 -57 77 -56T85 -54H220V690H85Q81 690 78 691T75 697V741Q75 746 77 747T86 748H298Q308 748 308 738V-101Q308 -107 306 -110T297 -113H83Z" />
<glyph unicode="^" horiz-adv-x="593" d="M58 410Q49 410 46 413T48 421L247 698Q250 702 254 704T269 707H329Q336 707 339 705T346 696L543 423Q551 415 548 413T536 410H468Q464 410 461 412T453 420L297 641L141 421Q136 415 133 413T121 410H58Z" />
<glyph unicode="_" horiz-adv-x="560" d="M23 -92Q18 -92 17 -90T15 -83V-49Q15 -43 17 -41T24 -39H537Q542 -39 543 -40T545 -48V-85Q545 -89 544 -90T535 -92H23Z" />
<glyph unicode="`" horiz-adv-x="145" d="M95 529Q86 529 78 537L1 626Q-1 629 0 632T5 635H74Q81 635 84 634T91 626L141 539Q148 529 139 529H95Z" />
<glyph unicode="a" horiz-adv-x="478" d="M232 -8Q182 -8 140 3T71 47T45 140Q45 191 63 224T110 274T171 299T231 306Q258 306 284 304T328 298Q341 295 341 315Q341 368 314 390T230 412Q192 412 158 400T101 374Q93 370 90 371T86 379L79 422Q78 431 79 434T87
441Q111 457 149 467T232 477Q297 477 335 462T393 422T419 364T427 295Q427 247 427 206T425 124T419 42Q417 33 413 28T395 16Q381 10 360 6T315 -2T270 -6T232 -8ZM237 50Q246 50 260 51T290 56T317 66T330 81Q333 109 335 146T336 215Q336 232 324 237Q311
242 286 244T233 247Q219 247 202 243T169 228T143 196T133 140Q133 110 146 90T182 60T237 50Z" />
<glyph unicode="b" horiz-adv-x="478" d="M233 -6Q182 -6 142 3T90 16Q76 21 69 25T60 37T54 59Q51 77 49 114T45 195T43 275Q42 388 46 498T61 699Q61 704 64 706T73 708H138Q149 708 149 704T149 691Q147 674 145 651T140 601T137 549T135 505T134 474Q134 465
138 463T150 462Q163 466 189 471T239 476Q273 476 307 465T370 427T415 351T433 226Q433 105 380 50T233 -6ZM231 63Q263 63 288 78T328 130T343 228Q343 284 333 318T306 370T269 394T231 401Q220 401 203 398T170 391T147 385Q142 384 139 381T135 370Q134 351
134 320T134 251T136 172T140 95Q141 87 143 83T150 77Q163 72 184 68T231 63Z" />
<glyph unicode="c" horiz-adv-x="401" d="M240 -6Q178 -6 138 12T76 64T44 141T35 235Q35 282 44 325T76 403T138 458T239 478Q281 478 312 470T366 443Q372 437 373 434T375 425V371Q375 364 371 364T362 367Q340 388 310 396T249 405Q214 405 190 391T152 351T131
296T124 234Q124 182 136 144T175 84T245 63Q273 63 297 69T346 87Q358 93 364 82L382 43Q385 37 384 34T377 27Q352 10 316 2T240 -6Z" />
<glyph unicode="d" horiz-adv-x="492" d="M43 230Q44 306 62 353T109 427T173 464T242 474Q266 474 289 471T326 463Q336 461 340 461T345 471Q345 488 345 512T343 561T340 611T337 655T335 682Q333 693 336 695T345 698H412Q416 698 419 697T423 690Q427 644
429 589T433 474T435 354T435 237T431 131T423 44Q421 36 417 30T395 18Q372 8 332 0T245 -8Q204 -8 169 2T109 34Q76 62 59 111T43 230ZM133 229Q133 162 148 128T190 81Q207 68 232 65T282 64T327 76Q331 79 334 82T337 90Q339 114 340 144T342 207T344 270T345
326T345 367Q345 376 342 379T333 384Q313 390 289 394T247 398Q230 398 210 392T173 369T145 319T133 229Z" />
<glyph unicode="e" horiz-adv-x="463" d="M38 237Q38 284 47 327T79 404T141 458T241 478Q304 478 341 460T398 412T424 346T430 274Q430 235 422 225T398 214H137Q133 214 130 212T127 201Q128 160 142 128T186 78T260 59Q294 59 328 68T382 89Q392 94 397 95T408
85L424 55Q428 48 426 45T416 36Q383 15 337 5T242 -6Q179 -6 140 12T78 64T47 142T38 237ZM340 288Q340 322 332 349T302 392T239 409Q209 409 188 398T155 368T136 329T128 287Q127 275 128 272T138 268H325Q334 268 337 271T340 288Z" />
<glyph unicode="f" horiz-adv-x="346" d="M99 10Q96 44 93 91T89 191T86 297T85 395Q85 405 77 405H23Q18 405 16 407T14 414V462Q14 468 16 470T24 472H78Q83 472 84 473T85 482Q85 533 90 572T117 644Q141 678 183 695T286 712Q316 712 341 704T376 690Q385
684 387 681T388 672L375 633Q373 626 371 625T363 627Q351 634 331 640T284 645Q244 645 217 628T183 567Q176 547 175 526T174 481Q174 476 175 474T182 472H323Q329 472 331 471T333 461V415Q333 409 331 407T322 405H183Q178 405 176 403T173 395Q173 345 174
288T178 177T182 79T185 10Q186 3 185 1T179 -1H108Q105 -1 103 1T99 10Z" />
<glyph unicode="g" horiz-adv-x="484" d="M38 242Q38 309 56 362T120 447T248 478Q287 478 325 472T392 454Q411 448 416 438T423 405Q432 329 433 232T422 32Q411 -54 360 -94T218 -134Q182 -134 140 -124T63 -88Q58 -84 56 -79T57 -69Q60 -63 66 -52T77 -35Q81
-27 85 -27T95 -30Q109 -39 129 -47T172 -61T214 -67Q239 -67 263 -59T305 -32T329 22Q329 24 329 25T330 28Q331 35 327 37T314 38Q298 34 277 31T233 27Q174 27 130 52T61 125T38 242ZM130 254Q130 208 140 172T175 116T243 95Q263 95 282 97T317 106Q337 114
339 131Q341 156 341 190T341 260T339 326T335 376Q335 382 332 391T320 404Q309 410 289 413T245 416Q202 416 177 396T141 339T130 254Z" />
<glyph unicode="h" horiz-adv-x="464" d="M50 9Q50 181 50 354T50 699Q50 708 60 708Q77 708 95 708T130 708Q139 708 139 699Q139 643 139 586T139 471Q139 464 142 462T151 462Q169 467 194 472T245 477Q285 477 317 466T371 427T405 353T419 239Q420 199 418
157T413 77T405 8Q405 3 402 2T391 0Q376 0 361 0T330 0Q319 0 318 2T318 17Q323 61 325 111T329 210Q329 265 323 302T303 363T270 398T226 409Q210 409 191 406T155 397Q148 396 144 391T139 374V9Q139 0 130 0H60Q50 0 50 9Z" />
<glyph unicode="i" horiz-adv-x="205" d="M153 602Q153 580 144 569T105 557Q76 557 66 568T55 602Q55 622 65 633T105 645Q137 645 145 634T153 602ZM149 9Q149 0 141 0H70Q61 0 61 9V463Q61 472 70 472H141Q149 472 149 463V9Z" />
<glyph unicode="j" horiz-adv-x="205" d="M-88 -69L-72 -39Q-68 -33 -65 -33T-56 -36Q-30 -47 -6 -47Q33 -46 50 -21T67 54V463Q67 472 76 472H146Q156 472 156 463V54Q156 -23 126 -66T15 -110Q-7 -110 -30 -106T-70 -94Q-81 -88 -87 -83T-88 -69ZM160 602Q160
580 151 569T111 557Q82 557 72 568T62 602Q62 622 72 633T111 645Q143 645 151 634T160 602Z" />
<glyph unicode="k" horiz-adv-x="438" d="M60 4V689Q60 693 64 693H145Q149 693 149 689V302Q149 300 150 297T153 293Q165 293 175 294T196 296Q205 299 209 302T220 314Q238 337 252 361T279 411T301 462Q305 470 308 471T320 472H391Q398 472 398 469T397 461Q396
458 388 440T365 393T332 335T292 277Q288 273 285 270T279 262Q281 261 284 259T288 255Q305 237 323 208T359 144T390 80T412 30T422 8Q426 0 419 0Q416 0 405 0T379 0T353 0T338 0Q334 0 333 0T329 7Q329 7 322 22T303 62T278 112T251 162T226 200Q222 208 214
214T192 224T153 224Q149 223 149 213V4Q149 0 145 0H64Q60 0 60 4Z" />
<glyph unicode="l" horiz-adv-x="210" d="M60 9V699Q60 708 70 708H139Q149 708 149 699V9Q149 0 139 0H70Q60 0 60 9Z" />
<glyph unicode="m" horiz-adv-x="737" d="M71 0Q60 0 60 9V421Q60 434 65 439T80 449Q95 455 119 461T170 471T220 476Q276 476 310 461T369 418Q384 436 405 449T449 469T497 476Q573 476 614 446T671 366T687 252Q687 201 685 157T680 76T674 8Q673 3 671 2T665
0H595Q589 0 588 2T587 13Q589 35 590 74T593 161T595 256Q595 279 591 305T575 354T543 391T493 405Q457 405 437 388T417 339Q417 289 417 247T417 167T417 91T417 11Q417 0 406 0H336Q328 0 328 8V253Q328 298 318 332T285 385T221 405Q205 405 191 402T164
394Q149 389 149 373V11Q149 0 139 0H71Z" />
<glyph unicode="n" horiz-adv-x="481" d="M71 0Q60 0 60 9Q60 115 60 220T60 431Q60 439 65 443T87 453Q100 457 125 463T180 473T235 478Q314 478 356 448T414 367T430 253Q430 209 429 165T425 82T419 16Q418 4 415 2T402 0H346Q336 0 333 2T330 14Q330 20 332
46T336 110T339 185T340 254Q340 307 329 340T294 389T233 405Q214 405 197 402T166 394Q159 393 154 388T149 368Q149 315 149 256T149 134T149 9Q149 0 141 0H71Z" />
<glyph unicode="o" horiz-adv-x="496" d="M248 -6Q165 -6 119 25T56 111T38 237Q38 307 57 361T123 447T248 478Q327 478 373 447T438 362T458 237Q458 167 441 112T378 26T248 -6ZM247 63Q314 63 340 108T367 236Q367 317 338 361T247 405Q186 405 157 361T127
236Q127 153 154 108T247 63Z" />
<glyph unicode="p" horiz-adv-x="490" d="M66 -103Q63 -50 62 26T60 203Q61 239 61 280T64 362T71 432Q72 440 76 446T97 456Q125 466 165 473T255 480Q352 480 402 424T452 246Q452 198 443 156T414 82T366 30T298 3Q280 -1 256 -2T208 -3T169 1Q162 3 158 3T153
-3Q153 -11 153 -27T153 -61T154 -94Q155 -103 155 -107T143 -112H79Q73 -112 70 -110T66 -103ZM152 100Q152 92 156 89T165 85Q184 79 207 76T249 72Q267 72 286 79T323 104T351 156T362 246Q362 340 332 375T253 411Q229 411 207 408T168 397Q163 395 160 392T157
384Q155 360 154 329T153 265T152 199T151 141T152 100Z" />
<glyph unicode="q" horiz-adv-x="482" d="M177 3Q150 9 124 24T77 67T45 139T36 246Q41 367 94 423T244 480Q294 480 333 473T402 456Q417 452 421 446T426 432Q429 406 429 365T428 274T425 171T420 66T414 -29T407 -103Q406 -107 403 -109T394 -112H329Q318
-112 318 -108T319 -94Q321 -80 322 -62T324 -27T324 -3Q324 3 320 3T307 1Q279 -3 244 -3T177 3ZM126 246Q124 191 133 157T158 104T194 80T231 73Q248 73 273 76T319 85Q324 86 327 89T330 100Q331 115 332 141T335 199T336 264T337 329T337 384Q338 389 336
392T327 397Q310 404 288 407T243 411Q193 411 162 376T126 246Z" />
<glyph unicode="r" horiz-adv-x="330" d="M210 477Q275 477 320 459Q326 456 328 453T329 445L317 399Q315 393 313 392T304 393Q286 399 265 401T228 404Q212 404 197 402T171 396T154 390Q149 387 144 383T139 365V14Q139 5 136 3T127 0H59Q56 0 53 2T50 12V418Q50
433 54 438T67 447Q96 461 136 469T210 477Z" />
<glyph unicode="s" horiz-adv-x="399" d="M41 93Q42 100 46 99T56 95Q72 86 96 79T144 68T187 64Q213 64 235 71T271 96T285 139Q285 171 260 185T177 208Q140 214 108 227T55 266T35 335Q35 382 59 413T123 461T208 477Q244 477 286 467T354 440Q360 436 360
434T359 426L343 379Q340 369 329 375Q309 388 275 398T208 409Q170 409 146 390T121 343Q121 312 146 299T219 279Q250 274 276 267T324 245T356 208T368 148Q368 104 352 75T308 28T249 3T184 -5Q168 -5 141 -1T85 11T38 32Q34 35 32 37T31 44L41 93Z" />
<glyph unicode="t" horiz-adv-x="336" d="M225 0Q161 0 130 27T90 103Q81 145 81 191T80 285Q80 317 81 345T83 404Q83 413 75 413H27Q22 413 20 415T18 423V462Q18 468 20 470T28 472H77Q83 472 84 475T86 485L91 567Q91 576 99 576H168Q172 576 175 574T178
567L174 485Q173 477 174 475T181 472H288Q295 472 296 471T298 461V423Q298 418 296 416T287 413H181Q176 413 174 411T171 401Q170 371 169 340T167 277Q167 238 168 198T178 120Q184 94 198 82T243 69Q256 69 269 72T294 80Q303 85 305 84T310 75L323 33Q326
27 322 23T305 14Q294 10 279 7T250 2T225 0Z" />
<glyph unicode="u" horiz-adv-x="483" d="M249 -4Q171 -4 129 26T70 107T53 220Q53 264 54 308T59 391T64 456Q65 468 68 470T82 472H137Q147 472 151 471T153 458Q153 452 152 427T148 366T145 291T144 216Q144 145 168 107T250 68Q257 68 271 69T300 73T325
82T335 98V460Q335 464 336 468T341 472H413Q416 472 419 471T423 463V49Q423 37 417 32T390 19Q380 16 356 11T303 1T249 -4Z" />
<glyph unicode="v" horiz-adv-x="408" d="M178 0Q171 0 168 6Q143 48 124 95T88 190Q60 270 44 336T19 452Q15 472 26 472H99Q104 472 107 469T112 461Q115 428 124 386T146 294Q161 238 175 195T202 124Q205 117 209 117T215 124Q225 144 237 181T263 268Q276
323 287 377T302 465Q303 472 309 472H386Q392 472 391 465Q383 408 367 339T324 195Q309 149 289 101T243 6Q240 0 235 0H178Z" />
<glyph unicode="w" horiz-adv-x="633" d="M162 12Q134 67 111 127T69 247T39 358T19 449Q17 460 18 466T26 472H99Q110 472 112 461Q117 431 125 392T144 312T166 233T187 165T206 120Q208 114 210 115T214 118Q225 136 234 163T251 222T263 280T268 323Q268 337
268 356T268 395T267 432T267 460Q267 472 277 472H351Q355 472 358 470T362 461Q362 437 362 401T365 316Q366 302 371 280T383 234T398 187T414 146T426 118Q431 108 436 118Q444 135 454 165T476 233T496 310T514 389T527 459Q529 472 543 472H607Q613 472 614
467T614 451Q609 409 595 352T562 232T520 112T472 12Q469 5 466 3T458 0H403Q398 0 396 1T390 9Q379 28 367 55T343 110T325 159Q318 179 310 159Q306 146 300 129T286 95T272 63Q265 49 258 34T245 9Q243 5 239 3T230 0H178Q171 0 169 1T162 12Z" />
<glyph unicode="x" horiz-adv-x="401" d="M22 0Q17 0 16 4T15 14T16 23Q17 30 24 51T45 102T77 167T117 237Q120 242 120 246T115 256Q92 288 75 324T45 393T26 445T19 466Q18 472 23 472H104Q109 472 111 471T116 461Q118 454 125 431T144 378T168 323T196 284Q201
284 205 284T214 284Q229 297 242 322T267 376T285 428T293 459Q295 467 298 469T310 472H372Q375 472 378 471T381 462Q380 455 374 434T357 384T329 322T289 256Q282 249 290 238Q315 203 333 167T363 99T381 46T389 20Q391 11 390 6T382 0H318Q310 0 307 2T301
13Q298 23 290 48T271 103T245 160T214 202Q208 202 207 202T203 202T195 202Q177 178 162 146T134 83T116 32T109 11Q107 3 104 2T95 0H22Z" />
<glyph unicode="y" horiz-adv-x="416" d="M148 81Q126 116 106 163T70 262T42 364T23 458Q21 472 32 472H101Q108 472 112 469T117 454Q120 432 126 401T141 333T162 262T184 197T205 148Q209 141 213 141T218 146Q230 172 243 210T270 293T292 380T307 459Q308
467 311 469T322 472H383Q390 472 393 470T395 457Q390 420 382 385T364 314T340 238Q329 205 313 159T273 65T217 -26T143 -95T46 -122Q27 -122 13 -120T-13 -113Q-28 -106 -22 -94L-5 -58Q-2 -52 1 -52T11 -53Q33 -57 58 -50T104 -27Q123 -15 133 -3T152 25Q158
37 157 52T148 81Z" />
<glyph unicode="z" horiz-adv-x="367" d="M25 23Q33 81 59 138T122 254Q146 294 171 329T220 391Q223 395 223 397T217 402H56Q51 402 49 403T46 411V462Q46 470 48 471T57 472H329Q338 472 339 470T340 459V417Q340 412 336 404T323 390Q303 373 281 347T239
292T200 234Q175 192 154 153T121 84Q120 80 121 75T131 70H330Q336 70 337 68T339 59V9Q339 3 336 2T326 0H37Q30 0 28 3T25 23Z" />
<glyph unicode="{" horiz-adv-x="425" d="M350 -96Q350 -106 347 -110T333 -114H262Q213 -114 189 -96T159 -50T152 3V190Q152 216 142 237T114 271Q106 277 92 282T55 288Q48 288 47 292T45 302V352Q45 357 48 359T60 361Q101 361 126 387T152 458V630Q152 656
158 682T189 727T262 746H341Q347 746 348 744T350 739V695Q350 692 349 690T341 688H289Q258 688 250 672T242 630V458Q242 431 231 404T199 357T150 327Q147 326 145 325T143 322Q147 321 153 318T166 310Q200 293 221 259T242 190V3Q242 -23 250 -39T289 -55H333Q342
-55 346 -58T350 -71V-96Z" />
<glyph unicode="|" horiz-adv-x="273" d="M173 707Q180 707 181 704T183 694V-104Q183 -107 181 -110T173 -114H102Q96 -114 94 -111T91 -97V696Q91 702 93 704T101 707H173Z" />
<glyph unicode="}" horiz-adv-x="425" d="M75 -96V-71Q75 -61 79 -58T93 -55H137Q167 -55 174 -39T182 3V190Q182 224 203 258T260 310Q265 314 272 317T283 322Q282 323 280 324T275 327Q247 337 226 357T194 404T182 458V630Q182 656 175 672T137 688H84Q78
688 77 690T75 695V739Q75 742 76 744T84 746H164Q214 746 236 728T266 683T273 630V458Q273 414 298 388T365 361Q373 361 376 359T380 352V302Q380 297 379 293T371 288Q348 288 334 283T312 271Q294 259 284 238T273 190V3Q273 -23 266 -50T237 -95T164 -114H93Q82
-114 79 -110T75 -96Z" />
<glyph unicode="~" horiz-adv-x="495" d="M443 590Q420 567 391 552T328 536Q303 536 282 544T242 562T205 580T167 588Q153 588 138 580T109 559T89 537Q87 533 85 533T77 537L49 566Q45 569 46 573T48 580Q58 595 75 611T115 640T162 653Q181 653 200 647T236
633T270 618T305 608Q317 605 334 607T370 618T402 638Q405 641 408 642T415 640L446 609Q451 604 450 599T443 590Z" />
<glyph unicode="&#xa0;" horiz-adv-x="238" />
<glyph unicode="&#xa1;" horiz-adv-x="238" d="M148 256Q153 256 154 255T156 245L167 -186Q167 -190 166 -192T159 -195H77Q69 -195 69 -187L81 245Q81 252 83 254T92 256H148ZM74 449Q74 469 83 479T121 489Q148 489 158 479T169 449Q169 429 159 419T121 408Q92
408 83 418T74 449Z" />
<glyph unicode="&#xa2;" horiz-adv-x="469" d="M265 73Q203 73 163 91T101 143T69 221T60 315Q60 362 69 405T101 484T163 539T264 559Q306 559 337 550T391 523Q397 517 398 514T400 505V452Q400 445 396 445T387 448Q365 469 335 477T274 485Q239 485 215 470T177
430T156 375T149 314Q149 262 161 224T200 164T270 143Q299 143 323 149T372 167Q384 173 389 162L407 122Q409 116 408 113T402 107Q377 89 341 81T265 73ZM303 114V-74Q303 -77 301 -80T292 -84H222Q216 -84 213 -81T210 -67V114H303ZM210 511V696Q210 702 212
704T221 707H293Q300 707 301 704T303 694V511H210Z" />
<glyph unicode="&#xa3;" horiz-adv-x="529" d="M360 -13Q325 -13 294 -4T223 14Q200 20 177 22T132 21Q117 19 95 16T55 8Q47 5 43 6T38 15Q38 26 38 37T38 59Q38 65 40 69T50 76Q94 94 119 119T155 180T161 258Q138 258 115 258T68 258Q61 258 58 260T54 267Q54
278 54 288T54 308Q54 317 56 319T63 322Q84 322 104 322T145 322Q125 380 112 430T98 514Q98 555 120 592T184 652T288 675Q304 675 325 672T369 664T406 652Q411 650 412 645T413 635Q413 623 413 611T413 587Q413 580 412 579T400 581Q375 591 345 599T297 607Q259
607 236 594T201 560T190 514Q190 477 203 431T233 322Q262 322 291 322T349 322Q353 322 354 319T356 308Q356 298 356 288T356 268Q356 262 355 260T347 258Q321 258 295 258T244 258Q244 253 244 248T245 238Q247 193 236 156T196 85Q232 81 259 74T311 61T362
55Q389 55 415 62T457 78Q468 83 468 70V32Q468 21 466 17T461 11Q441 -2 416 -7T360 -13Z" />
<glyph unicode="&#xa4;" horiz-adv-x="529" d="M95 148L65 176Q61 181 60 184T63 190L146 269Q138 284 133 300T128 336Q128 355 133 372T147 404L75 473Q71 476 72 479T78 486L109 517Q113 520 115 520T120 517L191 449Q207 459 225 464T264 470Q305 470 338
449L409 517Q413 520 415 520T420 517L452 486Q456 483 457 480T455 473L382 404Q392 390 397 373T402 336Q402 299 383 269L466 190Q470 187 469 184T464 176L434 148Q430 144 427 144T420 148L338 224Q306 203 264 203Q223 203 190 224L110 148Q106 144 103 144T95
148ZM184 336Q184 302 207 280T264 257Q299 257 322 279T345 336Q345 370 322 392T264 415Q230 415 207 393T184 336Z" />
<glyph unicode="&#xa5;" horiz-adv-x="546" d="M331 295Q325 287 323 273T320 247V9Q320 5 317 3T311 0H238Q229 0 229 9V246Q229 266 220 286T203 320Q195 330 183 348T159 387T136 425T120 452Q93 505 75 549T47 621T36 656Q33 666 37 669T49 673H119Q128 673
131 662Q136 645 147 617T173 555T203 492Q216 465 231 440T263 390Q269 381 273 380T284 389Q293 401 303 416T323 449T341 481Q356 512 371 547T399 614T415 663Q417 669 419 671T428 673H500Q505 673 509 670T511 656Q510 650 501 622T475 549T429 453Q423 440
411 420T386 377T358 333T331 295ZM102 233Q96 233 95 235T93 241V275Q93 281 95 283T103 285H440Q445 285 447 283T449 276V240Q449 236 448 235T439 233H102ZM102 131Q96 131 95 133T93 140V173Q93 179 95 180T103 182H440Q445 182 447 181T449 173V138Q449 134
448 133T439 131H102Z" />
<glyph unicode="&#xa6;" horiz-adv-x="273" d="M183 286V-104Q183 -107 181 -110T173 -114H102Q96 -114 94 -111T91 -97V286H183ZM91 360V696Q91 702 93 704T101 707H173Q180 707 181 704T183 694V360H91Z" />
<glyph unicode="&#xa7;" horiz-adv-x="532" d="M63 -194V-141Q63 -136 66 -136T76 -138Q94 -145 116 -150T161 -158T199 -161Q257 -161 286 -129T316 -48Q316 -12 301 9T262 42T209 63Q185 69 157 78T104 105T63 152T47 230Q47 287 72 330T142 398T241 422Q257
422 282 419T333 409T378 394Q385 392 387 389T389 380V325Q389 305 365 318Q352 325 331 331T288 342T247 346Q213 346 185 333T140 297T123 243Q125 209 140 189T176 157T222 138T271 124Q297 116 321 104T363 74T391 28T402 -42Q402 -104 377 -145T307 -207T199
-229Q173 -229 139 -223T76 -207Q69 -205 66 -203T63 -194ZM168 98L167 151Q167 154 171 156T182 158T192 156Q223 138 251 133T305 129Q356 130 385 158T414 240Q414 272 400 290T361 320T309 339Q284 345 257 354T204 380T164 427T149 504Q149 560 175 595T243
647T334 663Q348 663 370 661T417 652T458 639Q463 637 465 635T468 628V581Q468 564 447 575Q434 581 415 587T375 597T339 600Q291 600 261 576T230 510Q230 479 244 460T279 430T325 412T373 398Q407 388 435 371T481 325T499 244Q499 180 474 140T405 82T308
64Q277 64 246 68T181 84Q174 87 171 89T168 98Z" />
<glyph unicode="&#xa8;" horiz-adv-x="240" d="M89 573Q89 555 81 546T46 536Q22 536 13 545T3 573Q3 592 12 601T46 611Q72 611 80 602T89 573ZM236 573Q236 555 228 546T192 536Q169 536 159 545T149 573Q149 592 159 601T192 611Q219 611 227 602T236 573Z" />
<glyph unicode="&#xa9;" horiz-adv-x="866" d="M60 333Q60 406 89 470T169 584T288 661T433 689Q510 689 577 661T696 584T777 471T806 333Q806 259 777 194T697 80T578 2T433 -26Q356 -26 288 2T169 79T89 194T60 333ZM131 333Q131 272 154 219T219 125T315 62T433
38Q496 38 550 61T646 125T711 218T734 333Q734 393 711 446T647 539T551 601T433 624Q371 624 316 602T220 539T155 446T131 333ZM258 336Q258 401 283 443T354 507T458 529Q475 529 498 527T543 519Q549 518 553 516T558 510V472Q558 463 541 470Q523 476 503
479T466 483Q424 483 395 467T349 419T333 339Q333 290 350 251T402 192T491 180Q505 181 519 185T542 193Q552 198 555 197T559 190V158Q559 152 556 149T545 144Q534 141 517 139T488 135Q420 126 368 147T287 217T258 336Z" />
<glyph unicode="&#xaa;" horiz-adv-x="478" d="M232 -8Q182 -8 140 3T71 47T45 140Q45 191 63 224T110 274T171 299T231 306Q258 306 284 304T328 298Q341 295 341 315Q341 368 314 390T230 412Q192 412 158 400T101 374Q93 370 90 371T86 379L79 422Q78 431 79
434T87 441Q111 457 149 467T232 477Q297 477 335 462T393 422T419 364T427 295Q427 247 427 206T425 124T419 42Q417 33 413 28T395 16Q381 10 360 6T315 -2T270 -6T232 -8ZM237 50Q246 50 260 51T290 56T317 66T330 81Q333 109 335 146T336 215Q336 232 324 237Q311
242 286 244T233 247Q219 247 202 243T169 228T143 196T133 140Q133 110 146 90T182 60T237 50Z" />
<glyph unicode="&#xab;" horiz-adv-x="559" d="M402 158Q397 158 394 161Q360 203 327 244T260 327Q250 337 260 346Q293 387 326 428T394 511Q396 514 398 514T402 515Q419 515 441 515T479 515Q484 515 483 513T480 508Q479 507 465 490T431 446T391 395T357
353T343 336Q343 336 357 319T390 277T430 227T465 184T480 165Q482 164 483 161T479 158Q463 158 441 158T402 158ZM193 158Q188 158 185 161Q151 203 118 244T51 327Q41 337 51 346Q84 387 117 428T185 511Q187 514 189 514T193 515Q210 515 232 515T270 515Q275
515 274 513T271 508Q270 507 256 490T222 446T182 395T148 353T134 336Q134 336 148 319T181 277T221 227T256 184T271 165Q273 164 274 161T270 158Q254 158 232 158T193 158Z" />
<glyph unicode="&#xac;" horiz-adv-x="680" d="M582 104Q576 104 575 105T573 112V291H58Q52 291 51 293T50 299V342Q50 347 51 349T59 351H621Q626 351 628 350T630 343V112Q630 107 628 106T621 104H582Z" />
<glyph unicode="&#xad;" horiz-adv-x="410" d="M69 244Q63 244 62 246T60 253V301Q60 307 61 308T69 310H341Q347 310 348 309T350 301V251Q350 247 349 246T341 244H69Z" />
<glyph unicode="&#xae;" horiz-adv-x="696" d="M348 190Q292 190 243 210T156 265T97 346T75 445Q75 499 96 545T155 625T242 680T348 700Q424 700 485 666T583 574T620 445Q620 393 599 347T541 265T454 210T348 190ZM348 239Q409 239 459 267T538 342T568 445Q568
503 539 549T459 623T348 651Q288 651 238 624T158 550T128 445Q128 389 158 342T238 267T348 239ZM267 313Q262 313 262 316V581Q262 584 267 584H338Q392 584 417 565T442 499Q442 474 430 455T394 426Q389 422 387 419T388 411Q394 396 401 384T421 364Q430
358 441 355T464 351Q468 351 469 351T470 347V318Q470 316 469 315T457 314Q436 314 422 318T394 331Q376 344 360 363T341 404Q340 406 339 408T333 411H312Q309 411 309 406V316Q309 313 304 313H267ZM309 448Q309 444 313 444H341Q369 444 383 457T397 498Q397
531 383 542T337 554H312Q309 554 309 550V448Z" />
<glyph unicode="&#xaf;" horiz-adv-x="220" d="M220 543Q220 541 219 540T212 539H7Q2 539 1 540T0 545V589Q0 594 1 595T7 596H212Q217 596 218 595T220 590V543Z" />
<glyph unicode="&#xb0;" horiz-adv-x="395" d="M60 692Q60 729 78 759T128 808T197 826Q236 826 267 808T316 760T335 692Q335 655 317 625T267 576T197 558Q160 558 129 576T79 624T60 692ZM116 692Q116 658 139 635T197 612Q232 612 254 635T277 692Q277 725
255 747T197 770Q163 770 140 748T116 692Z" />
<glyph unicode="&#xb1;" horiz-adv-x="461" d="M204 154Q199 154 197 155T195 162V292H58Q53 292 52 294T50 300V342Q50 347 52 349T59 351H195V481Q195 485 196 487T204 489H254Q258 489 259 488T261 480V351L403 350Q407 350 409 348T411 341V298Q411 295 410
293T403 291L261 292V161Q261 156 259 155T253 154H204ZM60 43Q53 43 52 45T50 52V92Q50 98 51 99T61 101H400Q406 101 408 100T411 93V50Q411 46 409 45T399 43H60Z" />
<glyph unicode="&#xb2;" horiz-adv-x="346" d="M40 250Q35 250 34 251T32 257V296Q32 305 38 309Q71 329 106 356T171 414T221 480T240 550Q240 586 218 607T153 628Q127 628 105 621T69 606T46 596Q39 593 39 600V648Q39 652 40 654T48 661Q63 669 94 680T161
691Q199 691 233 677T289 632T312 552Q312 516 298 483T260 420T206 363T143 311Q140 309 141 307T144 305H308Q313 305 313 301V257Q313 252 312 251T305 250H40Z" />
<glyph unicode="&#xb3;" horiz-adv-x="341" d="M155 247Q117 247 84 261T27 300Q24 304 24 307T27 314L53 344Q60 353 68 345Q86 328 108 319T154 309Q180 309 197 319T224 346T234 380Q234 404 212 428T143 452Q138 452 134 452T123 452Q114 452 114 462V500Q114
510 123 510Q128 510 138 510T154 510Q187 511 206 530T226 573Q226 595 208 612T153 630Q132 630 109 621T67 595Q58 587 53 597L29 636Q27 640 29 644T33 649Q65 673 98 682T158 691Q202 691 232 676T277 635T292 581Q292 547 274 521T228 484Q223 482 222 482T220
481Q220 480 222 480T229 478Q262 468 283 444T304 380Q304 347 287 317T236 267T155 247Z" />
<glyph unicode="&#xb4;" horiz-adv-x="144" d="M7 528Q0 528 0 530T4 539L62 629Q66 635 78 635H138Q143 635 144 633T141 625L65 533Q62 530 59 529T51 528H7Z" />
<glyph unicode="&#xb5;" horiz-adv-x="530" d="M80 -112Q73 -112 70 -109T65 -97Q65 -65 65 -24T64 61T63 142Q62 164 61 184T60 220Q60 264 62 308T66 390T71 455Q72 467 75 469T90 472H147Q156 472 158 470T160 458Q160 450 159 425T155 364T152 286T151 206Q151
133 177 101T261 68Q300 68 321 80T342 110V460Q342 467 344 469T352 472H421Q425 472 427 470T430 461V117Q430 88 440 77T469 65Q479 65 488 68T502 75Q514 82 518 71L531 29Q535 19 520 12Q504 4 490 0T453 -4Q437 -4 418 2T385 22T366 58L394 51Q370 25 334
11T257 -4Q210 -4 174 14T122 68L144 75Q146 54 147 32T150 -14Q151 -29 152 -46T154 -77T155 -97Q156 -105 154 -108T142 -112H80Z" />
<glyph unicode="&#xb6;" horiz-adv-x="527" d="M237 309Q229 309 221 309T204 310Q165 313 136 329T86 372T55 430T45 493Q45 543 64 583T124 648T229 673Q292 673 354 673T480 673Q486 673 489 672T492 664V623Q492 615 491 613T484 611Q475 611 466 611T448
611Q448 535 448 448T448 269T448 91T448 -72Q448 -78 447 -79T441 -80H385Q378 -80 377 -79T375 -72Q375 3 375 90T375 267T375 444T375 606Q375 610 370 611Q357 611 344 611T317 611Q312 610 312 606V-72Q312 -78 311 -79T305 -80H243Q240 -80 239 -79T237 -72V309Z"
/>
<glyph unicode="&#xb7;" horiz-adv-x="298" d="M182 280Q182 260 173 250T134 240Q107 240 96 250T85 280Q85 300 96 310T134 320Q164 320 173 310T182 280Z" />
<glyph unicode="&#xb8;" horiz-adv-x="198" d="M178 -123Q178 -152 154 -174T88 -197Q59 -197 38 -186T4 -159Q0 -153 0 -147T6 -139L25 -129Q33 -126 36 -127T41 -132Q48 -142 59 -149T83 -156Q104 -156 113 -145T123 -122Q123 -107 113 -99T87 -88T55 -85Q48
-84 45 -79T46 -67L83 -6Q86 -1 89 0T98 2H121Q132 2 127 -7L98 -71L85 -52Q127 -55 152 -72T178 -123Z" />
<glyph unicode="&#xb9;" horiz-adv-x="189" d="M79 250Q72 250 72 257V603Q72 608 67 605L1 571Q-1 570 -4 570T-10 572L-31 609Q-35 617 -28 621L86 684Q90 686 92 686T100 687H137Q145 687 145 680V257Q145 250 138 250H79Z" />
<glyph unicode="&#xba;" horiz-adv-x="496" d="M248 -6Q165 -6 119 25T56 111T38 237Q38 307 57 361T123 447T248 478Q327 478 373 447T438 362T458 237Q458 167 441 112T378 26T248 -6ZM247 63Q314 63 340 108T367 236Q367 317 338 361T247 405Q186 405 157 361T127
236Q127 153 154 108T247 63Z" />
<glyph unicode="&#xbb;" horiz-adv-x="571" d="M301 158Q296 158 297 161T300 165Q301 166 315 183T349 226T389 277T422 319T436 336Q436 336 423 353T390 395T350 446T315 489T300 508Q299 510 298 512T301 515Q316 515 338 515T378 515Q380 515 381 515T386
511Q420 470 453 429T520 346Q531 337 520 327Q487 286 454 245T386 161Q382 158 378 158Q361 158 339 158T301 158ZM80 158Q74 158 75 161T78 165Q79 166 93 183T128 226T168 277T201 319T215 336Q215 336 202 353T169 395T129 446T94 489T78 508Q77 510 76 512T80
515Q95 515 117 515T157 515Q159 515 160 515T165 511Q198 470 231 429T299 346Q309 337 299 327Q265 286 232 245T165 161Q161 158 157 158Q139 158 117 158T80 158Z" />
<glyph unicode="&#xbc;" horiz-adv-x="776" d="M174 245Q168 245 168 251V625Q168 631 163 628L91 587Q84 584 81 589L63 621Q59 627 66 631L178 695Q183 697 185 698T191 699H223Q230 699 230 692V251Q230 245 224 245H174ZM602 -2Q596 -2 596 4V115Q596 122
589 122H408Q401 122 401 128V158Q401 163 403 167T408 173L598 453Q601 457 603 458T609 460H648Q654 460 654 453V175Q654 168 661 168H706Q710 168 710 164V127Q710 122 706 122H661Q654 122 654 115V4Q654 -2 649 -2H602ZM474 168H589Q596 168 596 175V359Q596
362 595 362T592 360L470 176Q468 172 469 170T474 168ZM170 0Q163 0 163 3T165 11L561 692Q564 698 566 699T574 700H614Q621 700 623 697T618 680L228 11Q225 6 222 3T212 0H170Z" />
<glyph unicode="&#xbd;" horiz-adv-x="834" d="M160 0Q153 0 153 3T155 11L551 692Q554 698 556 699T564 700H604Q611 700 613 697T608 680L219 11Q215 6 212 3T202 0H160ZM174 245Q168 245 168 251V625Q168 631 163 628L91 587Q84 584 81 589L63 621Q59 627 66
631L178 695Q183 697 185 698T191 699H223Q230 699 230 692V251Q230 245 224 245H174ZM497 0Q492 0 491 1T490 6V40Q490 48 495 50Q528 72 564 100T631 162T681 232T701 309Q701 337 690 356T658 385T610 395Q584 395 564 388T529 374T509 364Q499 361 499 367V407Q499
411 500 413T507 418Q516 423 533 430T571 443T616 448Q652 448 684 434T738 390T760 311Q760 271 745 235T705 167T648 106T581 52Q580 50 580 49T584 48H757Q761 48 761 43V6Q761 1 761 1T755 0H497Z" />
<glyph unicode="&#xbe;" horiz-adv-x="809" d="M635 -2Q629 -2 629 4V115Q629 122 622 122H441Q434 122 434 128V158Q434 163 436 167T441 173L631 453Q634 457 636 458T642 460H681Q687 460 687 453V175Q687 168 694 168H739Q743 168 743 164V127Q743 122 739
122H694Q687 122 687 115V4Q687 -2 682 -2H635ZM507 168H622Q629 168 629 175V359Q629 362 628 362T625 360L503 176Q501 172 502 170T507 168ZM168 253Q146 253 124 259T82 276T50 302Q47 305 47 308T50 313L70 339Q76 346 82 340Q100 322 121 313T167 304Q195
304 214 316T242 346T252 383Q252 401 242 420T211 451T158 463Q154 463 150 463T141 463Q138 463 136 465T134 471V503Q134 511 141 511Q146 511 152 511T167 511Q192 512 209 523T235 550T244 584Q244 600 236 614T211 639T168 649Q146 649 123 639T82 615Q75
608 70 616L51 648Q50 651 51 654T53 658Q73 673 93 681T134 694T171 698Q213 698 241 683T284 642T298 589Q298 557 282 531T236 491Q228 489 228 488Q228 487 237 484Q270 472 289 447T309 383Q309 351 293 321T245 272T168 253ZM197 0Q189 0 189 3T192 11L588
692Q591 698 593 699T601 700H640Q648 700 649 697T645 680L255 11Q252 6 249 3T239 0H197Z" />
<glyph unicode="&#xbf;" horiz-adv-x="451" d="M327 307Q334 307 335 304T336 292Q336 242 329 208T308 148T273 104T227 65Q213 55 197 43T166 18T144 -12T137 -48Q138 -83 166 -103T237 -123Q278 -123 312 -113T366 -93Q375 -89 377 -88T382 -96L398 -146Q401
-152 396 -156T385 -164Q356 -179 316 -187T241 -196Q156 -196 105 -156T53 -45Q53 3 71 32T116 79T166 113Q201 137 221 162T250 219T259 295Q259 302 260 304T265 307H327ZM345 449Q345 429 335 419T297 408Q268 408 259 418T250 449Q250 469 259 479T297 489Q324
489 334 479T345 449Z" />
<glyph unicode="&#xc0;" horiz-adv-x="552" d="M41 0Q34 0 33 4T34 22Q40 69 54 134T87 272T128 419T173 555T217 660Q220 666 224 669T233 673H319Q324 672 328 670T336 660Q356 619 379 556T424 419T465 271T498 132T518 23Q521 9 520 5T511 0H440Q435 0 433
3T428 18Q424 44 417 79T403 148Q402 154 400 155T391 157H161Q155 157 153 156T149 147Q142 114 135 79T124 18Q122 6 120 3T112 0H41ZM180 229H371Q376 229 378 232T378 244Q359 318 339 394T292 538Q290 545 284 545H268Q263 545 260 538Q247 503 231 453T200
348T173 240Q172 236 173 233T180 229ZM278 718Q273 718 270 720T261 726L171 800Q169 802 170 805T175 809H244Q251 809 254 807T261 800L325 729Q329 725 329 722T323 718H278Z" />
<glyph unicode="&#xc1;" horiz-adv-x="552" d="M41 0Q34 0 33 4T34 22Q40 69 54 134T87 272T128 419T173 555T217 660Q220 666 224 669T233 673H319Q324 672 328 670T336 660Q356 619 379 556T424 419T465 271T498 132T518 23Q521 9 520 5T511 0H440Q435 0 433
3T428 18Q424 44 417 79T403 148Q402 154 400 155T391 157H161Q155 157 153 156T149 147Q142 114 135 79T124 18Q122 6 120 3T112 0H41ZM180 229H371Q376 229 378 232T378 244Q359 318 339 394T292 538Q290 545 284 545H268Q263 545 260 538Q247 503 231 453T200
348T173 240Q172 236 173 233T180 229ZM273 718H228Q222 718 222 721T226 729L290 800Q294 805 297 807T307 809H376Q379 809 381 806T380 800L290 726Q285 723 282 721T273 718Z" />
<glyph unicode="&#xc2;" horiz-adv-x="552" d="M41 0Q34 0 33 4T34 22Q40 69 54 134T87 272T128 419T173 555T217 660Q220 666 224 669T233 673H319Q324 672 328 670T336 660Q356 619 379 556T424 419T465 271T498 132T518 23Q521 9 520 5T511 0H440Q435 0 433
3T428 18Q424 44 417 79T403 148Q402 154 400 155T391 157H161Q155 157 153 156T149 147Q142 114 135 79T124 18Q122 6 120 3T112 0H41ZM180 229H371Q376 229 378 232T378 244Q359 318 339 394T292 538Q290 545 284 545H268Q263 545 260 538Q247 503 231 453T200
348T173 240Q172 236 173 233T180 229ZM175 717Q171 717 171 719T171 725L243 805Q247 810 251 810H300Q305 810 309 805L381 725Q383 722 382 720T377 717H338Q334 717 331 718T324 723L282 760Q277 764 272 760L228 722Q225 720 223 719T216 717H175Z" />
<glyph unicode="&#xc3;" horiz-adv-x="552" d="M41 0Q34 0 33 4T34 22Q40 69 54 134T87 272T128 419T173 555T217 660Q220 666 224 669T233 673H319Q324 672 328 670T336 660Q356 619 379 556T424 419T465 271T498 132T518 23Q521 9 520 5T511 0H440Q435 0 433
3T428 18Q424 44 417 79T403 148Q402 154 400 155T391 157H161Q155 157 153 156T149 147Q142 114 135 79T124 18Q122 6 120 3T112 0H41ZM180 229H371Q376 229 378 232T378 244Q359 318 339 394T292 538Q290 545 284 545H268Q263 545 260 538Q247 503 231 453T200
348T173 240Q172 236 173 233T180 229ZM181 719Q176 719 176 725Q176 758 192 779T237 800Q252 800 267 791T294 772T315 762Q321 762 325 768T330 786Q330 793 334 793H371Q377 793 377 786Q377 757 360 735T316 713Q298 713 284 722T258 741T238 750Q231 750
227 743T222 725Q222 719 217 719H181Z" />
<glyph unicode="&#xc4;" horiz-adv-x="552" d="M41 0Q34 0 33 4T34 22Q40 69 54 134T87 272T128 419T173 555T217 660Q220 666 224 669T233 673H319Q324 672 328 670T336 660Q356 619 379 556T424 419T465 271T498 132T518 23Q521 9 520 5T511 0H440Q435 0 433
3T428 18Q424 44 417 79T403 148Q402 154 400 155T391 157H161Q155 157 153 156T149 147Q142 114 135 79T124 18Q122 6 120 3T112 0H41ZM180 229H371Q376 229 378 232T378 244Q359 318 339 394T292 538Q290 545 284 545H268Q263 545 260 538Q247 503 231 453T200
348T173 240Q172 236 173 233T180 229ZM246 773Q246 755 238 746T203 736Q179 736 170 745T160 773Q160 792 169 801T203 811Q229 811 237 802T246 773ZM393 773Q393 755 385 746T349 736Q326 736 316 745T306 773Q306 792 316 801T349 811Q376 811 384 802T393
773Z" />
<glyph unicode="&#xc5;" horiz-adv-x="552" d="M41 0Q34 0 33 4T34 22Q40 69 54 134T87 272T128 419T173 555T217 660Q220 666 224 669T233 673H319Q324 672 328 670T336 660Q356 619 379 556T424 419T465 271T498 132T518 23Q521 9 520 5T511 0H440Q435 0 433
3T428 18Q424 44 417 79T403 148Q402 154 400 155T391 157H161Q155 157 153 156T149 147Q142 114 135 79T124 18Q122 6 120 3T112 0H41ZM180 229H371Q376 229 378 232T378 244Q359 318 339 394T292 538Q290 545 284 545H268Q263 545 260 538Q247 503 231 453T200
348T173 240Q172 236 173 233T180 229ZM363 792Q363 755 343 733T276 711Q228 711 209 733T189 792Q189 829 208 851T276 873Q323 873 343 851T363 792ZM320 795Q320 809 312 819T277 829Q248 829 241 819T233 795Q233 781 240 768T278 755Q307 755 313 768T320
795Z" />
<glyph unicode="&#xc6;" horiz-adv-x="773" d="M396 0Q387 0 387 9V157H167Q161 157 159 156T155 147Q145 114 136 79T122 18Q120 6 118 3T110 0H39Q32 0 31 4T32 22Q38 69 58 133T108 269T172 414T242 550T310 660Q315 666 319 669T329 673H717Q725 673 726 672T728
663V612Q728 604 726 603T717 601H486Q480 601 479 600T478 593V383Q478 378 479 377T486 375H672Q681 375 682 373T684 362V316Q684 308 682 306T672 303H486Q481 303 480 302T478 296V81Q478 76 479 74T486 72H716Q724 72 726 70T728 59V13Q728 4 726 2T715 0H396ZM387
229V572Q385 578 382 578H363Q360 578 358 577T352 570Q329 535 300 480T240 361T184 240Q183 238 184 234T190 229H387Z" />
<glyph unicode="&#xc7;" horiz-adv-x="456" d="M422 25Q422 9 402 3Q389 -2 369 -4T331 -8T302 -9Q188 -9 118 78T48 335Q48 507 115 593T302 680Q312 680 330 679T369 675T402 668Q412 665 417 661T422 650V590Q422 571 403 584Q387 594 363 600T311 607Q262
607 229 587T177 530T150 447T142 349Q142 314 145 275T159 199T188 130T237 81T311 63Q340 63 364 69T401 84Q414 92 418 91T422 78V25ZM372 -124Q372 -153 348 -175T282 -198Q253 -198 232 -187T198 -160Q194 -154 194 -148T200 -140L219 -130Q227 -127 230 -128T235
-133Q242 -143 253 -150T277 -157Q298 -157 307 -146T317 -123Q317 -108 307 -100T281 -89T249 -86Q242 -85 239 -80T240 -68L277 -7Q280 -2 283 -1T292 1H315Q326 1 321 -8L292 -72L279 -53Q321 -56 346 -73T372 -124Z" />
<glyph unicode="&#xc8;" horiz-adv-x="449" d="M85 0Q75 0 75 9V664Q75 673 85 673H406Q414 673 415 672T417 663V612Q417 604 415 603T406 601H174Q169 601 168 600T167 593V383Q167 378 168 377T174 375H361Q369 375 370 373T372 362V316Q372 308 371 306T361
303H174Q169 303 168 302T167 296V81Q167 76 168 74T174 72H404Q414 72 415 70T417 59V13Q417 4 415 2T404 0H85ZM242 718Q237 718 234 720T225 726L135 800Q133 802 134 805T139 809H208Q215 809 218 807T225 800L289 729Q293 725 293 722T287 718H242Z" />
<glyph unicode="&#xc9;" horiz-adv-x="449" d="M85 0Q75 0 75 9V664Q75 673 85 673H406Q414 673 415 672T417 663V612Q417 604 415 603T406 601H174Q169 601 168 600T167 593V383Q167 378 168 377T174 375H361Q369 375 370 373T372 362V316Q372 308 371 306T361
303H174Q169 303 168 302T167 296V81Q167 76 168 74T174 72H404Q414 72 415 70T417 59V13Q417 4 415 2T404 0H85ZM237 718H192Q186 718 186 721T190 729L254 800Q258 805 261 807T271 809H340Q343 809 345 806T344 800L254 726Q249 723 246 721T237 718Z" />
<glyph unicode="&#xca;" horiz-adv-x="449" d="M85 0Q75 0 75 9V664Q75 673 85 673H406Q414 673 415 672T417 663V612Q417 604 415 603T406 601H174Q169 601 168 600T167 593V383Q167 378 168 377T174 375H361Q369 375 370 373T372 362V316Q372 308 371 306T361
303H174Q169 303 168 302T167 296V81Q167 76 168 74T174 72H404Q414 72 415 70T417 59V13Q417 4 415 2T404 0H85ZM140 717Q136 717 136 719T136 725L208 805Q212 810 216 810H265Q270 810 274 805L346 725Q348 722 347 720T342 717H303Q299 717 296 718T289 723L247
760Q242 764 237 760L193 722Q190 720 188 719T181 717H140Z" />
<glyph unicode="&#xcb;" horiz-adv-x="449" d="M85 0Q75 0 75 9V664Q75 673 85 673H406Q414 673 415 672T417 663V612Q417 604 415 603T406 601H174Q169 601 168 600T167 593V383Q167 378 168 377T174 375H361Q369 375 370 373T372 362V316Q372 308 371 306T361
303H174Q169 303 168 302T167 296V81Q167 76 168 74T174 72H404Q414 72 415 70T417 59V13Q417 4 415 2T404 0H85ZM210 773Q210 755 202 746T167 736Q143 736 134 745T124 773Q124 792 133 801T167 811Q193 811 201 802T210 773ZM357 773Q357 755 349 746T313 736Q290
736 280 745T270 773Q270 792 280 801T313 811Q340 811 348 802T357 773Z" />
<glyph unicode="&#xcc;" horiz-adv-x="242" d="M166 9Q166 0 157 0H85Q75 0 75 9V664Q75 673 85 673H157Q166 673 166 664V9ZM122 718Q117 718 114 720T105 726L15 800Q13 802 14 805T19 809H88Q95 809 98 807T105 800L169 729Q173 725 173 722T167 718H122Z" />
<glyph unicode="&#xcd;" horiz-adv-x="242" d="M166 9Q166 0 157 0H85Q75 0 75 9V664Q75 673 85 673H157Q166 673 166 664V9ZM118 718H73Q67 718 67 721T71 729L135 800Q139 805 142 807T152 809H221Q224 809 226 806T225 800L135 726Q130 723 127 721T118 718Z" />
<glyph unicode="&#xce;" horiz-adv-x="242" d="M166 9Q166 0 157 0H85Q75 0 75 9V664Q75 673 85 673H157Q166 673 166 664V9ZM20 717Q16 717 16 719T16 725L88 805Q92 810 96 810H145Q150 810 154 805L226 725Q228 722 227 720T222 717H183Q179 717 176 718T169
723L127 760Q122 764 117 760L73 722Q70 720 68 719T61 717H20Z" />
<glyph unicode="&#xcf;" horiz-adv-x="242" d="M166 9Q166 0 157 0H85Q75 0 75 9V664Q75 673 85 673H157Q166 673 166 664V9ZM91 773Q91 755 83 746T48 736Q24 736 15 745T5 773Q5 792 14 801T48 811Q74 811 82 802T91 773ZM238 773Q238 755 230 746T194 736Q171
736 161 745T151 773Q151 792 161 801T194 811Q221 811 229 802T238 773Z" />
<glyph unicode="&#xd0;" horiz-adv-x="577" d="M560 347Q560 259 543 198T498 98T436 38T369 8T309 0H113Q103 0 103 9V664Q103 673 113 673H309Q341 673 376 667T444 643T503 588T544 494T560 347ZM470 347Q470 437 454 488T413 564T360 594T308 601H203Q197
601 196 600T195 594V79Q195 75 196 74T202 72H291Q317 72 347 81T406 118T452 201T470 347ZM282 294Q276 294 275 296T273 303V351Q273 357 274 358T282 360H554Q560 360 561 359T563 351V301Q563 297 562 296T554 294H282Z" />
<glyph unicode="&#xd1;" horiz-adv-x="641" d="M463 194Q465 190 469 190T475 196Q477 230 478 275T479 370T478 473T473 573T464 663Q464 673 470 673H543Q547 673 551 671T555 664Q562 628 565 576T570 461T571 333T568 206T563 93T555 9Q555 3 551 2T541 0H493Q487
0 481 11L176 483Q175 487 172 487T167 482Q165 434 164 382T163 278T164 176T168 84T175 10Q176 0 169 0H98Q93 0 89 1T84 9Q80 43 77 94T73 208T71 335T72 462T77 577T87 664Q88 668 92 670T99 673H147Q153 673 157 666L463 194ZM220 719Q215 719 215 725Q215
758 231 779T276 800Q291 800 306 791T333 772T354 762Q360 762 364 768T369 786Q369 793 373 793H410Q416 793 416 786Q416 757 399 735T355 713Q337 713 323 722T297 741T277 750Q270 750 266 743T261 725Q261 719 256 719H220Z" />
<glyph unicode="&#xd2;" horiz-adv-x="631" d="M48 334Q48 445 71 521T151 637T314 676Q396 676 448 654T530 588T571 481T583 334Q583 251 572 188T531 81T449 15T314 -7Q209 -7 152 32T71 147T48 334ZM143 334Q143 230 161 173T216 93T313 70Q372 70 411 92T469
171T488 334Q488 439 469 497T411 578T313 601Q254 601 217 578T161 497T143 334ZM317 718Q312 718 309 720T300 726L210 800Q208 802 209 805T214 809H283Q290 809 293 807T300 800L364 729Q368 725 368 722T362 718H317Z" />
<glyph unicode="&#xd3;" horiz-adv-x="631" d="M48 334Q48 445 71 521T151 637T314 676Q396 676 448 654T530 588T571 481T583 334Q583 251 572 188T531 81T449 15T314 -7Q209 -7 152 32T71 147T48 334ZM143 334Q143 230 161 173T216 93T313 70Q372 70 411 92T469
171T488 334Q488 439 469 497T411 578T313 601Q254 601 217 578T161 497T143 334ZM312 718H267Q261 718 261 721T265 729L329 800Q333 805 336 807T346 809H415Q418 809 420 806T419 800L329 726Q324 723 321 721T312 718Z" />
<glyph unicode="&#xd4;" horiz-adv-x="631" d="M48 334Q48 445 71 521T151 637T314 676Q396 676 448 654T530 588T571 481T583 334Q583 251 572 188T531 81T449 15T314 -7Q209 -7 152 32T71 147T48 334ZM143 334Q143 230 161 173T216 93T313 70Q372 70 411 92T469
171T488 334Q488 439 469 497T411 578T313 601Q254 601 217 578T161 497T143 334ZM215 717Q211 717 211 719T211 725L283 805Q287 810 291 810H340Q345 810 349 805L421 725Q423 722 422 720T417 717H378Q374 717 371 718T364 723L322 760Q317 764 312 760L268
722Q265 720 263 719T256 717H215Z" />
<glyph unicode="&#xd5;" horiz-adv-x="631" d="M48 334Q48 445 71 521T151 637T314 676Q396 676 448 654T530 588T571 481T583 334Q583 251 572 188T531 81T449 15T314 -7Q209 -7 152 32T71 147T48 334ZM143 334Q143 230 161 173T216 93T313 70Q372 70 411 92T469
171T488 334Q488 439 469 497T411 578T313 601Q254 601 217 578T161 497T143 334ZM220 719Q215 719 215 725Q215 758 231 779T276 800Q291 800 306 791T333 772T354 762Q360 762 364 768T369 786Q369 793 373 793H410Q416 793 416 786Q416 757 399 735T355 713Q337
713 323 722T297 741T277 750Q270 750 266 743T261 725Q261 719 256 719H220Z" />
<glyph unicode="&#xd6;" horiz-adv-x="631" d="M48 334Q48 445 71 521T151 637T314 676Q396 676 448 654T530 588T571 481T583 334Q583 251 572 188T531 81T449 15T314 -7Q209 -7 152 32T71 147T48 334ZM143 334Q143 230 161 173T216 93T313 70Q372 70 411 92T469
171T488 334Q488 439 469 497T411 578T313 601Q254 601 217 578T161 497T143 334ZM285 773Q285 755 277 746T242 736Q218 736 209 745T199 773Q199 792 208 801T242 811Q268 811 276 802T285 773ZM432 773Q432 755 424 746T388 736Q365 736 355 745T345 773Q345
792 355 801T388 811Q415 811 423 802T432 773Z" />
<glyph unicode="&#xd7;" horiz-adv-x="489" d="M44 150Q41 155 40 158T42 164L198 311L54 447Q51 450 52 453T57 459L89 491Q93 494 95 494T100 491L244 353L389 491Q392 494 394 494T400 491L431 459Q435 457 436 454T434 447L291 311L446 164Q450 161 449 158T444
150L414 121Q410 117 407 117T399 121L244 268L90 121Q86 117 83 117T74 121L44 150Z" />
<glyph unicode="&#xd8;" horiz-adv-x="630" d="M147 -41Q144 -45 141 -47T132 -50H69Q65 -50 64 -47T66 -40L475 709Q478 715 481 716T488 717H549Q556 717 556 714T549 699L147 -41ZM48 334Q48 445 71 521T152 637T314 676Q396 676 448 654T530 588T571 481T583
334Q583 251 572 188T531 81T449 15T314 -7Q210 -7 152 32T71 147T48 334ZM143 334Q143 230 161 173T216 93T313 70Q372 70 411 92T469 171T488 334Q488 439 469 497T411 578T313 601Q254 601 217 578T161 497T143 334Z" />
<glyph unicode="&#xd9;" horiz-adv-x="634" d="M317 -7Q234 -7 186 12T115 61T83 120T73 174Q69 215 67 263T65 355Q66 404 68 458T74 565T86 663Q86 667 89 670T97 673Q114 673 131 673T165 673Q171 673 172 671T172 657Q168 617 165 574T160 485Q156 406 156
331T162 186Q164 163 171 142T194 103T239 76T315 65Q361 65 390 75T437 103T461 142T470 186Q476 254 476 328T472 480Q470 527 467 571T459 657Q459 669 460 671T467 673Q485 673 502 673T537 673Q543 673 545 670T549 663Q556 618 560 566T567 460T569 358Q570
313 569 265T562 174Q560 156 555 133T537 85T497 40T427 6T317 -7ZM319 718Q314 718 311 720T302 726L212 800Q210 802 211 805T216 809H285Q292 809 295 807T302 800L366 729Q370 725 370 722T364 718H319Z" />
<glyph unicode="&#xda;" horiz-adv-x="634" d="M317 -7Q234 -7 186 12T115 61T83 120T73 174Q69 215 67 263T65 355Q66 404 68 458T74 565T86 663Q86 667 89 670T97 673Q114 673 131 673T165 673Q171 673 172 671T172 657Q168 617 165 574T160 485Q156 406 156
331T162 186Q164 163 171 142T194 103T239 76T315 65Q361 65 390 75T437 103T461 142T470 186Q476 254 476 328T472 480Q470 527 467 571T459 657Q459 669 460 671T467 673Q485 673 502 673T537 673Q543 673 545 670T549 663Q556 618 560 566T567 460T569 358Q570
313 569 265T562 174Q560 156 555 133T537 85T497 40T427 6T317 -7ZM314 718H269Q263 718 263 721T267 729L331 800Q335 805 338 807T348 809H417Q420 809 422 806T421 800L331 726Q326 723 323 721T314 718Z" />
<glyph unicode="&#xdb;" horiz-adv-x="634" d="M317 -7Q234 -7 186 12T115 61T83 120T73 174Q69 215 67 263T65 355Q66 404 68 458T74 565T86 663Q86 667 89 670T97 673Q114 673 131 673T165 673Q171 673 172 671T172 657Q168 617 165 574T160 485Q156 406 156
331T162 186Q164 163 171 142T194 103T239 76T315 65Q361 65 390 75T437 103T461 142T470 186Q476 254 476 328T472 480Q470 527 467 571T459 657Q459 669 460 671T467 673Q485 673 502 673T537 673Q543 673 545 670T549 663Q556 618 560 566T567 460T569 358Q570
313 569 265T562 174Q560 156 555 133T537 85T497 40T427 6T317 -7ZM216 717Q212 717 212 719T212 725L284 805Q288 810 292 810H341Q346 810 350 805L422 725Q424 722 423 720T418 717H379Q375 717 372 718T365 723L323 760Q318 764 313 760L269 722Q266 720 264
719T257 717H216Z" />
<glyph unicode="&#xdc;" horiz-adv-x="634" d="M317 -7Q234 -7 186 12T115 61T83 120T73 174Q69 215 67 263T65 355Q66 404 68 458T74 565T86 663Q86 667 89 670T97 673Q114 673 131 673T165 673Q171 673 172 671T172 657Q168 617 165 574T160 485Q156 406 156
331T162 186Q164 163 171 142T194 103T239 76T315 65Q361 65 390 75T437 103T461 142T470 186Q476 254 476 328T472 480Q470 527 467 571T459 657Q459 669 460 671T467 673Q485 673 502 673T537 673Q543 673 545 670T549 663Q556 618 560 566T567 460T569 358Q570
313 569 265T562 174Q560 156 555 133T537 85T497 40T427 6T317 -7ZM287 773Q287 755 279 746T244 736Q220 736 211 745T201 773Q201 792 210 801T244 811Q270 811 278 802T287 773ZM434 773Q434 755 426 746T390 736Q367 736 357 745T347 773Q347 792 357 801T390
811Q417 811 425 802T434 773Z" />
<glyph unicode="&#xdd;" horiz-adv-x="502" d="M309 295Q303 287 301 273T298 247V9Q298 5 295 3T289 0H216Q207 0 207 9V246Q207 266 198 286T181 320Q173 330 161 348T137 387T114 425T98 452Q71 505 53 549T25 621T14 656Q11 666 15 669T27 673H97Q106 673
109 662Q114 645 125 617T151 555T181 492Q194 465 208 440T241 390Q247 381 251 380T262 389Q271 401 281 416T301 449T319 481Q334 512 349 547T377 614T393 663Q395 669 397 671T406 673H478Q483 673 487 670T489 656Q488 650 479 622T453 549T407 453Q401 440
389 420T364 377T336 333T309 295ZM248 718H203Q197 718 197 721T201 729L265 800Q269 805 272 807T282 809H351Q354 809 356 806T355 800L265 726Q260 723 257 721T248 718Z" />
<glyph unicode="&#xde;" d="M431 378Q431 315 409 262T342 176T232 144H154Q147 144 147 138V9Q147 0 137 0H65Q55 0 55 9V699Q55 708 65 708H136Q142 708 144 707T147 699V601Q147 598 148 595T151 591H221Q332 591 381 540T431 378ZM342 378Q342 458 311 491T219
525H153Q149 525 148 524T147 519V219Q147 213 153 213H222Q279 213 310 257T342 378Z" />
<glyph unicode="&#xdf;" horiz-adv-x="617" d="M41 -105Q23 -105 12 -104T-5 -98Q-7 -94 -8 -90T-9 -80Q-9 -71 -9 -62T-7 -46Q1 -40 9 -39T26 -36Q45 -32 60 -20T86 16T102 83T108 191Q108 229 108 284T108 405T108 538Q108 571 118 601T151 656T208 694T291
708Q311 708 336 704T386 688T432 659T466 614T479 548Q479 524 472 504T451 464Q439 450 421 439T383 419Q366 411 362 400T364 379T384 363Q414 351 446 334T506 295Q534 272 549 239T565 168Q565 114 541 75T475 14T377 -7Q348 -7 310 1T243 29Q240 32 238 35T235
43Q238 56 241 69T247 94Q248 103 252 103T262 99Q273 91 291 84T328 73T363 69Q399 69 419 85T448 124Q458 140 458 162T446 208Q441 238 421 256T369 290T295 325Q276 333 265 346T253 376T263 407T301 435Q315 440 329 447T359 470Q371 483 380 502T389 551Q389
594 362 614T298 635Q252 635 225 607T197 523Q197 498 197 463T197 385T197 298T196 214T196 140T196 86Q196 -10 158 -57T41 -105Z" />
<glyph unicode="&#xe0;" horiz-adv-x="478" d="M232 -8Q182 -8 140 3T71 47T45 140Q45 191 63 224T110 274T171 299T231 306Q258 306 284 304T328 298Q341 295 341 315Q341 368 314 390T230 412Q192 412 158 400T101 374Q93 370 90 371T86 379L79 422Q78 431 79
434T87 441Q111 457 149 467T232 477Q297 477 335 462T393 422T419 364T427 295Q427 247 427 206T425 124T419 42Q417 33 413 28T395 16Q381 10 360 6T315 -2T270 -6T232 -8ZM237 50Q246 50 260 51T290 56T317 66T330 81Q333 109 335 146T336 215Q336 232 324 237Q311
242 286 244T233 247Q219 247 202 243T169 228T143 196T133 140Q133 110 146 90T182 60T237 50ZM244 529Q235 529 227 537L150 626Q148 629 149 632T154 635H223Q230 635 233 634T240 626L290 539Q297 529 288 529H244Z" />
<glyph unicode="&#xe1;" horiz-adv-x="478" d="M232 -8Q182 -8 140 3T71 47T45 140Q45 191 63 224T110 274T171 299T231 306Q258 306 284 304T328 298Q341 295 341 315Q341 368 314 390T230 412Q192 412 158 400T101 374Q93 370 90 371T86 379L79 422Q78 431 79
434T87 441Q111 457 149 467T232 477Q297 477 335 462T393 422T419 364T427 295Q427 247 427 206T425 124T419 42Q417 33 413 28T395 16Q381 10 360 6T315 -2T270 -6T232 -8ZM237 50Q246 50 260 51T290 56T317 66T330 81Q333 109 335 146T336 215Q336 232 324 237Q311
242 286 244T233 247Q219 247 202 243T169 228T143 196T133 140Q133 110 146 90T182 60T237 50ZM207 528Q200 528 200 530T204 539L262 629Q266 635 278 635H338Q343 635 344 633T341 625L265 533Q262 530 259 529T251 528H207Z" />
<glyph unicode="&#xe2;" horiz-adv-x="478" d="M232 -8Q182 -8 140 3T71 47T45 140Q45 191 63 224T110 274T171 299T231 306Q258 306 284 304T328 298Q341 295 341 315Q341 368 314 390T230 412Q192 412 158 400T101 374Q93 370 90 371T86 379L79 422Q78 431 79
434T87 441Q111 457 149 467T232 477Q297 477 335 462T393 422T419 364T427 295Q427 247 427 206T425 124T419 42Q417 33 413 28T395 16Q381 10 360 6T315 -2T270 -6T232 -8ZM237 50Q246 50 260 51T290 56T317 66T330 81Q333 109 335 146T336 215Q336 232 324 237Q311
242 286 244T233 247Q219 247 202 243T169 228T143 196T133 140Q133 110 146 90T182 60T237 50ZM149 528Q146 528 145 530T146 535L216 628Q218 632 223 632H269Q274 632 276 628L345 535Q347 533 347 531T342 528H300Q296 528 293 531L249 577Q245 582 241 577L198
531Q196 528 191 528H149Z" />
<glyph unicode="&#xe3;" horiz-adv-x="478" d="M232 -8Q182 -8 140 3T71 47T45 140Q45 191 63 224T110 274T171 299T231 306Q258 306 284 304T328 298Q341 295 341 315Q341 368 314 390T230 412Q192 412 158 400T101 374Q93 370 90 371T86 379L79 422Q78 431 79
434T87 441Q111 457 149 467T232 477Q297 477 335 462T393 422T419 364T427 295Q427 247 427 206T425 124T419 42Q417 33 413 28T395 16Q381 10 360 6T315 -2T270 -6T232 -8ZM237 50Q246 50 260 51T290 56T317 66T330 81Q333 109 335 146T336 215Q336 232 324 237Q311
242 286 244T233 247Q219 247 202 243T169 228T143 196T133 140Q133 110 146 90T182 60T237 50ZM149 532Q144 532 144 538Q144 570 160 589T207 608Q222 608 237 600T265 583T287 574Q293 574 297 580T302 595Q302 602 307 602H345Q351 602 351 596Q351 567 334
547T288 526Q269 526 254 535T228 552T208 560Q200 560 196 554T191 538Q191 532 186 532H149Z" />
<glyph unicode="&#xe4;" horiz-adv-x="478" d="M232 -8Q182 -8 140 3T71 47T45 140Q45 191 63 224T110 274T171 299T231 306Q258 306 284 304T328 298Q341 295 341 315Q341 368 314 390T230 412Q192 412 158 400T101 374Q93 370 90 371T86 379L79 422Q78 431 79
434T87 441Q111 457 149 467T232 477Q297 477 335 462T393 422T419 364T427 295Q427 247 427 206T425 124T419 42Q417 33 413 28T395 16Q381 10 360 6T315 -2T270 -6T232 -8ZM237 50Q246 50 260 51T290 56T317 66T330 81Q333 109 335 146T336 215Q336 232 324 237Q311
242 286 244T233 247Q219 247 202 243T169 228T143 196T133 140Q133 110 146 90T182 60T237 50ZM216 573Q216 555 208 546T173 536Q149 536 140 545T130 573Q130 592 139 601T173 611Q199 611 207 602T216 573ZM363 573Q363 555 355 546T319 536Q296 536 286 545T276
573Q276 592 286 601T319 611Q346 611 354 602T363 573Z" />
<glyph unicode="&#xe5;" horiz-adv-x="478" d="M232 -8Q182 -8 140 3T71 47T45 140Q45 191 63 224T110 274T171 299T231 306Q258 306 284 304T328 298Q341 295 341 315Q341 368 314 390T230 412Q192 412 158 400T101 374Q93 370 90 371T86 379L79 422Q78 431 79
434T87 441Q111 457 149 467T232 477Q297 477 335 462T393 422T419 364T427 295Q427 247 427 206T425 124T419 42Q417 33 413 28T395 16Q381 10 360 6T315 -2T270 -6T232 -8ZM237 50Q246 50 260 51T290 56T317 66T330 81Q333 109 335 146T336 215Q336 232 324 237Q311
242 286 244T233 247Q219 247 202 243T169 228T143 196T133 140Q133 110 146 90T182 60T237 50ZM334 592Q334 555 314 533T247 511Q199 511 180 533T160 592Q160 629 179 651T247 673Q294 673 314 651T334 592ZM291 595Q291 609 283 619T248 629Q219 629 212 619T204
595Q204 581 211 568T249 555Q278 555 284 568T291 595Z" />
<glyph unicode="&#xe6;" horiz-adv-x="771" d="M232 -8Q182 -8 140 3T71 47T45 140Q45 191 63 224T110 274T171 299T231 306Q258 306 284 304T328 298Q341 295 341 315Q341 368 314 390T230 412Q192 412 158 400T101 374Q93 370 90 371T86 379Q84 390 82 400T79
422Q77 431 79 434T87 441Q111 457 149 467T232 477Q278 477 309 469T360 445T392 410Q415 442 451 461T542 481Q605 481 642 463T699 414T724 347T731 274Q731 235 723 225T698 214Q634 214 569 214T440 214Q436 214 433 212T430 204Q434 134 465 98T561 61Q596
61 632 70T689 92Q697 97 703 98T715 88L731 58Q735 51 733 48T723 39Q691 15 643 5T544 -5Q494 -5 461 8T408 47Q407 41 406 36T403 25Q402 22 399 19T387 13Q366 6 338 2T281 -5T232 -8ZM335 223Q335 235 320 240T280 246T233 247Q219 247 202 243T169 228T143
196T133 140Q133 110 146 90T182 60T237 50Q246 50 261 51T292 56T319 66T331 82Q333 108 334 148T335 223ZM626 266Q635 266 638 269T641 286Q641 320 632 348T602 393T540 411Q510 411 490 400T456 369T436 329T429 287Q428 276 429 272T436 268Q484 267 531
267T626 266Z" />
<glyph unicode="&#xe7;" horiz-adv-x="401" d="M240 -6Q178 -6 138 12T76 64T44 141T35 235Q35 282 44 325T76 403T138 458T239 478Q281 478 312 470T366 443Q372 437 373 434T375 425V371Q375 364 371 364T362 367Q340 388 310 396T249 405Q214 405 190 391T152
351T131 296T124 234Q124 182 136 144T175 84T245 63Q273 63 297 69T346 87Q358 93 364 82L382 43Q385 37 384 34T377 27Q352 10 316 2T240 -6ZM315 -124Q315 -153 291 -175T225 -198Q196 -198 175 -187T141 -160Q137 -154 137 -148T143 -140L162 -130Q170 -127
173 -128T178 -133Q185 -143 196 -150T220 -157Q241 -157 250 -146T260 -123Q260 -108 250 -100T224 -89T192 -86Q185 -85 182 -80T183 -68L220 -7Q223 -2 226 -1T235 1H258Q269 1 264 -8L235 -72L222 -53Q264 -56 289 -73T315 -124Z" />
<glyph unicode="&#xe8;" horiz-adv-x="463" d="M38 237Q38 284 47 327T79 404T141 458T241 478Q304 478 341 460T398 412T424 346T430 274Q430 235 422 225T398 214H137Q133 214 130 212T127 201Q128 160 142 128T186 78T260 59Q294 59 328 68T382 89Q392 94 397
95T408 85L424 55Q428 48 426 45T416 36Q383 15 337 5T242 -6Q179 -6 140 12T78 64T47 142T38 237ZM340 288Q340 322 332 349T302 392T239 409Q209 409 188 398T155 368T136 329T128 287Q127 275 128 272T138 268H325Q334 268 337 271T340 288ZM238 529Q229 529
221 537L144 626Q142 629 143 632T148 635H217Q224 635 227 634T234 626L284 539Q291 529 282 529H238Z" />
<glyph unicode="&#xe9;" horiz-adv-x="463" d="M38 237Q38 284 47 327T79 404T141 458T241 478Q304 478 341 460T398 412T424 346T430 274Q430 235 422 225T398 214H137Q133 214 130 212T127 201Q128 160 142 128T186 78T260 59Q294 59 328 68T382 89Q392 94 397
95T408 85L424 55Q428 48 426 45T416 36Q383 15 337 5T242 -6Q179 -6 140 12T78 64T47 142T38 237ZM340 288Q340 322 332 349T302 392T239 409Q209 409 188 398T155 368T136 329T128 287Q127 275 128 272T138 268H325Q334 268 337 271T340 288ZM201 528Q194 528
194 530T198 539L256 629Q260 635 272 635H332Q337 635 338 633T335 625L259 533Q256 530 253 529T245 528H201Z" />
<glyph unicode="&#xea;" horiz-adv-x="463" d="M38 237Q38 284 47 327T79 404T141 458T241 478Q304 478 341 460T398 412T424 346T430 274Q430 235 422 225T398 214H137Q133 214 130 212T127 201Q128 160 142 128T186 78T260 59Q294 59 328 68T382 89Q392 94 397
95T408 85L424 55Q428 48 426 45T416 36Q383 15 337 5T242 -6Q179 -6 140 12T78 64T47 142T38 237ZM340 288Q340 322 332 349T302 392T239 409Q209 409 188 398T155 368T136 329T128 287Q127 275 128 272T138 268H325Q334 268 337 271T340 288ZM143 528Q140 528
139 530T140 535L210 628Q212 632 217 632H263Q268 632 270 628L339 535Q341 533 341 531T336 528H294Q290 528 287 531L243 577Q239 582 235 577L192 531Q190 528 185 528H143Z" />
<glyph unicode="&#xeb;" horiz-adv-x="463" d="M38 237Q38 284 47 327T79 404T141 458T241 478Q304 478 341 460T398 412T424 346T430 274Q430 235 422 225T398 214H137Q133 214 130 212T127 201Q128 160 142 128T186 78T260 59Q294 59 328 68T382 89Q392 94 397
95T408 85L424 55Q428 48 426 45T416 36Q383 15 337 5T242 -6Q179 -6 140 12T78 64T47 142T38 237ZM340 288Q340 322 332 349T302 392T239 409Q209 409 188 398T155 368T136 329T128 287Q127 275 128 272T138 268H325Q334 268 337 271T340 288ZM210 573Q210 555
202 546T167 536Q143 536 134 545T124 573Q124 592 133 601T167 611Q193 611 201 602T210 573ZM357 573Q357 555 349 546T313 536Q290 536 280 545T270 573Q270 592 280 601T313 611Q340 611 348 602T357 573Z" />
<glyph unicode="&#xec;" horiz-adv-x="209" d="M149 9Q149 0 140 0H69Q60 0 60 9V463Q60 472 69 472H140Q149 472 149 463V9ZM101 529Q92 529 84 537L7 626Q5 629 6 632T11 635H80Q87 635 90 634T97 626L147 539Q154 529 145 529H101Z" />
<glyph unicode="&#xed;" horiz-adv-x="209" d="M149 9Q149 0 140 0H69Q60 0 60 9V463Q60 472 69 472H140Q149 472 149 463V9ZM64 528Q57 528 57 530T61 539L119 629Q123 635 135 635H195Q200 635 201 633T198 625L122 533Q119 530 116 529T108 528H64Z" />
<glyph unicode="&#xee;" horiz-adv-x="209" d="M149 9Q149 0 140 0H69Q60 0 60 9V463Q60 472 69 472H140Q149 472 149 463V9ZM262 528Q259 528 258 530T259 535L329 628Q331 632 336 632H382Q387 632 389 628L458 535Q460 533 460 531T455 528H413Q409 528 406
531L362 577Q358 582 354 577L311 531Q309 528 304 528H262Z" />
<glyph unicode="&#xef;" horiz-adv-x="209" d="M149 9Q149 0 140 0H69Q60 0 60 9V463Q60 472 69 472H140Q149 472 149 463V9ZM330 573Q330 555 322 546T287 536Q263 536 254 545T244 573Q244 592 253 601T287 611Q313 611 321 602T330 573ZM477 573Q477 555 469
546T433 536Q410 536 400 545T390 573Q390 592 400 601T433 611Q460 611 468 602T477 573Z" />
<glyph unicode="&#xf0;" horiz-adv-x="511" d="M466 239Q466 173 448 117T384 27T256 -7Q175 -7 129 25T64 112T45 238Q45 308 65 363T132 449T256 480Q273 480 288 477T317 468Q299 490 277 511T228 553Q206 569 182 584T131 613Q125 616 123 618T124 626Q128
634 136 647T151 669Q153 672 156 673T168 671Q179 665 190 660T211 648Q295 604 351 541T437 401T466 239ZM375 236Q375 318 347 362T255 406Q192 406 164 362T135 236Q135 153 162 108T255 63Q319 63 347 109T375 236ZM141 502Q137 499 136 499T132 503L114 531Q112
535 113 536T118 541L327 669Q331 671 332 671T336 668L355 638Q356 636 356 635T350 631L141 502Z" />
<glyph unicode="&#xf1;" horiz-adv-x="481" d="M71 0Q60 0 60 9Q60 115 60 220T60 431Q60 439 65 443T87 453Q100 457 125 463T180 473T235 478Q314 478 356 448T414 367T430 253Q430 209 429 165T425 82T419 16Q418 4 415 2T402 0H346Q336 0 333 2T330 14Q330
20 332 46T336 110T339 185T340 254Q340 307 329 340T294 389T233 405Q214 405 197 402T166 394Q159 393 154 388T149 368Q149 315 149 256T149 134T149 9Q149 0 141 0H71ZM147 532Q142 532 142 538Q142 570 158 589T205 608Q220 608 235 600T263 583T285 574Q291
574 295 580T300 595Q300 602 305 602H343Q349 602 349 596Q349 567 332 547T286 526Q267 526 252 535T226 552T206 560Q198 560 194 554T189 538Q189 532 184 532H147Z" />
<glyph unicode="&#xf2;" horiz-adv-x="496" d="M248 -6Q165 -6 119 25T56 111T38 237Q38 307 57 361T123 447T248 478Q327 478 373 447T438 362T458 237Q458 167 441 112T378 26T248 -6ZM247 63Q314 63 340 108T367 236Q367 317 338 361T247 405Q186 405 157 361T127
236Q127 153 154 108T247 63ZM246 529Q237 529 229 537L152 626Q150 629 151 632T156 635H225Q232 635 235 634T242 626L292 539Q299 529 290 529H246Z" />
<glyph unicode="&#xf3;" horiz-adv-x="496" d="M248 -6Q165 -6 119 25T56 111T38 237Q38 307 57 361T123 447T248 478Q327 478 373 447T438 362T458 237Q458 167 441 112T378 26T248 -6ZM247 63Q314 63 340 108T367 236Q367 317 338 361T247 405Q186 405 157 361T127
236Q127 153 154 108T247 63ZM208 528Q201 528 201 530T205 539L263 629Q267 635 279 635H339Q344 635 345 633T342 625L266 533Q263 530 260 529T252 528H208Z" />
<glyph unicode="&#xf4;" horiz-adv-x="496" d="M248 -6Q165 -6 119 25T56 111T38 237Q38 307 57 361T123 447T248 478Q327 478 373 447T438 362T458 237Q458 167 441 112T378 26T248 -6ZM247 63Q314 63 340 108T367 236Q367 317 338 361T247 405Q186 405 157 361T127
236Q127 153 154 108T247 63ZM150 528Q147 528 146 530T147 535L217 628Q219 632 224 632H270Q275 632 277 628L346 535Q348 533 348 531T343 528H301Q297 528 294 531L250 577Q246 582 242 577L199 531Q197 528 192 528H150Z" />
<glyph unicode="&#xf5;" horiz-adv-x="496" d="M248 -6Q165 -6 119 25T56 111T38 237Q38 307 57 361T123 447T248 478Q327 478 373 447T438 362T458 237Q458 167 441 112T378 26T248 -6ZM247 63Q314 63 340 108T367 236Q367 317 338 361T247 405Q186 405 157 361T127
236Q127 153 154 108T247 63ZM150 532Q145 532 145 538Q145 570 161 589T208 608Q223 608 238 600T266 583T288 574Q294 574 298 580T303 595Q303 602 308 602H346Q352 602 352 596Q352 567 335 547T289 526Q270 526 255 535T229 552T209 560Q201 560 197 554T192
538Q192 532 187 532H150Z" />
<glyph unicode="&#xf6;" horiz-adv-x="496" d="M248 -6Q165 -6 119 25T56 111T38 237Q38 307 57 361T123 447T248 478Q327 478 373 447T438 362T458 237Q458 167 441 112T378 26T248 -6ZM247 63Q314 63 340 108T367 236Q367 317 338 361T247 405Q186 405 157 361T127
236Q127 153 154 108T247 63ZM218 573Q218 555 210 546T175 536Q151 536 142 545T132 573Q132 592 141 601T175 611Q201 611 209 602T218 573ZM365 573Q365 555 357 546T321 536Q298 536 288 545T278 573Q278 592 288 601T321 611Q348 611 356 602T365 573Z" />
<glyph unicode="&#xf7;" horiz-adv-x="477" d="M287 169Q287 149 278 140T239 130Q213 130 203 139T192 169Q192 188 202 198T239 209Q269 209 278 199T287 169ZM287 440Q287 420 278 410T239 400Q213 400 203 410T192 440Q192 459 202 469T239 479Q269 479 278
469T287 440ZM60 274Q53 274 52 276T50 283V329Q50 335 51 336T61 338H417Q423 338 425 337T427 329V281Q427 277 426 276T416 274H60Z" />
<glyph unicode="&#xf8;" horiz-adv-x="486" d="M248 -6Q165 -6 119 25T56 111T38 237Q38 307 57 361T123 447T248 478Q327 478 373 447T438 362T458 237Q458 167 441 112T378 26T248 -6ZM247 63Q314 63 340 108T367 236Q367 317 338 361T247 405Q186 405 157 361T127
236Q127 153 154 108T247 63ZM122 -67Q119 -76 112 -76H68Q65 -76 65 -73T67 -66L374 533Q377 538 379 539T384 540H426Q430 540 430 537T424 522L122 -67Z" />
<glyph unicode="&#xf9;" horiz-adv-x="483" d="M249 -4Q171 -4 129 26T70 107T53 220Q53 264 54 308T59 391T64 456Q65 468 68 470T82 472H137Q147 472 151 471T153 458Q153 452 152 427T148 366T145 291T144 216Q144 145 168 107T250 68Q257 68 271 69T300 73T325
82T335 98V460Q335 464 336 468T341 472H413Q416 472 419 471T423 463V49Q423 37 417 32T390 19Q380 16 356 11T303 1T249 -4ZM241 529Q232 529 224 537L147 626Q145 629 146 632T151 635H220Q227 635 230 634T237 626L287 539Q294 529 285 529H241Z" />
<glyph unicode="&#xfa;" horiz-adv-x="483" d="M249 -4Q171 -4 129 26T70 107T53 220Q53 264 54 308T59 391T64 456Q65 468 68 470T82 472H137Q147 472 151 471T153 458Q153 452 152 427T148 366T145 291T144 216Q144 145 168 107T250 68Q257 68 271 69T300 73T325
82T335 98V460Q335 464 336 468T341 472H413Q416 472 419 471T423 463V49Q423 37 417 32T390 19Q380 16 356 11T303 1T249 -4ZM204 528Q197 528 197 530T201 539L259 629Q263 635 275 635H335Q340 635 341 633T338 625L262 533Q259 530 256 529T248 528H204Z" />
<glyph unicode="&#xfb;" horiz-adv-x="483" d="M249 -4Q171 -4 129 26T70 107T53 220Q53 264 54 308T59 391T64 456Q65 468 68 470T82 472H137Q147 472 151 471T153 458Q153 452 152 427T148 366T145 291T144 216Q144 145 168 107T250 68Q257 68 271 69T300 73T325
82T335 98V460Q335 464 336 468T341 472H413Q416 472 419 471T423 463V49Q423 37 417 32T390 19Q380 16 356 11T303 1T249 -4ZM146 528Q143 528 142 530T143 535L213 628Q215 632 220 632H266Q271 632 273 628L342 535Q344 533 344 531T339 528H297Q293 528 290
531L246 577Q242 582 238 577L195 531Q193 528 188 528H146Z" />
<glyph unicode="&#xfc;" horiz-adv-x="483" d="M249 -4Q171 -4 129 26T70 107T53 220Q53 264 54 308T59 391T64 456Q65 468 68 470T82 472H137Q147 472 151 471T153 458Q153 452 152 427T148 366T145 291T144 216Q144 145 168 107T250 68Q257 68 271 69T300 73T325
82T335 98V460Q335 464 336 468T341 472H413Q416 472 419 471T423 463V49Q423 37 417 32T390 19Q380 16 356 11T303 1T249 -4ZM213 573Q213 555 205 546T170 536Q146 536 137 545T127 573Q127 592 136 601T170 611Q196 611 204 602T213 573ZM360 573Q360 555 352
546T316 536Q293 536 283 545T273 573Q273 592 283 601T316 611Q343 611 351 602T360 573Z" />
<glyph unicode="&#xfd;" horiz-adv-x="416" d="M148 81Q126 116 106 163T70 262T42 364T23 458Q21 472 32 472H101Q108 472 112 469T117 454Q120 432 126 401T141 333T162 262T184 197T205 148Q209 141 213 141T218 146Q230 172 243 210T270 293T292 380T307 459Q308
467 311 469T322 472H383Q390 472 393 470T395 457Q390 420 382 385T364 314T340 238Q329 205 313 159T273 65T217 -26T143 -95T46 -122Q27 -122 13 -120T-13 -113Q-28 -106 -22 -94L-5 -58Q-2 -52 1 -52T11 -53Q33 -57 58 -50T104 -27Q123 -15 133 -3T152 25Q158
37 157 52T148 81ZM173 528Q166 528 166 530T170 539L228 629Q232 635 244 635H304Q309 635 310 633T307 625L231 533Q228 530 225 529T217 528H173Z" />
<glyph unicode="&#xfe;" horiz-adv-x="493" d="M450 245Q450 186 437 143T402 71T352 26T298 3Q268 -3 234 0T178 13Q172 14 168 14T162 13Q159 -5 154 -23T147 -59Q147 -71 147 -82T145 -105Q142 -109 138 -110T126 -112Q111 -112 96 -112T67 -110Q64 -19 62
73T60 259Q60 342 60 424T62 589Q65 593 71 595T84 597Q100 597 114 597T143 595Q146 573 148 550T151 500Q151 488 151 476T154 452Q170 463 194 471T253 480Q349 480 399 420T450 245ZM360 245Q360 332 332 371T252 411Q234 411 213 406T176 391T152 364Q148
357 148 346Q148 292 148 238T147 131Q147 124 147 121T150 113Q160 92 189 83T247 73Q264 73 284 81T321 108T349 160T360 245Z" />
<glyph unicode="&#xff;" horiz-adv-x="416" d="M148 81Q126 116 106 163T70 262T42 364T23 458Q21 472 32 472H101Q108 472 112 469T117 454Q120 432 126 401T141 333T162 262T184 197T205 148Q209 141 213 141T218 146Q230 172 243 210T270 293T292 380T307 459Q308
467 311 469T322 472H383Q390 472 393 470T395 457Q390 420 382 385T364 314T340 238Q329 205 313 159T273 65T217 -26T143 -95T46 -122Q27 -122 13 -120T-13 -113Q-28 -106 -22 -94L-5 -58Q-2 -52 1 -52T11 -53Q33 -57 58 -50T104 -27Q123 -15 133 -3T152 25Q158
37 157 52T148 81ZM183 573Q183 555 175 546T140 536Q116 536 107 545T97 573Q97 592 106 601T140 611Q166 611 174 602T183 573ZM330 573Q330 555 322 546T286 536Q263 536 253 545T243 573Q243 592 253 601T286 611Q313 611 321 602T330 573Z" />
<glyph unicode="&#x2013;" horiz-adv-x="590" d="M69 244Q63 244 62 246T60 253V301Q60 307 61 308T69 310H521Q527 310 528 309T530 301V251Q530 247 529 246T521 244H69Z" />
<glyph unicode="&#x2014;" horiz-adv-x="792" d="M69 244Q63 244 62 246T60 253V301Q60 307 61 308T69 310H723Q729 310 730 309T732 301V251Q732 247 731 246T723 244H69Z" />
<glyph unicode="&#x2018;" horiz-adv-x="229" d="M56 472Q47 472 46 478T50 495L113 689Q116 694 118 696T126 698H178Q182 698 183 693T182 679L127 482Q125 478 123 475T115 472H56Z" />
<glyph unicode="&#x2019;" horiz-adv-x="229" d="M52 472Q48 472 46 477T47 491L101 688Q103 692 106 695T115 698H174Q183 698 183 692T180 674L117 480Q114 476 112 474T103 472H52Z" />
<glyph unicode="&#x201a;" horiz-adv-x="190" d="M127 -92Q127 -101 123 -105T108 -109H80Q69 -109 66 -105T62 -90L60 124Q60 132 64 137T79 142H112Q123 142 126 137T129 124L127 -92Z" />
<glyph unicode="&#x201c;" horiz-adv-x="382" d="M56 472Q47 472 46 478T50 495L113 689Q116 694 118 696T126 698H178Q182 698 183 693T182 679L127 482Q125 478 123 475T115 472H56ZM208 472Q200 472 199 478T203 495L266 689Q269 694 271 696T279 698H330Q335
698 337 693T335 679L281 482Q279 478 277 475T268 472H208Z" />
<glyph unicode="&#x201d;" horiz-adv-x="389" d="M275 480Q273 476 271 474T262 472H211Q207 472 205 477T207 491L260 688Q263 692 265 695T273 698H333Q342 698 343 692T339 674L275 480ZM117 480Q114 476 112 474T103 472H52Q48 472 46 477T47 491L101 688Q103
692 106 695T115 698H174Q183 698 183 692T180 674L117 480Z" />
<glyph unicode="&#x201e;" horiz-adv-x="356" d="M131 -100Q131 -106 129 -108T121 -110H73Q70 -110 68 -108T65 -98L60 125Q60 135 62 137T72 140H124Q133 140 135 138T137 129L131 -100ZM290 -100Q290 -106 288 -108T280 -110H233Q229 -110 227 -108T224 -98L220
125Q219 135 221 137T232 140H284Q292 140 293 138T295 129L290 -100Z" />
<glyph unicode="&#x2022;" horiz-adv-x="542" d="M91 302Q91 352 115 393T181 458T272 482Q322 482 362 458T427 393T452 302Q452 252 428 211T363 146T272 121Q222 121 181 145T116 211T91 302Z" />
<glyph unicode="&#x2039;" horiz-adv-x="350" d="M193 158Q188 158 185 161Q151 203 118 244T51 327Q41 337 51 346Q84 387 117 428T185 511Q187 514 189 514T193 515Q210 515 232 515T270 515Q275 515 274 513T271 508Q270 507 256 490T222 446T182 395T148 353T134
336Q134 336 148 319T181 277T221 227T256 184T271 165Q273 164 274 161T270 158Q254 158 232 158T193 158Z" />
<glyph unicode="&#x203a;" horiz-adv-x="375" d="M90 158Q84 158 85 161T88 165Q89 166 103 183T138 226T178 277T211 319T225 336Q225 336 212 353T178 395T138 446T104 489T88 508Q87 510 86 512T90 515Q105 515 127 515T166 515Q168 515 170 515T174 511Q208
470 241 429T309 346Q319 337 309 327Q275 286 242 245T174 161Q171 158 166 158Q149 158 127 158T90 158Z" />
</font>
</defs>
</svg>
