<?xml version="1.0" standalone="no"?>
<!DOCTYPE svg PUBLIC "-//W3C//DTD SVG 1.1//EN" "http://www.w3.org/Graphics/SVG/1.1/DTD/svg11.dtd">
<svg xmlns="http://www.w3.org/2000/svg">
<defs >
<font id="Glory" horiz-adv-x="468" ><font-face
    font-family="Glory Thin"
    units-per-em="1000"
    panose-1="0 0 0 0 0 0 0 0 0 0"
    ascent="900"
    descent="-220"
    alphabetic="0" />
<glyph unicode=" " horiz-adv-x="229" />
<glyph unicode="!" horiz-adv-x="247" d="M82 214Q74 214 72 216T69 229L53 660Q53 667 55 670T64 673H183Q194 673 194 661L177 229Q177 219 175 217T162 214H82ZM184 37Q184 11 172 -3T119 -17Q84 -17 69 -3T53 37Q53 63 68 76T119 89Q159 89 171 76T184 37Z" />
<glyph unicode="&quot;" horiz-adv-x="365" d="M65 446Q60 446 57 450T53 465L47 684Q46 698 49 702T64 706H132Q146 706 148 702T151 690L143 462Q143 452 140 449T129 446H65ZM232 446Q226 446 223 450T220 465L214 684Q213 698 216 702T231 706H300Q313 706
315 702T318 690L311 462Q311 452 308 449T296 446H232Z" />
<glyph unicode="#" horiz-adv-x="778" d="M214 194H73Q62 194 58 196T56 211L63 264Q64 274 68 277T82 280H221L229 420H95Q85 420 81 421T78 435L85 490Q87 499 91 502T104 505H234L248 690Q249 699 252 702T265 706H327Q337 706 338 702T338 687L325 505L456
504L469 690Q470 699 473 702T487 706H548Q558 706 559 702T559 687L546 504H698Q715 505 719 501T722 490L715 433Q714 424 709 422T698 420H541L532 279H675Q692 280 697 276T700 264L692 207Q692 199 687 197T676 194H525L513 13Q513 9 511 5T499 0H439Q431
0 428 5T424 25L435 194H305L293 13Q292 9 290 5T277 0H218Q209 0 206 5T203 25L214 194ZM311 280L442 279L451 420H320L311 280Z" />
<glyph unicode="$" horiz-adv-x="489" d="M152 37Q137 41 109 51T60 71Q49 79 45 82T41 95Q41 121 41 146T41 198Q41 209 47 209T63 203T77 193Q121 165 152 155T210 144Q244 144 269 160T295 210Q295 227 285 241T253 268T196 296Q159 313 124 333T66 388T43
477Q43 529 66 565T126 621T210 642Q218 642 226 642T243 642L260 732Q262 739 264 742T278 746H339Q351 746 352 742T352 729L332 627Q358 620 383 606T436 574Q447 568 448 563T443 549Q433 533 423 515T402 480Q397 471 391 474T373 485Q358 495 335 505T286
521T237 528Q208 528 188 516T167 475Q167 458 179 446T213 422T266 395Q303 378 338 356T396 300T419 212Q419 161 394 121T328 56T240 29L218 -122Q216 -131 213 -132T200 -134H136Q131 -134 129 -130T129 -110L152 37Z" />
<glyph unicode="%" horiz-adv-x="821" d="M155 0Q148 0 147 4T150 15L547 696Q551 703 554 704T564 706H650Q658 706 659 702T648 678L265 13Q262 7 258 4T244 0H155ZM205 400Q118 400 83 443T47 554Q47 621 82 664T205 708Q291 708 327 665T364 554Q364 487 328
444T205 400ZM205 476Q244 476 261 496T279 554Q279 592 262 611T205 631Q166 631 148 612T130 554Q130 517 148 497T205 476ZM615 0Q528 0 493 43T457 154Q457 222 492 265T615 309Q701 309 737 266T774 154Q774 87 738 44T615 0ZM615 76Q655 76 672 96T689 154Q689
192 672 211T615 231Q577 231 558 212T539 154Q539 117 558 97T615 76Z" />
<glyph unicode="&amp;" horiz-adv-x="711" d="M278 -10Q209 -10 161 8T82 57T37 122T23 190Q23 234 39 270T85 330T152 362Q127 369 110 386T81 425T64 468T58 503Q58 533 71 564T111 620T182 661T284 676Q346 676 398 651T492 565Q502 551 499 543T490 531L430
485Q416 477 408 489Q388 518 357 542T285 566Q255 566 232 557T197 530T184 487Q184 469 194 455T220 432T257 419Q262 418 269 418T284 417T296 417Q314 417 320 416T326 407V319Q326 309 322 308T312 307H264Q239 307 217 294T183 259T170 210Q170 184 182 160T222
121T295 105Q334 105 367 124T427 175T469 243L397 281Q393 282 391 286T395 298L441 372Q447 382 451 383T462 381L669 275Q676 271 676 266T672 256L630 181Q624 173 620 171T607 173L565 194Q547 154 521 117T460 52T380 7T278 -10Z" />
<glyph unicode="&apos;" horiz-adv-x="251" d="M92 446Q87 446 84 450T80 465L73 684Q73 698 76 702T91 706H159Q173 706 175 702T178 690L170 462Q170 452 167 449T156 446H92Z" />
<glyph unicode="(" horiz-adv-x="373" d="M326 -68Q326 -76 322 -78T293 -80Q215 -80 157 -29T67 113T35 316Q35 367 45 420T75 524T126 614T198 677T293 700Q318 700 322 697T326 686V627Q326 618 321 618T298 619Q261 619 235 598T192 543T166 468T154 388T150
318Q150 281 154 238T168 154T195 78T239 23T301 2Q320 2 323 -1T326 -11V-68Z" />
<glyph unicode=")" horiz-adv-x="373" d="M47 -68V-11Q47 -4 50 -1T72 2Q108 2 134 22T177 77T205 153T219 238T223 318Q223 348 220 387T207 467T181 542T138 598T75 619Q59 619 53 619T47 627V686Q47 693 51 696T80 700Q133 700 174 677T246 614T297 524T328
421T338 316Q338 203 307 113T217 -28T80 -80Q55 -80 51 -78T47 -68Z" />
<glyph unicode="*" horiz-adv-x="531" d="M265 395L163 269Q156 260 152 259T140 262L91 303Q83 310 83 315T92 328L192 447L44 492Q24 498 28 511L48 572Q52 582 56 584T71 581L220 531L217 686Q217 698 219 702T231 706H295Q305 706 307 702T310 686L308 531L456
580Q468 585 472 583T479 572L499 510Q504 497 484 491L335 447L436 327Q445 319 445 314T437 302L388 261Q382 256 377 257T364 268L265 395Z" />
<glyph unicode="+" horiz-adv-x="498" d="M211 99Q202 99 200 101T197 110V266H61Q53 266 52 268T50 277V343Q50 350 52 352T62 354H197V510Q197 516 199 518T210 521H282Q287 521 288 519T290 508V354L437 353Q443 353 445 351T448 341V273Q448 267 446 266T436
264L290 266V109Q290 102 288 101T279 99H211Z" />
<glyph unicode="," horiz-adv-x="215" d="M170 35Q170 13 161 -14T139 -67T117 -108Q113 -115 105 -115Q94 -115 82 -115T57 -115Q52 -115 51 -112T55 -99Q59 -91 64 -75T76 -42T85 -14Q65 -11 56 4T47 35Q47 58 61 73T109 89Q135 89 152 79T170 35Z" />
<glyph unicode="-" horiz-adv-x="403" d="M58 229Q49 229 48 232T47 241V308Q47 316 48 318T59 321H345Q352 321 354 319T357 309V238Q357 232 355 231T344 229H58Z" />
<glyph unicode="." horiz-adv-x="215" d="M173 36Q173 10 161 -3T107 -17Q73 -17 58 -4T42 36Q42 62 57 75T107 89Q148 89 160 76T173 36Z" />
<glyph unicode="/" horiz-adv-x="584" d="M148 13Q144 7 140 4T126 0H37Q31 0 30 4T33 15L459 696Q464 703 467 704T477 706H562Q571 706 572 702T561 678L148 13Z" />
<glyph unicode="0" horiz-adv-x="544" d="M509 336Q509 265 497 203T456 93T383 20T272 -7Q205 -7 160 19T87 92T47 201T35 336Q35 408 47 470T86 580T159 653T272 680Q338 680 383 653T456 579T496 470T509 336ZM369 336Q369 453 345 514T271 575Q221 575 197
515T172 336Q172 218 196 158T271 97Q320 97 344 158T369 336Z" />
<glyph unicode="1" horiz-adv-x="360" d="M176 0Q164 0 164 12V522Q164 530 157 527L72 480Q58 473 52 484L14 549Q7 562 21 570L193 666Q200 670 204 671T215 673H283Q295 673 295 660V12Q295 0 283 0H176Z" />
<glyph unicode="2" horiz-adv-x="505" d="M49 0Q38 0 36 2T33 13V81Q33 97 43 102Q91 132 141 172T236 259T307 356T334 456Q334 488 322 512T283 551T214 565Q169 565 136 552T81 526T49 512Q38 510 38 520V608Q38 615 41 618T53 628Q71 638 98 649T160 669T230
678Q288 678 341 656T428 585T463 460Q463 409 445 362T395 271T321 186T229 106Q227 104 228 102T233 99H456Q465 99 465 90V13Q465 4 463 2T450 0H49Z" />
<glyph unicode="3" horiz-adv-x="503" d="M232 -5Q192 -5 156 6T89 36T33 82Q27 89 28 95T33 106L79 161Q93 176 105 164Q132 137 163 122T232 106Q267 106 290 120T326 157T338 204Q338 226 326 249T286 288T213 304Q205 304 197 304T178 304Q171 304 167 307T162
321V389Q162 406 178 406Q187 406 202 406T233 406Q263 407 283 420T315 453T327 493Q327 513 317 530T285 558T229 569Q195 569 161 553T103 514Q89 500 79 516L37 587Q34 594 36 601T41 609Q77 638 112 653T179 673T238 678Q307 678 353 654T422 590T446 507Q446
453 418 413T349 359Q336 356 336 355Q336 355 350 351Q399 339 431 302T464 205Q464 153 437 105T359 26T232 -5Z" />
<glyph unicode="4" horiz-adv-x="527" d="M308 0Q296 0 296 12V160Q296 170 286 170H32Q20 170 20 182V243Q20 251 25 259T33 271L305 661Q311 668 315 670T325 673H406Q419 673 419 660V273Q419 263 429 263H488Q497 263 497 254V179Q497 170 488 170H429Q419
170 419 160V12Q419 0 407 0H308ZM163 263H286Q296 263 296 273V472Q296 477 294 477T290 474L157 274Q153 268 156 266T163 263Z" />
<glyph unicode="5" horiz-adv-x="506" d="M215 -5Q194 -5 164 0T102 18T46 49Q40 54 37 59T37 69L84 146Q89 153 95 152T107 147Q138 129 160 122T214 114Q230 114 252 120T294 138T328 173T342 228Q342 270 324 297T276 338T208 352Q195 352 175 351T135 348T97
339Q84 334 79 334T73 347V659Q73 666 75 669T86 673H400Q405 673 408 672T412 664V581Q412 571 400 571H191Q182 571 182 560V453Q182 447 184 445T193 443Q200 444 207 444T222 444Q304 444 358 418T440 345T468 234Q468 163 433 109T339 25T215 -5Z" />
<glyph unicode="6" horiz-adv-x="561" d="M283 -11Q218 -10 161 21T69 121T33 301Q33 367 54 433T117 555T223 644T373 678Q381 678 399 677T439 670Q448 669 455 663T463 641Q463 625 463 608T463 574Q463 563 461 561T446 563Q440 565 423 567T383 570T335 566T289
546Q267 539 246 523T206 485T176 438T159 390Q158 384 159 382T166 387Q186 410 228 424T315 439Q375 439 417 421T484 371T521 302T533 225Q533 165 503 111T417 23T283 -11ZM283 101Q322 101 349 118T391 162T408 217Q409 245 397 270T359 310T292 326Q265 326
241 315T196 287T161 250Q160 221 169 194T195 146T234 113T283 101Z" />
<glyph unicode="7" horiz-adv-x="493" d="M117 0Q103 0 99 1T96 13Q102 62 118 116T153 225T191 326Q211 376 232 420T272 502T306 568Q304 570 301 570T294 571H38Q31 571 29 572T27 579V661Q27 670 30 671T40 673H456Q461 673 463 672T465 661V611Q465 602 458
589Q443 566 420 525T369 425T311 291Q295 247 278 200T248 104T230 11Q230 4 223 2T210 0H117Z" />
<glyph unicode="8" horiz-adv-x="531" d="M265 -6Q202 -6 149 21T63 95T31 200Q31 251 57 294T124 356Q129 358 132 360T137 364Q98 376 80 412T61 491Q61 544 89 587T164 655T265 681Q322 681 368 656T442 587T470 491Q470 447 454 413T404 362Q405 361 407 359T412
355Q449 335 474 295T500 200Q500 142 468 96T383 22T265 -6ZM265 419Q288 419 306 428T336 453T347 491Q347 511 336 527T307 553T265 563Q243 563 224 553T194 527T183 491Q183 470 194 454T225 428T265 419ZM265 107Q297 107 322 120T363 154T378 203Q378 232
363 253T322 287T266 301Q236 301 211 289T170 254T154 203Q154 176 169 155T209 120T265 107Z" />
<glyph unicode="9" horiz-adv-x="560" d="M244 229Q164 229 115 261T46 343T27 450Q29 507 59 559T145 644T279 678Q330 678 374 660T453 605T506 511T526 376Q527 308 506 240T443 116T336 25T182 -10Q175 -10 157 -9T118 -1Q107 1 100 6T93 28V95Q93 106 96
108T110 106Q126 100 146 99T177 98Q214 98 246 109T306 142Q321 154 336 172T365 212T388 254T402 290Q376 260 333 245T244 229ZM279 567Q240 568 212 550T169 505T154 450Q154 420 165 396T202 357T267 342Q308 342 342 364T395 420Q397 472 381 504T338 551T279
567Z" />
<glyph unicode=":" horiz-adv-x="225" d="M178 36Q178 10 165 -3T112 -17Q77 -17 62 -4T47 36Q47 62 62 75T112 89Q152 89 165 76T178 36ZM178 435Q178 409 165 396T112 383Q77 383 62 396T47 435Q47 461 62 475T112 489Q152 489 165 475T178 435Z" />
<glyph unicode=";" horiz-adv-x="226" d="M180 436Q180 410 167 397T114 383Q79 383 64 396T48 436Q48 462 63 475T114 489Q154 489 167 476T180 436ZM176 35Q176 13 167 -15T146 -67T123 -108Q118 -115 111 -115Q100 -115 88 -115T63 -115Q58 -115 57 -112T60
-99Q64 -91 70 -75T81 -42T91 -14Q71 -11 62 4T52 35Q52 58 66 73T115 89Q141 89 158 79T176 35Z" />
<glyph unicode="&lt;" horiz-adv-x="475" d="M63 269Q57 270 54 274T50 290V345Q50 352 54 355T67 362L397 512Q415 520 420 517T425 506V438Q425 434 421 430T406 421L173 314L404 210Q416 204 420 200T425 189V125Q425 105 402 115L63 269Z" />
<glyph unicode="=" horiz-adv-x="501" d="M62 352Q53 352 52 355T50 365V428Q50 436 52 439T63 442H439Q446 442 448 440T451 429V362Q451 356 449 354T438 352H62ZM62 156Q53 156 52 159T50 169V232Q50 240 52 242T63 245H439Q446 245 448 243T451 233V165Q451
159 449 158T438 156H62Z" />
<glyph unicode="&gt;" horiz-adv-x="455" d="M63 114Q51 109 46 111T40 124V188Q40 195 45 199T62 209L292 313L60 420Q40 429 40 438V506Q40 513 45 516T68 511L399 362Q407 358 411 355T415 344V289Q415 278 412 274T402 268L63 114Z" />
<glyph unicode="?" horiz-adv-x="459" d="M118 162Q109 162 108 167T106 182Q106 230 112 264T130 324T161 370T201 409Q214 421 231 432T265 455T291 483T298 519Q296 547 275 559T223 572Q177 572 140 559T84 537Q76 533 73 531T66 540L42 612Q38 622 46 627T61
636Q96 654 138 663T216 673Q308 673 363 632T418 515Q418 466 399 437T352 388T297 349Q266 327 248 302T222 246T214 178Q214 168 212 165T205 162H118ZM93 37Q93 63 108 76T158 89Q198 89 211 76T224 37Q224 11 211 -3T158 -17Q123 -17 108 -3T93 37Z" />
<glyph unicode="@" horiz-adv-x="847" d="M35 327Q35 396 62 460T142 576T268 657T435 688Q539 688 611 662T727 593T792 494T812 382Q812 333 799 288T761 208T700 153T616 133Q586 133 564 145T528 175T509 214Q509 216 508 217T506 217T502 211Q489 187 470
170T427 144T376 135Q320 135 281 160T225 228T212 320Q219 388 250 441T331 525T443 556Q501 556 541 543T622 505Q632 499 635 491T635 471Q629 452 624 434T612 396Q605 375 599 350T588 300T583 255T588 222T607 209Q636 209 657 236T691 307T704 397Q704 436
690 474T645 544T561 594T434 613Q367 613 313 590T220 525T162 434T141 330Q141 277 158 230T212 147T301 90T424 69Q509 69 590 80T733 123Q741 128 746 130T754 135Q763 141 767 139T777 131L805 92Q812 82 807 76T792 64Q788 62 784 59T774 54Q715 22 633 7T426
-8Q331 -8 258 18T135 91T60 199T35 327ZM505 422Q508 433 512 442T516 457Q503 461 488 463T455 466Q416 466 388 439T344 373T327 297Q326 277 329 260T343 232T370 221Q393 221 410 236T443 281Q455 303 471 340T505 422Z" />
<glyph unicode="A" horiz-adv-x="550" d="M31 0Q23 0 21 7T22 34Q29 79 43 142T76 277T116 419T161 551T205 654Q211 663 215 668T227 673H322Q330 670 335 667T345 654Q366 613 389 552T434 419T475 277T508 142T528 34Q532 14 530 7T519 0H416Q408 0 405 4T398
28Q394 51 388 82T376 138Q375 145 373 146T364 148H186Q179 147 178 146T175 137Q170 114 164 83T152 27Q149 9 146 5T135 0H31ZM214 249H336Q343 249 344 251T344 261Q331 312 316 367T285 468Q283 477 278 477H271Q267 477 264 468Q256 442 246 407T225 334T206
260Q205 254 206 252T214 249Z" />
<glyph unicode="B" horiz-adv-x="539" d="M497 192Q497 122 469 80T394 19T290 0H78Q65 0 65 12V660Q65 673 78 673H247Q296 673 339 669T415 648T467 597T486 502Q486 479 479 450T455 394T414 356Q408 354 409 349T414 342Q448 326 472 284T497 192ZM356 194Q356
238 344 259T307 287T249 294H204Q197 294 197 289V98Q197 95 198 94T205 92H264Q278 92 294 95T324 107T347 137T356 194ZM347 496Q347 534 333 552T290 575T223 581H204Q197 581 197 573V404Q197 397 205 397H259Q289 397 308 407T337 438T347 496Z" />
<glyph unicode="C" horiz-adv-x="470" d="M438 35Q438 11 410 4Q396 -1 376 -3T337 -7T308 -8Q187 -8 114 79T41 335Q41 505 111 592T308 680Q318 680 336 679T375 675T410 667Q424 664 431 659T438 645V558Q438 531 409 551Q389 564 365 570T318 577Q277 577
250 560T206 511T183 438T176 348Q176 315 179 280T191 212T215 151T256 109T318 93Q344 93 368 99T406 114Q425 126 431 125T438 109V35Z" />
<glyph unicode="D" horiz-adv-x="584" d="M543 346Q543 259 524 199T475 99T407 39T334 9T267 0H78Q65 0 65 12V660Q65 673 78 673H267Q303 673 341 667T416 642T480 587T526 493T543 346ZM412 346Q412 429 398 475T360 542T310 566T262 571H208Q200 571 199 570T197
563V111Q197 105 198 104T206 102H246Q270 102 298 109T352 140T395 213T412 346Z" />
<glyph unicode="E" horiz-adv-x="455" d="M78 0Q65 0 65 12V660Q65 673 78 673H412Q424 673 426 671T428 658V588Q428 576 425 574T412 571H206Q199 571 198 570T197 563V398Q197 392 198 391T205 389H367Q380 389 382 387T384 370V307Q384 294 382 292T367 289H205Q200
289 199 288T197 282V111Q197 105 198 104T205 102H410Q424 102 426 99T428 83V19Q428 5 425 3T409 0H78Z" />
<glyph unicode="F" horiz-adv-x="445" d="M78 0Q65 0 65 12V660Q65 673 78 673H412Q424 673 426 671T428 658V588Q428 576 425 574T412 571H206Q199 571 198 570T197 563V398Q197 392 198 391T205 389H365Q378 389 380 387T382 370V307Q382 294 380 292T365 289H205Q200
289 199 288T197 282V19Q197 5 195 3T178 0H78Z" />
<glyph unicode="G" horiz-adv-x="575" d="M522 31Q522 18 505 10T458 -2T393 -6Q213 -6 122 78T31 326Q31 435 72 514T187 635T353 678Q393 678 431 675T492 664Q506 660 511 657T517 641V571Q517 552 509 548T491 549Q466 563 440 569T381 576Q352 576 316 566T247
530T193 456T171 332Q171 254 191 207T242 136T305 104T362 96Q388 96 390 109V282Q390 288 389 289T382 290H269Q259 290 256 292T253 304V376Q253 386 255 389T269 392H502Q517 392 519 389T522 370V31Z" />
<glyph unicode="H" horiz-adv-x="611" d="M95 0Q89 0 83 2T76 12Q72 48 69 101T63 218T60 348Q60 409 61 467T67 575T78 660Q79 666 85 669T96 673Q123 673 149 673T202 673Q211 673 210 660Q206 628 203 585T198 494T193 404Q193 395 195 392T207 389Q256 389
306 389T405 389Q412 389 415 391T418 404Q417 446 414 493T408 583T401 660Q401 673 409 673Q435 673 461 673T514 673Q520 673 526 670T533 660Q540 625 544 575T550 466T551 346Q551 281 549 218T543 101T535 12Q534 4 528 2T515 0Q489 0 463 0T410 0Q403 0
404 12Q407 40 409 72T414 140T418 210T419 278Q419 285 417 287T406 289Q356 289 306 289T205 289Q197 289 195 287T192 278Q192 245 193 210T196 140T201 73T207 12Q208 0 201 0Q175 0 149 0T95 0Z" />
<glyph unicode="I" horiz-adv-x="261" d="M197 12Q197 0 183 0H79Q65 0 65 12V660Q65 673 79 673H183Q197 673 197 660V12Z" />
<glyph unicode="J" horiz-adv-x="327" d="M267 181Q267 112 253 73T205 17T116 0H41Q32 0 20 3T7 17V91Q7 103 16 102Q29 101 50 100T83 99Q113 99 123 113T135 171V660Q135 673 148 673H254Q258 673 262 670T267 660V181Z" />
<glyph unicode="K" horiz-adv-x="557" d="M69 0Q65 0 65 4Q65 171 65 337T65 669Q65 673 69 673Q72 673 90 673T131 673T172 673T193 673Q197 673 197 669Q197 631 197 601T197 544T197 487T197 419Q197 416 198 414T201 411H221Q224 411 227 414T232 422Q252
460 267 488T296 541T325 594T360 661Q364 668 368 670T378 673Q381 673 398 673T438 673T478 673T499 673Q509 673 508 666T497 640Q468 593 444 550T396 463T350 365Q346 356 345 349T344 335Q344 315 351 291T369 244T396 200T429 163Q449 144 474 132T535 119Q537
119 540 118T543 115V5Q543 0 540 0Q477 0 433 11T348 54Q329 69 313 88T281 132T253 182T232 238Q230 246 226 249T221 252Q215 252 211 252T201 252Q201 252 199 251T197 245Q197 206 197 178T197 125T197 71T197 4Q197 0 193 0Q190 0 172 0T131 0T90 0T69 0Z"
/>
<glyph unicode="L" horiz-adv-x="438" d="M79 0Q65 0 65 12V660Q65 673 79 673H180Q190 673 193 670T197 656V111Q197 105 198 104T205 102H409Q423 102 425 99T428 83V19Q428 5 425 3T409 0H79Z" />
<glyph unicode="M" horiz-adv-x="711" d="M76 0Q60 0 60 17Q60 89 62 175T70 350T83 519T99 660Q101 667 103 670T113 673H176Q185 673 189 671T197 663L348 409Q351 404 355 404T363 409L515 662Q520 670 523 671T536 673H598Q609 673 611 659Q619 599 626 519T639
351T648 176T652 19Q652 8 649 4T633 0H534Q521 0 521 15Q521 50 520 88T518 167T515 248T510 328T505 403Q504 408 501 408T494 403L384 227Q379 221 372 221H337Q329 221 324 229L218 399Q214 407 211 405T207 399Q203 355 200 313T195 226T193 128T192 8Q192
0 184 0H76Z" />
<glyph unicode="N" horiz-adv-x="642" d="M435 276Q438 272 443 272T448 278Q449 309 449 344T448 417T446 497T441 578T432 659Q431 673 439 673H546Q552 673 557 670T564 660Q571 623 575 571T581 457T582 332T579 208T573 97T565 12Q564 4 559 2T546 0H478Q471
0 462 16L203 402Q202 406 198 406T194 401Q194 347 194 300T194 211T197 134T201 68T207 13Q208 0 200 0H95Q89 0 83 2T75 12Q71 46 68 96T63 207T61 332T61 457T67 571T78 660Q80 666 85 669T96 673H161Q170 673 174 664L435 276Z" />
<glyph unicode="O" horiz-adv-x="638" d="M41 334Q41 443 64 520T148 637T318 678Q402 678 457 655T542 588T584 480T596 334Q596 252 585 189T543 81T457 14T318 -9Q209 -9 149 31T65 148T41 334ZM178 334Q178 241 193 191T238 120T317 100Q365 100 396 119T443
190T460 334Q460 428 444 479T396 551T316 571Q268 571 238 551T193 479T178 334Z" />
<glyph unicode="P" horiz-adv-x="498" d="M468 455Q468 391 445 337T375 251T259 218H205Q201 218 199 216T197 209V12Q197 0 183 0H78Q65 0 65 12V660Q65 673 78 673H248Q365 673 416 620T468 455ZM197 323Q197 314 205 314H246Q290 314 315 351T340 454Q339
524 314 552T244 581H205Q200 581 199 580T197 572V323Z" />
<glyph unicode="Q" horiz-adv-x="638" d="M41 332Q41 443 64 519T148 637T318 678Q403 678 457 655T542 588T584 479T596 332Q596 244 582 177T532 67T429 4Q423 3 415 0T400 -4Q388 -7 388 -15Q388 -41 398 -56T426 -77T470 -84H517Q531 -84 531 -99V-160Q531
-170 529 -173T517 -178Q512 -179 493 -179T460 -180Q389 -180 344 -161T277 -106T252 -17Q252 -9 249 -7T240 -4Q232 -3 222 0T198 9Q137 28 103 70T55 179T41 332ZM178 334Q178 241 192 190T237 120T316 100Q365 100 396 119T443 190T460 334Q460 428 444 479T396
551T316 571Q268 571 238 551T193 479T178 334Z" />
<glyph unicode="R" horiz-adv-x="552" d="M78 0Q65 0 65 12V660Q65 673 78 673H247Q325 673 373 653T445 587T468 465Q468 411 449 364T389 286Q375 273 369 262T373 234Q381 215 391 198T413 166T440 142Q456 131 476 125T523 119Q532 119 534 117T537 104V12Q537
6 535 4T523 1T489 0Q448 0 414 12T351 45Q326 64 305 90T267 148T239 213Q238 215 235 224T226 233H203Q197 233 197 218V12Q197 0 183 0H78ZM197 346Q197 342 199 340T205 338H245Q289 338 314 371T339 464Q339 513 328 538T295 572T242 581H205Q200 581 199
580T197 572V346Z" />
<glyph unicode="S" horiz-adv-x="486" d="M48 37V119Q48 126 52 126T68 122Q88 116 115 111T168 102T210 99Q262 99 289 128T317 195Q317 234 290 258T216 295Q191 301 160 312T99 343T50 398T31 489Q31 557 62 598T144 658T252 678Q274 678 300 674T353 662T399
646Q407 644 409 641T411 631V556Q411 529 378 547Q357 559 328 568T262 578Q218 578 191 555T164 500Q164 469 181 450T225 420T281 402T334 386Q374 373 400 352T441 295T455 206Q455 133 424 86T337 15T212 -8Q181 -8 142 -2T71 15Q58 19 53 23T48 37Z" />
<glyph unicode="T" horiz-adv-x="456" d="M174 0Q170 0 166 3T161 12V564Q161 569 160 570T154 571H33Q22 571 20 573T17 583V661Q17 668 19 670T31 673H423Q433 673 436 671T439 661V584Q439 576 436 574T422 571H301Q295 571 294 570T293 564V12Q293 0 281 0H174Z" />
<glyph unicode="U" horiz-adv-x="635" d="M317 -8Q231 -8 182 11T107 61T74 123T63 178Q59 217 57 261T55 341Q55 388 57 444T63 557T76 662Q77 669 82 671T94 673Q118 673 142 673T191 673Q200 673 201 670T201 649Q197 609 194 567T189 482Q185 407 185 337T191
198Q193 169 201 149T225 117T263 99T314 93Q344 93 366 98T403 116T428 149T440 198Q445 265 445 335T441 481Q440 524 437 566T429 649Q428 667 429 670T440 673Q465 673 490 673T541 673Q549 673 553 671T558 662Q567 614 571 558T578 445T580 342Q580 305 579
261T573 178Q571 159 565 135T545 85T504 39T431 5T317 -8Z" />
<glyph unicode="V" horiz-adv-x="563" d="M237 0Q229 3 224 6T215 18Q193 60 170 121T125 253T84 395T51 530T31 638Q27 658 29 665T40 673H142Q151 673 154 669T161 646Q166 616 172 585T186 524T201 462T219 400T236 339Q245 310 256 272T276 203Q280 195 281
195T287 202Q298 231 308 270T327 339Q335 368 344 399T361 461T377 524T391 585T403 645Q406 664 409 668T420 673H524Q533 673 534 666T533 638Q527 594 513 531T480 396T439 253T395 121T350 18Q344 9 339 6T328 0H237Z" />
<glyph unicode="W" horiz-adv-x="856" d="M237 0Q219 0 209 18Q187 60 164 121T118 254T77 399T44 538T23 655Q22 662 23 667T34 673Q35 673 49 673T83 673T118 673T137 673Q145 673 148 671T153 658Q157 627 168 577T201 438Q217 375 228 329T249 252T266 200Q268
195 269 193T272 190Q274 190 274 190T275 190Q277 190 279 193T282 201Q287 215 294 236T310 283T327 334T343 386T353 432Q357 464 358 502T359 575T359 632T359 655Q358 663 359 668T371 673Q374 673 389 673T422 673T456 673T474 673Q482 673 485 671T488 658Q489
616 492 573T499 495T506 442Q515 385 531 327T570 205Q574 196 575 193T578 190Q580 190 580 190T581 190Q583 190 586 197Q589 205 598 234T622 311T652 423Q664 467 671 497T684 550T695 598T705 655Q707 667 710 670T721 673Q724 673 739 673T773 673T806 673T825
673Q841 673 835 652Q826 609 811 545T777 407T737 260T694 123T650 18Q649 14 644 7T628 0Q620 0 602 0T565 0T537 0Q530 0 524 8T516 18Q503 43 490 74T463 143T437 219Q433 231 429 236T417 220Q401 169 391 137T373 86T360 51T345 18Q341 9 334 5T322 0Q314
0 296 0T260 0T237 0Z" />
<glyph unicode="X" horiz-adv-x="566" d="M404 359Q397 347 397 338T406 316Q413 305 418 299T428 282Q453 242 473 204T509 131T535 70T550 24Q554 10 548 5T531 0H425Q419 0 416 3T407 19Q402 34 393 57T370 108T343 164T316 216T293 256Q288 263 284 263T274
256Q260 233 246 207T218 154T193 102T172 56T158 19Q155 7 152 4T140 0H35Q24 0 19 5T16 24Q18 32 29 63T62 144T120 252Q128 266 139 284T160 316Q164 321 165 337T161 359Q129 409 105 452T64 531T37 596T24 649Q21 663 27 668T43 673H146Q155 673 158 671T163
661Q163 661 167 646T181 606T202 550T232 488T269 427Q271 425 272 423T277 417Q280 413 283 414T289 418Q292 422 292 422T296 426Q316 454 332 486T362 549T383 605T397 645T402 661Q404 668 407 670T419 673H525Q533 673 539 668T543 649Q538 626 525 593T493
520T451 439T404 359Z" />
<glyph unicode="Y" horiz-adv-x="537" d="M346 282Q340 274 338 260T335 234V12Q335 7 331 4T322 0H215Q202 0 202 12V233Q202 258 189 283T167 323Q162 331 151 349T126 390T101 432T86 458Q59 510 43 550T19 617T9 649Q6 663 12 668T29 673H131Q144 673 148
660Q157 631 167 605T187 554T207 511Q221 485 233 464T257 423Q264 413 268 412T279 423Q284 431 290 440T303 461T317 487Q328 507 341 536T368 599T387 661Q389 669 393 671T405 673H512Q519 673 524 668T527 649Q526 643 519 616T496 546T452 452Q446 439 433
417T404 370T373 321T346 282Z" />
<glyph unicode="Z" horiz-adv-x="476" d="M430 673Q437 673 439 671T441 659V608Q441 589 424 563T382 507Q359 479 334 443T284 366T236 281T193 191T158 102H449Q460 102 463 99T466 89V12Q466 4 463 2T450 0H48Q26 0 21 13T18 49Q21 86 34 130T69 222T115 318T168
412T224 498T277 571H44Q31 571 29 574T26 583V661Q26 668 28 670T43 673H430Z" />
<glyph unicode="[" horiz-adv-x="362" d="M304 -97Q304 -110 294 -110H51Q42 -110 39 -107T35 -94V731Q35 747 50 747H289Q299 747 301 746T304 737V677Q304 671 301 670T290 668H160V-32H291Q299 -32 301 -33T304 -43V-97Z" />
<glyph unicode="\" horiz-adv-x="589" d="M468 0Q461 0 457 3T447 14L34 677Q22 697 23 701T33 706H117Q126 706 128 705T136 696L562 16Q567 9 566 5T557 0H468Z" />
<glyph unicode="]" horiz-adv-x="362" d="M69 -110Q58 -110 58 -97V-43Q58 -35 61 -34T71 -32H203V668H72Q65 668 62 669T58 677V737Q58 744 61 745T74 747H313Q327 747 327 731V-94Q327 -103 324 -106T312 -110H69Z" />
<glyph unicode="^" horiz-adv-x="643" d="M54 400Q39 400 36 404T40 417L250 693Q255 699 260 702T284 706H367Q379 706 383 702T392 691L601 420Q613 408 608 404T590 400H493Q487 400 482 403T470 414L322 611L174 416Q166 407 161 404T145 400H54Z" />
<glyph unicode="_" horiz-adv-x="571" d="M22 -107Q15 -107 14 -104T12 -94V-55Q12 -46 13 -44T23 -41H547Q554 -41 556 -43T559 -54V-98Q559 -104 557 -105T545 -107H22Z" />
<glyph unicode="`" horiz-adv-x="182" d="M115 526Q102 526 90 538L2 629Q-2 633 1 638T8 643H101Q111 643 116 640T125 630L177 542Q186 526 175 526H115Z" />
<glyph unicode="a" horiz-adv-x="470" d="M230 -7Q179 -7 135 4T63 49T35 145Q35 197 54 230T104 282T168 306T227 313Q248 313 267 312T304 307Q313 304 313 320Q313 357 291 372T228 387Q190 387 156 373T97 347Q86 341 83 343T77 356L68 412Q66 425 68 429T79
439Q105 456 145 466T230 477Q298 477 339 462T400 420T427 361T434 291Q435 249 435 209T432 128T426 47Q424 36 420 31T404 19Q390 12 367 8T318 0T268 -5T230 -7ZM238 70Q246 70 256 71T276 75T292 84T300 97Q303 121 305 150T305 206Q305 219 295 224Q285 231
267 232T236 234Q227 234 214 231T188 218T169 191T161 145Q161 123 170 106T196 80T238 70Z" />
<glyph unicode="b" horiz-adv-x="486" d="M236 -6Q185 -6 144 2T87 17Q71 22 64 26T53 37T48 54Q43 73 41 111T37 191T35 267Q35 390 41 502T59 698Q60 705 64 706T77 708H171Q186 708 186 704T185 684Q183 667 180 646T175 601T171 555T168 512T167 476Q167 468
171 467T182 466Q192 469 210 472T244 476Q280 476 315 466T380 428T427 353T445 228Q445 107 390 51T236 -6ZM235 92Q258 92 276 104T304 147T315 228Q315 274 308 302T288 344T262 364T235 369Q227 369 216 367T194 362T175 357Q171 356 170 354T167 344Q167
320 167 293T167 236T169 176T171 116Q171 110 172 107T177 102Q187 99 202 96T235 92Z" />
<glyph unicode="c" horiz-adv-x="412" d="M245 -8Q181 -8 139 11T73 64T41 142T32 237Q32 284 41 327T74 405T139 460T244 480Q288 480 320 471T378 441Q385 434 387 431T390 419V345Q390 336 385 336T374 339Q348 362 320 369T261 376Q235 376 216 365T184 333T166
288T159 236Q159 190 170 158T202 108T254 90Q277 90 299 96T349 115Q366 123 373 107L397 51Q401 43 400 39T391 30Q365 11 325 2T245 -8Z" />
<glyph unicode="d" horiz-adv-x="489" d="M37 229Q39 305 57 353T105 428T171 465T244 475Q258 475 276 472T304 467Q311 465 315 466T320 475Q320 493 320 513T318 553T314 594T311 633T307 667Q305 684 308 687T321 690H417Q424 690 428 689T434 681Q438 640
441 586T446 469T448 343T448 222T443 119T433 50Q430 38 425 32T397 18Q378 10 336 2T244 -7Q205 -6 172 2T113 30Q75 57 56 106T37 229ZM168 228Q167 159 184 131T229 98Q241 94 254 94T281 95T305 102Q308 104 309 106T311 114Q312 136 313 160T315 208T317
256T318 302T318 343Q318 350 317 352T311 356Q298 361 281 364T251 368Q239 368 225 363T198 344T177 303T168 228Z" />
<glyph unicode="e" horiz-adv-x="471" d="M32 237Q32 284 42 327T75 405T140 460T245 480Q311 480 350 462T409 412T435 345T442 272Q442 230 433 217T403 203H171Q165 203 164 201T162 191Q162 161 175 137T215 98T276 84Q309 84 339 94T383 113Q395 120 402
121T417 107L438 65Q444 54 441 50T428 38Q393 14 344 3T246 -8Q181 -8 139 11T74 64T42 142T32 237ZM313 293Q313 321 306 341T284 372T242 383Q221 383 207 375T183 354T169 326T162 296Q161 280 162 277T170 273H301Q310 273 312 276T313 293Z" />
<glyph unicode="f" horiz-adv-x="362" d="M90 16Q86 47 84 91T79 186T76 284T75 368Q75 378 66 378H22Q15 378 12 380T9 392V457Q9 469 12 470T25 472H68Q73 472 74 474T75 483Q75 540 81 575T108 640Q133 675 178 693T290 712Q320 712 346 703T383 688Q398 680
401 676T402 663L384 607Q381 596 378 595T367 597Q352 606 331 613T286 620Q254 620 231 601T205 529Q203 518 203 506T202 481Q202 475 203 474T210 472H333Q343 472 344 470T346 455V392Q346 383 344 381T332 378H211Q204 378 203 376T201 369Q201 313 202 256T206
150T211 65T214 15Q214 5 213 3T205 0H102Q97 0 95 3T90 16Z" />
<glyph unicode="g" horiz-adv-x="480" d="M32 242Q33 310 51 363T117 447T251 478Q291 478 329 472T398 454Q422 445 427 434T435 397Q445 316 445 222T434 39Q423 -48 369 -88T221 -129Q184 -129 140 -119T56 -79Q52 -76 49 -69T50 -55Q55 -48 64 -31T78 -7Q85
5 89 6T104 0Q115 -8 134 -16T175 -30T211 -36Q227 -36 246 -31T281 -13T301 26Q301 27 301 28T302 30Q303 37 300 41T287 44Q279 42 264 41T235 39Q181 39 135 61T61 128T32 242ZM166 263Q166 226 173 196T197 150T245 133Q259 133 272 134T296 141Q309 146 310
161Q312 181 312 209T312 268T310 323T308 361Q308 367 306 374T298 384Q289 389 277 391T246 394Q216 394 199 377T174 331T166 263Z" />
<glyph unicode="h" horiz-adv-x="469" d="M43 12Q43 183 43 354T43 696Q43 708 57 708Q83 708 108 708T159 708Q172 708 172 696Q172 641 172 586T172 477Q172 469 176 468T184 468Q193 471 214 475T255 479Q301 479 333 466T386 424T417 352T430 246Q431 204
429 161T423 78T414 10Q413 4 409 2T397 0Q373 0 350 0T304 0Q288 0 287 3T288 24Q293 64 296 108T300 197Q301 240 298 275T287 334T263 371T222 384Q214 384 204 382T185 378Q179 376 176 371T172 356V12Q172 0 159 0H57Q43 0 43 12Z" />
<glyph unicode="i" horiz-adv-x="212" d="M177 601Q177 571 164 556T110 540Q71 540 57 555T42 601Q42 627 56 643T110 660Q153 660 165 644T177 601ZM174 12Q174 0 160 0H58Q46 0 46 12V460Q46 472 58 472H160Q174 472 174 460V12Z" />
<glyph unicode="j" horiz-adv-x="221" d="M-81 -71L-58 -27Q-53 -20 -49 -21T-37 -25Q-16 -35 1 -34Q24 -32 40 -12T56 47V460Q56 472 68 472H171Q184 472 184 460V47Q184 -31 152 -76T34 -121Q8 -121 -18 -116T-63 -100Q-78 -91 -82 -86T-81 -71ZM186 601Q186
571 173 556T119 540Q80 540 66 555T51 601Q51 627 65 643T119 660Q162 660 174 644T186 601Z" />
<glyph unicode="k" horiz-adv-x="450" d="M47 4V679Q47 683 51 683H171Q175 683 175 679V316Q175 314 175 310T178 306Q182 306 187 307T197 310Q204 316 208 320T218 334Q233 354 243 373T263 413T283 459Q287 469 292 470T309 472H412Q421 472 421 467T420 457Q418
453 410 434T387 388T355 332T316 277Q312 272 309 269T303 262Q305 261 309 259T314 255Q331 238 349 209T385 145T416 81T438 30T448 8Q452 0 445 0Q442 0 424 0T385 0T346 0T325 0Q321 0 320 0T316 7Q316 7 309 21T290 58T265 104T241 149T224 178Q220 186 214
195T198 209T178 209Q175 206 175 194V4Q175 0 171 0H51Q47 0 47 4Z" />
<glyph unicode="l" horiz-adv-x="221" d="M47 12V696Q47 708 60 708H161Q175 708 175 696V12Q175 0 161 0H60Q47 0 47 12Z" />
<glyph unicode="m" horiz-adv-x="722" d="M61 0Q47 0 47 13V422Q47 432 52 438T69 448Q87 454 114 460T170 471T219 476Q272 476 305 465T366 431Q386 446 405 455T445 470T490 476Q569 476 611 446T670 364T687 250Q687 199 685 159T680 84T670 10Q670 3 668
2T661 0H554Q548 0 547 3T545 19Q548 48 550 86T553 169T554 254Q554 270 552 290T542 330T519 363T479 376Q450 376 439 367T428 338Q428 295 428 254T429 174T429 95T428 14Q428 0 415 0H309Q300 0 300 10V253Q300 289 293 316T269 360T219 376Q210 376 202 375T186
370Q174 366 174 353V16Q174 0 161 0H61Z" />
<glyph unicode="n" horiz-adv-x="469" d="M61 0Q47 0 47 13Q47 117 47 220T47 428Q47 438 54 443T81 455Q94 459 119 464T175 475T229 480Q312 480 356 449T417 366T434 252Q434 215 433 175T428 95T422 24Q420 6 416 3T398 0H316Q302 0 298 3T294 19Q294 23 295
50T299 116T302 191T304 251Q304 303 295 330T269 368T226 378Q216 378 207 377T191 374Q182 373 178 366T174 343Q174 301 174 246T174 132T174 13Q174 0 163 0H61Z" />
<glyph unicode="o" horiz-adv-x="503" d="M251 -8Q164 -8 117 24T51 112T32 239Q32 308 53 362T121 448T251 480Q334 480 381 449T449 363T470 239Q470 169 452 114T387 25T251 -8ZM250 90Q299 90 319 128T339 235Q339 304 318 339T250 375Q205 375 184 340T162
235Q162 165 181 128T250 90Z" />
<glyph unicode="p" horiz-adv-x="485" d="M55 -98Q51 -62 49 14T47 209Q47 243 48 284T51 365T59 426Q61 437 67 443T94 458Q115 465 156 473T249 481Q347 481 401 425T456 247Q456 197 448 158T422 89T383 40T332 11Q314 3 290 -1T242 -6T199 -4Q190 -3 185 -3T180
-9Q180 -16 180 -31T180 -61T181 -84Q183 -97 183 -102T167 -108H72Q64 -108 60 -106T55 -98ZM178 130Q178 123 180 121T187 117Q200 112 217 109T246 106Q259 106 272 111T298 130T318 173T326 248Q326 325 304 354T247 383Q231 383 215 380T188 373Q186 371 184
368T182 360Q181 339 181 315T180 267T179 218T178 171T178 130Z" />
<glyph unicode="q" horiz-adv-x="491" d="M146 11Q122 21 101 38T63 84T38 152T32 247Q37 368 95 424T252 481Q303 481 344 473T407 458Q426 450 431 444T440 426Q443 409 443 370T443 278T439 169T433 58T427 -36T419 -98Q417 -104 413 -106T401 -108H305Q291
-108 291 -103T293 -84Q294 -76 295 -61T297 -31T298 -9Q298 -2 293 -2T277 -4Q247 -8 211 -5T146 11ZM163 248Q161 201 167 173T184 131T210 112T236 106Q249 106 266 109T298 117Q302 118 304 120T306 130Q307 148 308 170T309 217T310 266T311 315T312 360Q313
365 312 368T308 373Q296 377 281 380T248 383Q213 383 190 354T163 248Z" />
<glyph unicode="r" horiz-adv-x="338" d="M206 476Q282 476 331 454Q341 450 342 446T343 435L325 373Q323 365 320 364T308 365Q291 370 270 372T238 375Q222 375 211 374T194 370T184 366Q180 363 176 359T171 341V21Q171 7 167 4T153 0H56Q51 0 47 3T43 17V417Q43
433 46 437T61 447Q91 461 132 468T206 476Z" />
<glyph unicode="s" horiz-adv-x="410" d="M41 116Q44 127 50 126T63 120Q80 112 102 106T149 96T192 92Q212 92 228 96T255 111T265 137Q266 159 246 170T174 193Q142 200 109 213T53 254T31 327Q31 378 57 410T124 460T213 477Q250 477 294 466T367 438Q376 433
376 429T375 418L351 353Q348 341 332 347Q310 360 278 371T213 382Q190 382 173 371T155 341Q155 319 175 309T233 291Q261 285 287 278T335 256T370 217T383 153Q383 108 366 78T321 29T259 3T192 -5Q174 -5 145 -1T86 12T35 36Q31 38 29 41T27 51L41 116Z" />
<glyph unicode="t" horiz-adv-x="358" d="M232 0Q164 0 131 28T86 108Q78 150 78 194T77 283Q77 312 77 334T79 383Q79 393 70 393H29Q21 393 19 395T16 407V457Q16 469 18 470T32 472H73Q81 472 82 476T84 489L88 564Q88 576 100 576H200Q205 576 210 573T214
564L209 489Q208 477 209 475T217 472H301Q311 472 313 470T315 455V408Q315 398 312 396T299 393H216Q210 393 208 390T205 379Q204 353 203 327T202 272Q202 237 203 202T212 133Q218 114 229 106T258 98Q270 98 281 101T300 107Q312 114 315 112T322 99L339
39Q343 32 337 27T313 14Q301 10 287 7T259 2T232 0Z" />
<glyph unicode="u" horiz-adv-x="475" d="M246 -4Q164 -4 120 27T58 109T41 222Q41 259 42 299T47 377T54 448Q56 466 60 469T78 472H159Q173 472 179 472T182 453Q182 449 181 424T177 363T174 288T173 218Q173 155 190 126T249 96Q254 96 263 96T281 99T296
105T302 116V455Q302 460 303 466T310 472H414Q418 472 423 470T428 459V50Q428 38 421 33T392 20Q381 16 356 11T301 1T246 -4Z" />
<glyph unicode="v" horiz-adv-x="422" d="M179 0Q171 0 167 6Q140 47 121 95T84 190Q54 270 39 331T14 443Q9 472 23 472H130Q137 472 141 468T146 458Q149 429 155 396T172 320Q183 271 192 239T210 179Q213 170 217 171T225 179Q232 198 239 225T256 295Q266
343 274 389T285 466Q286 471 291 471H405Q411 471 410 464Q400 400 384 331T341 189Q326 145 306 100T259 5Q256 -1 250 -1L179 0Z" />
<glyph unicode="w" horiz-adv-x="649" d="M158 16Q131 70 108 127T66 242T35 349T15 437Q12 452 13 462T23 472H130Q144 472 146 458Q152 428 159 394T174 327T190 263T204 209T216 173Q218 165 220 166T224 170Q231 183 237 203T248 247T256 292T259 327Q259
345 259 363T258 399T258 432T257 457Q257 471 270 471H381Q386 471 390 468T394 457Q394 430 395 393T399 315Q401 300 403 284T410 250T419 218T428 190T436 169Q442 157 445 169Q451 185 457 209T471 262T486 325T500 391T512 455Q515 472 533 472H625Q635 472
636 464T635 442Q628 397 613 338T578 216T536 101T493 16Q488 8 484 4T475 0H407Q400 0 397 2T389 11Q382 22 372 43T351 87T335 127Q326 151 317 127Q316 122 311 110T299 84T289 62Q282 48 274 33T262 11Q259 7 255 4T243 0H179Q169 0 167 2T158 16Z" />
<glyph unicode="x" horiz-adv-x="420" d="M25 0Q16 0 14 7T14 23T17 34Q19 46 26 66T44 113T71 172T106 238Q109 243 109 246T104 255Q81 287 63 323T34 392T16 445T10 466Q9 472 14 472H134Q141 472 144 470T151 458Q153 447 160 423T176 372T196 325T215 299Q217
299 218 299T222 299Q232 304 241 324T260 369T275 418T284 455Q286 464 290 468T308 472H397Q400 472 405 470T410 458Q408 448 403 427T388 378T362 319T323 255Q316 248 324 237Q349 202 365 168T391 104T404 55T410 30Q413 17 412 9T400 0H311Q297 0 293 4T287
17Q283 31 277 55T261 105T242 151T222 179Q216 179 216 179T218 179T213 179Q199 156 187 128T167 74T153 31T148 14Q145 5 142 3T130 0H25Z" />
<glyph unicode="y" horiz-adv-x="425" d="M124 106Q105 144 89 186T58 274T34 364T16 452Q13 472 28 472H128Q139 472 143 467T150 446Q152 431 156 408T166 357T179 300T194 243T210 194Q214 187 218 187T223 194Q232 222 241 254T259 320T275 388T288 454Q290
464 293 468T308 472H394Q403 472 408 469T411 451Q405 411 396 375T376 301T349 216Q338 187 323 145T285 56T231 -29T157 -93T60 -118Q33 -118 15 -115T-17 -105Q-38 -95 -28 -76L-4 -29Q1 -20 5 -20T16 -22Q33 -26 52 -23T88 -10Q106 0 116 11T133 34Q140 51
137 70T124 106Z" />
<glyph unicode="z" horiz-adv-x="385" d="M26 35Q31 88 54 139T108 240Q129 273 151 304T196 362Q199 365 199 368T193 373H60Q52 373 50 375T47 387V457Q47 469 49 470T63 472H345Q356 472 357 468T359 454V393Q359 387 356 379T339 361Q324 351 306 332T271
289T235 241Q213 207 194 174T162 112Q161 108 162 103T173 98H347Q356 98 357 95T358 82V12Q358 4 355 2T339 0H42Q32 0 28 5T26 35Z" />
<glyph unicode="{" horiz-adv-x="437" d="M378 -85Q378 -101 374 -106T352 -111H261Q207 -111 182 -91T149 -43T141 13V194Q141 218 131 236T105 265Q99 270 85 274T46 278Q39 278 37 282T35 293V361Q35 368 40 369T56 371Q93 371 117 392T141 454V620Q141 648
148 676T181 724T261 744H368Q375 744 376 742T378 735V676Q378 673 377 670T368 666H307Q285 666 279 655T272 620V454Q272 429 260 403T227 357T176 327Q172 326 169 325T162 323Q166 322 171 320T180 316Q221 299 246 264T272 194V13Q272 -8 278 -20T307 -33H352Q367
-33 372 -37T378 -58V-85Z" />
<glyph unicode="|" horiz-adv-x="274" d="M190 706Q200 706 202 702T204 687V-97Q204 -102 202 -106T189 -111H86Q79 -111 75 -107T70 -85V690Q70 699 73 702T86 706H190Z" />
<glyph unicode="}" horiz-adv-x="437" d="M58 -85V-58Q58 -41 64 -37T84 -33H129Q153 -33 159 -21T165 13V194Q165 228 190 263T256 316Q261 318 265 320T274 323Q271 324 268 325T261 327Q233 336 211 356T177 403T165 454V620Q165 643 159 654T129 666H69Q62
666 60 669T58 676V735Q58 739 60 741T69 744H175Q230 744 255 724T288 676T295 620V454Q295 414 319 393T381 371Q393 371 397 370T402 361V293Q402 287 400 283T390 278Q367 278 352 274T331 265Q316 255 306 237T295 194V13Q295 -14 288 -42T256 -91T175 -111H84Q68
-111 63 -106T58 -85Z" />
<glyph unicode="~" horiz-adv-x="500" d="M456 576Q429 550 396 535T329 520Q305 520 285 526T247 541T211 556T174 563Q158 563 143 556T115 538T96 520Q92 514 89 514T79 519L40 558Q34 563 35 569T38 579Q50 593 68 611T112 643T165 656Q182 656 198 653T229
644T259 634T289 623Q302 619 321 619T362 624T400 646Q404 650 408 652T419 647L460 604Q467 598 465 591T456 576Z" />
<glyph unicode="&#xa0;" horiz-adv-x="229" />
<glyph unicode="&#xa1;" horiz-adv-x="247" d="M165 264Q172 264 175 262T178 249L193 -182Q193 -188 192 -191T183 -195H64Q53 -195 53 -183L69 249Q70 259 72 261T84 264H165ZM62 441Q62 467 75 481T128 495Q163 495 178 481T194 441Q194 416 179 403T128 389Q88
389 75 402T62 441Z" />
<glyph unicode="&#xa2;" horiz-adv-x="461" d="M260 73Q196 73 154 92T88 144T56 222T47 315Q47 361 56 404T89 482T154 537T259 557Q303 557 335 548T393 519Q400 511 402 508T405 497V424Q405 415 400 415T389 418Q363 440 335 446T276 453Q250 453 231 442T199
410T181 366T174 314Q174 269 185 237T217 188T269 171Q292 171 314 177T364 195Q381 204 388 188L412 132Q416 124 415 120T406 110Q380 91 340 82T260 73ZM311 131V-46Q311 -51 309 -55T296 -60H193Q186 -60 182 -56T177 -34V131H311ZM177 490V690Q177 699 180
702T193 706H297Q307 706 309 702T311 687V490H177Z" />
<glyph unicode="&#xa3;" horiz-adv-x="536" d="M370 -12Q336 -12 308 -6T239 10Q217 16 197 19T159 22Q139 21 109 18T56 6Q42 2 36 3T29 16Q29 30 29 44T29 72Q29 81 32 86T45 94Q87 109 111 128T147 174T157 242Q134 242 112 242T67 242Q56 242 51 245T46 256Q46
270 46 283T46 309Q46 324 48 327T58 331Q78 331 96 331T135 331Q118 376 105 424T91 508Q91 550 116 588T187 651T297 675Q314 675 337 672T384 663T424 650Q430 647 432 640T434 628Q434 612 434 595T434 561Q434 553 432 550T416 552Q387 565 358 574T312 583Q282
583 263 573T234 546T225 508Q225 467 238 424T261 331Q288 331 315 331T368 331Q376 331 377 326T379 309Q379 297 379 284T379 258Q379 248 377 245T365 242Q343 242 321 242T275 242Q275 239 275 235T276 227Q276 188 268 161T240 102Q274 95 296 90T335 83T372
80Q401 80 428 87T475 105Q489 111 489 93V42Q489 27 486 22T479 14Q455 -2 428 -7T370 -12Z" />
<glyph unicode="&#xa4;" horiz-adv-x="530" d="M91 144L53 181Q48 187 47 191T50 201L133 276Q127 290 124 305T120 336Q120 353 124 368T135 399L63 465Q58 469 60 474T68 483L108 523Q114 528 117 528T124 523L193 459Q210 468 228 473T266 478Q303 478 337
460L406 523Q411 527 413 527T422 523L462 483Q468 479 470 474T467 465L397 401Q405 386 409 370T414 336Q414 303 398 274L480 201Q485 196 484 192T476 181L438 144Q431 138 427 138T416 144L339 214Q307 195 266 195Q224 195 192 214L114 144Q108 138 103 138T91
144ZM193 336Q193 306 214 286T266 266Q297 266 317 286T338 336Q338 366 318 386T266 406Q235 406 214 386T193 336Z" />
<glyph unicode="&#xa5;" horiz-adv-x="577" d="M366 282Q360 274 358 260T355 234V12Q355 7 351 4T342 0H235Q222 0 222 12V233Q222 258 209 283T187 323Q182 331 171 349T146 390T121 432T106 458Q79 510 63 550T39 617T29 649Q26 663 32 668T49 673H151Q164
673 168 660Q177 631 187 605T207 554T227 511Q241 485 253 464T277 423Q284 413 288 412T299 423Q304 431 310 440T323 461T337 487Q348 507 361 536T388 599T407 661Q409 669 413 671T425 673H532Q539 673 544 668T547 649Q546 643 539 616T516 546T472 452Q466
439 453 417T424 370T393 321T366 282ZM116 212Q107 212 106 215T105 224V265Q105 274 107 276T118 279H451Q458 279 460 277T463 267V222Q463 216 461 214T450 212H116ZM116 104Q107 104 106 106T105 116V157Q105 166 107 168T118 171H451Q458 171 460 169T463
158V113Q463 107 461 106T450 104H116Z" />
<glyph unicode="&#xa6;" horiz-adv-x="274" d="M204 298V-97Q204 -102 202 -106T189 -111H86Q79 -111 75 -107T70 -85V298H204ZM70 347V690Q70 699 73 702T86 706H190Q200 706 202 702T204 687V347H70Z" />
<glyph unicode="&#xa7;" horiz-adv-x="578" d="M53 -188V-114Q53 -107 57 -107T71 -110Q89 -116 113 -121T161 -129T200 -132Q247 -132 271 -106T296 -45Q296 -20 284 -3T251 27T204 46Q182 51 154 61T99 89T55 139T37 221Q37 282 62 331T133 408T240 437Q260
437 288 433T346 421T395 403Q404 401 406 397T408 385V303Q408 274 374 293Q360 302 340 310T296 322T250 327Q220 327 196 316T159 286T146 245Q150 211 168 192T211 161T262 143T310 129Q336 120 356 107T391 76T413 30T421 -35Q421 -101 393 -144T315 -207T201
-228Q173 -228 138 -223T74 -207Q62 -204 58 -200T53 -188ZM156 96L154 172Q154 177 157 181T166 186T176 183Q220 155 249 151T301 148Q346 152 370 178T395 238Q395 265 383 280T350 306T304 322Q282 328 254 337T199 365T156 415T139 495Q139 555 167 592T240
646T336 664Q354 664 377 660T425 650T467 636Q474 634 476 631T478 622V555Q478 531 449 547Q437 554 420 560T383 570T345 574Q306 574 282 554T258 506Q258 477 273 461T312 434T362 418T409 404Q442 393 466 374T504 324T518 245Q518 179 490 137T413 76T303
56Q274 56 240 61T176 76Q164 80 160 84T156 96Z" />
<glyph unicode="&#xa8;" horiz-adv-x="277" d="M112 574Q112 551 100 539T56 526Q28 526 15 538T2 574Q2 597 15 609T56 621Q88 621 100 609T112 574ZM272 574Q272 551 261 539T218 526Q188 526 176 538T163 574Q163 597 175 609T218 621Q250 621 261 609T272 574Z" />
<glyph unicode="&#xa9;" horiz-adv-x="863" d="M47 333Q47 407 77 471T160 585T282 662T432 690Q512 690 581 662T704 585T787 472T817 333Q817 259 788 194T705 79T582 1T432 -27Q352 -27 282 1T160 78T77 193T47 333ZM144 333Q144 277 166 228T228 141T320 83T432
61Q491 61 543 82T634 141T696 227T719 333Q719 389 697 437T635 522T543 579T432 600Q372 600 320 580T229 523T167 438T144 333ZM255 333Q255 397 280 440T351 505T461 527Q474 527 498 526T541 519Q550 517 556 515T563 506V457Q563 443 538 454Q521 461 503
464T469 468Q430 468 406 453T371 409T360 340Q360 304 370 270T406 215T477 196Q493 197 510 200T538 208Q553 215 558 214T564 205V163Q564 156 558 152T542 145Q527 141 505 140T470 138Q407 135 358 157T282 223T255 333Z" />
<glyph unicode="&#xaa;" horiz-adv-x="470" d="M230 -7Q179 -7 135 4T63 49T35 145Q35 197 54 230T104 282T168 306T227 313Q248 313 267 312T304 307Q313 304 313 320Q313 357 291 372T228 387Q190 387 156 373T97 347Q86 341 83 343T77 356L68 412Q66 425 68
429T79 439Q105 456 145 466T230 477Q298 477 339 462T400 420T427 361T434 291Q435 249 435 209T432 128T426 47Q424 36 420 31T404 19Q390 12 367 8T318 0T268 -5T230 -7ZM238 70Q246 70 256 71T276 75T292 84T300 97Q303 121 305 150T305 206Q305 219 295 224Q285
231 267 232T236 234Q227 234 214 231T188 218T169 191T161 145Q161 123 170 106T196 80T238 70Z" />
<glyph unicode="&#xab;" horiz-adv-x="553" d="M383 148Q378 148 375 152Q344 195 313 239T250 327Q239 337 250 346Q281 390 312 433T375 521Q377 523 379 523T383 524Q410 524 437 524T490 524Q496 524 495 522T492 517Q491 516 478 498T445 452T408 399T377
354T364 336Q364 336 376 318T407 274T445 221T477 175T492 155Q494 154 495 151T490 148Q465 148 438 148T383 148ZM174 148Q169 148 166 152Q135 195 104 239T41 327Q30 337 41 346Q72 390 103 433T166 521Q168 523 170 523T174 524Q201 524 228 524T281 524Q287
524 286 522T283 517Q282 516 269 498T236 452T199 399T168 354T155 336Q155 336 167 318T198 274T236 221T268 175T283 155Q285 154 286 151T281 148Q256 148 229 148T174 148Z" />
<glyph unicode="&#xac;" horiz-adv-x="708" d="M595 106Q586 106 584 108T582 117V297H61Q53 297 52 299T50 307V365Q50 372 52 374T63 377H646Q653 377 655 375T658 366V116Q658 109 656 108T646 106H595Z" />
<glyph unicode="&#xad;" horiz-adv-x="403" d="M58 229Q49 229 48 232T47 241V308Q47 316 48 318T59 321H345Q352 321 354 319T357 309V238Q357 232 355 231T344 229H58Z" />
<glyph unicode="&#xae;" horiz-adv-x="666" d="M333 193Q276 193 227 213T139 267T80 348T58 447Q58 500 80 546T140 626T227 680T333 700Q410 700 472 666T571 575T608 447Q608 395 587 349T527 268T440 213T333 193ZM333 256Q390 256 436 282T510 351T538 447Q538
500 511 543T437 611T333 636Q277 636 231 611T156 543T128 447Q128 395 156 352T230 282T333 256ZM247 317Q240 317 240 322V580Q240 586 247 586H325Q379 586 403 567T428 501Q428 479 418 461T390 430Q384 425 382 421T383 409Q389 398 395 390T412 376Q420
372 429 369T451 366Q456 366 456 365T457 360V323Q457 319 455 319T436 318Q417 318 401 322T372 335Q354 347 338 363T320 401Q320 401 319 404T314 408H305Q303 408 303 403V322Q303 317 297 317H247ZM303 455Q303 452 307 452H324Q344 452 356 464T368 500Q368
530 357 539T323 548H306Q303 548 303 544V455Z" />
<glyph unicode="&#xaf;" horiz-adv-x="233" d="M233 537Q233 533 232 532T222 531H10Q3 531 2 533T0 539V599Q0 605 2 606T10 608H223Q230 608 231 607T233 599V537Z" />
<glyph unicode="&#xb0;" horiz-adv-x="387" d="M47 685Q47 724 66 756T119 807T193 827Q234 827 267 808T320 756T340 685Q340 646 321 615T268 564T193 545Q152 545 119 564T67 614T47 685ZM120 685Q120 655 141 635T193 615Q224 615 244 635T265 685Q265 715
245 735T193 755Q162 755 141 735T120 685Z" />
<glyph unicode="&#xb1;" horiz-adv-x="486" d="M206 159Q197 159 195 161T193 170V299H62Q54 299 53 301T51 310V366Q51 373 53 375T62 377H193V505Q193 512 195 514T205 516H276Q281 516 282 514T284 504V377L426 376Q432 376 434 374T436 364V305Q436 301 435
299T425 297L284 299V169Q284 162 282 161T272 159H206ZM64 27Q54 27 52 29T50 39V93Q50 101 52 103T65 105H420Q430 105 432 104T435 94V36Q435 30 433 29T419 27H64Z" />
<glyph unicode="&#xb2;" horiz-adv-x="357" d="M42 250Q33 250 31 251T29 260V312Q29 323 37 328Q67 346 100 371T161 424T206 483T224 541Q224 564 208 583T149 602Q118 602 94 593T55 574T34 565Q29 565 29 572V641Q29 647 30 649T41 657Q60 667 94 678T163
690Q204 690 240 675T301 628T325 545Q325 515 315 488T286 434T241 382T183 331Q182 330 183 328T185 326H319Q326 326 326 320V261Q326 253 325 252T315 250H42Z" />
<glyph unicode="&#xb3;" horiz-adv-x="362" d="M168 247Q126 247 91 263T29 309Q23 315 24 319T29 327L65 370Q75 381 85 372Q102 355 123 345T168 334Q189 334 203 341T224 361T231 387Q231 402 213 421T154 441Q148 441 142 441T126 441Q114 441 114 455V507Q114
521 126 521Q134 521 146 521T170 521Q194 521 208 535T223 566Q223 581 210 593T165 605Q143 605 122 596T83 568Q72 557 64 570L31 626Q29 630 31 636T35 644Q75 675 110 683T172 691Q220 691 252 675T300 632T317 577Q317 541 297 515T251 483Q247 482 245 482T242
481Q242 481 244 481T252 479Q284 474 307 451T330 387Q330 353 311 321T256 268T168 247Z" />
<glyph unicode="&#xb4;" horiz-adv-x="181" d="M10 525Q1 525 1 528T7 541L72 634Q77 642 93 642H173Q179 642 181 639T176 629L89 532Q84 526 80 526T68 525H10Z" />
<glyph unicode="&#xb5;" horiz-adv-x="541" d="M72 -108Q63 -108 59 -105T53 -90Q52 -70 51 -33T50 50T50 147Q49 168 48 186T47 222Q47 259 49 299T53 377T60 447Q61 465 65 468T84 472H170Q182 472 186 469T188 453Q188 448 186 423T182 362T179 286T177 214Q177
146 196 121T256 96Q281 96 294 103T308 125V455Q308 465 310 468T321 472H420Q427 472 430 469T434 455V132Q434 110 444 102T467 93Q478 93 488 96T503 103Q518 113 523 98L541 37Q544 24 525 15Q505 6 489 1T446 -5Q428 -5 406 2T367 23T343 58L381 50Q358 26
324 11T252 -4Q214 -4 183 11T138 49L167 55Q169 40 171 20T174 -20Q176 -34 178 -48T181 -73T182 -89Q184 -99 181 -103T167 -108H72Z" />
<glyph unicode="&#xb6;" horiz-adv-x="560" d="M226 299Q217 299 210 299T194 301Q155 305 125 321T75 364T45 420T35 484Q35 537 55 579T119 647T229 673Q300 673 371 673T511 673Q521 673 524 671T528 660V609Q528 595 527 592T518 589Q509 589 501 589T484
589Q484 517 484 433T484 260T484 88T484 -69Q484 -77 483 -78T475 -80H398Q388 -80 386 -79T384 -69Q384 2 384 86T384 257T384 429T384 584Q384 587 379 589Q369 589 357 589T336 589Q331 588 331 585V-69Q331 -77 330 -78T321 -80H234Q229 -80 228 -79T226 -69V299Z"
/>
<glyph unicode="&#xb7;" horiz-adv-x="305" d="M213 288Q213 262 201 249T147 235Q113 235 98 248T82 288Q82 314 97 327T147 341Q188 341 200 328T213 288Z" />
<glyph unicode="&#xb8;" horiz-adv-x="207" d="M194 -127Q194 -157 169 -181T99 -205Q65 -205 43 -192T6 -160Q0 -152 0 -144T9 -131L30 -122Q40 -117 45 -118T53 -125Q59 -137 69 -144T91 -151Q108 -151 116 -142T124 -123Q124 -111 116 -104T94 -94T66 -90Q57
-90 53 -84T54 -70L90 -8Q94 -2 98 0T109 3H139Q151 3 146 -9L119 -75L99 -49Q146 -54 170 -73T194 -127Z" />
<glyph unicode="&#xb9;" horiz-adv-x="213" d="M75 250Q65 250 65 260V572Q65 576 61 574L12 550Q8 548 4 548T-3 553L-32 603Q-39 613 -27 620L90 683Q95 686 98 686T106 687H160Q169 687 169 678V260Q169 250 160 250H75Z" />
<glyph unicode="&#xba;" horiz-adv-x="503" d="M251 -8Q164 -8 117 24T51 112T32 239Q32 308 53 362T121 448T251 480Q334 480 381 449T449 363T470 239Q470 169 452 114T387 25T251 -8ZM250 90Q299 90 319 128T339 235Q339 304 318 339T250 375Q205 375 184 340T162
235Q162 165 181 128T250 90Z" />
<glyph unicode="&#xbb;" horiz-adv-x="574" d="M293 148Q288 148 289 151T292 155Q293 156 306 175T338 220T375 273T406 318T419 336Q419 336 407 354T376 398T339 452T307 497T292 517Q291 519 290 521T293 524Q319 524 346 524T400 524Q402 524 404 524T408
521Q439 477 470 434T534 346Q544 337 534 327Q502 283 471 239T408 152Q405 148 400 148Q374 148 347 148T293 148ZM62 148Q57 148 58 151T61 155Q62 156 75 175T107 220T145 273T176 318T189 336Q189 336 177 354T145 398T108 452T76 497T61 517Q60 519 59 521T62
524Q88 524 115 524T170 524Q172 524 174 524T178 521Q209 477 240 434T303 346Q314 337 303 327Q272 283 241 239T178 152Q175 148 170 148Q143 148 116 148T62 148Z" />
<glyph unicode="&#xbc;" horiz-adv-x="788" d="M159 245Q151 245 151 253V597Q151 603 147 600L89 569Q80 564 76 572L50 615Q46 623 55 629L171 694Q175 697 178 698T186 699H231Q240 699 240 690V253Q240 245 231 245H159ZM610 -2Q602 -2 602 7V107Q602 114
595 114H421Q413 114 413 123V165Q413 170 416 175T421 184L609 451Q612 456 614 458T622 460H677Q686 460 686 450V185Q686 178 693 178H734Q739 178 739 172V121Q739 114 734 114H693Q686 114 686 107V7Q686 -2 678 -2H610ZM511 178H595Q602 178 602 185V322Q602
326 601 326T598 323L507 186Q505 182 506 180T511 178ZM170 0Q161 0 161 4T164 15L559 690Q562 697 564 698T575 700H629Q639 700 641 696T635 671L249 14Q245 8 241 4T229 0H170Z" />
<glyph unicode="&#xbd;" horiz-adv-x="840" d="M153 0Q145 0 144 4T148 15L542 690Q545 697 547 698T558 700H612Q622 700 624 696T618 671L232 14Q229 8 225 4T212 0H153ZM159 245Q151 245 151 253V597Q151 603 147 600L89 569Q80 564 76 572L50 615Q46 623 55
629L171 694Q175 697 178 698T186 699H231Q240 699 240 690V253Q240 245 231 245H159ZM513 0Q506 0 505 1T503 8V54Q503 63 509 67Q540 87 573 114T636 171T684 235T702 301Q702 322 694 338T668 364T622 373Q592 373 570 365T534 348T513 338Q506 337 506 344V401Q506
407 507 409T515 415Q527 422 545 429T586 442T632 448Q671 448 706 433T764 386T786 304Q786 270 775 240T742 180T693 123T632 70Q631 68 631 67T635 65H782Q788 65 788 59V9Q788 2 787 1T778 0H513Z" />
<glyph unicode="&#xbe;" horiz-adv-x="835" d="M657 -2Q649 -2 649 7V107Q649 114 642 114H468Q459 114 459 123V165Q459 170 462 175T468 184L656 451Q659 456 661 458T669 460H724Q733 460 733 450V185Q733 178 740 178H780Q786 178 786 172V121Q786 114 780
114H740Q733 114 733 107V7Q733 -2 725 -2H657ZM557 178H642Q649 178 649 185V322Q649 326 648 326T645 323L553 186Q551 182 552 180T557 178ZM172 253Q145 253 122 260T78 279T42 309Q37 315 38 318T42 325L72 361Q80 371 88 362Q105 345 126 336T171 326Q193
326 209 335T233 359T241 389Q241 403 233 418T206 443T159 454Q153 454 148 454T136 454Q131 454 128 456T125 466V509Q125 521 136 521Q142 521 151 521T172 521Q191 521 205 529T226 551T233 578Q233 591 226 602T205 620T169 627Q148 627 126 617T87 591Q78
582 72 592L44 639Q42 643 43 647T46 653Q70 671 93 681T137 695T175 698Q220 698 250 682T295 641T310 586Q310 551 292 525T247 490Q239 488 239 488Q239 487 248 485Q280 478 301 454T323 389Q323 355 305 324T254 273T172 253ZM206 0Q197 0 197 4T200 15L595
690Q598 697 600 698T610 700H665Q674 700 677 696T671 671L285 14Q281 8 277 4T265 0H206Z" />
<glyph unicode="&#xbf;" horiz-adv-x="459" d="M340 316Q350 316 351 311T353 296Q353 248 347 214T328 154T298 108T257 69Q244 57 227 46T193 23T168 -5T161 -41Q162 -68 183 -81T236 -94Q281 -94 319 -81T374 -59Q383 -54 386 -52T393 -62L417 -134Q420 -143
412 -149T398 -158Q364 -176 321 -185T243 -195Q151 -195 96 -154T41 -37Q41 12 60 42T107 91T161 129Q194 152 212 177T237 232T245 300Q245 310 247 313T254 316H340ZM366 441Q366 416 351 403T301 389Q261 389 248 402T235 441Q235 467 248 481T301 495Q335
495 350 481T366 441Z" />
<glyph unicode="&#xc0;" horiz-adv-x="550" d="M31 0Q23 0 21 7T22 34Q29 79 43 142T76 277T116 419T161 551T205 654Q211 663 215 668T227 673H322Q330 670 335 667T345 654Q366 613 389 552T434 419T475 277T508 142T528 34Q532 14 530 7T519 0H416Q408 0 405
4T398 28Q394 51 388 82T376 138Q375 145 373 146T364 148H186Q179 147 178 146T175 137Q170 114 164 83T152 27Q149 9 146 5T135 0H31ZM214 249H336Q343 249 344 251T344 261Q331 312 316 367T285 468Q283 477 278 477H271Q267 477 264 468Q256 442 246 407T225
334T206 260Q205 254 206 252T214 249ZM271 716Q264 716 259 719T246 728L146 803Q142 806 145 811T152 816H245Q255 816 259 814T269 804L333 732Q339 726 339 721T331 716H271Z" />
<glyph unicode="&#xc1;" horiz-adv-x="550" d="M31 0Q23 0 21 7T22 34Q29 79 43 142T76 277T116 419T161 551T205 654Q211 663 215 668T227 673H322Q330 670 335 667T345 654Q366 613 389 552T434 419T475 277T508 142T528 34Q532 14 530 7T519 0H416Q408 0 405
4T398 28Q394 51 388 82T376 138Q375 145 373 146T364 148H186Q179 147 178 146T175 137Q170 114 164 83T152 27Q149 9 146 5T135 0H31ZM214 249H336Q343 249 344 251T344 261Q331 312 316 367T285 468Q283 477 278 477H271Q267 477 264 468Q256 442 246 407T225
334T206 260Q205 254 206 252T214 249ZM278 716H218Q211 716 211 721T216 732L280 804Q286 811 290 813T304 816H397Q402 816 405 811T403 803L303 728Q295 722 290 719T278 716Z" />
<glyph unicode="&#xc2;" horiz-adv-x="550" d="M31 0Q23 0 21 7T22 34Q29 79 43 142T76 277T116 419T161 551T205 654Q211 663 215 668T227 673H322Q330 670 335 667T345 654Q366 613 389 552T434 419T475 277T508 142T528 34Q532 14 530 7T519 0H416Q408 0 405
4T398 28Q394 51 388 82T376 138Q375 145 373 146T364 148H186Q179 147 178 146T175 137Q170 114 164 83T152 27Q149 9 146 5T135 0H31ZM214 249H336Q343 249 344 251T344 261Q331 312 316 367T285 468Q283 477 278 477H271Q267 477 264 468Q256 442 246 407T225
334T206 260Q205 254 206 252T214 249ZM159 714Q155 714 154 717T155 723L235 810Q240 816 245 816H304Q310 816 315 811L396 723Q398 720 398 717T392 714H339Q332 714 329 716T320 721L281 753Q276 757 270 753L229 720Q226 717 223 716T214 714H159Z" />
<glyph unicode="&#xc3;" horiz-adv-x="550" d="M31 0Q23 0 21 7T22 34Q29 79 43 142T76 277T116 419T161 551T205 654Q211 663 215 668T227 673H322Q330 670 335 667T345 654Q366 613 389 552T434 419T475 277T508 142T528 34Q532 14 530 7T519 0H416Q408 0 405
4T398 28Q394 51 388 82T376 138Q375 145 373 146T364 148H186Q179 147 178 146T175 137Q170 114 164 83T152 27Q149 9 146 5T135 0H31ZM214 249H336Q343 249 344 251T344 261Q331 312 316 367T285 468Q283 477 278 477H271Q267 477 264 468Q256 442 246 407T225
334T206 260Q205 254 206 252T214 249ZM170 717Q164 717 164 723Q164 764 182 788T235 812Q251 812 266 803T293 784T312 774Q317 774 321 779T325 795Q325 803 330 803H381Q387 803 387 796Q387 760 367 735T315 709Q294 709 280 718T255 736T237 745Q230 745
227 740T224 724Q224 717 219 717H170Z" />
<glyph unicode="&#xc4;" horiz-adv-x="550" d="M31 0Q23 0 21 7T22 34Q29 79 43 142T76 277T116 419T161 551T205 654Q211 663 215 668T227 673H322Q330 670 335 667T345 654Q366 613 389 552T434 419T475 277T508 142T528 34Q532 14 530 7T519 0H416Q408 0 405
4T398 28Q394 51 388 82T376 138Q375 145 373 146T364 148H186Q179 147 178 146T175 137Q170 114 164 83T152 27Q149 9 146 5T135 0H31ZM214 249H336Q343 249 344 251T344 261Q331 312 316 367T285 468Q283 477 278 477H271Q267 477 264 468Q256 442 246 407T225
334T206 260Q205 254 206 252T214 249ZM250 775Q250 752 238 740T194 727Q166 727 153 739T140 775Q140 798 153 810T194 822Q226 822 238 810T250 775ZM410 775Q410 752 399 740T356 727Q326 727 314 739T301 775Q301 798 313 810T356 822Q388 822 399 810T410
775Z" />
<glyph unicode="&#xc5;" horiz-adv-x="550" d="M31 0Q23 0 21 7T22 34Q29 79 43 142T76 277T116 419T161 551T205 654Q211 663 215 668T227 673H322Q330 670 335 667T345 654Q366 613 389 552T434 419T475 277T508 142T528 34Q532 14 530 7T519 0H416Q408 0 405
4T398 28Q394 51 388 82T376 138Q375 145 373 146T364 148H186Q179 147 178 146T175 137Q170 114 164 83T152 27Q149 9 146 5T135 0H31ZM214 249H336Q343 249 344 251T344 261Q331 312 316 367T285 468Q283 477 278 477H271Q267 477 264 468Q256 442 246 407T225
334T206 260Q205 254 206 252T214 249ZM369 799Q369 758 348 733T276 708Q224 708 203 733T181 799Q181 839 202 863T276 888Q326 888 347 864T369 799ZM316 801Q316 814 308 822T276 831Q251 831 245 823T238 801Q238 790 244 779T277 768Q303 768 309 779T316
801Z" />
<glyph unicode="&#xc6;" horiz-adv-x="778" d="M393 0Q380 0 380 12V148H192Q186 147 185 146T181 137Q175 114 168 83T156 27Q152 9 149 5T138 0H35Q26 0 24 7T26 34Q32 79 50 140T96 271T157 409T227 542T298 654Q305 663 311 668T324 673H727Q739 673 741 671T743
658V588Q743 576 741 574T727 571H522Q515 571 514 570T512 563V398Q512 392 513 391T521 389H682Q696 389 698 387T700 370V307Q700 294 697 292T682 289H521Q516 289 514 288T512 282V111Q512 105 513 104T521 102H725Q738 102 740 99T743 83V19Q743 5 740 3T725
0H393ZM380 249V524Q380 532 375 532H368Q366 532 364 531T357 522Q338 498 314 453T264 357T217 259Q216 258 217 254T223 249H380Z" />
<glyph unicode="&#xc7;" horiz-adv-x="470" d="M438 35Q438 11 410 4Q396 -1 376 -3T337 -7T308 -8Q187 -8 114 79T41 335Q41 505 111 592T308 680Q318 680 336 679T375 675T410 667Q424 664 431 659T438 645V558Q438 531 409 551Q389 564 365 570T318 577Q277
577 250 560T206 511T183 438T176 348Q176 315 179 280T191 212T215 151T256 109T318 93Q344 93 368 99T406 114Q425 126 431 125T438 109V35ZM383 -131Q383 -161 358 -185T288 -209Q254 -209 232 -196T195 -164Q189 -156 189 -148T198 -135L219 -126Q229 -121
234 -122T242 -129Q248 -141 258 -148T280 -155Q297 -155 305 -146T313 -127Q313 -115 305 -108T283 -98T255 -94Q246 -94 242 -88T243 -74L279 -12Q283 -6 287 -4T298 -1H328Q340 -1 335 -13L308 -79L288 -53Q335 -58 359 -77T383 -131Z" />
<glyph unicode="&#xc8;" horiz-adv-x="455" d="M78 0Q65 0 65 12V660Q65 673 78 673H412Q424 673 426 671T428 658V588Q428 576 425 574T412 571H206Q199 571 198 570T197 563V398Q197 392 198 391T205 389H367Q380 389 382 387T384 370V307Q384 294 382 292T367
289H205Q200 289 199 288T197 282V111Q197 105 198 104T205 102H410Q424 102 426 99T428 83V19Q428 5 425 3T409 0H78ZM237 716Q230 716 225 719T212 728L112 803Q108 806 111 811T118 816H211Q221 816 225 814T235 804L299 732Q305 726 305 721T297 716H237Z"
/>
<glyph unicode="&#xc9;" horiz-adv-x="455" d="M78 0Q65 0 65 12V660Q65 673 78 673H412Q424 673 426 671T428 658V588Q428 576 425 574T412 571H206Q199 571 198 570T197 563V398Q197 392 198 391T205 389H367Q380 389 382 387T384 370V307Q384 294 382 292T367
289H205Q200 289 199 288T197 282V111Q197 105 198 104T205 102H410Q424 102 426 99T428 83V19Q428 5 425 3T409 0H78ZM244 716H184Q177 716 177 721T182 732L246 804Q252 811 256 813T270 816H363Q368 816 371 811T369 803L269 728Q261 722 256 719T244 716Z"
/>
<glyph unicode="&#xca;" horiz-adv-x="455" d="M78 0Q65 0 65 12V660Q65 673 78 673H412Q424 673 426 671T428 658V588Q428 576 425 574T412 571H206Q199 571 198 570T197 563V398Q197 392 198 391T205 389H367Q380 389 382 387T384 370V307Q384 294 382 292T367
289H205Q200 289 199 288T197 282V111Q197 105 198 104T205 102H410Q424 102 426 99T428 83V19Q428 5 425 3T409 0H78ZM125 714Q121 714 120 717T121 723L201 810Q206 816 211 816H270Q276 816 281 811L362 723Q364 720 364 717T358 714H305Q298 714 295 716T286
721L247 753Q242 757 236 753L195 720Q192 717 189 716T180 714H125Z" />
<glyph unicode="&#xcb;" horiz-adv-x="455" d="M78 0Q65 0 65 12V660Q65 673 78 673H412Q424 673 426 671T428 658V588Q428 576 425 574T412 571H206Q199 571 198 570T197 563V398Q197 392 198 391T205 389H367Q380 389 382 387T384 370V307Q384 294 382 292T367
289H205Q200 289 199 288T197 282V111Q197 105 198 104T205 102H410Q424 102 426 99T428 83V19Q428 5 425 3T409 0H78ZM216 775Q216 752 204 740T160 727Q132 727 119 739T106 775Q106 798 119 810T160 822Q192 822 204 810T216 775ZM376 775Q376 752 365 740T322
727Q292 727 280 739T267 775Q267 798 279 810T322 822Q354 822 365 810T376 775Z" />
<glyph unicode="&#xcc;" horiz-adv-x="261" d="M197 12Q197 0 183 0H79Q65 0 65 12V660Q65 673 79 673H183Q197 673 197 660V12ZM127 716Q120 716 115 719T102 728L2 803Q-2 806 1 811T8 816H101Q111 816 115 814T125 804L189 732Q195 726 195 721T187 716H127Z" />
<glyph unicode="&#xcd;" horiz-adv-x="261" d="M197 12Q197 0 183 0H79Q65 0 65 12V660Q65 673 79 673H183Q197 673 197 660V12ZM133 716H73Q66 716 66 721T71 732L135 804Q141 811 145 813T159 816H252Q257 816 260 811T258 803L158 728Q150 722 145 719T133 716Z" />
<glyph unicode="&#xce;" horiz-adv-x="261" d="M197 12Q197 0 183 0H79Q65 0 65 12V660Q65 673 79 673H183Q197 673 197 660V12ZM15 714Q11 714 10 717T11 723L91 810Q96 816 101 816H160Q166 816 171 811L252 723Q254 720 254 717T248 714H195Q188 714 185 716T176
721L137 753Q132 757 126 753L85 720Q82 717 79 716T70 714H15Z" />
<glyph unicode="&#xcf;" horiz-adv-x="261" d="M197 12Q197 0 183 0H79Q65 0 65 12V660Q65 673 79 673H183Q197 673 197 660V12ZM106 775Q106 752 94 740T50 727Q22 727 9 739T-4 775Q-4 798 9 810T50 822Q82 822 94 810T106 775ZM266 775Q266 752 255 740T212
727Q182 727 170 739T157 775Q157 798 169 810T212 822Q244 822 255 810T266 775Z" />
<glyph unicode="&#xd0;" horiz-adv-x="602" d="M590 346Q590 259 571 199T522 99T454 39T381 9T314 0H125Q112 0 112 12V660Q112 673 125 673H314Q350 673 388 667T463 642T527 587T573 493T590 346ZM459 346Q459 429 445 475T407 542T357 566T309 571H255Q247
571 246 570T244 563V111Q244 105 245 104T253 102H293Q317 102 345 109T399 140T442 213T459 346ZM297 287Q288 287 287 290T286 299V366Q286 374 287 376T298 379H584Q591 379 593 377T596 367V296Q596 290 594 289T583 287H297Z" />
<glyph unicode="&#xd1;" horiz-adv-x="642" d="M435 276Q438 272 443 272T448 278Q449 309 449 344T448 417T446 497T441 578T432 659Q431 673 439 673H546Q552 673 557 670T564 660Q571 623 575 571T581 457T582 332T579 208T573 97T565 12Q564 4 559 2T546 0H478Q471
0 462 16L203 402Q202 406 198 406T194 401Q194 347 194 300T194 211T197 134T201 68T207 13Q208 0 200 0H95Q89 0 83 2T75 12Q71 46 68 96T63 207T61 332T61 457T67 571T78 660Q80 666 85 669T96 673H161Q170 673 174 664L435 276ZM208 717Q202 717 202 723Q202
764 220 788T273 812Q289 812 304 803T331 784T350 774Q355 774 359 779T363 795Q363 803 368 803H419Q425 803 425 796Q425 760 405 735T353 709Q332 709 318 718T293 736T275 745Q268 745 265 740T262 724Q262 717 257 717H208Z" />
<glyph unicode="&#xd2;" horiz-adv-x="638" d="M41 334Q41 443 64 520T148 637T318 678Q402 678 457 655T542 588T584 480T596 334Q596 252 585 189T543 81T457 14T318 -9Q209 -9 149 31T65 148T41 334ZM178 334Q178 241 193 191T238 120T317 100Q365 100 396
119T443 190T460 334Q460 428 444 479T396 551T316 571Q268 571 238 551T193 479T178 334ZM315 716Q308 716 303 719T290 728L190 803Q186 806 189 811T196 816H289Q299 816 303 814T313 804L377 732Q383 726 383 721T375 716H315Z" />
<glyph unicode="&#xd3;" horiz-adv-x="638" d="M41 334Q41 443 64 520T148 637T318 678Q402 678 457 655T542 588T584 480T596 334Q596 252 585 189T543 81T457 14T318 -9Q209 -9 149 31T65 148T41 334ZM178 334Q178 241 193 191T238 120T317 100Q365 100 396
119T443 190T460 334Q460 428 444 479T396 551T316 571Q268 571 238 551T193 479T178 334ZM322 716H262Q255 716 255 721T260 732L324 804Q330 811 334 813T348 816H441Q446 816 449 811T447 803L347 728Q339 722 334 719T322 716Z" />
<glyph unicode="&#xd4;" horiz-adv-x="638" d="M41 334Q41 443 64 520T148 637T318 678Q402 678 457 655T542 588T584 480T596 334Q596 252 585 189T543 81T457 14T318 -9Q209 -9 149 31T65 148T41 334ZM178 334Q178 241 193 191T238 120T317 100Q365 100 396
119T443 190T460 334Q460 428 444 479T396 551T316 571Q268 571 238 551T193 479T178 334ZM203 714Q199 714 198 717T199 723L279 810Q284 816 289 816H348Q354 816 359 811L440 723Q442 720 442 717T436 714H383Q376 714 373 716T364 721L325 753Q320 757 314
753L273 720Q270 717 267 716T258 714H203Z" />
<glyph unicode="&#xd5;" horiz-adv-x="638" d="M41 334Q41 443 64 520T148 637T318 678Q402 678 457 655T542 588T584 480T596 334Q596 252 585 189T543 81T457 14T318 -9Q209 -9 149 31T65 148T41 334ZM178 334Q178 241 193 191T238 120T317 100Q365 100 396
119T443 190T460 334Q460 428 444 479T396 551T316 571Q268 571 238 551T193 479T178 334ZM214 717Q208 717 208 723Q208 764 226 788T279 812Q295 812 310 803T337 784T356 774Q361 774 365 779T369 795Q369 803 374 803H425Q431 803 431 796Q431 760 411 735T359
709Q338 709 324 718T299 736T281 745Q274 745 271 740T268 724Q268 717 263 717H214Z" />
<glyph unicode="&#xd6;" horiz-adv-x="638" d="M41 334Q41 443 64 520T148 637T318 678Q402 678 457 655T542 588T584 480T596 334Q596 252 585 189T543 81T457 14T318 -9Q209 -9 149 31T65 148T41 334ZM178 334Q178 241 193 191T238 120T317 100Q365 100 396
119T443 190T460 334Q460 428 444 479T396 551T316 571Q268 571 238 551T193 479T178 334ZM294 775Q294 752 282 740T238 727Q210 727 197 739T184 775Q184 798 197 810T238 822Q270 822 282 810T294 775ZM454 775Q454 752 443 740T400 727Q370 727 358 739T345
775Q345 798 357 810T400 822Q432 822 443 810T454 775Z" />
<glyph unicode="&#xd7;" horiz-adv-x="517" d="M47 162Q42 168 40 172T44 182L195 318L56 446Q51 450 53 455T61 464L102 504Q107 509 110 509T117 504L258 375L400 504Q404 508 407 508T415 504L456 464Q462 460 464 455T461 446L322 318L473 182Q478 176 477
172T470 162L432 125Q425 119 421 119T409 125L258 263L107 125Q101 119 97 119T85 125L47 162Z" />
<glyph unicode="&#xd8;" horiz-adv-x="633" d="M155 -37Q152 -43 148 -46T134 -50H44Q38 -50 38 -46T40 -35L477 713Q482 721 485 722T495 723H580Q590 723 590 719T580 695L155 -37ZM41 334Q41 443 64 520T148 637T318 678Q403 678 457 655T542 588T584 480T596
334Q596 252 585 189T543 81T458 14T318 -9Q209 -9 149 31T65 148T41 334ZM178 334Q178 241 192 190T237 120T316 100Q365 100 396 119T443 190T460 334Q460 428 444 479T396 551T316 571Q268 571 238 551T193 479T178 334Z" />
<glyph unicode="&#xd9;" horiz-adv-x="635" d="M317 -8Q231 -8 182 11T107 61T74 123T63 178Q59 217 57 261T55 341Q55 388 57 444T63 557T76 662Q77 669 82 671T94 673Q118 673 142 673T191 673Q200 673 201 670T201 649Q197 609 194 567T189 482Q185 407 185
337T191 198Q193 169 201 149T225 117T263 99T314 93Q344 93 366 98T403 116T428 149T440 198Q445 265 445 335T441 481Q440 524 437 566T429 649Q428 667 429 670T440 673Q465 673 490 673T541 673Q549 673 553 671T558 662Q567 614 571 558T578 445T580 342Q580
305 579 261T573 178Q571 159 565 135T545 85T504 39T431 5T317 -8ZM313 716Q306 716 301 719T288 728L188 803Q184 806 187 811T194 816H287Q297 816 301 814T311 804L375 732Q381 726 381 721T373 716H313Z" />
<glyph unicode="&#xda;" horiz-adv-x="635" d="M317 -8Q231 -8 182 11T107 61T74 123T63 178Q59 217 57 261T55 341Q55 388 57 444T63 557T76 662Q77 669 82 671T94 673Q118 673 142 673T191 673Q200 673 201 670T201 649Q197 609 194 567T189 482Q185 407 185
337T191 198Q193 169 201 149T225 117T263 99T314 93Q344 93 366 98T403 116T428 149T440 198Q445 265 445 335T441 481Q440 524 437 566T429 649Q428 667 429 670T440 673Q465 673 490 673T541 673Q549 673 553 671T558 662Q567 614 571 558T578 445T580 342Q580
305 579 261T573 178Q571 159 565 135T545 85T504 39T431 5T317 -8ZM320 716H260Q253 716 253 721T258 732L322 804Q328 811 332 813T346 816H439Q444 816 447 811T445 803L345 728Q337 722 332 719T320 716Z" />
<glyph unicode="&#xdb;" horiz-adv-x="635" d="M317 -8Q231 -8 182 11T107 61T74 123T63 178Q59 217 57 261T55 341Q55 388 57 444T63 557T76 662Q77 669 82 671T94 673Q118 673 142 673T191 673Q200 673 201 670T201 649Q197 609 194 567T189 482Q185 407 185
337T191 198Q193 169 201 149T225 117T263 99T314 93Q344 93 366 98T403 116T428 149T440 198Q445 265 445 335T441 481Q440 524 437 566T429 649Q428 667 429 670T440 673Q465 673 490 673T541 673Q549 673 553 671T558 662Q567 614 571 558T578 445T580 342Q580
305 579 261T573 178Q571 159 565 135T545 85T504 39T431 5T317 -8ZM202 714Q198 714 197 717T198 723L278 810Q283 816 288 816H347Q353 816 358 811L439 723Q441 720 441 717T435 714H382Q375 714 372 716T363 721L324 753Q319 757 313 753L272 720Q269 717 266
716T257 714H202Z" />
<glyph unicode="&#xdc;" horiz-adv-x="635" d="M317 -8Q231 -8 182 11T107 61T74 123T63 178Q59 217 57 261T55 341Q55 388 57 444T63 557T76 662Q77 669 82 671T94 673Q118 673 142 673T191 673Q200 673 201 670T201 649Q197 609 194 567T189 482Q185 407 185
337T191 198Q193 169 201 149T225 117T263 99T314 93Q344 93 366 98T403 116T428 149T440 198Q445 265 445 335T441 481Q440 524 437 566T429 649Q428 667 429 670T440 673Q465 673 490 673T541 673Q549 673 553 671T558 662Q567 614 571 558T578 445T580 342Q580
305 579 261T573 178Q571 159 565 135T545 85T504 39T431 5T317 -8ZM292 775Q292 752 280 740T236 727Q208 727 195 739T182 775Q182 798 195 810T236 822Q268 822 280 810T292 775ZM452 775Q452 752 441 740T398 727Q368 727 356 739T343 775Q343 798 355 810T398
822Q430 822 441 810T452 775Z" />
<glyph unicode="&#xdd;" horiz-adv-x="537" d="M346 282Q340 274 338 260T335 234V12Q335 7 331 4T322 0H215Q202 0 202 12V233Q202 258 189 283T167 323Q162 331 151 349T126 390T101 432T86 458Q59 510 43 550T19 617T9 649Q6 663 12 668T29 673H131Q144 673
148 660Q157 631 167 605T187 554T207 511Q221 485 233 464T257 423Q264 413 268 412T279 423Q284 431 290 440T303 461T317 487Q328 507 341 536T368 599T387 661Q389 669 393 671T405 673H512Q519 673 524 668T527 649Q526 643 519 616T496 546T452 452Q446 439
433 417T404 370T373 321T346 282ZM271 716H211Q204 716 204 721T209 732L273 804Q279 811 283 813T297 816H390Q395 816 398 811T396 803L296 728Q288 722 283 719T271 716Z" />
<glyph unicode="&#xde;" horiz-adv-x="478" d="M448 375Q448 311 425 257T355 170T239 137H185Q177 137 177 129V12Q177 0 163 0H58Q45 0 45 12V696Q45 708 58 708H162Q170 708 173 706T177 696V603Q177 599 179 596T185 592H228Q345 592 396 539T448 375ZM320
374Q320 444 295 472T224 501H184Q180 501 179 500T177 492V241Q177 233 185 233H226Q270 233 295 270T320 374Z" />
<glyph unicode="&#xdf;" horiz-adv-x="641" d="M66 -102Q45 -102 30 -100T5 -92Q2 -89 1 -85T-1 -75Q-1 -61 -1 -48T-1 -21Q2 -12 7 -10T19 -9Q29 -9 44 -8T73 5T98 45T108 129Q108 163 108 225T109 365T109 527Q109 557 119 588T153 646T215 689T308 705Q325
705 350 702T403 688T455 659T495 611T511 537Q511 516 506 498T488 456Q479 441 466 429T439 408Q428 400 427 393T432 380T449 370Q477 361 503 345T552 306Q575 282 587 251T600 183Q600 124 576 81T507 16T404 -7Q377 -7 338 1T270 31Q267 33 263 37T260 47Q265
65 269 83T279 121Q281 132 287 131T299 125Q308 119 321 113T351 104T380 100Q419 100 434 121T453 170Q456 183 450 205T422 252Q414 268 399 279T363 301T315 322Q297 329 286 339T273 361T277 386T304 412Q312 416 322 424T351 452Q365 467 373 490T382 542Q381
571 362 586T317 602Q283 602 259 577T235 501Q235 487 235 454T235 377T235 287T235 200T235 130T235 95Q235 -2 195 -52T66 -102Z" />
<glyph unicode="&#xe0;" horiz-adv-x="470" d="M230 -7Q179 -7 135 4T63 49T35 145Q35 197 54 230T104 282T168 306T227 313Q248 313 267 312T304 307Q313 304 313 320Q313 357 291 372T228 387Q190 387 156 373T97 347Q86 341 83 343T77 356L68 412Q66 425 68
429T79 439Q105 456 145 466T230 477Q298 477 339 462T400 420T427 361T434 291Q435 249 435 209T432 128T426 47Q424 36 420 31T404 19Q390 12 367 8T318 0T268 -5T230 -7ZM238 70Q246 70 256 71T276 75T292 84T300 97Q303 121 305 150T305 206Q305 219 295 224Q285
231 267 232T236 234Q227 234 214 231T188 218T169 191T161 145Q161 123 170 106T196 80T238 70ZM237 526Q224 526 212 538L124 629Q120 633 123 638T130 643H223Q233 643 238 640T247 630L299 542Q308 526 297 526H237Z" />
<glyph unicode="&#xe1;" horiz-adv-x="470" d="M230 -7Q179 -7 135 4T63 49T35 145Q35 197 54 230T104 282T168 306T227 313Q248 313 267 312T304 307Q313 304 313 320Q313 357 291 372T228 387Q190 387 156 373T97 347Q86 341 83 343T77 356L68 412Q66 425 68
429T79 439Q105 456 145 466T230 477Q298 477 339 462T400 420T427 361T434 291Q435 249 435 209T432 128T426 47Q424 36 420 31T404 19Q390 12 367 8T318 0T268 -5T230 -7ZM238 70Q246 70 256 71T276 75T292 84T300 97Q303 121 305 150T305 206Q305 219 295 224Q285
231 267 232T236 234Q227 234 214 231T188 218T169 191T161 145Q161 123 170 106T196 80T238 70ZM196 525Q187 525 187 528T193 541L258 634Q263 642 279 642H359Q365 642 367 639T362 629L275 532Q270 526 266 526T254 525H196Z" />
<glyph unicode="&#xe2;" horiz-adv-x="470" d="M230 -7Q179 -7 135 4T63 49T35 145Q35 197 54 230T104 282T168 306T227 313Q248 313 267 312T304 307Q313 304 313 320Q313 357 291 372T228 387Q190 387 156 373T97 347Q86 341 83 343T77 356L68 412Q66 425 68
429T79 439Q105 456 145 466T230 477Q298 477 339 462T400 420T427 361T434 291Q435 249 435 209T432 128T426 47Q424 36 420 31T404 19Q390 12 367 8T318 0T268 -5T230 -7ZM238 70Q246 70 256 71T276 75T292 84T300 97Q303 121 305 150T305 206Q305 219 295 224Q285
231 267 232T236 234Q227 234 214 231T188 218T169 191T161 145Q161 123 170 106T196 80T238 70ZM136 525Q132 525 131 528T132 534L209 634Q212 637 217 637H271Q276 637 279 634L356 534Q358 531 358 528T352 525H296Q291 525 288 529L249 566Q244 570 239 566L200
529Q197 525 192 525H136Z" />
<glyph unicode="&#xe3;" horiz-adv-x="470" d="M230 -7Q179 -7 135 4T63 49T35 145Q35 197 54 230T104 282T168 306T227 313Q248 313 267 312T304 307Q313 304 313 320Q313 357 291 372T228 387Q190 387 156 373T97 347Q86 341 83 343T77 356L68 412Q66 425 68
429T79 439Q105 456 145 466T230 477Q298 477 339 462T400 420T427 361T434 291Q435 249 435 209T432 128T426 47Q424 36 420 31T404 19Q390 12 367 8T318 0T268 -5T230 -7ZM238 70Q246 70 256 71T276 75T292 84T300 97Q303 121 305 150T305 206Q305 219 295 224Q285
231 267 232T236 234Q227 234 214 231T188 218T169 191T161 145Q161 123 170 106T196 80T238 70ZM138 527Q132 527 132 533Q132 571 150 593T203 615Q220 615 235 607T263 591T282 582Q288 582 292 586T296 600Q296 607 301 607H351Q357 607 357 601Q357 567 337
544T285 520Q264 520 249 528T224 544T205 552Q198 552 195 548T192 534Q192 527 186 527H138Z" />
<glyph unicode="&#xe4;" horiz-adv-x="470" d="M230 -7Q179 -7 135 4T63 49T35 145Q35 197 54 230T104 282T168 306T227 313Q248 313 267 312T304 307Q313 304 313 320Q313 357 291 372T228 387Q190 387 156 373T97 347Q86 341 83 343T77 356L68 412Q66 425 68
429T79 439Q105 456 145 466T230 477Q298 477 339 462T400 420T427 361T434 291Q435 249 435 209T432 128T426 47Q424 36 420 31T404 19Q390 12 367 8T318 0T268 -5T230 -7ZM238 70Q246 70 256 71T276 75T292 84T300 97Q303 121 305 150T305 206Q305 219 295 224Q285
231 267 232T236 234Q227 234 214 231T188 218T169 191T161 145Q161 123 170 106T196 80T238 70ZM220 574Q220 551 208 539T164 526Q136 526 123 538T110 574Q110 597 123 609T164 621Q196 621 208 609T220 574ZM380 574Q380 551 369 539T326 526Q296 526 284 538T271
574Q271 597 283 609T326 621Q358 621 369 609T380 574Z" />
<glyph unicode="&#xe5;" horiz-adv-x="470" d="M230 -7Q179 -7 135 4T63 49T35 145Q35 197 54 230T104 282T168 306T227 313Q248 313 267 312T304 307Q313 304 313 320Q313 357 291 372T228 387Q190 387 156 373T97 347Q86 341 83 343T77 356L68 412Q66 425 68
429T79 439Q105 456 145 466T230 477Q298 477 339 462T400 420T427 361T434 291Q435 249 435 209T432 128T426 47Q424 36 420 31T404 19Q390 12 367 8T318 0T268 -5T230 -7ZM238 70Q246 70 256 71T276 75T292 84T300 97Q303 121 305 150T305 206Q305 219 295 224Q285
231 267 232T236 234Q227 234 214 231T188 218T169 191T161 145Q161 123 170 106T196 80T238 70ZM338 598Q338 557 317 532T245 507Q193 507 172 532T150 598Q150 638 171 662T245 687Q295 687 316 663T338 598ZM285 600Q285 613 277 621T245 630Q220 630 214 622T207
600Q207 589 213 578T246 567Q272 567 278 578T285 600Z" />
<glyph unicode="&#xe6;" horiz-adv-x="754" d="M230 -7Q179 -7 135 4T63 49T35 145Q35 197 54 230T104 282T168 306T227 313Q248 313 267 312T304 307Q313 304 313 320Q313 357 291 372T228 387Q190 387 156 373T97 347Q86 341 83 343T77 356Q75 370 73 384T68
412Q66 425 68 429T79 439Q105 456 145 466T230 477Q269 477 297 472T346 456T381 432Q406 453 439 466T520 479Q585 479 624 461T684 412T710 345T717 272Q717 230 707 217T677 203Q620 203 563 203T449 203Q443 203 441 201T439 192Q442 145 470 116T550 86Q585
86 617 96T662 115Q674 122 681 123T697 109L718 68Q724 56 721 52T707 41Q673 16 622 6T521 -5Q482 -5 453 2T404 24Q403 23 402 21T400 18Q399 16 397 16T391 13Q370 6 339 2T277 -5T230 -7ZM305 209Q305 222 292 227T263 233T236 234Q227 234 214 231T188 218T169
191T161 145Q161 123 170 106T196 80T238 70Q246 70 256 71T276 75T292 84T300 97Q302 121 303 153T305 209ZM576 272Q585 272 586 275T587 292Q587 320 580 340T557 371T516 382Q496 382 482 374T458 354T443 326T436 296Q436 281 436 277T442 273Q475 273 509
273T576 272Z" />
<glyph unicode="&#xe7;" horiz-adv-x="412" d="M245 -8Q181 -8 139 11T73 64T41 142T32 237Q32 284 41 327T74 405T139 460T244 480Q288 480 320 471T378 441Q385 434 387 431T390 419V345Q390 336 385 336T374 339Q348 362 320 369T261 376Q235 376 216 365T184
333T166 288T159 236Q159 190 170 158T202 108T254 90Q277 90 299 96T349 115Q366 123 373 107L397 51Q401 43 400 39T391 30Q365 11 325 2T245 -8ZM324 -131Q324 -161 299 -185T229 -209Q195 -209 173 -196T136 -164Q130 -156 130 -148T139 -135L160 -126Q170
-121 175 -122T183 -129Q189 -141 199 -148T221 -155Q238 -155 246 -146T254 -127Q254 -115 246 -108T224 -98T196 -94Q187 -94 183 -88T184 -74L220 -12Q224 -6 228 -4T239 -1H269Q281 -1 276 -13L249 -79L229 -53Q276 -58 300 -77T324 -131Z" />
<glyph unicode="&#xe8;" horiz-adv-x="471" d="M32 237Q32 284 42 327T75 405T140 460T245 480Q311 480 350 462T409 412T435 345T442 272Q442 230 433 217T403 203H171Q165 203 164 201T162 191Q162 161 175 137T215 98T276 84Q309 84 339 94T383 113Q395 120
402 121T417 107L438 65Q444 54 441 50T428 38Q393 14 344 3T246 -8Q181 -8 139 11T74 64T42 142T32 237ZM313 293Q313 321 306 341T284 372T242 383Q221 383 207 375T183 354T169 326T162 296Q161 280 162 277T170 273H301Q310 273 312 276T313 293ZM239 526Q226
526 214 538L126 629Q122 633 125 638T132 643H225Q235 643 240 640T249 630L301 542Q310 526 299 526H239Z" />
<glyph unicode="&#xe9;" horiz-adv-x="471" d="M32 237Q32 284 42 327T75 405T140 460T245 480Q311 480 350 462T409 412T435 345T442 272Q442 230 433 217T403 203H171Q165 203 164 201T162 191Q162 161 175 137T215 98T276 84Q309 84 339 94T383 113Q395 120
402 121T417 107L438 65Q444 54 441 50T428 38Q393 14 344 3T246 -8Q181 -8 139 11T74 64T42 142T32 237ZM313 293Q313 321 306 341T284 372T242 383Q221 383 207 375T183 354T169 326T162 296Q161 280 162 277T170 273H301Q310 273 312 276T313 293ZM198 525Q189
525 189 528T195 541L260 634Q265 642 281 642H361Q367 642 369 639T364 629L277 532Q272 526 268 526T256 525H198Z" />
<glyph unicode="&#xea;" horiz-adv-x="471" d="M32 237Q32 284 42 327T75 405T140 460T245 480Q311 480 350 462T409 412T435 345T442 272Q442 230 433 217T403 203H171Q165 203 164 201T162 191Q162 161 175 137T215 98T276 84Q309 84 339 94T383 113Q395 120
402 121T417 107L438 65Q444 54 441 50T428 38Q393 14 344 3T246 -8Q181 -8 139 11T74 64T42 142T32 237ZM313 293Q313 321 306 341T284 372T242 383Q221 383 207 375T183 354T169 326T162 296Q161 280 162 277T170 273H301Q310 273 312 276T313 293ZM138 525Q134
525 133 528T134 534L211 634Q214 637 219 637H273Q278 637 281 634L358 534Q360 531 360 528T354 525H298Q293 525 290 529L251 566Q246 570 241 566L202 529Q199 525 194 525H138Z" />
<glyph unicode="&#xeb;" horiz-adv-x="471" d="M32 237Q32 284 42 327T75 405T140 460T245 480Q311 480 350 462T409 412T435 345T442 272Q442 230 433 217T403 203H171Q165 203 164 201T162 191Q162 161 175 137T215 98T276 84Q309 84 339 94T383 113Q395 120
402 121T417 107L438 65Q444 54 441 50T428 38Q393 14 344 3T246 -8Q181 -8 139 11T74 64T42 142T32 237ZM313 293Q313 321 306 341T284 372T242 383Q221 383 207 375T183 354T169 326T162 296Q161 280 162 277T170 273H301Q310 273 312 276T313 293ZM222 574Q222
551 210 539T166 526Q138 526 125 538T112 574Q112 597 125 609T166 621Q198 621 210 609T222 574ZM382 574Q382 551 371 539T328 526Q298 526 286 538T273 574Q273 597 285 609T328 621Q360 621 371 609T382 574Z" />
<glyph unicode="&#xec;" horiz-adv-x="221" d="M174 12Q174 0 161 0H59Q47 0 47 12V460Q47 472 59 472H161Q174 472 174 460V12ZM358 526Q345 526 333 538L245 629Q241 633 244 638T251 643H344Q354 643 359 640T368 630L420 542Q429 526 418 526H358Z" />
<glyph unicode="&#xed;" horiz-adv-x="221" d="M174 12Q174 0 161 0H59Q47 0 47 12V460Q47 472 59 472H161Q174 472 174 460V12ZM61 525Q52 525 52 528T58 541L123 634Q128 642 144 642H224Q230 642 232 639T227 629L140 532Q135 526 131 526T119 525H61Z" />
<glyph unicode="&#xee;" horiz-adv-x="221" d="M174 12Q174 0 161 0H59Q47 0 47 12V460Q47 472 59 472H161Q174 472 174 460V12ZM258 525Q254 525 253 528T254 534L331 634Q334 637 339 637H393Q398 637 401 634L478 534Q480 531 480 528T474 525H418Q413 525
410 529L371 566Q366 570 361 566L322 529Q319 525 314 525H258Z" />
<glyph unicode="&#xef;" horiz-adv-x="221" d="M174 12Q174 0 161 0H59Q47 0 47 12V460Q47 472 59 472H161Q174 472 174 460V12ZM341 574Q341 551 329 539T285 526Q257 526 244 538T231 574Q231 597 244 609T285 621Q317 621 329 609T341 574ZM501 574Q501 551
490 539T447 526Q417 526 405 538T392 574Q392 597 404 609T447 621Q479 621 490 609T501 574Z" />
<glyph unicode="&#xf0;" horiz-adv-x="508" d="M473 238Q473 171 455 116T389 27T254 -6Q168 -6 120 26T54 113T35 238Q35 307 55 361T124 446T254 478Q263 478 271 477T287 473Q272 491 253 508T208 542Q190 555 170 567T125 593Q116 597 113 599T114 610Q119
620 130 639T149 670Q151 674 156 676T174 672Q183 669 191 665T208 656Q298 613 356 547T444 402T473 238ZM341 235Q341 302 320 338T252 374Q207 374 186 339T164 235Q164 166 184 129T252 91Q301 91 321 129T341 235ZM142 488Q136 484 134 484T130 489L107 524Q105
529 105 531T113 537L332 672Q338 676 340 676T346 671L369 633Q371 630 370 628T361 623L142 488Z" />
<glyph unicode="&#xf1;" horiz-adv-x="469" d="M61 0Q47 0 47 13Q47 117 47 220T47 428Q47 438 54 443T81 455Q94 459 119 464T175 475T229 480Q312 480 356 449T417 366T434 252Q434 215 433 175T428 95T422 24Q420 6 416 3T398 0H316Q302 0 298 3T294 19Q294
23 295 50T299 116T302 191T304 251Q304 303 295 330T269 368T226 378Q216 378 207 377T191 374Q182 373 178 366T174 343Q174 301 174 246T174 132T174 13Q174 0 163 0H61ZM134 527Q128 527 128 533Q128 571 146 593T199 615Q216 615 231 607T259 591T278 582Q284
582 288 586T292 600Q292 607 297 607H347Q353 607 353 601Q353 567 333 544T281 520Q260 520 245 528T220 544T201 552Q194 552 191 548T188 534Q188 527 182 527H134Z" />
<glyph unicode="&#xf2;" horiz-adv-x="503" d="M251 -8Q164 -8 117 24T51 112T32 239Q32 308 53 362T121 448T251 480Q334 480 381 449T449 363T470 239Q470 169 452 114T387 25T251 -8ZM250 90Q299 90 319 128T339 235Q339 304 318 339T250 375Q205 375 184 340T162
235Q162 165 181 128T250 90ZM244 526Q231 526 219 538L131 629Q127 633 130 638T137 643H230Q240 643 245 640T254 630L306 542Q315 526 304 526H244Z" />
<glyph unicode="&#xf3;" horiz-adv-x="503" d="M251 -8Q164 -8 117 24T51 112T32 239Q32 308 53 362T121 448T251 480Q334 480 381 449T449 363T470 239Q470 169 452 114T387 25T251 -8ZM250 90Q299 90 319 128T339 235Q339 304 318 339T250 375Q205 375 184 340T162
235Q162 165 181 128T250 90ZM203 525Q194 525 194 528T200 541L265 634Q270 642 286 642H366Q372 642 374 639T369 629L282 532Q277 526 273 526T261 525H203Z" />
<glyph unicode="&#xf4;" horiz-adv-x="503" d="M251 -8Q164 -8 117 24T51 112T32 239Q32 308 53 362T121 448T251 480Q334 480 381 449T449 363T470 239Q470 169 452 114T387 25T251 -8ZM250 90Q299 90 319 128T339 235Q339 304 318 339T250 375Q205 375 184 340T162
235Q162 165 181 128T250 90ZM144 525Q140 525 139 528T140 534L217 634Q220 637 225 637H279Q284 637 287 634L364 534Q366 531 366 528T360 525H304Q299 525 296 529L257 566Q252 570 247 566L208 529Q205 525 200 525H144Z" />
<glyph unicode="&#xf5;" horiz-adv-x="503" d="M251 -8Q164 -8 117 24T51 112T32 239Q32 308 53 362T121 448T251 480Q334 480 381 449T449 363T470 239Q470 169 452 114T387 25T251 -8ZM250 90Q299 90 319 128T339 235Q339 304 318 339T250 375Q205 375 184 340T162
235Q162 165 181 128T250 90ZM146 527Q140 527 140 533Q140 571 158 593T211 615Q228 615 243 607T271 591T290 582Q296 582 300 586T304 600Q304 607 309 607H359Q365 607 365 601Q365 567 345 544T293 520Q272 520 257 528T232 544T213 552Q206 552 203 548T200
534Q200 527 194 527H146Z" />
<glyph unicode="&#xf6;" horiz-adv-x="503" d="M251 -8Q164 -8 117 24T51 112T32 239Q32 308 53 362T121 448T251 480Q334 480 381 449T449 363T470 239Q470 169 452 114T387 25T251 -8ZM250 90Q299 90 319 128T339 235Q339 304 318 339T250 375Q205 375 184 340T162
235Q162 165 181 128T250 90ZM227 574Q227 551 215 539T171 526Q143 526 130 538T117 574Q117 597 130 609T171 621Q203 621 215 609T227 574ZM387 574Q387 551 376 539T333 526Q303 526 291 538T278 574Q278 597 290 609T333 621Q365 621 376 609T387 574Z" />
<glyph unicode="&#xf7;" horiz-adv-x="496" d="M312 158Q312 133 299 121T249 108Q215 108 201 120T186 158Q186 182 200 195T249 208Q286 208 299 195T312 158ZM312 459Q312 435 299 423T249 410Q215 410 201 422T186 459Q186 484 200 497T249 510Q286 510 299
497T312 459ZM64 266Q54 266 52 269T50 279V342Q50 350 52 352T65 355H431Q441 355 443 353T446 343V275Q446 269 444 268T429 266H64Z" />
<glyph unicode="&#xf8;" horiz-adv-x="486" d="M251 -8Q164 -8 117 24T51 112T32 239Q32 308 53 362T121 448T251 480Q334 480 381 449T449 363T470 239Q470 169 452 114T387 25T251 -8ZM250 90Q299 90 319 128T339 235Q339 304 318 339T250 375Q205 375 184 340T162
235Q162 165 181 128T250 90ZM138 -63Q132 -76 123 -76H67Q64 -76 64 -72T67 -61L363 536Q367 543 369 544T376 546H429Q435 546 435 542T425 518L138 -63Z" />
<glyph unicode="&#xf9;" horiz-adv-x="475" d="M246 -4Q164 -4 120 27T58 109T41 222Q41 259 42 299T47 377T54 448Q56 466 60 469T78 472H159Q173 472 179 472T182 453Q182 449 181 424T177 363T174 288T173 218Q173 155 190 126T249 96Q254 96 263 96T281 99T296
105T302 116V455Q302 460 303 466T310 472H414Q418 472 423 470T428 459V50Q428 38 421 33T392 20Q381 16 356 11T301 1T246 -4ZM235 526Q222 526 210 538L122 629Q118 633 121 638T128 643H221Q231 643 236 640T245 630L297 542Q306 526 295 526H235Z" />
<glyph unicode="&#xfa;" horiz-adv-x="475" d="M246 -4Q164 -4 120 27T58 109T41 222Q41 259 42 299T47 377T54 448Q56 466 60 469T78 472H159Q173 472 179 472T182 453Q182 449 181 424T177 363T174 288T173 218Q173 155 190 126T249 96Q254 96 263 96T281 99T296
105T302 116V455Q302 460 303 466T310 472H414Q418 472 423 470T428 459V50Q428 38 421 33T392 20Q381 16 356 11T301 1T246 -4ZM194 525Q185 525 185 528T191 541L256 634Q261 642 277 642H357Q363 642 365 639T360 629L273 532Q268 526 264 526T252 525H194Z"
/>
<glyph unicode="&#xfb;" horiz-adv-x="475" d="M246 -4Q164 -4 120 27T58 109T41 222Q41 259 42 299T47 377T54 448Q56 466 60 469T78 472H159Q173 472 179 472T182 453Q182 449 181 424T177 363T174 288T173 218Q173 155 190 126T249 96Q254 96 263 96T281 99T296
105T302 116V455Q302 460 303 466T310 472H414Q418 472 423 470T428 459V50Q428 38 421 33T392 20Q381 16 356 11T301 1T246 -4ZM135 525Q131 525 130 528T131 534L208 634Q211 637 216 637H270Q275 637 278 634L355 534Q357 531 357 528T351 525H295Q290 525 287
529L248 566Q243 570 238 566L199 529Q196 525 191 525H135Z" />
<glyph unicode="&#xfc;" horiz-adv-x="475" d="M246 -4Q164 -4 120 27T58 109T41 222Q41 259 42 299T47 377T54 448Q56 466 60 469T78 472H159Q173 472 179 472T182 453Q182 449 181 424T177 363T174 288T173 218Q173 155 190 126T249 96Q254 96 263 96T281 99T296
105T302 116V455Q302 460 303 466T310 472H414Q418 472 423 470T428 459V50Q428 38 421 33T392 20Q381 16 356 11T301 1T246 -4ZM218 574Q218 551 206 539T162 526Q134 526 121 538T108 574Q108 597 121 609T162 621Q194 621 206 609T218 574ZM378 574Q378 551
367 539T324 526Q294 526 282 538T269 574Q269 597 281 609T324 621Q356 621 367 609T378 574Z" />
<glyph unicode="&#xfd;" horiz-adv-x="425" d="M124 106Q105 144 89 186T58 274T34 364T16 452Q13 472 28 472H128Q139 472 143 467T150 446Q152 431 156 408T166 357T179 300T194 243T210 194Q214 187 218 187T223 194Q232 222 241 254T259 320T275 388T288 454Q290
464 293 468T308 472H394Q403 472 408 469T411 451Q405 411 396 375T376 301T349 216Q338 187 323 145T285 56T231 -29T157 -93T60 -118Q33 -118 15 -115T-17 -105Q-38 -95 -28 -76L-4 -29Q1 -20 5 -20T16 -22Q33 -26 52 -23T88 -10Q106 0 116 11T133 34Q140 51
137 70T124 106ZM170 525Q161 525 161 528T167 541L232 634Q237 642 253 642H333Q339 642 341 639T336 629L249 532Q244 526 240 526T228 525H170Z" />
<glyph unicode="&#xfe;" horiz-adv-x="480" d="M449 246Q449 193 439 153T412 85T372 39T326 11Q301 1 270 -1T220 0Q210 0 205 0T197 -1Q191 -7 183 -12T172 -22Q172 -41 172 -59T171 -96Q170 -103 167 -105T155 -108Q130 -108 106 -108T57 -107Q52 -78 50 -48T47
18Q47 158 47 298T47 578Q48 585 53 588T67 591Q92 591 116 591T165 590Q169 583 173 574T178 551Q178 531 178 511T179 470Q192 474 207 477T242 481Q340 481 394 423T449 246ZM319 247Q319 323 298 352T241 382Q229 382 216 380T194 374T177 362Q173 358 173
348Q172 296 172 244T171 140Q171 134 171 132T175 127Q183 116 203 111T240 106Q252 106 265 111T291 131T311 174T319 247Z" />
<glyph unicode="&#xff;" horiz-adv-x="425" d="M124 106Q105 144 89 186T58 274T34 364T16 452Q13 472 28 472H128Q139 472 143 467T150 446Q152 431 156 408T166 357T179 300T194 243T210 194Q214 187 218 187T223 194Q232 222 241 254T259 320T275 388T288 454Q290
464 293 468T308 472H394Q403 472 408 469T411 451Q405 411 396 375T376 301T349 216Q338 187 323 145T285 56T231 -29T157 -93T60 -118Q33 -118 15 -115T-17 -105Q-38 -95 -28 -76L-4 -29Q1 -20 5 -20T16 -22Q33 -26 52 -23T88 -10Q106 0 116 11T133 34Q140 51
137 70T124 106ZM194 574Q194 551 182 539T138 526Q110 526 97 538T84 574Q84 597 97 609T138 621Q170 621 182 609T194 574ZM354 574Q354 551 343 539T300 526Q270 526 258 538T245 574Q245 597 257 609T300 621Q332 621 343 609T354 574Z" />
<glyph unicode="&#x2013;" horiz-adv-x="585" d="M58 229Q49 229 48 232T47 241V308Q47 316 48 318T59 321H527Q534 321 536 319T539 309V238Q539 232 537 231T526 229H58Z" />
<glyph unicode="&#x2014;" horiz-adv-x="787" d="M58 229Q49 229 48 232T47 241V308Q47 316 48 318T59 321H729Q736 321 738 319T741 309V238Q741 232 739 231T728 229H58Z" />
<glyph unicode="&#x2018;" horiz-adv-x="251" d="M50 461Q36 461 36 470T42 498L117 679Q121 685 124 687T136 690H207Q213 690 215 683T212 661L150 474Q147 469 144 465T130 461H50Z" />
<glyph unicode="&#x2019;" horiz-adv-x="251" d="M44 461Q38 461 36 468T38 490L100 676Q105 683 108 686T121 690H203Q215 690 215 681T209 653L135 472Q131 466 128 464T115 461H44Z" />
<glyph unicode="&#x201a;" horiz-adv-x="186" d="M137 -81Q137 -95 132 -101T109 -107H76Q58 -107 54 -100T49 -79L47 125Q47 137 52 145T75 153H112Q129 153 134 145T139 125L137 -81Z" />
<glyph unicode="&#x201c;" horiz-adv-x="425" d="M50 461Q36 461 36 470T42 498L117 679Q121 685 124 687T136 690H207Q213 690 215 683T212 661L150 474Q147 469 144 465T130 461H50ZM223 461Q209 461 209 470T217 498L290 679Q295 685 298 687T310 690H380Q387
690 389 683T386 661L324 474Q321 469 317 465T305 461H223Z" />
<glyph unicode="&#x201d;" horiz-adv-x="427" d="M310 472Q306 466 303 464T291 461H220Q215 461 212 468T214 490L276 676Q280 683 283 686T296 690H377Q392 690 392 681T384 653L310 472ZM135 472Q131 466 128 464T115 461H44Q38 461 36 468T38 490L100 676Q105
683 108 686T121 690H203Q215 690 215 681T209 653L135 472Z" />
<glyph unicode="&#x201e;" horiz-adv-x="365" d="M143 -92Q143 -102 140 -104T129 -107H65Q60 -107 57 -104T53 -89L47 130Q46 144 49 148T64 152H132Q146 152 148 148T151 136L143 -92ZM311 -92Q311 -102 308 -104T296 -107H232Q226 -107 223 -104T220 -89L214
130Q213 144 216 148T231 152H300Q313 152 315 148T318 136L311 -92Z" />
<glyph unicode="&#x2022;" horiz-adv-x="551" d="M70 303Q70 360 98 406T172 481T276 508Q334 509 380 481T453 407T481 303Q481 247 454 200T380 125T276 97Q219 97 173 125T98 200T70 303Z" />
<glyph unicode="&#x2039;" horiz-adv-x="344" d="M174 148Q169 148 166 152Q135 195 104 239T41 327Q30 337 41 346Q72 390 103 433T166 521Q168 523 170 523T174 524Q201 524 228 524T281 524Q287 524 286 522T283 517Q282 516 269 498T236 452T199 399T168 354T155
336Q155 336 167 318T198 274T236 221T268 175T283 155Q285 154 286 151T281 148Q256 148 229 148T174 148Z" />
<glyph unicode="&#x203a;" horiz-adv-x="400" d="M99 148Q94 148 95 151T98 155Q99 156 112 175T145 220T182 273T213 318T226 336Q226 336 214 354T183 398T145 452T113 497T98 517Q97 519 96 521T99 524Q125 524 152 524T207 524Q209 524 211 524T215 521Q246
477 277 434T340 346Q351 337 340 327Q309 283 278 239T215 152Q212 148 207 148Q180 148 153 148T99 148Z" />
</font>
</defs>
</svg>
