<?xml version="1.0" standalone="no"?>
<!DOCTYPE svg PUBLIC "-//W3C//DTD SVG 1.1//EN" "http://www.w3.org/Graphics/SVG/1.1/DTD/svg11.dtd">
<svg xmlns="http://www.w3.org/2000/svg">
<defs >
<font id="Glory" horiz-adv-x="468" ><font-face
    font-family="Glory Thin SemiBold"
    units-per-em="1000"
    panose-1="0 0 0 0 0 0 0 0 0 0"
    ascent="900"
    descent="-220"
    alphabetic="0" />
<glyph unicode=" " horiz-adv-x="233" />
<glyph unicode="!" horiz-adv-x="243" d="M86 218Q79 218 77 220T75 231L61 662Q61 668 63 670T71 673H173Q182 673 182 663L168 231Q168 222 166 220T155 218H86ZM175 33Q175 10 164 -2T118 -14Q87 -14 74 -2T60 33Q60 57 73 68T118 80Q153 80 164 69T175 33Z" />
<glyph unicode="&quot;" horiz-adv-x="361" d="M69 451Q64 451 61 454T58 467L53 688Q52 700 55 703T68 707H128Q140 707 142 704T144 692L138 464Q137 456 135 454T125 451H69ZM232 451Q227 451 225 454T222 467L216 688Q215 700 218 703T231 707H292Q303 707
305 704T308 692L302 464Q302 456 299 454T289 451H232Z" />
<glyph unicode="#" horiz-adv-x="757" d="M209 203H66Q57 203 54 205T51 218L57 266Q58 274 61 276T73 279H215L224 422H86Q78 422 75 423T72 436L78 484Q80 492 83 494T94 497H228L242 692Q243 701 246 704T257 707H312Q321 707 322 703T322 690L308 497L450
496L464 692Q465 701 467 704T479 707H534Q542 707 543 703T543 690L529 496H685Q700 497 704 494T706 484L700 434Q699 426 695 424T686 422H525L516 278H664Q678 279 682 276T685 266L679 215Q678 208 674 206T664 203H510L498 11Q497 7 495 4T485 0H432Q425
0 422 4T419 21L431 203H289L277 11Q276 7 274 4T263 0H210Q203 0 200 4T197 21L209 203ZM295 279L437 278L445 422H304L295 279Z" />
<glyph unicode="$" horiz-adv-x="484" d="M155 36Q139 41 112 50T66 68Q55 75 51 79T46 92Q46 114 46 136T46 180Q46 189 51 189T65 185T78 176Q117 150 149 140T208 130Q246 130 274 149T303 206Q303 228 291 244T256 274T199 302Q163 319 129 339T72 393T49
480Q49 531 71 566T131 620T213 640Q222 640 229 640T245 640L263 734Q264 740 266 742T278 745H333Q343 745 344 742T344 731L324 627Q350 619 375 606T427 575Q436 570 437 566T433 554Q425 540 416 523T398 492Q394 486 389 488T373 498Q359 507 336 517T286
535T236 542Q202 542 179 527T155 478Q155 458 168 443T205 416T259 388Q296 371 330 349T387 294T410 208Q410 158 385 118T320 55T233 30L210 -124Q209 -131 206 -132T194 -134H138Q133 -134 131 -131T131 -114L155 36Z" />
<glyph unicode="%" horiz-adv-x="811" d="M158 0Q152 0 151 3T153 13L549 698Q553 704 555 705T564 707H639Q646 707 647 703T638 683L254 11Q251 6 248 3T236 0H158ZM207 406Q122 406 88 448T53 557Q53 623 87 666T207 709Q290 709 325 666T361 557Q361 491 326
449T207 406ZM207 473Q248 473 266 495T285 557Q285 598 267 619T207 641Q165 641 146 620T126 557Q126 517 145 495T207 473ZM604 0Q520 0 486 42T451 151Q451 217 485 260T604 303Q687 303 722 260T758 151Q758 85 723 43T604 0ZM604 67Q646 67 664 89T683 151Q683
192 665 213T604 235Q563 235 544 214T524 151Q524 111 543 89T604 67Z" />
<glyph unicode="&amp;" horiz-adv-x="704" d="M276 -9Q209 -9 162 9T84 57T40 122T26 192Q26 234 42 270T87 332T153 365Q129 373 112 390T84 428T68 470T63 505Q63 534 75 564T113 620T181 660T282 676Q340 676 392 651T483 566Q492 554 489 548T482 537L429
497Q417 490 409 502Q388 532 356 556T281 581Q249 581 225 570T186 540T171 492Q171 473 181 457T209 429T249 415Q253 414 261 414T278 413T291 412Q306 412 311 411T317 404V328Q317 319 314 318T304 317H254Q225 317 202 302T165 262T152 207Q152 178 165 152T209
108T290 90Q332 90 368 112T433 169T477 245L401 286Q398 288 396 291T400 302L439 365Q443 374 447 375T457 373L658 269Q664 266 664 262T661 252L624 187Q620 180 617 178T605 180L560 203Q543 162 517 124T456 56T376 9T276 -9Z" />
<glyph unicode="&apos;" horiz-adv-x="226" d="M83 451Q79 451 76 454T73 467L67 688Q67 700 70 703T82 707H143Q154 707 156 704T159 692L152 464Q152 456 149 454T140 451H83Z" />
<glyph unicode="(" horiz-adv-x="372" d="M319 -70Q319 -77 316 -79T291 -81Q215 -81 158 -30T71 112T40 318Q40 368 49 421T79 524T129 614T199 677T291 701Q312 701 315 698T319 689V636Q319 629 315 629T295 629Q259 629 232 608T187 552T159 476T144 394T139
319Q139 275 144 229T161 141T191 65T235 12T297 -9Q314 -9 316 -11T319 -20V-70Z" />
<glyph unicode=")" horiz-adv-x="372" d="M53 -70V-20Q53 -14 56 -12T74 -9Q110 -8 136 11T180 64T210 140T227 229T232 319Q232 352 228 393T214 476T185 552T141 608T77 629Q63 629 58 629T53 636V689Q53 695 57 698T81 701Q132 701 172 678T243 614T292 524T322
421T332 318Q332 202 301 112T214 -29T81 -81Q61 -81 57 -79T53 -70Z" />
<glyph unicode="*" horiz-adv-x="536" d="M267 407L164 273Q158 266 154 265T143 267L100 304Q93 310 93 314T100 325L204 453L47 501Q30 506 34 517L52 572Q55 580 59 581T72 579L228 526L225 690Q225 699 227 703T237 707H294Q303 707 305 704T308 690L305 525L461
579Q471 583 474 581T481 571L499 516Q502 505 486 500L329 452L433 325Q440 317 440 313T433 303L390 266Q384 262 380 263T369 273L267 407Z" />
<glyph unicode="+" horiz-adv-x="491" d="M212 104Q205 104 203 105T201 113V269H59Q53 269 52 271T50 279V337Q50 343 52 345T60 347H201V503Q201 509 202 511T212 513H274Q279 513 280 511T282 502V347L431 346Q437 346 439 344T441 336V276Q441 271 439 270T431
268L282 269V112Q282 106 280 105T272 104H212Z" />
<glyph unicode="," horiz-adv-x="212" d="M162 32Q162 11 154 -15T133 -65T112 -105Q108 -111 102 -112Q92 -112 82 -112T60 -112Q55 -111 55 -109T58 -98Q62 -89 67 -74T79 -41T88 -12Q69 -10 61 3T53 31Q53 53 65 66T107 80Q132 80 147 71T162 32Z" />
<glyph unicode="-" horiz-adv-x="406" d="M63 236Q55 236 54 238T53 247V305Q53 312 54 314T64 316H343Q350 316 352 315T354 305V244Q354 239 353 238T342 236H63Z" />
<glyph unicode="." horiz-adv-x="202" d="M159 33Q159 9 148 -3T101 -15Q70 -15 57 -3T43 33Q43 56 56 68T101 80Q137 80 148 68T159 33Z" />
<glyph unicode="/" horiz-adv-x="571" d="M136 11Q133 6 129 3T117 0H40Q35 0 34 3T36 13L460 698Q464 704 467 705T475 707H549Q558 707 559 703T549 683L136 11Z" />
<glyph unicode="0" horiz-adv-x="543" d="M503 336Q503 264 491 202T452 93T381 20T271 -7Q207 -7 162 19T91 92T52 201T40 336Q40 409 52 471T90 580T162 654T271 680Q336 680 380 654T452 580T491 470T503 336ZM383 336Q383 459 356 524T271 589Q213 589 186
525T158 336Q158 212 185 148T271 83Q328 83 355 148T383 336Z" />
<glyph unicode="1" horiz-adv-x="350" d="M178 0Q167 0 167 11V541Q167 549 160 545L65 493Q53 486 48 496L15 552Q8 564 20 571L190 666Q197 670 200 671T210 673H269Q281 673 281 662V11Q281 0 270 0H178Z" />
<glyph unicode="2" horiz-adv-x="501" d="M47 0Q38 0 36 2T34 11V72Q34 86 43 90Q91 122 143 163T241 252T315 354T343 461Q343 498 329 524T285 565T215 580Q173 580 141 568T87 544T55 529Q43 526 43 536V611Q43 618 45 621T56 630Q73 639 99 650T158 669T228
678Q284 678 335 656T420 587T454 464Q454 410 434 360T379 263T299 174T204 93Q202 91 203 89T207 87H448Q456 87 456 79V11Q456 3 455 2T443 0H47Z" />
<glyph unicode="3" horiz-adv-x="496" d="M226 -5Q188 -5 153 5T88 33T35 77Q30 83 31 88T35 98L74 146Q86 159 97 148Q124 121 156 106T225 91Q263 91 289 107T328 149T342 200Q342 225 328 250T285 292T209 310Q201 310 194 310T178 310Q172 310 168 313T164
325V384Q164 400 178 400Q186 400 198 400T226 400Q259 401 282 415T318 452T331 497Q331 520 319 539T284 571T224 583Q190 583 155 568T96 530Q83 517 74 532L38 593Q35 599 37 605T42 613Q75 639 108 653T173 672T232 678Q298 678 343 654T410 591T433 509Q433
457 406 417T337 360Q325 356 325 355Q325 355 339 350Q388 336 419 298T451 201Q451 150 425 103T348 25T226 -5Z" />
<glyph unicode="4" horiz-adv-x="517" d="M311 0Q300 0 300 11V165Q300 175 290 175H32Q21 175 21 185V239Q21 246 25 253T32 264L307 662Q312 668 316 670T325 673H395Q406 673 406 662V267Q406 257 416 257H478Q486 257 486 249V183Q486 175 478 175H416Q406
175 406 165V11Q406 0 396 0H311ZM147 257H290Q300 257 300 267V496Q300 501 298 501T294 498L142 268Q138 262 140 260T147 257Z" />
<glyph unicode="5" horiz-adv-x="497" d="M208 -5Q187 -5 159 0T101 16T48 45Q43 49 40 54T40 63L81 129Q85 136 90 135T101 131Q131 113 154 106T207 98Q228 98 252 105T297 127T333 167T347 226Q347 268 329 297T278 342T203 358Q190 358 171 357T132 353T96
344Q85 340 80 340T75 352V660Q75 667 77 670T87 673H389Q394 673 397 672T400 664V593Q400 583 389 583H178Q169 583 169 574V446Q169 441 171 439T180 437Q189 438 198 438T215 438Q296 438 349 412T428 339T455 232Q455 161 421 108T330 25T208 -5Z" />
<glyph unicode="6" horiz-adv-x="556" d="M281 -11Q218 -10 162 21T71 121T36 300Q36 367 57 433T119 555T224 645T373 679Q381 679 398 678T433 672Q441 670 447 666T454 647Q454 633 454 619T454 589Q454 579 452 577T439 579Q433 581 419 583T384 585T343 581T304
566Q273 559 246 541T197 495T163 437T145 374Q144 368 145 366T153 371Q175 398 218 415T309 433Q368 433 409 415T476 367T513 299T525 221Q525 163 496 109T413 22T281 -11ZM281 85Q324 85 354 104T399 154T417 216Q418 247 404 274T362 318T291 335Q261 335
234 322T184 290T147 249Q146 218 156 189T184 136T227 99T281 85Z" />
<glyph unicode="7" horiz-adv-x="480" d="M120 0Q109 0 106 1T103 11Q108 54 123 107T158 217T197 324Q218 376 240 424T281 512T315 579Q314 582 312 583T303 584H35Q29 584 27 585T25 592V663Q25 670 27 671T36 673H445Q450 673 451 672T453 663V620Q453 611
447 600Q432 576 409 533T358 429T301 295Q283 247 266 197T235 99T218 9Q218 3 212 2T201 0H120Z" />
<glyph unicode="8" horiz-adv-x="519" d="M259 -6Q198 -6 146 21T63 93T32 195Q32 250 59 293T128 355Q134 358 136 360T139 365Q101 379 82 413T62 494Q62 546 89 588T161 654T259 679Q314 679 359 655T430 588T457 494Q457 447 439 414T388 363Q388 361 389
359T395 355Q435 334 461 294T488 195Q488 139 457 94T374 21T259 -6ZM260 412Q284 412 305 422T338 450T351 494Q351 517 339 536T306 566T259 577Q234 577 214 566T180 536T167 494Q167 470 180 451T215 422T260 412ZM259 93Q294 93 322 107T366 145T382 198Q382
231 366 255T321 293T260 308Q229 308 201 295T155 257T138 198Q138 169 154 145T198 107T259 93Z" />
<glyph unicode="9" horiz-adv-x="554" d="M245 235Q167 235 119 266T50 346T31 451Q32 507 61 559T145 645T277 679Q328 678 372 659T448 603T499 511T517 384Q518 314 498 245T435 118T328 26T173 -9Q166 -9 150 -8T113 -1Q105 0 99 5T92 23V81Q92 91 95 93T108
92Q123 87 141 86T170 84Q215 84 252 100T318 141Q335 157 350 180T377 227T398 273T410 306Q382 272 337 254T245 235ZM276 582Q233 583 203 563T156 513T140 450Q141 418 153 392T192 349T263 332Q308 332 345 357T404 421Q405 479 388 514T341 566T276 582Z"
/>
<glyph unicode=":" horiz-adv-x="222" d="M169 33Q169 9 158 -3T110 -15Q79 -15 66 -3T53 33Q53 56 66 68T110 80Q146 80 157 68T169 33ZM169 439Q169 415 158 404T110 392Q79 392 66 403T53 439Q53 462 66 474T110 486Q146 486 157 474T169 439Z" />
<glyph unicode=";" horiz-adv-x="225" d="M172 439Q172 416 161 404T114 392Q83 392 70 404T56 439Q56 463 69 475T114 487Q149 487 160 475T172 439ZM169 32Q169 11 161 -15T141 -65T118 -105Q115 -111 108 -112Q99 -112 88 -112T66 -112Q62 -111 62 -109T65
-98Q69 -89 74 -74T86 -41T95 -12Q76 -10 68 3T59 31Q59 53 71 66T114 80Q138 80 153 71T169 32Z" />
<glyph unicode="&lt;" horiz-adv-x="466" d="M61 271Q56 273 53 276T50 289V340Q50 346 53 348T64 354L393 505Q407 512 411 510T416 500V440Q416 436 412 433T400 425L157 312L398 201Q408 195 412 192T416 183V125Q416 109 397 117L61 271Z" />
<glyph unicode="=" horiz-adv-x="493" d="M60 356Q53 356 52 359T50 367V422Q50 430 52 432T61 435H433Q439 435 441 433T443 424V365Q443 360 442 358T432 356H60ZM60 164Q53 164 52 166T50 175V230Q50 238 52 240T61 242H433Q439 242 441 241T443 231V172Q443
167 442 166T432 164H60Z" />
<glyph unicode="&gt;" horiz-adv-x="446" d="M60 116Q50 112 45 114T40 125V182Q40 188 44 191T58 200L300 311L57 424Q40 432 40 439V500Q40 506 44 509T64 505L392 354Q399 351 402 348T406 339V288Q406 279 403 276T395 270L60 116Z" />
<glyph unicode="?" horiz-adv-x="455" d="M121 166Q113 166 112 170T110 184Q110 232 117 266T137 326T169 372T212 411Q225 422 242 433T274 458T298 486T305 522Q304 554 280 569T219 585Q175 585 140 573T85 552Q76 549 74 547T68 555L47 618Q44 626 50 630T63
639Q96 655 137 664T213 674Q303 674 356 633T409 519Q409 470 391 441T345 393T292 356Q259 333 240 308T212 252T204 180Q204 171 202 169T196 166H121ZM99 33Q99 57 112 68T156 80Q191 80 202 69T214 33Q214 10 203 -2T156 -14Q125 -14 112 -2T99 33Z" />
<glyph unicode="@" horiz-adv-x="845" d="M40 328Q40 398 67 462T147 577T271 657T433 687Q536 687 607 661T722 592T785 494T805 383Q805 334 792 289T754 209T694 154T613 133Q580 133 558 147T524 182T507 226Q507 229 507 230T505 232T501 224Q488 199 469
179T424 147T370 135Q314 135 278 160T225 228T214 321Q221 386 251 438T329 521T439 553Q496 553 536 540T612 504Q622 497 625 489T624 470Q619 453 614 436T603 401Q596 379 590 353T579 299T574 250T581 215T605 201Q636 201 660 229T697 302T711 395Q711 436
697 476T649 548T563 600T432 620Q364 620 309 597T214 532T154 438T132 330Q132 272 151 223T208 136T301 79T425 57Q511 57 590 69T729 111Q737 116 742 118T752 123Q759 128 763 127T771 120L796 85Q802 77 798 72T785 61Q780 58 776 55T764 49Q707 19 627 4T427
-11Q336 -10 265 15T143 86T66 193T40 328ZM511 428Q514 438 518 447T519 461Q504 467 487 470T449 474Q408 474 378 447T332 379T313 301Q312 277 316 257T332 223T365 210Q389 210 408 227T443 275Q456 299 474 340T511 428Z" />
<glyph unicode="A" horiz-adv-x="551" d="M36 0Q28 0 27 6T28 29Q34 74 48 138T81 275T122 419T167 553T211 657Q215 664 219 668T230 673H321Q327 671 332 668T341 656Q362 616 384 554T429 419T470 274T504 137T524 29Q527 12 526 6T515 0H427Q420 0 418 3T411
23Q407 48 401 81T388 142Q387 149 385 150T376 152H175Q168 152 167 151T163 142Q157 114 151 81T140 23Q137 7 135 4T125 0H36ZM199 240H352Q358 240 359 242T359 253Q343 315 326 380T288 500Q286 507 281 507H270Q265 507 262 499Q252 469 239 428T214 340T191
251Q190 246 191 243T199 240Z" />
<glyph unicode="B" horiz-adv-x="533" d="M490 190Q490 121 463 79T390 19T288 0H81Q70 0 70 11V662Q70 673 81 673H242Q291 673 333 669T407 648T458 598T476 505Q476 478 469 448T445 394T404 356Q398 354 399 350T404 343Q440 327 465 285T490 190ZM369 192Q369
239 355 262T315 293T250 301H190Q184 301 184 296V86Q184 83 185 82T191 80H268Q283 80 301 83T334 98T359 131T369 192ZM357 500Q357 542 341 561T296 587T224 593H190Q184 593 184 585V397Q184 390 191 390H260Q294 390 315 402T346 438T357 500Z" />
<glyph unicode="C" horiz-adv-x="464" d="M431 30Q431 10 407 3Q393 -1 373 -3T334 -7T305 -8Q187 -8 116 79T44 335Q44 506 113 593T305 680Q315 680 333 679T372 675T407 667Q418 664 424 660T431 647V573Q431 549 406 566Q388 577 364 584T315 591Q270 591
240 572T193 519T168 442T161 348Q161 315 164 278T177 206T203 142T247 96T315 79Q342 79 366 86T404 101Q420 111 425 110T431 95V30Z" />
<glyph unicode="D" horiz-adv-x="582" d="M538 346Q538 259 520 199T473 99T408 39T337 9T273 0H81Q70 0 70 11V662Q70 673 81 673H273Q308 673 345 667T416 642T478 588T522 493T538 346ZM425 346Q425 433 410 481T371 552T320 579T270 584H193Q186 584 185 583T184
577V97Q184 91 185 90T191 88H254Q279 88 308 96T364 130T408 207T425 346Z" />
<glyph unicode="E" horiz-adv-x="452" d="M81 0Q70 0 70 11V662Q70 673 81 673H409Q419 673 421 672T423 660V599Q423 588 421 586T409 584H192Q186 584 185 583T184 577V391Q184 386 185 385T191 383H364Q375 383 377 381T379 366V311Q379 300 377 298T364 295H191Q186
295 185 294T184 288V97Q184 92 185 90T191 88H407Q419 88 421 86T423 72V16Q423 5 420 3T407 0H81Z" />
<glyph unicode="F" horiz-adv-x="440" d="M81 0Q70 0 70 11V662Q70 673 81 673H409Q419 673 421 672T423 660V599Q423 588 421 586T409 584H192Q186 584 185 583T184 577V391Q184 386 185 385T191 383H360Q371 383 373 381T375 366V311Q375 300 373 298T360 295H191Q186
295 185 294T184 288V16Q184 5 182 3T167 0H81Z" />
<glyph unicode="G" horiz-adv-x="570" d="M514 29Q514 16 498 8T454 -3T395 -6Q217 -6 126 78T34 325Q34 435 75 514T189 635T354 678Q391 678 428 676T487 665Q500 661 504 658T509 644V583Q509 566 503 563T487 564Q462 578 436 584T376 590Q346 590 308 579T235
539T178 461T155 332Q155 251 177 202T232 126T301 91T367 82Q397 82 400 95V288Q400 294 399 295T392 297H268Q261 297 258 299T255 309V371Q255 380 257 382T268 385H496Q509 385 511 382T514 366V29Z" />
<glyph unicode="H" horiz-adv-x="611" d="M97 0Q92 0 87 1T80 11Q76 46 73 99T67 216T65 346Q65 408 66 467T72 577T82 662Q83 667 88 670T98 673Q120 673 143 673T188 673Q196 673 196 662Q191 621 188 573T183 479T180 396Q180 388 181 386T192 383Q248 383
305 383T419 383Q425 383 428 385T432 396Q430 432 428 478T422 572T415 662Q415 673 422 673Q445 673 467 673T513 673Q517 673 522 670T528 662Q535 627 539 576T545 466T546 344Q546 278 544 215T538 99T531 11Q530 3 525 2T514 0Q491 0 469 0T423 0Q417 0 417
11Q422 42 424 78T429 151T431 222T432 285Q432 292 430 293T421 295Q363 295 306 295T190 295Q183 295 181 294T179 285Q179 256 179 222T182 151T186 78T193 11Q194 0 188 0Q165 0 143 0T97 0Z" />
<glyph unicode="I" horiz-adv-x="252" d="M183 11Q183 0 171 0H81Q70 0 70 11V662Q70 673 81 673H171Q183 673 183 662V11Z" />
<glyph unicode="J" horiz-adv-x="318" d="M254 179Q254 110 240 71T194 16T108 0H33Q25 0 15 3T4 14V78Q4 89 13 88Q26 88 47 87T81 86Q114 86 127 102T140 165V662Q140 673 151 673H242Q246 673 250 670T254 662V179Z" />
<glyph unicode="K" horiz-adv-x="548" d="M74 0Q70 0 70 4Q70 171 70 337T70 669Q70 673 74 673Q77 673 92 673T126 673T161 673T180 673Q184 673 184 669Q184 631 184 600T184 539T184 478T184 408Q184 405 184 403T188 400H224Q228 400 231 403T237 411Q257
449 272 479T303 536T334 594T370 662Q374 669 377 671T386 673Q389 673 404 673T437 673T470 673T489 673Q497 673 497 667T488 645Q459 597 435 552T386 461T338 362Q334 353 333 347T332 334Q333 311 341 285T361 234T390 185T425 146Q445 126 470 114T529 102Q531
102 534 101T537 98V5Q537 0 534 0Q475 0 434 11T355 52Q335 68 318 90T284 139T256 194T236 252Q233 260 230 262T224 265Q215 265 206 265T188 265Q188 265 186 264T184 258Q184 219 184 189T184 131T184 73T184 4Q184 0 180 0Q177 0 162 0T127 0T92 0T74 0Z"
/>
<glyph unicode="L" horiz-adv-x="434" d="M81 0Q70 0 70 11V662Q70 673 81 673H169Q178 673 180 670T183 659V97Q183 92 184 90T191 88H407Q418 88 420 86T422 72V16Q422 5 420 3T406 0H81Z" />
<glyph unicode="M" horiz-adv-x="712" d="M79 0Q65 0 65 14Q65 91 67 179T75 355T88 523T104 662Q105 668 107 670T115 673H170Q179 673 182 671T189 664L348 393Q351 388 355 388T363 393L523 663Q527 670 530 671T542 673H595Q606 673 607 660Q615 602 622 524T635
357T644 181T647 17Q647 7 644 4T631 0H547Q535 0 535 14Q535 50 534 93T532 181T528 272T523 359T517 437Q516 443 512 443T505 438L382 237Q378 231 370 231H339Q331 231 326 239L207 434Q204 441 200 440T196 433Q192 389 189 342T183 243T179 133T178 7Q178
0 171 0H79Z" />
<glyph unicode="N" horiz-adv-x="641" d="M448 239Q450 235 455 235T460 241Q462 273 462 312T462 396T460 486T455 576T447 661Q446 673 453 673H544Q550 673 554 670T560 662Q567 625 571 573T576 458T577 332T574 206T568 95T561 11Q560 3 555 2T544 0H485Q478
0 471 14L191 438Q190 442 186 442T182 437Q181 386 181 337T180 241T182 152T186 75T193 11Q193 0 186 0H96Q91 0 86 1T79 11Q75 45 72 96T67 208T65 333T66 459T71 573T82 662Q83 667 88 670T98 673H155Q162 673 166 665L448 239Z" />
<glyph unicode="O" horiz-adv-x="635" d="M44 334Q44 444 67 520T150 637T316 677Q399 677 453 655T537 589T578 481T590 334Q590 251 579 188T537 81T453 15T316 -8Q209 -8 150 32T68 148T44 334ZM162 334Q162 236 178 183T228 108T315 86Q368 86 402 107T454
182T472 334Q472 433 455 487T403 563T315 585Q262 585 229 563T179 487T162 334Z" />
<glyph unicode="P" horiz-adv-x="493" d="M460 457Q460 393 437 340T369 254T256 221H192Q187 221 186 219T184 213V11Q184 0 171 0H81Q70 0 70 11V662Q70 673 81 673H245Q359 673 409 621T460 457ZM184 314Q184 305 191 305H244Q294 305 322 345T350 456Q349
531 322 562T242 593H191Q187 593 186 592T184 584V314Z" />
<glyph unicode="Q" horiz-adv-x="635" d="M44 333Q44 443 67 520T150 637T316 677Q400 677 453 655T537 588T578 480T590 333Q590 242 576 174T524 63T417 3Q410 1 403 -1T388 -5Q377 -7 377 -15Q377 -46 386 -64T416 -91T468 -99H510Q522 -99 522 -112V-165Q522
-173 520 -175T510 -180Q506 -181 489 -181T458 -182Q388 -182 345 -163T282 -107T260 -16Q260 -10 258 -8T249 -5Q241 -3 232 -1T211 6Q146 24 110 66T59 175T44 333ZM162 334Q162 236 178 182T228 107T315 86Q368 86 402 107T454 181T472 334Q472 433 455 487T403
563T315 585Q262 585 229 563T179 487T162 334Z" />
<glyph unicode="R" horiz-adv-x="545" d="M81 0Q70 0 70 11V662Q70 673 81 673H242Q320 673 367 654T437 590T460 470Q460 412 439 365T373 289Q360 278 355 268T358 243Q367 221 378 199T403 159T434 128Q451 116 472 109T519 102Q527 102 529 100T532 89V10Q532
6 530 4T520 1T493 0Q452 0 418 12T357 45Q331 65 310 93T271 156T244 225Q243 228 240 236T229 244H190Q184 244 184 230V11Q184 0 171 0H81ZM184 343Q184 338 186 337T192 335H243Q294 335 321 369T349 469Q349 521 337 547T300 583T238 593H191Q187 593 186
592T184 584V343Z" />
<glyph unicode="S" horiz-adv-x="478" d="M51 34V105Q51 112 55 112T69 108Q89 102 115 97T166 88T208 84Q266 84 295 116T325 193Q325 237 297 263T216 303Q190 310 159 320T100 350T53 404T34 493Q34 559 64 599T144 659T249 678Q272 678 298 674T349 663T393
648Q400 646 402 643T404 633V568Q404 545 376 561Q354 573 324 582T257 591Q209 591 179 566T149 502Q149 470 165 450T206 419T260 400T314 384Q356 370 385 349T429 293T444 202Q444 131 414 85T332 15T209 -8Q179 -8 141 -2T70 15Q59 18 55 22T51 34Z" />
<glyph unicode="T" horiz-adv-x="450" d="M179 0Q175 0 171 3T167 11V577Q167 582 166 583T160 584H32Q23 584 21 586T19 595V663Q19 669 21 671T31 673H417Q426 673 428 671T431 663V596Q431 588 429 586T417 584H289Q283 584 282 583T280 577V11Q280 0 270 0H179Z" />
<glyph unicode="U" horiz-adv-x="635" d="M317 -8Q233 -8 184 11T111 61T78 122T67 176Q63 216 61 262T60 347Q60 395 62 450T68 561T81 663Q81 668 85 670T95 673Q116 673 137 673T179 673Q187 673 188 671T188 653Q184 613 181 571T176 483Q172 407 172 334T178
192Q180 166 188 146T211 111T252 88T315 80Q352 80 377 88T418 110T443 146T453 192Q459 260 459 332T455 480Q453 526 450 569T443 653Q442 668 443 670T452 673Q474 673 496 673T539 673Q546 673 549 671T554 663Q562 616 566 561T573 451T575 349Q575 309 574
263T568 176Q566 158 561 134T542 85T501 39T430 5T317 -8Z" />
<glyph unicode="V" horiz-adv-x="555" d="M236 0Q230 2 226 5T217 16Q195 57 172 119T127 253T86 397T54 534T33 643Q31 660 32 666T42 673H130Q137 673 140 670T145 650Q151 618 158 581T175 506T195 428T217 353T238 283Q246 259 255 228T272 171Q275 164 277
164T282 170Q292 194 300 226T317 283Q327 315 338 352T359 428T380 506T397 581T410 650Q413 665 415 669T425 673H514Q522 673 523 667T522 643Q516 599 502 536T469 399T428 254T384 119T340 16Q335 8 330 5T320 0H236Z" />
<glyph unicode="W" horiz-adv-x="846" d="M234 0Q218 0 210 16Q189 57 166 119T120 253T79 400T46 540T25 657Q24 664 25 668T35 673Q36 673 48 673T77 673T106 673T123 673Q130 673 133 671T137 660Q142 625 154 569T188 425Q204 362 216 314T240 230T260 170Q262
165 263 163T267 160Q269 160 269 160T271 160Q273 160 274 163T277 170Q284 187 292 211T311 265T330 325T347 382T359 431Q361 463 361 501T362 574T361 632T361 658Q360 665 361 669T371 674Q374 674 386 674T415 674T444 674T460 674Q466 674 469 672T472 660Q472
617 475 573T484 492T493 432Q503 368 522 304T565 174Q568 166 569 163T573 160Q575 160 575 160T577 160Q580 160 582 167Q588 181 599 214T625 298T656 413Q668 457 676 489T690 548T701 601T711 657Q713 667 716 670T725 673Q728 673 741 673T769 673T798 673T814
673Q828 673 823 655Q815 612 800 548T766 408T725 259T682 121T639 16Q638 12 633 6T619 0Q611 0 595 0T562 0T536 0Q530 0 525 7T517 16Q504 43 489 79T459 158T431 245Q428 256 424 260T414 246Q398 195 387 160T367 99T350 55T333 16Q330 8 324 4T313 0Q305
0 289 0T257 0T234 0Z" />
<glyph unicode="X" horiz-adv-x="551" d="M384 357Q378 346 378 338T386 318Q393 307 398 300T410 282Q435 241 456 201T493 126T519 64T534 20Q537 8 532 4T518 0H427Q421 0 418 2T411 17Q407 29 397 52T374 105T345 165T315 223T288 268Q282 273 277 273T265
268Q249 244 234 215T203 157T176 100T154 51T140 17Q137 7 135 4T124 0H35Q25 0 20 4T18 20Q20 28 32 61T67 145T126 255Q134 269 144 286T165 318Q169 323 170 337T166 357Q134 407 110 452T68 535T40 602T26 652Q24 665 29 669T42 673H131Q138 673 141 671T146
661Q146 661 151 645T166 603T190 543T221 477T259 415Q261 413 262 411T268 405Q272 402 276 403T283 406Q286 409 286 409T290 414Q310 442 328 475T360 541T384 601T399 644T405 661Q407 668 410 670T420 673H510Q517 673 522 669T526 652Q522 632 509 599T477
526T433 442T384 357Z" />
<glyph unicode="Y" horiz-adv-x="521" d="M329 288Q323 280 321 266T318 240V11Q318 6 315 3T307 0H215Q204 0 204 11V239Q204 262 193 285T173 322Q167 331 156 349T131 389T106 429T91 455Q64 508 47 550T22 619T11 652Q8 665 14 669T28 673H116Q127 673 131
661Q137 637 147 610T171 555T195 502Q209 476 222 453T250 408Q256 399 260 398T271 408Q278 418 286 429T302 455T318 485Q331 509 345 541T371 606T390 662Q392 669 395 671T405 673H497Q503 673 507 669T510 652Q509 646 501 618T477 547T432 452Q426 439 414
418T386 373T356 326T329 288Z" />
<glyph unicode="Z" d="M423 673Q429 673 430 671T432 660V614Q432 598 418 575T381 526Q357 497 329 458T274 373T220 278T174 181T139 88H443Q452 88 454 86T457 77V10Q457 3 455 2T444 0H45Q26 0 22 11T19 41Q22 79 36 125T74 223T125 325T182 425T240 514T292
584H42Q32 584 30 586T27 595V662Q27 669 29 671T41 673H423Z" />
<glyph unicode="[" horiz-adv-x="358" d="M292 -100Q292 -111 283 -111H53Q46 -111 43 -108T40 -97V734Q40 747 52 747H279Q288 747 290 746T292 739V686Q292 681 289 680T280 678H147V-42H281Q287 -42 289 -43T292 -52V-100Z" />
<glyph unicode="\" horiz-adv-x="577" d="M466 0Q459 0 455 3T447 13L36 681Q25 698 26 702T35 707H107Q115 707 117 706T125 697L547 14Q551 9 551 5T542 0H466Z" />
<glyph unicode="]" horiz-adv-x="358" d="M75 -111Q66 -111 66 -100V-52Q66 -45 68 -44T77 -42H211V678H78Q72 678 69 679T66 686V739Q66 745 68 746T79 747H306Q318 747 318 734V-97Q318 -105 316 -108T305 -111H75Z" />
<glyph unicode="^" horiz-adv-x="621" d="M56 404Q44 404 41 408T44 419L249 695Q253 701 257 704T277 707H350Q360 707 364 704T371 693L575 422Q585 411 581 408T566 404H482Q477 404 473 407T462 417L311 624L159 418Q153 410 149 407T134 404H56Z" />
<glyph unicode="_" horiz-adv-x="566" d="M23 -100Q16 -100 15 -98T13 -89V-52Q13 -45 15 -43T23 -40H542Q549 -40 551 -42T553 -52V-92Q553 -97 551 -98T540 -100H23Z" />
<glyph unicode="`" horiz-adv-x="165" d="M106 527Q95 527 85 538L2 628Q-1 631 1 635T7 639H89Q98 639 102 637T110 628L161 541Q169 527 159 527H106Z" />
<glyph unicode="a" horiz-adv-x="473" d="M231 -7Q181 -7 137 4T67 47T40 143Q40 195 58 228T107 278T169 303T229 310Q253 310 275 308T315 303Q326 300 326 318Q326 362 301 380T229 398Q191 398 157 385T99 359Q89 354 86 355T81 366L73 417Q72 427 73 431T83
440Q108 456 147 466T231 477Q298 477 337 462T397 421T424 362T431 293Q431 248 431 207T429 126T423 45Q421 34 417 29T400 18Q386 11 364 7T316 -1T269 -5T231 -7ZM237 61Q246 61 258 62T282 66T303 75T313 90Q316 116 318 148T319 210Q319 225 308 230Q297
236 276 238T235 240Q223 240 208 236T180 222T157 193T148 143Q148 117 159 99T190 71T237 61Z" />
<glyph unicode="b" horiz-adv-x="483" d="M235 -6Q183 -6 143 2T88 17Q73 22 66 26T56 37T51 56Q47 75 44 112T40 193T39 271Q38 389 43 500T60 698Q60 704 64 706T75 708H156Q169 708 169 704T169 687Q167 670 164 648T159 601T156 553T153 509T152 475Q152 467
156 465T167 464Q179 468 201 472T242 476Q277 476 312 466T375 428T421 352T439 227Q439 106 385 50T235 -6ZM233 79Q260 79 281 93T315 139T327 228Q327 279 319 309T296 356T265 377T233 383Q224 383 210 381T183 375T163 369Q158 368 156 366T153 356Q152 334
152 305T152 242T154 174T157 107Q158 100 160 97T165 91Q176 87 194 83T233 79Z" />
<glyph unicode="c" horiz-adv-x="407" d="M243 -7Q179 -7 138 11T75 63T43 141T33 236Q33 283 43 326T76 404T139 459T242 479Q285 479 317 470T373 442Q379 435 381 432T383 422V357Q383 349 378 349T369 352Q344 374 315 381T256 389Q226 389 204 376T169 341T150
292T143 235Q143 187 154 152T190 97T250 78Q275 78 298 84T348 102Q363 110 369 96L390 47Q394 40 393 36T385 29Q359 10 321 2T243 -7Z" />
<glyph unicode="d" horiz-adv-x="490" d="M40 229Q41 305 59 353T107 427T172 464T243 475Q262 475 282 472T314 465Q322 463 326 464T331 473Q331 491 331 513T329 557T326 602T323 643T320 674Q317 688 320 691T332 694H415Q421 694 424 693T429 685Q433 642
436 587T440 471T442 348T442 229T437 125T428 47Q426 37 421 31T396 18Q375 9 334 1T244 -7Q205 -7 171 2T111 32Q76 59 58 108T40 229ZM152 229Q152 161 168 130T211 90Q225 82 244 81T282 82T315 90Q318 93 320 95T323 103Q324 126 325 153T327 208T329 262T330
313T330 354Q330 362 328 365T321 369Q305 374 285 377T249 381Q235 381 218 376T187 356T163 310T152 229Z" />
<glyph unicode="e" horiz-adv-x="467" d="M35 237Q35 284 44 327T77 404T140 459T243 479Q308 479 346 461T404 413T430 346T437 273Q437 232 428 220T401 208H156Q151 208 149 206T146 196Q146 161 160 133T202 89T269 73Q302 73 334 83T383 102Q394 108 400
109T413 97L432 61Q437 51 435 47T422 37Q389 14 341 4T244 -7Q180 -7 139 12T76 64T44 142T35 237ZM325 291Q325 321 318 344T292 381T241 395Q216 395 199 386T171 361T154 327T146 292Q146 278 147 275T156 271H312Q321 271 323 274T325 291Z" />
<glyph unicode="f" horiz-adv-x="355" d="M94 14Q91 46 88 91T83 188T81 290T80 380Q80 390 71 390H23Q17 390 14 392T11 402V459Q11 469 14 470T25 472H72Q77 472 78 474T80 483Q79 537 85 574T112 642Q137 676 180 694T288 712Q318 712 344 703T380 689Q392
682 394 678T396 667L380 619Q377 610 374 609T365 610Q352 619 331 625T285 631Q249 631 224 613T195 546Q191 531 190 515T189 481Q189 476 190 474T197 472H329Q337 472 338 470T340 458V402Q340 395 338 393T327 390H198Q192 390 190 388T188 381Q188 328 190
271T194 162T198 71T201 13Q202 4 201 2T193 0H104Q101 0 99 3T94 14Z" />
<glyph unicode="g" horiz-adv-x="482" d="M35 242Q35 309 53 362T118 447T250 478Q289 478 327 472T395 454Q417 446 422 436T430 401Q439 322 439 227T429 36Q418 -51 365 -91T220 -131Q183 -131 140 -121T59 -83Q54 -79 52 -73T53 -61Q57 -55 65 -41T78 -20Q83
-9 87 -9T100 -14Q112 -22 132 -30T174 -44T212 -50Q232 -50 253 -44T292 -22T313 24Q313 25 313 26T314 29Q315 36 312 39T299 41Q288 38 270 36T234 34Q178 34 133 57T61 127T35 242ZM150 259Q150 218 158 186T187 135T244 116Q261 116 277 118T305 125Q322 132
323 148Q325 170 325 201T325 264T323 324T320 368Q320 374 318 382T308 393Q298 398 282 401T246 404Q210 404 189 386T159 335T150 259Z" />
<glyph unicode="h" horiz-adv-x="467" d="M46 11Q46 182 46 354T46 697Q46 708 59 708Q80 708 102 708T146 708Q157 708 157 697Q157 642 157 586T157 475Q157 467 160 466T169 466Q182 469 205 473T251 478Q294 478 326 466T379 426T412 353T425 243Q426 202
424 159T418 77T410 9Q409 3 405 2T394 0Q375 0 355 0T316 0Q302 0 301 3T302 21Q307 62 309 109T313 203Q313 251 309 287T294 347T266 383T224 395Q212 395 198 393T172 387Q165 385 161 380T157 364V11Q157 0 146 0H59Q46 0 46 11Z" />
<glyph unicode="i" horiz-adv-x="209" d="M166 602Q166 575 155 562T108 548Q73 548 61 561T48 602Q48 625 60 639T108 653Q146 653 156 639T166 602ZM163 11Q163 0 151 0H64Q53 0 53 11V461Q53 472 64 472H151Q163 472 163 461V11Z" />
<glyph unicode="j" horiz-adv-x="214" d="M-84 -70L-64 -33Q-60 -26 -56 -26T-46 -30Q-22 -40 -2 -40Q28 -38 44 -16T61 50V461Q61 472 72 472H160Q171 472 171 461V50Q171 -28 140 -72T25 -116Q1 -116 -23 -111T-66 -97Q-79 -89 -84 -84T-84 -70ZM174 602Q174
575 163 562T115 548Q81 548 69 561T56 602Q56 625 68 639T115 653Q153 653 163 639T174 602Z" />
<glyph unicode="k" horiz-adv-x="444" d="M53 4V684Q53 688 57 688H159Q163 688 163 684V310Q163 308 164 304T167 300Q174 300 182 301T197 304Q205 308 209 311T219 325Q235 346 247 367T270 412T291 460Q295 469 299 470T314 472H403Q411 472 411 468T410 459Q408
455 400 436T377 390T345 333T305 277Q301 272 298 269T292 262Q294 261 297 259T302 255Q319 238 337 209T373 145T404 81T426 30T436 8Q440 0 433 0Q430 0 415 0T382 0T349 0T331 0Q327 0 326 0T322 7Q322 7 315 22T296 60T271 108T245 155T225 188Q221 196 214
204T195 216T167 216Q163 214 163 203V4Q163 0 159 0H57Q53 0 53 4Z" />
<glyph unicode="l" horiz-adv-x="216" d="M53 11V697Q53 708 65 708H151Q163 708 163 697V11Q163 0 151 0H65Q53 0 53 11Z" />
<glyph unicode="m" horiz-adv-x="729" d="M66 0Q53 0 53 11V422Q53 433 58 438T74 448Q91 454 117 460T170 471T219 476Q274 476 308 463T368 425Q385 441 405 452T447 470T493 476Q571 476 612 446T670 365T687 251Q687 200 685 158T680 80T672 9Q671 3 669 2T663
0H572Q566 0 565 3T564 16Q566 42 568 81T571 165T573 255Q573 274 570 297T557 341T530 375T485 389Q453 389 438 376T423 339Q423 293 423 251T423 170T423 93T423 13Q423 0 411 0H321Q313 0 313 9V253Q313 293 305 323T276 371T220 389Q208 389 197 387T176
381Q163 376 163 362V14Q163 0 151 0H66Z" />
<glyph unicode="n" horiz-adv-x="475" d="M66 0Q53 0 53 11Q53 116 53 220T53 429Q53 439 59 443T84 454Q96 458 122 464T177 474T232 479Q313 479 356 448T415 366T432 252Q432 212 431 170T427 89T421 21Q419 5 416 3T400 0H330Q318 0 314 3T310 17Q310 22 312
49T316 113T319 188T320 252Q320 305 310 335T280 377T229 390Q215 390 203 388T180 383Q172 382 168 376T163 354Q163 307 163 250T163 133T163 11Q163 0 153 0H66Z" />
<glyph unicode="o" horiz-adv-x="500" d="M250 -7Q164 -7 118 25T53 112T35 238Q35 308 55 362T122 448T250 479Q331 479 377 448T444 363T465 238Q465 168 447 113T383 25T250 -7ZM248 78Q306 78 328 119T351 235Q351 310 327 349T248 388Q196 388 171 349T146
235Q146 160 169 119T248 78Z" />
<glyph unicode="p" horiz-adv-x="487" d="M60 -100Q56 -56 54 20T53 206Q53 241 54 282T57 363T64 429Q66 439 71 445T95 457Q119 465 160 473T252 481Q349 481 401 425T454 246Q454 197 445 157T418 86T375 35T316 7Q298 1 274 -2T227 -5T186 -2Q177 0 173 0T168
-7Q168 -14 168 -29T168 -61T169 -89Q170 -100 170 -105T156 -110H75Q68 -110 65 -108T60 -100ZM166 117Q166 109 169 107T177 102Q193 97 212 94T247 91Q262 91 278 97T309 119T333 165T342 247Q342 332 317 363T250 395Q230 395 212 392T179 384Q176 382 174
379T171 371Q169 348 169 321T168 266T167 209T166 157T166 117Z" />
<glyph unicode="q" horiz-adv-x="487" d="M160 7Q135 15 111 31T69 76T41 146T34 246Q39 368 94 424T248 481Q299 481 339 473T405 457Q422 451 427 445T434 429Q437 408 437 368T436 276T433 170T427 62T421 -33T414 -100Q412 -106 408 -108T398 -110H316Q303
-110 303 -105T305 -89Q306 -78 307 -62T309 -30T310 -7Q310 0 305 0T290 -2Q262 -6 226 -4T160 7ZM147 247Q144 196 151 166T172 119T202 97T234 91Q249 91 269 94T307 102Q312 104 314 106T317 117Q318 133 319 157T321 209T322 265T323 321T323 371Q324 376
322 379T317 384Q302 389 284 392T246 395Q204 395 178 364T147 247Z" />
<glyph unicode="r" horiz-adv-x="334" d="M208 476Q279 476 326 456Q334 452 336 449T337 440L321 385Q320 377 317 376T306 377Q289 383 268 385T233 388Q217 388 205 386T184 382T170 377Q166 374 161 370T156 352V18Q156 6 153 3T141 0H57Q53 0 50 2T46 15V418Q46
433 50 437T63 447Q93 461 134 468T208 476Z" />
<glyph unicode="s" horiz-adv-x="405" d="M41 106Q43 115 48 114T60 109Q76 100 99 94T147 83T190 79Q213 79 231 85T262 104T274 138Q275 164 252 177T176 200Q141 206 108 219T54 259T33 331Q33 380 58 412T123 460T211 477Q247 477 290 467T361 439Q369 434
369 431T368 421L347 365Q345 353 331 360Q310 372 277 383T211 394Q181 394 160 380T139 342Q139 316 162 305T227 286Q256 280 282 273T330 251T364 213T376 151Q376 106 360 77T315 29T254 3T189 -5Q172 -5 144 -1T86 12T36 34Q33 37 31 40T29 48L41 106Z" />
<glyph unicode="t" horiz-adv-x="348" d="M229 0Q163 0 131 27T88 106Q80 148 79 193T78 284Q78 314 79 339T81 392Q81 402 72 402H28Q22 402 20 404T17 414V459Q17 469 19 470T30 472H75Q82 472 83 475T85 487L89 565Q89 576 100 576H186Q190 576 194 573T198
565L193 487Q192 477 193 475T201 472H295Q304 472 305 470T307 458V415Q307 407 305 405T294 402H200Q195 402 192 399T189 389Q188 361 188 333T186 274Q186 238 187 200T197 127Q202 105 215 95T251 85Q264 85 276 88T298 95Q308 101 310 99T316 88L332 37Q335
30 330 25T309 14Q298 10 284 7T255 2T229 0Z" />
<glyph unicode="u" horiz-adv-x="479" d="M248 -4Q167 -4 124 26T63 108T46 221Q46 261 47 303T52 383T58 451Q60 467 64 469T80 472H149Q161 472 166 472T169 455Q169 450 168 425T164 364T161 289T160 217Q160 150 180 117T250 83Q256 83 267 84T289 87T309
95T317 108V457Q317 462 318 467T324 472H414Q417 472 421 471T426 461V49Q426 37 419 32T391 20Q381 16 356 11T302 1T248 -4Z" />
<glyph unicode="v" horiz-adv-x="416" d="M179 0Q171 0 167 6Q141 48 122 95T86 190Q57 270 41 333T16 447Q12 472 25 472H116Q122 472 126 469T131 460Q134 429 142 392T160 308Q173 256 184 219T207 154Q209 146 213 147T220 154Q229 174 238 205T259 283Q271
334 280 384T293 466Q294 471 299 471H396Q402 471 401 464Q392 403 376 334T333 192Q318 147 298 100T252 5Q249 -1 243 -1L179 0Z" />
<glyph unicode="w" horiz-adv-x="642" d="M160 14Q132 68 109 127T68 244T37 353T17 443Q14 456 15 464T25 472H116Q128 472 131 460Q136 429 143 393T160 320T179 250T197 190T211 149Q213 142 216 143T220 147Q228 162 236 185T250 236T259 287T263 325Q263
341 263 360T262 397T262 432T261 458Q261 471 273 471H367Q372 471 375 469T379 459Q379 433 380 396T384 316Q385 301 389 282T398 243T410 204T421 170T432 146Q437 135 441 146Q448 163 456 189T474 249T491 318T506 390T519 457Q521 472 538 472H617Q625 472
626 465T626 446Q619 402 605 344T571 223T529 106T484 14Q479 7 476 4T467 0H405Q399 0 396 2T389 10Q381 25 370 49T348 97T331 141Q323 164 314 141Q312 133 306 119T294 89T281 62Q274 49 266 34T254 10Q252 6 248 3T237 0H179Q170 0 168 2T160 14Z" />
<glyph unicode="x" horiz-adv-x="411" d="M24 0Q16 0 15 6T14 20T16 29Q18 39 25 59T45 108T74 170T111 238Q114 243 114 247T109 256Q86 288 69 324T39 392T21 445T14 466Q13 472 18 472H121Q127 472 130 471T135 460Q137 450 144 426T162 375T184 324T206 292Q210
292 212 292T218 292Q230 301 241 323T263 373T279 423T288 457Q290 465 293 468T309 472H386Q389 472 393 471T397 460Q395 451 390 430T374 381T347 320T307 255Q300 248 308 237Q333 202 350 167T378 101T394 51T401 26Q403 15 402 8T392 0H314Q303 0 299 3T293
15Q290 28 283 52T265 104T243 155T218 189Q212 189 212 189T212 189T205 189Q189 166 176 136T152 78T136 31T130 12Q128 4 125 2T114 0H24Z" />
<glyph unicode="y" horiz-adv-x="421" d="M135 95Q114 131 96 175T63 268T38 364T19 455Q16 472 30 472H116Q125 472 129 468T135 449Q137 432 142 405T155 346T171 283T189 222T208 174Q212 167 216 167T221 173Q231 200 242 234T264 307T283 384T297 456Q298
465 301 468T314 472H389Q397 472 401 469T404 453Q398 415 390 380T370 307T345 226Q334 195 318 151T279 60T225 -28T151 -94T54 -120Q31 -120 14 -117T-15 -109Q-33 -100 -26 -84L-4 -42Q-1 -34 3 -34T14 -36Q33 -40 55 -35T95 -18Q114 -7 124 4T142 30Q148
45 146 62T135 95Z" />
<glyph unicode="z" horiz-adv-x="377" d="M26 30Q32 85 56 139T114 246Q137 282 160 315T207 375Q210 378 210 381T204 386H58Q52 386 50 388T47 398V459Q47 469 49 470T60 472H338Q348 472 349 469T350 456V404Q350 398 347 390T332 374Q315 361 295 339T256
290T219 238Q196 200 176 164T144 99Q143 95 144 91T154 86H339Q347 86 348 83T349 72V11Q349 3 346 2T333 0H40Q31 0 28 4T26 30Z" />
<glyph unicode="{" horiz-adv-x="431" d="M366 -90Q366 -103 362 -107T343 -112H261Q210 -112 185 -93T153 -46T146 8V192Q146 217 136 237T109 268Q102 273 88 278T50 283Q43 283 42 287T40 297V357Q40 363 44 364T58 366Q97 366 121 390T146 456V625Q146 651
153 678T185 725T261 745H356Q362 745 364 743T366 737V685Q366 682 364 679T356 676H299Q273 676 266 663T259 625V456Q259 430 247 404T214 357T164 327Q161 326 158 325T153 322Q157 321 163 319T174 313Q212 296 235 261T259 192V8Q259 -15 266 -29T299 -43H343Q356
-43 361 -46T366 -64V-90Z" />
<glyph unicode="|" horiz-adv-x="274" d="M182 707Q191 707 193 703T195 690V-100Q195 -104 193 -108T182 -112H93Q87 -112 83 -108T79 -91V692Q79 701 82 704T93 707H182Z" />
<glyph unicode="}" horiz-adv-x="431" d="M66 -90V-64Q66 -50 71 -47T88 -43H133Q159 -43 166 -29T173 8V192Q173 226 196 261T258 313Q263 316 268 318T278 322Q276 323 274 324T267 327Q239 336 218 356T185 403T173 456V625Q173 649 166 662T133 676H76Q69
676 68 679T66 685V737Q66 740 67 742T76 745H170Q223 745 247 726T278 679T285 625V456Q285 414 310 390T374 366Q384 366 388 365T392 357V297Q392 292 391 288T381 283Q358 283 344 278T322 268Q306 257 296 237T285 192V8Q285 -18 278 -46T247 -93T170 -112H88Q74
-112 70 -108T66 -90Z" />
<glyph unicode="~" horiz-adv-x="498" d="M450 582Q425 558 394 543T328 527Q304 527 284 534T245 551T208 567T171 574Q156 574 141 566T113 548T93 528Q90 523 87 523T78 527L44 562Q39 566 40 571T43 579Q54 594 72 611T113 641T164 654Q182 654 199 650T232
640T264 627T296 616Q309 613 327 613T366 621T401 642Q405 646 408 647T417 644L454 606Q460 601 458 595T450 582Z" />
<glyph unicode="&#xa0;" horiz-adv-x="233" />
<glyph unicode="&#xa1;" horiz-adv-x="243" d="M157 260Q163 260 165 259T168 247L181 -184Q181 -189 180 -192T172 -195H70Q60 -195 60 -185L75 247Q75 256 77 258T88 260H157ZM68 445Q68 468 79 480T125 492Q156 492 169 480T183 445Q183 422 170 410T125 398Q90
398 79 410T68 445Z" />
<glyph unicode="&#xa2;" horiz-adv-x="465" d="M262 73Q199 73 158 92T94 144T62 221T53 315Q53 362 62 405T95 483T158 538T261 558Q304 558 336 549T392 521Q399 514 401 511T403 500V436Q403 429 398 429T388 432Q364 453 335 460T275 467Q245 467 224 454T189
419T170 370T163 314Q163 266 174 231T209 177T269 158Q295 158 318 164T367 183Q383 190 389 176L410 127Q413 120 412 117T404 109Q379 90 341 82T262 73ZM307 123V-59Q307 -63 305 -67T294 -71H206Q199 -71 196 -67T192 -49V123H307ZM192 499V692Q192 701 194
704T205 707H295Q304 707 305 703T307 690V499H192Z" />
<glyph unicode="&#xa3;" horiz-adv-x="533" d="M365 -12Q331 -12 301 -5T232 12Q209 18 188 21T147 21Q129 20 102 17T56 7Q44 3 39 4T33 16Q33 28 33 40T33 66Q33 74 35 78T47 86Q90 102 115 124T151 177T159 249Q136 249 113 249T68 249Q58 249 54 251T49 261Q49
273 49 285T49 309Q49 321 51 324T60 327Q80 327 100 327T140 327Q121 378 108 427T94 511Q94 552 117 590T185 651T293 675Q309 675 332 672T377 663T416 651Q421 648 423 642T425 631Q425 617 425 602T425 573Q425 565 423 563T409 565Q382 577 352 585T305 594Q272
594 251 583T219 552T209 511Q209 471 222 427T248 327Q276 327 304 327T359 327Q366 327 367 323T369 309Q369 297 369 286T369 263Q369 254 367 252T357 249Q333 249 309 249T261 249Q261 245 261 241T262 232Q263 190 254 159T220 94Q255 89 279 83T324 73T367
69Q395 69 422 76T467 93Q480 99 480 83V37Q480 25 477 20T471 12Q449 -2 423 -7T365 -12Z" />
<glyph unicode="&#xa4;" horiz-adv-x="530" d="M93 146L59 179Q54 184 53 188T56 196L139 273Q132 288 128 303T123 336Q123 354 127 370T140 401L68 469Q64 472 66 476T72 484L109 520Q113 525 116 525T122 520L192 454Q209 464 227 469T265 474Q304 474 338
455L408 520Q412 524 414 524T421 520L457 484Q463 481 464 477T462 469L390 402Q399 388 403 371T408 336Q408 301 391 272L474 196Q478 192 477 188T471 179L436 146Q431 141 427 141T418 146L339 218Q306 199 265 199Q224 199 191 219L112 146Q107 141 103 141T93
146ZM189 336Q189 304 211 283T265 262Q298 262 319 283T341 336Q341 368 320 389T265 410Q233 410 211 389T189 336Z" />
<glyph unicode="&#xa5;" horiz-adv-x="563" d="M350 288Q344 280 342 266T339 240V11Q339 6 336 3T328 0H236Q225 0 225 11V239Q225 262 214 285T194 322Q188 331 176 349T151 389T127 429T112 455Q85 508 68 550T43 619T32 652Q29 665 35 669T49 673H137Q148
673 152 661Q158 637 168 610T192 555T216 502Q230 476 243 453T271 408Q277 399 281 398T292 408Q299 418 307 429T323 455T339 485Q352 509 366 541T392 606T411 662Q413 669 416 671T426 673H518Q524 673 528 669T531 652Q530 646 522 618T497 547T452 452Q446
439 434 418T407 373T377 326T350 288ZM110 221Q102 221 101 224T99 232V270Q99 277 101 279T111 282H446Q452 282 454 280T457 271V230Q457 225 455 223T445 221H110ZM110 116Q102 116 101 118T99 127V164Q99 172 101 174T111 176H446Q452 176 454 174T457 165V124Q457
119 455 118T445 116H110Z" />
<glyph unicode="&#xa6;" horiz-adv-x="274" d="M195 293V-100Q195 -104 193 -108T182 -112H93Q87 -112 83 -108T79 -91V293H195ZM79 353V692Q79 701 82 704T93 707H182Q191 707 193 703T195 690V353H79Z" />
<glyph unicode="&#xa7;" horiz-adv-x="558" d="M58 -191V-126Q58 -120 61 -120T73 -123Q91 -129 114 -134T161 -142T199 -145Q251 -145 278 -117T305 -46Q305 -16 292 3T256 34T206 54Q183 59 155 69T101 96T59 145T42 225Q42 284 67 330T137 403T240 430Q259
430 285 426T340 415T387 399Q395 397 397 393T399 383V313Q399 288 370 304Q356 312 336 319T292 331T248 336Q217 336 191 324T151 291T136 244Q139 210 155 190T195 159T244 141T292 127Q318 118 340 106T378 75T403 29T412 -38Q412 -102 386 -144T311 -207T200
-228Q173 -228 138 -223T75 -207Q65 -204 62 -201T58 -191ZM161 97L160 163Q160 167 164 170T173 173T183 171Q221 147 250 143T303 139Q351 142 377 169T404 239Q404 268 391 285T355 312T306 330Q283 336 255 345T202 372T160 420T144 499Q144 557 171 593T242
647T335 664Q351 664 374 661T421 651T463 637Q469 636 471 633T473 625V567Q473 546 448 560Q435 566 417 572T380 582T343 586Q299 586 272 564T245 508Q245 478 260 461T297 433T345 416T393 401Q426 391 452 373T494 325T509 245Q509 179 482 138T409 79T305
60Q275 60 243 64T178 80Q169 83 165 86T161 97Z" />
<glyph unicode="&#xa8;" horiz-adv-x="261" d="M102 574Q102 553 92 542T51 531Q25 531 14 542T3 574Q3 595 14 606T51 617Q81 617 91 606T102 574ZM256 574Q256 553 246 542T206 531Q179 531 168 542T157 574Q157 595 168 606T206 617Q236 617 246 606T256 574Z" />
<glyph unicode="&#xa9;" horiz-adv-x="865" d="M53 333Q53 407 82 471T164 584T285 661T432 689Q511 689 580 661T701 584T782 471T812 333Q812 259 783 194T701 79T580 1T432 -27Q354 -27 285 1T164 79T83 194T53 333ZM138 333Q138 275 160 224T224 134T318 73T432
51Q493 51 546 73T640 133T703 223T726 333Q726 391 703 441T640 530T547 589T432 611Q372 611 319 590T225 530T161 442T138 333ZM256 334Q256 399 281 442T353 506T459 528Q474 528 498 526T542 519Q550 518 555 516T561 508V464Q561 452 539 461Q522 468 503
471T468 475Q428 475 401 459T361 413T348 340Q348 298 361 262T404 205T483 189Q499 190 515 193T540 201Q553 207 557 206T562 198V161Q562 154 557 151T543 145Q530 141 510 139T478 136Q413 131 363 152T284 220T256 334Z" />
<glyph unicode="&#xaa;" horiz-adv-x="473" d="M231 -7Q181 -7 137 4T67 47T40 143Q40 195 58 228T107 278T169 303T229 310Q253 310 275 308T315 303Q326 300 326 318Q326 362 301 380T229 398Q191 398 157 385T99 359Q89 354 86 355T81 366L73 417Q72 427 73
431T83 440Q108 456 147 466T231 477Q298 477 337 462T397 421T424 362T431 293Q431 248 431 207T429 126T423 45Q421 34 417 29T400 18Q386 11 364 7T316 -1T269 -5T231 -7ZM237 61Q246 61 258 62T282 66T303 75T313 90Q316 116 318 148T319 210Q319 225 308 230Q297
236 276 238T235 240Q223 240 208 236T180 222T157 193T148 143Q148 117 159 99T190 71T237 61Z" />
<glyph unicode="&#xab;" horiz-adv-x="555" d="M392 153Q387 153 384 156Q351 199 319 241T254 327Q244 337 254 346Q286 389 318 431T384 516Q386 519 388 519T392 520Q414 520 439 520T485 520Q490 520 489 518T486 513Q485 512 472 494T439 450T400 397T368
354T355 336Q355 336 368 319T400 275T438 223T471 179T486 160Q488 159 489 156T485 153Q464 153 439 153T392 153ZM183 153Q178 153 175 156Q142 199 110 241T45 327Q35 337 45 346Q77 389 109 431T175 516Q177 519 179 519T183 520Q205 520 230 520T276 520Q281
520 280 518T277 513Q276 512 263 494T230 450T191 397T159 354T146 336Q146 336 159 319T191 275T229 223T262 179T277 160Q279 159 280 156T276 153Q255 153 230 153T183 153Z" />
<glyph unicode="&#xac;" horiz-adv-x="695" d="M589 105Q582 105 580 107T578 115V294H60Q53 294 52 296T50 304V355Q50 361 52 363T61 365H635Q641 365 643 364T645 356V114Q645 108 643 107T635 105H589Z" />
<glyph unicode="&#xad;" horiz-adv-x="406" d="M63 236Q55 236 54 238T53 247V305Q53 312 54 314T64 316H343Q350 316 352 315T354 305V244Q354 239 353 238T342 236H63Z" />
<glyph unicode="&#xae;" horiz-adv-x="679" d="M340 191Q283 191 234 211T147 266T88 347T66 446Q66 500 87 545T147 626T234 680T340 700Q416 700 478 666T576 575T613 446Q613 394 592 348T533 266T446 211T340 191ZM340 248Q399 248 447 275T523 347T551 446Q551
502 523 546T447 617T340 643Q282 643 234 617T157 547T128 446Q128 392 157 347T234 275T340 248ZM256 315Q250 315 250 320V580Q250 585 256 585H331Q385 585 409 566T434 500Q434 477 423 459T392 428Q386 424 384 420T385 410Q391 397 398 387T416 370Q424
366 434 363T457 359Q461 359 462 359T463 354V321Q463 318 461 317T445 316Q426 316 411 320T382 333Q364 345 348 362T329 402Q329 403 328 406T323 409H308Q306 409 306 404V320Q306 315 300 315H256ZM306 452Q306 448 309 448H332Q355 448 368 461T381 499Q381
530 369 540T329 551H309Q306 551 306 547V452Z" />
<glyph unicode="&#xaf;" horiz-adv-x="227" d="M227 540Q227 537 226 536T217 535H9Q3 535 2 536T0 542V594Q0 600 1 601T9 603H218Q224 603 225 602T227 595V540Z" />
<glyph unicode="&#xb0;" horiz-adv-x="391" d="M53 688Q53 726 72 757T123 807T195 826Q235 826 267 808T318 758T338 688Q338 650 319 619T267 570T195 551Q156 551 124 569T72 619T53 688ZM118 688Q118 656 140 635T195 614Q227 614 248 635T270 688Q270 720
249 741T195 762Q162 762 140 741T118 688Z" />
<glyph unicode="&#xb1;" horiz-adv-x="475" d="M205 157Q198 157 196 158T194 166V296H60Q53 296 52 298T51 305V355Q51 361 53 363T61 365H194V494Q194 500 195 502T205 504H266Q271 504 272 502T274 493V365L416 364Q421 364 423 362T425 354V302Q425 298 424
297T415 295L274 296V166Q274 160 272 159T263 157H205ZM62 34Q53 34 52 36T50 45V93Q50 99 52 101T63 103H411Q419 103 421 102T424 93V42Q424 37 422 36T410 34H62Z" />
<glyph unicode="&#xb2;" horiz-adv-x="352" d="M41 250Q34 250 32 251T30 259V305Q30 315 38 319Q69 338 103 364T166 420T213 482T231 545Q231 574 212 594T151 614Q122 614 99 606T61 589T39 579Q33 577 33 585V644Q33 649 34 651T44 659Q61 668 94 679T162
691Q202 691 237 676T296 630T319 548Q319 516 307 486T274 427T225 373T165 322Q163 321 164 319T167 317H314Q320 317 320 311V259Q320 253 319 252T310 250H41Z" />
<glyph unicode="&#xb3;" horiz-adv-x="353" d="M162 247Q122 247 88 262T28 305Q24 310 25 314T28 321L59 358Q68 369 77 360Q95 343 116 333T162 323Q185 323 200 331T224 354T232 384Q232 403 213 424T149 446Q143 446 138 446T125 446Q114 446 114 458V504Q114
516 125 516Q132 516 143 516T163 516Q191 516 208 533T225 569Q225 587 209 601T159 616Q138 616 116 607T76 580Q66 571 59 582L30 631Q28 635 30 639T34 646Q70 674 104 682T166 691Q212 691 243 675T290 633T306 579Q306 544 287 518T241 484Q236 482 234 482T232
481Q232 481 234 481T242 479Q274 472 296 448T318 384Q318 350 300 319T247 267T162 247Z" />
<glyph unicode="&#xb4;" horiz-adv-x="165" d="M8 527Q1 527 1 529T6 540L68 632Q72 639 86 639H157Q163 639 164 636T160 627L78 532Q74 528 71 528T60 527H8Z" />
<glyph unicode="&#xb5;" horiz-adv-x="536" d="M76 -110Q68 -110 64 -107T58 -93Q58 -68 57 -29T56 55T56 145Q55 166 54 185T53 221Q53 261 55 303T59 383T65 451Q66 466 70 469T86 472H160Q170 472 173 469T175 455Q175 449 174 424T170 363T167 286T165 210Q165
140 187 112T258 83Q290 83 306 92T323 118V457Q323 466 325 469T335 472H420Q426 472 429 469T432 458V125Q432 100 442 91T468 81Q478 81 487 84T503 91Q516 99 521 86L536 34Q540 22 523 14Q505 5 489 0T449 -5Q432 -5 412 2T375 23T353 58L387 50Q364 26 329
11T254 -4Q212 -4 179 12T131 58L157 64Q159 46 160 25T163 -17Q165 -32 166 -48T169 -75T170 -93Q171 -102 169 -106T156 -110H76Z" />
<glyph unicode="&#xb6;" horiz-adv-x="545" d="M231 304Q223 304 215 304T199 305Q160 308 130 325T80 368T50 425T40 488Q40 540 59 581T121 648T229 673Q297 673 364 673T497 673Q505 673 508 671T512 662V615Q512 604 511 602T502 599Q494 599 486 599T468
599Q468 525 468 439T468 264T468 89T468 -71Q468 -77 467 -78T459 -80H392Q384 -80 382 -79T380 -71Q380 2 380 87T380 261T380 435T380 594Q380 597 375 599Q364 599 351 599T327 599Q322 598 322 594V-71Q322 -77 321 -78T314 -80H238Q234 -80 233 -79T231 -71V304Z"
/>
<glyph unicode="&#xb7;" horiz-adv-x="302" d="M199 285Q199 261 188 249T141 237Q110 237 97 249T83 285Q83 308 96 320T141 332Q177 332 188 320T199 285Z" />
<glyph unicode="&#xb8;" horiz-adv-x="203" d="M187 -125Q187 -155 162 -178T94 -202Q63 -202 41 -189T5 -160Q0 -153 0 -146T8 -135L28 -125Q37 -121 41 -122T47 -128Q54 -139 65 -146T88 -153Q106 -153 115 -144T124 -123Q124 -109 115 -102T91 -91T61 -88Q53
-88 50 -82T50 -69L87 -7Q90 -2 94 0T104 3H131Q142 3 137 -8L110 -73L93 -50Q137 -54 162 -72T187 -125Z" />
<glyph unicode="&#xb9;" horiz-adv-x="202" d="M77 250Q68 250 68 258V586Q68 591 63 588L7 559Q4 558 0 558T-6 562L-32 606Q-37 615 -27 620L88 683Q93 686 96 686T103 687H150Q158 687 158 679V258Q158 250 150 250H77Z" />
<glyph unicode="&#xba;" horiz-adv-x="500" d="M250 -7Q164 -7 118 25T53 112T35 238Q35 308 55 362T122 448T250 479Q331 479 377 448T444 363T465 238Q465 168 447 113T383 25T250 -7ZM248 78Q306 78 328 119T351 235Q351 310 327 349T248 388Q196 388 171 349T146
235Q146 160 169 119T248 78Z" />
<glyph unicode="&#xbb;" horiz-adv-x="573" d="M297 153Q291 153 292 156T295 160Q296 161 310 179T343 223T382 275T414 318T427 336Q427 336 414 353T382 397T344 449T310 494T295 513Q294 515 293 517T297 520Q318 520 343 520T390 520Q392 520 394 520T398
516Q430 474 462 432T528 346Q538 337 528 327Q495 284 463 242T398 156Q395 153 390 153Q368 153 343 153T297 153ZM70 153Q65 153 66 156T69 160Q70 161 84 179T117 223T155 275T188 318T201 336Q201 336 188 353T156 397T117 449T84 494T69 513Q68 515 67 517T70
520Q91 520 116 520T164 520Q166 520 168 520T172 516Q204 474 236 432T301 346Q312 337 301 327Q269 284 237 242T172 156Q169 153 164 153Q141 153 116 153T70 153Z" />
<glyph unicode="&#xbc;" horiz-adv-x="783" d="M166 245Q159 245 159 252V610Q159 615 154 613L90 577Q82 573 78 580L56 618Q52 625 60 630L174 694Q179 697 181 698T188 699H228Q236 699 236 691V252Q236 245 228 245H166ZM606 -2Q599 -2 599 6V111Q599 118
592 118H415Q407 118 407 125V162Q407 167 410 171T415 179L604 452Q607 456 609 458T616 460H664Q672 460 672 452V181Q672 174 679 174H721Q726 174 726 168V123Q726 118 721 118H679Q672 118 672 111V6Q672 -2 665 -2H606ZM494 174H592Q599 174 599 181V338Q599
342 598 342T595 339L490 181Q488 177 489 176T494 174ZM170 0Q162 0 162 4T165 13L560 691Q563 698 565 699T574 700H622Q631 700 633 696T627 675L240 13Q236 7 232 4T221 0H170Z" />
<glyph unicode="&#xbd;" horiz-adv-x="837" d="M156 0Q148 0 148 4T151 13L546 691Q549 698 551 699T561 700H608Q617 700 619 696T614 675L226 13Q223 7 219 4T208 0H156ZM166 245Q159 245 159 252V610Q159 615 154 613L90 577Q82 573 78 580L56 618Q52 625 60
630L174 694Q179 697 181 698T188 699H228Q236 699 236 691V252Q236 245 228 245H166ZM506 0Q500 0 499 1T497 7V48Q497 56 503 59Q535 80 569 107T634 167T683 234T702 304Q702 329 692 346T663 373T617 383Q589 383 568 375T532 359T511 350Q503 348 503 354V404Q503
409 504 411T512 417Q522 422 540 429T579 442T625 448Q662 448 696 434T752 388T774 307Q774 271 761 238T725 174T673 115T609 62Q608 60 608 59T612 57H771Q776 57 776 52V8Q776 2 775 1T768 0H506Z" />
<glyph unicode="&#xbe;" horiz-adv-x="823" d="M647 -2Q640 -2 640 6V111Q640 118 633 118H456Q448 118 448 125V162Q448 167 451 171T456 179L645 452Q648 456 650 458T657 460H705Q712 460 712 452V181Q712 174 719 174H762Q766 174 766 168V123Q766 118 762
118H719Q712 118 712 111V6Q712 -2 705 -2H647ZM535 174H633Q640 174 640 181V338Q640 342 639 342T636 339L531 181Q529 177 530 176T535 174ZM170 253Q145 253 122 259T80 278T45 306Q42 310 42 313T45 320L71 351Q78 360 85 352Q103 335 124 326T169 316Q194
316 211 326T237 353T246 386Q246 402 237 419T208 447T158 458Q154 458 149 458T138 458Q134 458 132 460T129 468V507Q129 516 138 516Q144 516 152 516T170 516Q191 517 206 526T230 550T238 580Q238 595 231 607T208 628T169 637Q147 637 124 627T85 602Q76
594 71 603L47 643Q45 646 46 650T49 655Q71 672 93 681T135 694T173 698Q217 698 246 683T290 642T305 588Q305 554 287 528T242 491Q234 488 234 488Q234 487 243 485Q275 475 296 451T317 387Q317 353 300 323T250 273T170 253ZM202 0Q194 0 194 4T196 13L592
691Q595 698 597 699T606 700H654Q662 700 664 696T659 675L272 13Q268 7 264 4T253 0H202Z" />
<glyph unicode="&#xbf;" horiz-adv-x="455" d="M334 312Q343 312 344 308T345 294Q345 246 339 212T319 152T287 106T244 67Q230 56 213 45T181 20T157 -8T150 -44Q151 -75 175 -91T236 -107Q280 -107 316 -95T371 -74Q379 -70 382 -68T388 -77L408 -140Q411 -147
405 -152T392 -161Q360 -177 318 -186T242 -196Q153 -196 100 -155T46 -41Q46 8 65 37T111 86T163 122Q197 145 216 170T243 226T251 298Q251 307 253 309T259 312H334ZM357 445Q357 422 344 410T299 398Q264 398 253 410T242 445Q242 468 253 480T299 492Q330
492 343 480T357 445Z" />
<glyph unicode="&#xc0;" horiz-adv-x="551" d="M36 0Q28 0 27 6T28 29Q34 74 48 138T81 275T122 419T167 553T211 657Q215 664 219 668T230 673H321Q327 671 332 668T341 656Q362 616 384 554T429 419T470 274T504 137T524 29Q527 12 526 6T515 0H427Q420 0 418
3T411 23Q407 48 401 81T388 142Q387 149 385 150T376 152H175Q168 152 167 151T163 142Q157 114 151 81T140 23Q137 7 135 4T125 0H36ZM199 240H352Q358 240 359 242T359 253Q343 315 326 380T288 500Q286 507 281 507H270Q265 507 262 499Q252 469 239 428T214
340T191 251Q190 246 191 243T199 240ZM274 717Q268 717 264 719T253 727L158 801Q155 804 157 808T163 813H245Q254 813 257 811T266 802L330 730Q335 725 335 721T328 717H274Z" />
<glyph unicode="&#xc1;" horiz-adv-x="551" d="M36 0Q28 0 27 6T28 29Q34 74 48 138T81 275T122 419T167 553T211 657Q215 664 219 668T230 673H321Q327 671 332 668T341 656Q362 616 384 554T429 419T470 274T504 137T524 29Q527 12 526 6T515 0H427Q420 0 418
3T411 23Q407 48 401 81T388 142Q387 149 385 150T376 152H175Q168 152 167 151T163 142Q157 114 151 81T140 23Q137 7 135 4T125 0H36ZM199 240H352Q358 240 359 242T359 253Q343 315 326 380T288 500Q286 507 281 507H270Q265 507 262 499Q252 469 239 428T214
340T191 251Q190 246 191 243T199 240ZM275 717H222Q216 717 216 721T220 730L284 802Q289 808 292 810T305 813H387Q391 813 393 809T392 801L297 727Q290 722 286 720T275 717Z" />
<glyph unicode="&#xc2;" horiz-adv-x="551" d="M36 0Q28 0 27 6T28 29Q34 74 48 138T81 275T122 419T167 553T211 657Q215 664 219 668T230 673H321Q327 671 332 668T341 656Q362 616 384 554T429 419T470 274T504 137T524 29Q527 12 526 6T515 0H427Q420 0 418
3T411 23Q407 48 401 81T388 142Q387 149 385 150T376 152H175Q168 152 167 151T163 142Q157 114 151 81T140 23Q137 7 135 4T125 0H36ZM199 240H352Q358 240 359 242T359 253Q343 315 326 380T288 500Q286 507 281 507H270Q265 507 262 499Q252 469 239 428T214
340T191 251Q190 246 191 243T199 240ZM166 716Q163 716 162 718T163 724L239 808Q243 813 248 813H303Q308 813 313 808L389 724Q391 721 391 719T386 716H339Q333 716 330 717T322 722L282 756Q277 760 271 756L229 721Q226 718 223 717T215 716H166Z" />
<glyph unicode="&#xc3;" horiz-adv-x="551" d="M36 0Q28 0 27 6T28 29Q34 74 48 138T81 275T122 419T167 553T211 657Q215 664 219 668T230 673H321Q327 671 332 668T341 656Q362 616 384 554T429 419T470 274T504 137T524 29Q527 12 526 6T515 0H427Q420 0 418
3T411 23Q407 48 401 81T388 142Q387 149 385 150T376 152H175Q168 152 167 151T163 142Q157 114 151 81T140 23Q137 7 135 4T125 0H36ZM199 240H352Q358 240 359 242T359 253Q343 315 326 380T288 500Q286 507 281 507H270Q265 507 262 499Q252 469 239 428T214
340T191 251Q190 246 191 243T199 240ZM175 718Q169 718 169 724Q169 762 186 784T235 807Q251 807 266 798T293 779T313 769Q318 769 322 775T327 791Q327 798 332 798H376Q382 798 382 792Q382 758 364 735T315 711Q295 711 281 720T256 738T237 747Q230 747
227 741T223 724Q223 718 218 718H175Z" />
<glyph unicode="&#xc4;" horiz-adv-x="551" d="M36 0Q28 0 27 6T28 29Q34 74 48 138T81 275T122 419T167 553T211 657Q215 664 219 668T230 673H321Q327 671 332 668T341 656Q362 616 384 554T429 419T470 274T504 137T524 29Q527 12 526 6T515 0H427Q420 0 418
3T411 23Q407 48 401 81T388 142Q387 149 385 150T376 152H175Q168 152 167 151T163 142Q157 114 151 81T140 23Q137 7 135 4T125 0H36ZM199 240H352Q358 240 359 242T359 253Q343 315 326 380T288 500Q286 507 281 507H270Q265 507 262 499Q252 469 239 428T214
340T191 251Q190 246 191 243T199 240ZM249 775Q249 754 239 743T198 732Q172 732 161 743T150 775Q150 796 161 807T198 818Q228 818 238 807T249 775ZM403 775Q403 754 393 743T353 732Q326 732 315 743T304 775Q304 796 315 807T353 818Q383 818 393 807T403
775Z" />
<glyph unicode="&#xc5;" horiz-adv-x="551" d="M36 0Q28 0 27 6T28 29Q34 74 48 138T81 275T122 419T167 553T211 657Q215 664 219 668T230 673H321Q327 671 332 668T341 656Q362 616 384 554T429 419T470 274T504 137T524 29Q527 12 526 6T515 0H427Q420 0 418
3T411 23Q407 48 401 81T388 142Q387 149 385 150T376 152H175Q168 152 167 151T163 142Q157 114 151 81T140 23Q137 7 135 4T125 0H36ZM199 240H352Q358 240 359 242T359 253Q343 315 326 380T288 500Q286 507 281 507H270Q265 507 262 499Q252 469 239 428T214
340T191 251Q190 246 191 243T199 240ZM367 796Q367 757 346 734T277 710Q226 710 206 733T185 796Q185 835 205 858T277 882Q325 882 346 859T367 796ZM318 799Q318 812 310 821T277 830Q250 830 243 821T236 799Q236 787 243 775T278 762Q305 762 311 774T318
799Z" />
<glyph unicode="&#xc6;" horiz-adv-x="776" d="M394 0Q383 0 383 11V152H181Q175 152 173 151T169 142Q161 114 153 81T140 23Q138 7 136 4T126 0H37Q29 0 28 6T28 29Q35 74 54 137T102 270T164 411T234 546T303 657Q309 664 314 668T326 673H722Q733 673 734
672T736 660V599Q736 588 734 586T722 584H506Q499 584 498 583T496 577V391Q496 386 498 385T505 383H678Q689 383 691 381T693 366V311Q693 300 691 298T678 295H505Q500 295 498 294T496 288V97Q496 92 497 90T505 88H721Q732 88 734 86T736 72V16Q736 5 734
3T720 0H394ZM383 240V545Q382 552 378 552H366Q363 552 361 551T355 544Q334 515 307 465T253 358T202 250Q201 249 202 245T208 240H383Z" />
<glyph unicode="&#xc7;" horiz-adv-x="464" d="M431 30Q431 10 407 3Q393 -1 373 -3T334 -7T305 -8Q187 -8 116 79T44 335Q44 506 113 593T305 680Q315 680 333 679T372 675T407 667Q418 664 424 660T431 647V573Q431 549 406 566Q388 577 364 584T315 591Q270
591 240 572T193 519T168 442T161 348Q161 315 164 278T177 206T203 142T247 96T315 79Q342 79 366 86T404 101Q420 111 425 110T431 95V30ZM378 -128Q378 -158 353 -181T285 -205Q254 -205 232 -192T196 -163Q191 -156 191 -149T199 -138L219 -128Q228 -124 232
-125T238 -131Q245 -142 256 -149T279 -156Q297 -156 306 -147T315 -126Q315 -112 306 -105T282 -94T252 -91Q244 -91 241 -85T241 -72L278 -10Q281 -5 285 -3T295 0H322Q333 0 328 -11L301 -76L284 -53Q328 -57 353 -75T378 -128Z" />
<glyph unicode="&#xc8;" horiz-adv-x="452" d="M81 0Q70 0 70 11V662Q70 673 81 673H409Q419 673 421 672T423 660V599Q423 588 421 586T409 584H192Q186 584 185 583T184 577V391Q184 386 185 385T191 383H364Q375 383 377 381T379 366V311Q379 300 377 298T364
295H191Q186 295 185 294T184 288V97Q184 92 185 90T191 88H407Q419 88 421 86T423 72V16Q423 5 420 3T407 0H81ZM239 717Q233 717 229 719T218 727L123 801Q120 804 122 808T128 813H210Q219 813 222 811T231 802L295 730Q300 725 300 721T293 717H239Z" />
<glyph unicode="&#xc9;" horiz-adv-x="452" d="M81 0Q70 0 70 11V662Q70 673 81 673H409Q419 673 421 672T423 660V599Q423 588 421 586T409 584H192Q186 584 185 583T184 577V391Q184 386 185 385T191 383H364Q375 383 377 381T379 366V311Q379 300 377 298T364
295H191Q186 295 185 294T184 288V97Q184 92 185 90T191 88H407Q419 88 421 86T423 72V16Q423 5 420 3T407 0H81ZM241 717H188Q182 717 182 721T186 730L250 802Q255 808 258 810T271 813H353Q357 813 359 809T358 801L263 727Q256 722 252 720T241 717Z" />
<glyph unicode="&#xca;" horiz-adv-x="452" d="M81 0Q70 0 70 11V662Q70 673 81 673H409Q419 673 421 672T423 660V599Q423 588 421 586T409 584H192Q186 584 185 583T184 577V391Q184 386 185 385T191 383H364Q375 383 377 381T379 366V311Q379 300 377 298T364
295H191Q186 295 185 294T184 288V97Q184 92 185 90T191 88H407Q419 88 421 86T423 72V16Q423 5 420 3T407 0H81ZM131 716Q128 716 127 718T128 724L204 808Q208 813 213 813H268Q273 813 278 808L354 724Q356 721 356 719T351 716H304Q298 716 295 717T287 722L247
756Q242 760 236 756L194 721Q191 718 188 717T180 716H131Z" />
<glyph unicode="&#xcb;" horiz-adv-x="452" d="M81 0Q70 0 70 11V662Q70 673 81 673H409Q419 673 421 672T423 660V599Q423 588 421 586T409 584H192Q186 584 185 583T184 577V391Q184 386 185 385T191 383H364Q375 383 377 381T379 366V311Q379 300 377 298T364
295H191Q186 295 185 294T184 288V97Q184 92 185 90T191 88H407Q419 88 421 86T423 72V16Q423 5 420 3T407 0H81ZM214 775Q214 754 204 743T163 732Q137 732 126 743T115 775Q115 796 126 807T163 818Q193 818 203 807T214 775ZM368 775Q368 754 358 743T318 732Q291
732 280 743T269 775Q269 796 280 807T318 818Q348 818 358 807T368 775Z" />
<glyph unicode="&#xcc;" horiz-adv-x="252" d="M183 11Q183 0 171 0H81Q70 0 70 11V662Q70 673 81 673H171Q183 673 183 662V11ZM124 717Q118 717 114 719T103 727L8 801Q5 804 7 808T13 813H95Q104 813 107 811T116 802L180 730Q185 725 185 721T178 717H124Z" />
<glyph unicode="&#xcd;" horiz-adv-x="252" d="M183 11Q183 0 171 0H81Q70 0 70 11V662Q70 673 81 673H171Q183 673 183 662V11ZM126 717H73Q67 717 67 721T71 730L135 802Q140 808 143 810T156 813H238Q242 813 244 809T243 801L148 727Q141 722 137 720T126 717Z" />
<glyph unicode="&#xce;" horiz-adv-x="252" d="M183 11Q183 0 171 0H81Q70 0 70 11V662Q70 673 81 673H171Q183 673 183 662V11ZM17 716Q14 716 13 718T14 724L90 808Q94 813 99 813H154Q159 813 164 808L240 724Q242 721 242 719T237 716H190Q184 716 181 717T173
722L133 756Q128 760 122 756L80 721Q77 718 74 717T66 716H17Z" />
<glyph unicode="&#xcf;" horiz-adv-x="252" d="M183 11Q183 0 171 0H81Q70 0 70 11V662Q70 673 81 673H171Q183 673 183 662V11ZM99 775Q99 754 89 743T48 732Q22 732 11 743T0 775Q0 796 11 807T48 818Q78 818 88 807T99 775ZM253 775Q253 754 243 743T203 732Q176
732 165 743T154 775Q154 796 165 807T203 818Q233 818 243 807T253 775Z" />
<glyph unicode="&#xd0;" horiz-adv-x="591" d="M576 346Q576 259 558 199T511 99T446 39T375 9T311 0H119Q108 0 108 11V662Q108 673 119 673H311Q346 673 383 667T454 642T516 588T560 493T576 346ZM463 346Q463 433 448 481T409 552T358 579T308 584H231Q224
584 223 583T222 577V97Q222 91 223 90T229 88H292Q317 88 346 96T402 130T446 207T463 346ZM290 291Q282 291 281 293T280 302V360Q280 367 281 369T291 371H570Q577 371 579 370T581 360V299Q581 294 580 293T569 291H290Z" />
<glyph unicode="&#xd1;" horiz-adv-x="641" d="M448 239Q450 235 455 235T460 241Q462 273 462 312T462 396T460 486T455 576T447 661Q446 673 453 673H544Q550 673 554 670T560 662Q567 625 571 573T576 458T577 332T574 206T568 95T561 11Q560 3 555 2T544 0H485Q478
0 471 14L191 438Q190 442 186 442T182 437Q181 386 181 337T180 241T182 152T186 75T193 11Q193 0 186 0H96Q91 0 86 1T79 11Q75 45 72 96T67 208T65 333T66 459T71 573T82 662Q83 667 88 670T98 673H155Q162 673 166 665L448 239ZM214 718Q208 718 208 724Q208
762 225 784T274 807Q290 807 305 798T332 779T352 769Q357 769 361 775T366 791Q366 798 371 798H415Q421 798 421 792Q421 758 403 735T354 711Q334 711 320 720T295 738T276 747Q269 747 266 741T262 724Q262 718 257 718H214Z" />
<glyph unicode="&#xd2;" horiz-adv-x="635" d="M44 334Q44 444 67 520T150 637T316 677Q399 677 453 655T537 589T578 481T590 334Q590 251 579 188T537 81T453 15T316 -8Q209 -8 150 32T68 148T44 334ZM162 334Q162 236 178 183T228 108T315 86Q368 86 402 107T454
182T472 334Q472 433 455 487T403 563T315 585Q262 585 229 563T179 487T162 334ZM315 717Q309 717 305 719T294 727L199 801Q196 804 198 808T204 813H286Q295 813 298 811T307 802L371 730Q376 725 376 721T369 717H315Z" />
<glyph unicode="&#xd3;" horiz-adv-x="635" d="M44 334Q44 444 67 520T150 637T316 677Q399 677 453 655T537 589T578 481T590 334Q590 251 579 188T537 81T453 15T316 -8Q209 -8 150 32T68 148T44 334ZM162 334Q162 236 178 183T228 108T315 86Q368 86 402 107T454
182T472 334Q472 433 455 487T403 563T315 585Q262 585 229 563T179 487T162 334ZM317 717H264Q258 717 258 721T262 730L326 802Q331 808 334 810T347 813H429Q433 813 435 809T434 801L339 727Q332 722 328 720T317 717Z" />
<glyph unicode="&#xd4;" horiz-adv-x="635" d="M44 334Q44 444 67 520T150 637T316 677Q399 677 453 655T537 589T578 481T590 334Q590 251 579 188T537 81T453 15T316 -8Q209 -8 150 32T68 148T44 334ZM162 334Q162 236 178 183T228 108T315 86Q368 86 402 107T454
182T472 334Q472 433 455 487T403 563T315 585Q262 585 229 563T179 487T162 334ZM208 716Q205 716 204 718T205 724L281 808Q285 813 290 813H345Q350 813 355 808L431 724Q433 721 433 719T428 716H381Q375 716 372 717T364 722L324 756Q319 760 313 756L271
721Q268 718 265 717T257 716H208Z" />
<glyph unicode="&#xd5;" horiz-adv-x="635" d="M44 334Q44 444 67 520T150 637T316 677Q399 677 453 655T537 589T578 481T590 334Q590 251 579 188T537 81T453 15T316 -8Q209 -8 150 32T68 148T44 334ZM162 334Q162 236 178 183T228 108T315 86Q368 86 402 107T454
182T472 334Q472 433 455 487T403 563T315 585Q262 585 229 563T179 487T162 334ZM217 718Q211 718 211 724Q211 762 228 784T277 807Q293 807 308 798T335 779T355 769Q360 769 364 775T369 791Q369 798 374 798H418Q424 798 424 792Q424 758 406 735T357 711Q337
711 323 720T298 738T279 747Q272 747 269 741T265 724Q265 718 260 718H217Z" />
<glyph unicode="&#xd6;" horiz-adv-x="635" d="M44 334Q44 444 67 520T150 637T316 677Q399 677 453 655T537 589T578 481T590 334Q590 251 579 188T537 81T453 15T316 -8Q209 -8 150 32T68 148T44 334ZM162 334Q162 236 178 183T228 108T315 86Q368 86 402 107T454
182T472 334Q472 433 455 487T403 563T315 585Q262 585 229 563T179 487T162 334ZM290 775Q290 754 280 743T239 732Q213 732 202 743T191 775Q191 796 202 807T239 818Q269 818 279 807T290 775ZM444 775Q444 754 434 743T394 732Q367 732 356 743T345 775Q345
796 356 807T394 818Q424 818 434 807T444 775Z" />
<glyph unicode="&#xd7;" horiz-adv-x="504" d="M46 156Q41 162 40 165T43 174L196 315L55 446Q51 450 53 454T59 462L96 498Q101 502 103 502T109 498L252 365L395 498Q399 502 401 502T408 498L445 462Q450 458 451 454T449 446L308 315L461 174Q466 169 465
166T458 156L424 123Q418 118 415 118T405 123L252 265L99 123Q94 118 90 118T80 123L46 156Z" />
<glyph unicode="&#xd8;" horiz-adv-x="632" d="M151 -39Q148 -44 145 -47T133 -50H55Q50 -50 50 -47T52 -37L476 711Q480 718 483 719T492 720H566Q574 720 575 717T566 697L151 -39ZM44 334Q44 444 67 520T150 637T316 677Q400 677 453 655T537 589T578 481T590
334Q590 251 579 188T537 81T454 15T316 -8Q209 -8 150 32T68 148T44 334ZM162 334Q162 236 178 182T228 107T315 86Q368 86 402 107T454 181T472 334Q472 433 455 487T403 563T315 585Q262 585 229 563T179 487T162 334Z" />
<glyph unicode="&#xd9;" horiz-adv-x="635" d="M317 -8Q233 -8 184 11T111 61T78 122T67 176Q63 216 61 262T60 347Q60 395 62 450T68 561T81 663Q81 668 85 670T95 673Q116 673 137 673T179 673Q187 673 188 671T188 653Q184 613 181 571T176 483Q172 407 172
334T178 192Q180 166 188 146T211 111T252 88T315 80Q352 80 377 88T418 110T443 146T453 192Q459 260 459 332T455 480Q453 526 450 569T443 653Q442 668 443 670T452 673Q474 673 496 673T539 673Q546 673 549 671T554 663Q562 616 566 561T573 451T575 349Q575
309 574 263T568 176Q566 158 561 134T542 85T501 39T430 5T317 -8ZM315 717Q309 717 305 719T294 727L199 801Q196 804 198 808T204 813H286Q295 813 298 811T307 802L371 730Q376 725 376 721T369 717H315Z" />
<glyph unicode="&#xda;" horiz-adv-x="635" d="M317 -8Q233 -8 184 11T111 61T78 122T67 176Q63 216 61 262T60 347Q60 395 62 450T68 561T81 663Q81 668 85 670T95 673Q116 673 137 673T179 673Q187 673 188 671T188 653Q184 613 181 571T176 483Q172 407 172
334T178 192Q180 166 188 146T211 111T252 88T315 80Q352 80 377 88T418 110T443 146T453 192Q459 260 459 332T455 480Q453 526 450 569T443 653Q442 668 443 670T452 673Q474 673 496 673T539 673Q546 673 549 671T554 663Q562 616 566 561T573 451T575 349Q575
309 574 263T568 176Q566 158 561 134T542 85T501 39T430 5T317 -8ZM317 717H264Q258 717 258 721T262 730L326 802Q331 808 334 810T347 813H429Q433 813 435 809T434 801L339 727Q332 722 328 720T317 717Z" />
<glyph unicode="&#xdb;" horiz-adv-x="635" d="M317 -8Q233 -8 184 11T111 61T78 122T67 176Q63 216 61 262T60 347Q60 395 62 450T68 561T81 663Q81 668 85 670T95 673Q116 673 137 673T179 673Q187 673 188 671T188 653Q184 613 181 571T176 483Q172 407 172
334T178 192Q180 166 188 146T211 111T252 88T315 80Q352 80 377 88T418 110T443 146T453 192Q459 260 459 332T455 480Q453 526 450 569T443 653Q442 668 443 670T452 673Q474 673 496 673T539 673Q546 673 549 671T554 663Q562 616 566 561T573 451T575 349Q575
309 574 263T568 176Q566 158 561 134T542 85T501 39T430 5T317 -8ZM208 716Q205 716 204 718T205 724L281 808Q285 813 290 813H345Q350 813 355 808L431 724Q433 721 433 719T428 716H381Q375 716 372 717T364 722L324 756Q319 760 313 756L271 721Q268 718 265
717T257 716H208Z" />
<glyph unicode="&#xdc;" horiz-adv-x="635" d="M317 -8Q233 -8 184 11T111 61T78 122T67 176Q63 216 61 262T60 347Q60 395 62 450T68 561T81 663Q81 668 85 670T95 673Q116 673 137 673T179 673Q187 673 188 671T188 653Q184 613 181 571T176 483Q172 407 172
334T178 192Q180 166 188 146T211 111T252 88T315 80Q352 80 377 88T418 110T443 146T453 192Q459 260 459 332T455 480Q453 526 450 569T443 653Q442 668 443 670T452 673Q474 673 496 673T539 673Q546 673 549 671T554 663Q562 616 566 561T573 451T575 349Q575
309 574 263T568 176Q566 158 561 134T542 85T501 39T430 5T317 -8ZM290 775Q290 754 280 743T239 732Q213 732 202 743T191 775Q191 796 202 807T239 818Q269 818 279 807T290 775ZM444 775Q444 754 434 743T394 732Q367 732 356 743T345 775Q345 796 356 807T394
818Q424 818 434 807T444 775Z" />
<glyph unicode="&#xdd;" horiz-adv-x="521" d="M329 288Q323 280 321 266T318 240V11Q318 6 315 3T307 0H215Q204 0 204 11V239Q204 262 193 285T173 322Q167 331 156 349T131 389T106 429T91 455Q64 508 47 550T22 619T11 652Q8 665 14 669T28 673H116Q127 673
131 661Q137 637 147 610T171 555T195 502Q209 476 222 453T250 408Q256 399 260 398T271 408Q278 418 286 429T302 455T318 485Q331 509 345 541T371 606T390 662Q392 669 395 671T405 673H497Q503 673 507 669T510 652Q509 646 501 618T477 547T432 452Q426 439
414 418T386 373T356 326T329 288ZM260 717H207Q201 717 201 721T205 730L269 802Q274 808 277 810T290 813H372Q376 813 378 809T377 801L282 727Q275 722 271 720T260 717Z" />
<glyph unicode="&#xde;" horiz-adv-x="473" d="M440 376Q440 313 417 259T349 173T236 140H171Q164 140 164 133V11Q164 0 151 0H61Q50 0 50 11V697Q50 708 61 708H150Q157 708 160 706T164 698V602Q164 599 165 596T170 591H225Q339 591 389 539T440 376ZM330
376Q330 450 302 481T222 512H170Q166 512 165 511T164 504V231Q164 224 171 224H224Q274 224 302 264T330 376Z" />
<glyph unicode="&#xdf;" horiz-adv-x="630" d="M55 -103Q35 -103 22 -102T1 -95Q-2 -91 -3 -87T-5 -77Q-5 -66 -5 -55T-3 -32Q1 -24 8 -23T22 -21Q36 -19 51 -13T79 10T100 62T108 157Q108 193 108 252T109 383T109 532Q109 563 119 594T152 650T211 691T300 707Q319
707 344 703T395 689T445 659T482 612T496 542Q496 520 490 501T471 460Q461 445 446 433T414 413Q400 405 398 396T401 380T420 367Q449 357 478 340T531 301Q557 278 570 246T584 176Q584 119 560 78T492 15T392 -7Q364 -7 326 1T258 30Q255 33 252 36T249 45Q253
61 257 77T265 109Q266 119 271 118T282 113Q292 106 307 100T340 90T372 86Q410 86 427 105T451 149Q457 164 454 186T433 232Q426 255 409 269T366 296T306 323Q288 331 277 342T264 368T271 396T303 422Q314 427 326 434T355 460Q367 474 376 495T385 546Q384
581 362 599T308 617Q269 617 244 591T218 511Q218 492 218 458T218 380T218 292T217 206T217 135T217 91Q217 -6 178 -54T55 -103Z" />
<glyph unicode="&#xe0;" horiz-adv-x="473" d="M231 -7Q181 -7 137 4T67 47T40 143Q40 195 58 228T107 278T169 303T229 310Q253 310 275 308T315 303Q326 300 326 318Q326 362 301 380T229 398Q191 398 157 385T99 359Q89 354 86 355T81 366L73 417Q72 427 73
431T83 440Q108 456 147 466T231 477Q298 477 337 462T397 421T424 362T431 293Q431 248 431 207T429 126T423 45Q421 34 417 29T400 18Q386 11 364 7T316 -1T269 -5T231 -7ZM237 61Q246 61 258 62T282 66T303 75T313 90Q316 116 318 148T319 210Q319 225 308 230Q297
236 276 238T235 240Q223 240 208 236T180 222T157 193T148 143Q148 117 159 99T190 71T237 61ZM240 527Q229 527 219 538L136 628Q133 631 135 635T141 639H223Q232 639 236 637T244 628L295 541Q303 527 293 527H240Z" />
<glyph unicode="&#xe1;" horiz-adv-x="473" d="M231 -7Q181 -7 137 4T67 47T40 143Q40 195 58 228T107 278T169 303T229 310Q253 310 275 308T315 303Q326 300 326 318Q326 362 301 380T229 398Q191 398 157 385T99 359Q89 354 86 355T81 366L73 417Q72 427 73
431T83 440Q108 456 147 466T231 477Q298 477 337 462T397 421T424 362T431 293Q431 248 431 207T429 126T423 45Q421 34 417 29T400 18Q386 11 364 7T316 -1T269 -5T231 -7ZM237 61Q246 61 258 62T282 66T303 75T313 90Q316 116 318 148T319 210Q319 225 308 230Q297
236 276 238T235 240Q223 240 208 236T180 222T157 193T148 143Q148 117 159 99T190 71T237 61ZM200 527Q193 527 193 529T198 540L260 632Q264 639 278 639H349Q355 639 356 636T352 627L270 532Q266 528 263 528T252 527H200Z" />
<glyph unicode="&#xe2;" horiz-adv-x="473" d="M231 -7Q181 -7 137 4T67 47T40 143Q40 195 58 228T107 278T169 303T229 310Q253 310 275 308T315 303Q326 300 326 318Q326 362 301 380T229 398Q191 398 157 385T99 359Q89 354 86 355T81 366L73 417Q72 427 73
431T83 440Q108 456 147 466T231 477Q298 477 337 462T397 421T424 362T431 293Q431 248 431 207T429 126T423 45Q421 34 417 29T400 18Q386 11 364 7T316 -1T269 -5T231 -7ZM237 61Q246 61 258 62T282 66T303 75T313 90Q316 116 318 148T319 210Q319 225 308 230Q297
236 276 238T235 240Q223 240 208 236T180 222T157 193T148 143Q148 117 159 99T190 71T237 61ZM142 526Q138 526 137 529T138 534L212 631Q215 635 219 635H270Q275 635 277 631L351 534Q353 532 353 529T347 526H298Q293 526 290 530L249 571Q244 576 240 571L199
530Q196 526 191 526H142Z" />
<glyph unicode="&#xe3;" horiz-adv-x="473" d="M231 -7Q181 -7 137 4T67 47T40 143Q40 195 58 228T107 278T169 303T229 310Q253 310 275 308T315 303Q326 300 326 318Q326 362 301 380T229 398Q191 398 157 385T99 359Q89 354 86 355T81 366L73 417Q72 427 73
431T83 440Q108 456 147 466T231 477Q298 477 337 462T397 421T424 362T431 293Q431 248 431 207T429 126T423 45Q421 34 417 29T400 18Q386 11 364 7T316 -1T269 -5T231 -7ZM237 61Q246 61 258 62T282 66T303 75T313 90Q316 116 318 148T319 210Q319 225 308 230Q297
236 276 238T235 240Q223 240 208 236T180 222T157 193T148 143Q148 117 159 99T190 71T237 61ZM144 530Q138 530 138 535Q138 571 155 591T205 612Q221 612 236 604T265 587T285 579Q291 579 295 584T299 598Q299 605 304 605H349Q355 605 355 599Q355 567 336
545T287 523Q267 523 252 531T226 548T207 556Q199 556 196 551T192 536Q192 530 187 530H144Z" />
<glyph unicode="&#xe4;" horiz-adv-x="473" d="M231 -7Q181 -7 137 4T67 47T40 143Q40 195 58 228T107 278T169 303T229 310Q253 310 275 308T315 303Q326 300 326 318Q326 362 301 380T229 398Q191 398 157 385T99 359Q89 354 86 355T81 366L73 417Q72 427 73
431T83 440Q108 456 147 466T231 477Q298 477 337 462T397 421T424 362T431 293Q431 248 431 207T429 126T423 45Q421 34 417 29T400 18Q386 11 364 7T316 -1T269 -5T231 -7ZM237 61Q246 61 258 62T282 66T303 75T313 90Q316 116 318 148T319 210Q319 225 308 230Q297
236 276 238T235 240Q223 240 208 236T180 222T157 193T148 143Q148 117 159 99T190 71T237 61ZM219 574Q219 553 209 542T168 531Q142 531 131 542T120 574Q120 595 131 606T168 617Q198 617 208 606T219 574ZM373 574Q373 553 363 542T323 531Q296 531 285 542T274
574Q274 595 285 606T323 617Q353 617 363 606T373 574Z" />
<glyph unicode="&#xe5;" horiz-adv-x="473" d="M231 -7Q181 -7 137 4T67 47T40 143Q40 195 58 228T107 278T169 303T229 310Q253 310 275 308T315 303Q326 300 326 318Q326 362 301 380T229 398Q191 398 157 385T99 359Q89 354 86 355T81 366L73 417Q72 427 73
431T83 440Q108 456 147 466T231 477Q298 477 337 462T397 421T424 362T431 293Q431 248 431 207T429 126T423 45Q421 34 417 29T400 18Q386 11 364 7T316 -1T269 -5T231 -7ZM237 61Q246 61 258 62T282 66T303 75T313 90Q316 116 318 148T319 210Q319 225 308 230Q297
236 276 238T235 240Q223 240 208 236T180 222T157 193T148 143Q148 117 159 99T190 71T237 61ZM337 595Q337 556 316 533T247 509Q196 509 176 532T155 595Q155 634 175 657T247 681Q295 681 316 658T337 595ZM288 598Q288 611 280 620T247 629Q220 629 213 620T206
598Q206 586 213 574T248 561Q275 561 281 573T288 598Z" />
<glyph unicode="&#xe6;" horiz-adv-x="762" d="M231 -7Q181 -7 137 4T67 47T40 143Q40 195 58 228T107 278T169 303T229 310Q253 310 275 308T315 303Q326 300 326 318Q326 362 301 380T229 398Q191 398 157 385T99 359Q89 354 86 355T81 366Q79 379 77 391T73
417Q71 427 73 431T83 440Q108 456 147 466T231 477Q273 477 302 470T352 451T386 422Q410 448 444 464T530 480Q594 480 632 462T690 413T716 346T723 273Q723 232 714 220T686 208Q626 208 566 208T445 208Q440 208 438 206T435 197Q438 140 468 108T555 75Q590
75 624 84T674 105Q684 111 691 112T705 100L724 63Q729 54 726 50T714 40Q681 15 631 5T531 -5Q488 -5 457 5T406 34Q405 31 404 28T401 21Q400 19 398 17T389 13Q368 6 338 2T279 -5T231 -7ZM318 215Q318 228 304 233T271 239T235 240Q223 240 208 236T180 222T157
193T148 143Q148 117 159 99T190 71T237 61Q246 61 258 62T283 66T304 75T314 90Q316 115 317 150T318 215ZM599 270Q608 270 610 273T611 290Q611 320 603 343T577 381T527 395Q502 395 485 386T457 361T440 327T433 292Q432 279 433 275T439 271Q479 270 519
270T599 270Z" />
<glyph unicode="&#xe7;" horiz-adv-x="407" d="M243 -7Q179 -7 138 11T75 63T43 141T33 236Q33 283 43 326T76 404T139 459T242 479Q285 479 317 470T373 442Q379 435 381 432T383 422V357Q383 349 378 349T369 352Q344 374 315 381T256 389Q226 389 204 376T169
341T150 292T143 235Q143 187 154 152T190 97T250 78Q275 78 298 84T348 102Q363 110 369 96L390 47Q394 40 393 36T385 29Q359 10 321 2T243 -7ZM320 -128Q320 -158 295 -181T227 -205Q196 -205 174 -192T138 -163Q133 -156 133 -149T141 -138L161 -128Q170 -124
174 -125T180 -131Q187 -142 198 -149T221 -156Q239 -156 248 -147T257 -126Q257 -112 248 -105T224 -94T194 -91Q186 -91 183 -85T183 -72L220 -10Q223 -5 227 -3T237 0H264Q275 0 270 -11L243 -76L226 -53Q270 -57 295 -75T320 -128Z" />
<glyph unicode="&#xe8;" horiz-adv-x="467" d="M35 237Q35 284 44 327T77 404T140 459T243 479Q308 479 346 461T404 413T430 346T437 273Q437 232 428 220T401 208H156Q151 208 149 206T146 196Q146 161 160 133T202 89T269 73Q302 73 334 83T383 102Q394 108
400 109T413 97L432 61Q437 51 435 47T422 37Q389 14 341 4T244 -7Q180 -7 139 12T76 64T44 142T35 237ZM325 291Q325 321 318 344T292 381T241 395Q216 395 199 386T171 361T154 327T146 292Q146 278 147 275T156 271H312Q321 271 323 274T325 291ZM239 527Q228
527 218 538L135 628Q132 631 134 635T140 639H222Q231 639 235 637T243 628L294 541Q302 527 292 527H239Z" />
<glyph unicode="&#xe9;" horiz-adv-x="467" d="M35 237Q35 284 44 327T77 404T140 459T243 479Q308 479 346 461T404 413T430 346T437 273Q437 232 428 220T401 208H156Q151 208 149 206T146 196Q146 161 160 133T202 89T269 73Q302 73 334 83T383 102Q394 108
400 109T413 97L432 61Q437 51 435 47T422 37Q389 14 341 4T244 -7Q180 -7 139 12T76 64T44 142T35 237ZM325 291Q325 321 318 344T292 381T241 395Q216 395 199 386T171 361T154 327T146 292Q146 278 147 275T156 271H312Q321 271 323 274T325 291ZM198 527Q191
527 191 529T196 540L258 632Q262 639 276 639H347Q353 639 354 636T350 627L268 532Q264 528 261 528T250 527H198Z" />
<glyph unicode="&#xea;" horiz-adv-x="467" d="M35 237Q35 284 44 327T77 404T140 459T243 479Q308 479 346 461T404 413T430 346T437 273Q437 232 428 220T401 208H156Q151 208 149 206T146 196Q146 161 160 133T202 89T269 73Q302 73 334 83T383 102Q394 108
400 109T413 97L432 61Q437 51 435 47T422 37Q389 14 341 4T244 -7Q180 -7 139 12T76 64T44 142T35 237ZM325 291Q325 321 318 344T292 381T241 395Q216 395 199 386T171 361T154 327T146 292Q146 278 147 275T156 271H312Q321 271 323 274T325 291ZM141 526Q137
526 136 529T137 534L211 631Q214 635 218 635H269Q274 635 276 631L350 534Q352 532 352 529T346 526H297Q292 526 289 530L248 571Q243 576 239 571L198 530Q195 526 190 526H141Z" />
<glyph unicode="&#xeb;" horiz-adv-x="467" d="M35 237Q35 284 44 327T77 404T140 459T243 479Q308 479 346 461T404 413T430 346T437 273Q437 232 428 220T401 208H156Q151 208 149 206T146 196Q146 161 160 133T202 89T269 73Q302 73 334 83T383 102Q394 108
400 109T413 97L432 61Q437 51 435 47T422 37Q389 14 341 4T244 -7Q180 -7 139 12T76 64T44 142T35 237ZM325 291Q325 321 318 344T292 381T241 395Q216 395 199 386T171 361T154 327T146 292Q146 278 147 275T156 271H312Q321 271 323 274T325 291ZM217 574Q217
553 207 542T166 531Q140 531 129 542T118 574Q118 595 129 606T166 617Q196 617 206 606T217 574ZM371 574Q371 553 361 542T321 531Q294 531 283 542T272 574Q272 595 283 606T321 617Q351 617 361 606T371 574Z" />
<glyph unicode="&#xec;" horiz-adv-x="215" d="M163 11Q163 0 152 0H64Q53 0 53 11V461Q53 472 64 472H152Q163 472 163 461V11ZM358 527Q347 527 337 538L254 628Q251 631 253 635T259 639H341Q350 639 354 637T362 628L413 541Q421 527 411 527H358Z" />
<glyph unicode="&#xed;" horiz-adv-x="215" d="M163 11Q163 0 152 0H64Q53 0 53 11V461Q53 472 64 472H152Q163 472 163 461V11ZM62 527Q55 527 55 529T60 540L122 632Q126 639 140 639H211Q217 639 218 636T214 627L132 532Q128 528 125 528T114 527H62Z" />
<glyph unicode="&#xee;" horiz-adv-x="215" d="M163 11Q163 0 152 0H64Q53 0 53 11V461Q53 472 64 472H152Q163 472 163 461V11ZM260 526Q256 526 255 529T256 534L330 631Q333 635 337 635H388Q393 635 395 631L469 534Q471 532 471 529T465 526H416Q411 526
408 530L367 571Q362 576 358 571L317 530Q314 526 309 526H260Z" />
<glyph unicode="&#xef;" horiz-adv-x="215" d="M163 11Q163 0 152 0H64Q53 0 53 11V461Q53 472 64 472H152Q163 472 163 461V11ZM336 574Q336 553 326 542T285 531Q259 531 248 542T237 574Q237 595 248 606T285 617Q315 617 325 606T336 574ZM490 574Q490 553
480 542T440 531Q413 531 402 542T391 574Q391 595 402 606T440 617Q470 617 480 606T490 574Z" />
<glyph unicode="&#xf0;" horiz-adv-x="509" d="M470 239Q470 172 452 116T386 27T255 -6Q171 -6 124 26T59 113T40 238Q40 307 60 361T127 447T255 479Q268 479 279 477T300 471Q284 491 264 509T217 547Q197 561 175 575T127 602Q120 606 118 608T119 617Q123
626 133 643T150 670Q152 673 156 674T172 672Q181 667 190 663T209 652Q297 609 354 544T441 401T470 239ZM356 235Q356 309 332 348T253 388Q200 388 176 349T151 235Q151 160 174 120T253 79Q309 79 332 120T356 235ZM142 494Q137 491 135 491T131 495L110 527Q108
532 109 533T115 539L330 671Q335 674 337 674T341 670L363 635Q364 632 363 631T356 626L142 494Z" />
<glyph unicode="&#xf1;" horiz-adv-x="475" d="M66 0Q53 0 53 11Q53 116 53 220T53 429Q53 439 59 443T84 454Q96 458 122 464T177 474T232 479Q313 479 356 448T415 366T432 252Q432 212 431 170T427 89T421 21Q419 5 416 3T400 0H330Q318 0 314 3T310 17Q310
22 312 49T316 113T319 188T320 252Q320 305 310 335T280 377T229 390Q215 390 203 388T180 383Q172 382 168 376T163 354Q163 307 163 250T163 133T163 11Q163 0 153 0H66ZM140 530Q134 530 134 535Q134 571 151 591T201 612Q217 612 232 604T261 587T281 579Q287
579 291 584T295 598Q295 605 300 605H345Q351 605 351 599Q351 567 332 545T283 523Q263 523 248 531T222 548T203 556Q195 556 192 551T188 536Q188 530 183 530H140Z" />
<glyph unicode="&#xf2;" horiz-adv-x="500" d="M250 -7Q164 -7 118 25T53 112T35 238Q35 308 55 362T122 448T250 479Q331 479 377 448T444 363T465 238Q465 168 447 113T383 25T250 -7ZM248 78Q306 78 328 119T351 235Q351 310 327 349T248 388Q196 388 171 349T146
235Q146 160 169 119T248 78ZM245 527Q234 527 224 538L141 628Q138 631 140 635T146 639H228Q237 639 241 637T249 628L300 541Q308 527 298 527H245Z" />
<glyph unicode="&#xf3;" horiz-adv-x="500" d="M250 -7Q164 -7 118 25T53 112T35 238Q35 308 55 362T122 448T250 479Q331 479 377 448T444 363T465 238Q465 168 447 113T383 25T250 -7ZM248 78Q306 78 328 119T351 235Q351 310 327 349T248 388Q196 388 171 349T146
235Q146 160 169 119T248 78ZM205 527Q198 527 198 529T203 540L265 632Q269 639 283 639H354Q360 639 361 636T357 627L275 532Q271 528 268 528T257 527H205Z" />
<glyph unicode="&#xf4;" horiz-adv-x="500" d="M250 -7Q164 -7 118 25T53 112T35 238Q35 308 55 362T122 448T250 479Q331 479 377 448T444 363T465 238Q465 168 447 113T383 25T250 -7ZM248 78Q306 78 328 119T351 235Q351 310 327 349T248 388Q196 388 171 349T146
235Q146 160 169 119T248 78ZM147 526Q143 526 142 529T143 534L217 631Q220 635 224 635H275Q280 635 282 631L356 534Q358 532 358 529T352 526H303Q298 526 295 530L254 571Q249 576 245 571L204 530Q201 526 196 526H147Z" />
<glyph unicode="&#xf5;" horiz-adv-x="500" d="M250 -7Q164 -7 118 25T53 112T35 238Q35 308 55 362T122 448T250 479Q331 479 377 448T444 363T465 238Q465 168 447 113T383 25T250 -7ZM248 78Q306 78 328 119T351 235Q351 310 327 349T248 388Q196 388 171 349T146
235Q146 160 169 119T248 78ZM148 530Q142 530 142 535Q142 571 159 591T209 612Q225 612 240 604T269 587T289 579Q295 579 299 584T303 598Q303 605 308 605H353Q359 605 359 599Q359 567 340 545T291 523Q271 523 256 531T230 548T211 556Q203 556 200 551T196
536Q196 530 191 530H148Z" />
<glyph unicode="&#xf6;" horiz-adv-x="500" d="M250 -7Q164 -7 118 25T53 112T35 238Q35 308 55 362T122 448T250 479Q331 479 377 448T444 363T465 238Q465 168 447 113T383 25T250 -7ZM248 78Q306 78 328 119T351 235Q351 310 327 349T248 388Q196 388 171 349T146
235Q146 160 169 119T248 78ZM223 574Q223 553 213 542T172 531Q146 531 135 542T124 574Q124 595 135 606T172 617Q202 617 212 606T223 574ZM377 574Q377 553 367 542T327 531Q300 531 289 542T278 574Q278 595 289 606T327 617Q357 617 367 606T377 574Z" />
<glyph unicode="&#xf7;" horiz-adv-x="487" d="M301 163Q301 140 290 129T244 118Q214 118 202 129T189 163Q189 185 201 196T244 208Q278 208 289 197T301 163ZM301 450Q301 428 290 417T244 405Q214 405 202 416T189 450Q189 473 201 484T244 496Q278 496 289
485T301 450ZM62 270Q53 270 52 272T50 281V336Q50 343 52 345T63 347H425Q433 347 435 346T437 337V278Q437 273 435 272T423 270H62Z" />
<glyph unicode="&#xf8;" horiz-adv-x="486" d="M250 -7Q164 -7 118 25T53 112T35 238Q35 308 55 362T122 448T250 479Q331 479 377 448T444 363T465 238Q465 168 447 113T383 25T250 -7ZM248 78Q306 78 328 119T351 235Q351 310 327 349T248 388Q196 388 171 349T146
235Q146 160 169 119T248 78ZM131 -65Q126 -76 118 -76H68Q65 -76 65 -73T68 -63L368 535Q372 541 374 542T380 544H428Q433 544 433 540T425 520L131 -65Z" />
<glyph unicode="&#xf9;" horiz-adv-x="479" d="M248 -4Q167 -4 124 26T63 108T46 221Q46 261 47 303T52 383T58 451Q60 467 64 469T80 472H149Q161 472 166 472T169 455Q169 450 168 425T164 364T161 289T160 217Q160 150 180 117T250 83Q256 83 267 84T289 87T309
95T317 108V457Q317 462 318 467T324 472H414Q417 472 421 471T426 461V49Q426 37 419 32T391 20Q381 16 356 11T302 1T248 -4ZM238 527Q227 527 217 538L134 628Q131 631 133 635T139 639H221Q230 639 234 637T242 628L293 541Q301 527 291 527H238Z" />
<glyph unicode="&#xfa;" horiz-adv-x="479" d="M248 -4Q167 -4 124 26T63 108T46 221Q46 261 47 303T52 383T58 451Q60 467 64 469T80 472H149Q161 472 166 472T169 455Q169 450 168 425T164 364T161 289T160 217Q160 150 180 117T250 83Q256 83 267 84T289 87T309
95T317 108V457Q317 462 318 467T324 472H414Q417 472 421 471T426 461V49Q426 37 419 32T391 20Q381 16 356 11T302 1T248 -4ZM198 527Q191 527 191 529T196 540L258 632Q262 639 276 639H347Q353 639 354 636T350 627L268 532Q264 528 261 528T250 527H198Z"
/>
<glyph unicode="&#xfb;" horiz-adv-x="479" d="M248 -4Q167 -4 124 26T63 108T46 221Q46 261 47 303T52 383T58 451Q60 467 64 469T80 472H149Q161 472 166 472T169 455Q169 450 168 425T164 364T161 289T160 217Q160 150 180 117T250 83Q256 83 267 84T289 87T309
95T317 108V457Q317 462 318 467T324 472H414Q417 472 421 471T426 461V49Q426 37 419 32T391 20Q381 16 356 11T302 1T248 -4ZM140 526Q136 526 135 529T136 534L210 631Q213 635 217 635H268Q273 635 275 631L349 534Q351 532 351 529T345 526H296Q291 526 288
530L247 571Q242 576 238 571L197 530Q194 526 189 526H140Z" />
<glyph unicode="&#xfc;" horiz-adv-x="479" d="M248 -4Q167 -4 124 26T63 108T46 221Q46 261 47 303T52 383T58 451Q60 467 64 469T80 472H149Q161 472 166 472T169 455Q169 450 168 425T164 364T161 289T160 217Q160 150 180 117T250 83Q256 83 267 84T289 87T309
95T317 108V457Q317 462 318 467T324 472H414Q417 472 421 471T426 461V49Q426 37 419 32T391 20Q381 16 356 11T302 1T248 -4ZM216 574Q216 553 206 542T165 531Q139 531 128 542T117 574Q117 595 128 606T165 617Q195 617 205 606T216 574ZM370 574Q370 553 360
542T320 531Q293 531 282 542T271 574Q271 595 282 606T320 617Q350 617 360 606T370 574Z" />
<glyph unicode="&#xfd;" horiz-adv-x="421" d="M135 95Q114 131 96 175T63 268T38 364T19 455Q16 472 30 472H116Q125 472 129 468T135 449Q137 432 142 405T155 346T171 283T189 222T208 174Q212 167 216 167T221 173Q231 200 242 234T264 307T283 384T297 456Q298
465 301 468T314 472H389Q397 472 401 469T404 453Q398 415 390 380T370 307T345 226Q334 195 318 151T279 60T225 -28T151 -94T54 -120Q31 -120 14 -117T-15 -109Q-33 -100 -26 -84L-4 -42Q-1 -34 3 -34T14 -36Q33 -40 55 -35T95 -18Q114 -7 124 4T142 30Q148
45 146 62T135 95ZM171 527Q164 527 164 529T169 540L231 632Q235 639 249 639H320Q326 639 327 636T323 627L241 532Q237 528 234 528T223 527H171Z" />
<glyph unicode="&#xfe;" horiz-adv-x="486" d="M450 246Q450 190 439 149T407 79T363 33T313 7Q286 -1 254 -1T201 6Q193 6 189 6T181 5Q176 -6 170 -17T161 -39Q161 -54 161 -69T159 -100Q157 -105 154 -107T142 -110Q121 -110 101 -110T62 -108Q58 -51 56 7T53
127Q53 241 53 355T54 583Q56 589 61 591T75 593Q95 593 115 593T155 592Q159 579 162 564T166 528Q166 511 166 495T168 462Q182 469 201 475T247 481Q344 481 397 422T450 246ZM337 246Q337 327 313 361T246 395Q231 395 215 392T186 381T166 363Q162 357 162
347Q161 294 161 241T160 136Q160 129 160 127T164 121Q173 105 197 98T243 91Q257 91 273 98T304 121T328 167T337 246Z" />
<glyph unicode="&#xff;" horiz-adv-x="421" d="M135 95Q114 131 96 175T63 268T38 364T19 455Q16 472 30 472H116Q125 472 129 468T135 449Q137 432 142 405T155 346T171 283T189 222T208 174Q212 167 216 167T221 173Q231 200 242 234T264 307T283 384T297 456Q298
465 301 468T314 472H389Q397 472 401 469T404 453Q398 415 390 380T370 307T345 226Q334 195 318 151T279 60T225 -28T151 -94T54 -120Q31 -120 14 -117T-15 -109Q-33 -100 -26 -84L-4 -42Q-1 -34 3 -34T14 -36Q33 -40 55 -35T95 -18Q114 -7 124 4T142 30Q148
45 146 62T135 95ZM189 574Q189 553 179 542T138 531Q112 531 101 542T90 574Q90 595 101 606T138 617Q168 617 178 606T189 574ZM343 574Q343 553 333 542T293 531Q266 531 255 542T244 574Q244 595 255 606T293 617Q323 617 333 606T343 574Z" />
<glyph unicode="&#x2013;" horiz-adv-x="587" d="M63 236Q55 236 54 238T53 247V305Q53 312 54 314T64 316H524Q531 316 533 315T535 305V244Q535 239 534 238T524 236H63Z" />
<glyph unicode="&#x2014;" horiz-adv-x="789" d="M63 236Q55 236 54 238T53 247V305Q53 312 54 314T64 316H726Q733 316 735 315T737 305V244Q737 239 736 238T726 236H63Z" />
<glyph unicode="&#x2018;" horiz-adv-x="241" d="M52 466Q41 466 41 474T46 497L115 684Q119 689 122 691T132 694H194Q199 694 201 688T199 669L140 478Q137 473 134 470T123 466H52Z" />
<glyph unicode="&#x2019;" horiz-adv-x="241" d="M48 466Q43 466 41 472T42 491L101 682Q104 687 107 690T118 694H190Q201 694 201 686T196 662L127 476Q123 471 120 469T110 466H48Z" />
<glyph unicode="&#x201a;" horiz-adv-x="188" d="M133 -86Q132 -97 128 -102T109 -108H78Q63 -108 59 -102T55 -84L53 125Q53 135 57 141T77 148H112Q126 148 130 141T135 125L133 -86Z" />
<glyph unicode="&#x201c;" horiz-adv-x="406" d="M52 466Q41 466 41 474T46 497L115 684Q119 689 122 691T132 694H194Q199 694 201 688T199 669L140 478Q137 473 134 470T123 466H52ZM216 466Q205 466 205 474T211 497L279 684Q283 689 285 691T296 694H358Q364
694 366 688T363 669L305 478Q302 473 299 470T288 466H216Z" />
<glyph unicode="&#x201d;" horiz-adv-x="410" d="M294 476Q291 471 289 469T278 466H216Q211 466 209 472T211 491L269 682Q272 687 275 690T286 694H357Q369 694 370 686T364 662L294 476ZM127 476Q123 471 120 469T110 466H48Q43 466 41 472T42 491L101 682Q104
687 107 690T118 694H190Q201 694 201 686T196 662L127 476Z" />
<glyph unicode="&#x201e;" horiz-adv-x="361" d="M138 -96Q138 -104 135 -106T125 -108H69Q64 -108 61 -105T58 -93L53 128Q52 140 55 143T68 147H128Q140 147 142 144T145 133L138 -96ZM302 -96Q302 -104 299 -106T289 -108H232Q227 -108 225 -105T222 -93L216
128Q216 140 219 143T231 147H293Q304 147 306 144T308 133L302 -96Z" />
<glyph unicode="&#x2022;" horiz-adv-x="547" d="M79 303Q79 356 105 400T176 470T274 496Q328 497 372 471T442 400T468 303Q468 249 442 205T372 135T274 108Q221 108 177 134T106 205T79 303Z" />
<glyph unicode="&#x2039;" horiz-adv-x="346" d="M183 153Q178 153 175 156Q142 199 110 241T45 327Q35 337 45 346Q77 389 109 431T175 516Q177 519 179 519T183 520Q205 520 230 520T276 520Q281 520 280 518T277 513Q276 512 263 494T230 450T191 397T159 354T146
336Q146 336 159 319T191 275T229 223T262 179T277 160Q279 159 280 156T276 153Q255 153 230 153T183 153Z" />
<glyph unicode="&#x203a;" horiz-adv-x="389" d="M95 153Q90 153 91 156T94 160Q95 161 108 179T141 223T180 275T212 318T225 336Q225 336 212 353T180 397T142 449T109 494T94 513Q93 515 92 517T95 520Q116 520 141 520T189 520Q191 520 192 520T197 516Q229
474 261 432T326 346Q337 337 326 327Q294 284 262 242T197 156Q193 153 189 153Q166 153 141 153T95 153Z" />
</font>
</defs>
</svg>
