<?xml version="1.0" standalone="no"?>
<!DOCTYPE svg PUBLIC "-//W3C//DTD SVG 1.1//EN" "http://www.w3.org/Graphics/SVG/1.1/DTD/svg11.dtd">
<svg xmlns="http://www.w3.org/2000/svg">
<defs >
<font id="Georama" horiz-adv-x="254" ><font-face
    font-family="Georama ExtraCondensed Thin ExtraBold"
    units-per-em="1000"
    panose-1="2 11 0 0 3 2 0 2 0 4"
    ascent="968"
    descent="-226"
    alphabetic="0" />
<glyph unicode=" " horiz-adv-x="264" />
<glyph unicode="!" horiz-adv-x="266" d="M50 260L36 740H232L217 260H50ZM27 93Q27 145 51 170T133 196Q190 196 214 171T239 93Q239 42 215 17T133 -9Q76 -9 52 16T27 93Z" />
<glyph unicode="&quot;" horiz-adv-x="444" d="M34 427L27 700H201L192 427H34ZM250 427L243 700H417L408 427H250Z" />
<glyph unicode="#" horiz-adv-x="657" d="M67 412V552H148L167 700H341L322 552H390L409 700H583L564 552H610V412H547L528 284H590V144H510L491 0H318L336 144H268L249 0H75L94 144H48V284H112L131 412H67ZM304 412L286 284H354L373 412H304Z" />
<glyph unicode="$" horiz-adv-x="657" d="M291 -10Q258 -9 224 -6T157 4T94 18T36 37L72 189Q103 179 135 171T199 157T262 148T319 145Q370 145 393 156T416 193Q416 209 404 220T367 240T306 260T221 284Q172 302 134 329T76 397T55 494Q55 567 90 615T191 686T346
710Q391 710 435 705T518 692T588 673L554 521Q526 530 492 536T422 546T352 550Q301 550 280 540T259 504Q259 489 268 478T295 458T343 441T414 422Q477 406 523 380T595 312T621 208Q621 146 596 104T526 36T421 0T291 -10ZM257 -105V8L412 16V-105H257ZM257
683V804H412V692L257 683Z" />
<glyph unicode="%" horiz-adv-x="999" d="M28 761Q28 821 41 861T80 924T143 957T227 967Q274 967 311 957T373 924T410 860T423 761Q423 703 410 664T371 601T309 567T227 556Q180 556 143 566T81 600T42 663T28 761ZM174 758Q174 710 180 687T198 656T227 648Q244
648 255 655T272 686T278 758Q278 812 272 837T255 868T227 875Q210 875 199 868T181 836T174 758ZM374 -5L250 -4L627 719L751 718L374 -5ZM575 196Q575 256 588 296T627 359T690 392T774 402Q821 402 858 392T920 359T957 295T970 196Q970 138 957 99T918 36T856
2T774 -9Q727 -9 690 1T628 35T589 98T575 196ZM721 193Q721 145 727 122T745 91T774 83Q791 83 802 90T819 121T825 193Q825 247 819 272T802 303T774 310Q757 310 746 303T728 271T721 193Z" />
<glyph unicode="&amp;" horiz-adv-x="743" d="M514 -2L180 355Q156 382 141 408T119 461T112 517Q112 575 138 618T218 686T361 710Q472 710 531 668T591 541Q591 502 578 470T538 414T465 374L390 461Q404 471 410 483T416 512Q416 528 411 538T394 554T366 559Q340
559 327 549T313 514Q313 504 317 493T331 467T360 432L740 0L514 -2ZM293 -10Q166 -10 96 46T26 199Q26 266 60 316T173 399L260 294Q235 281 223 264T210 219Q210 194 224 175T263 145T321 134Q354 134 373 142T404 163L496 56Q472 35 442 21T376 -2T293 -10ZM609
122L496 256Q509 270 515 286T524 321Q525 332 525 341T524 360L679 361Q681 348 681 336T682 308Q682 256 663 209T609 122Z" />
<glyph unicode="&apos;" horiz-adv-x="228" d="M34 427L27 700H201L192 427H34Z" />
<glyph unicode="(" horiz-adv-x="336" d="M33 265Q33 364 49 448T99 597T186 701T316 750V608Q282 594 258 570T220 507T199 408T192 265Q192 181 198 122T219 24T258 -40T316 -78V-220Q240 -211 187 -172T99 -68T49 81T33 265Z" />
<glyph unicode=")" horiz-adv-x="336" d="M20 -78Q54 -64 78 -40T116 23T137 122T144 265Q144 349 138 408T117 506T78 570T20 608V750Q95 741 149 702T237 598T286 449T302 265Q302 166 287 82T237 -67T149 -171T20 -220V-78Z" />
<glyph unicode="*" horiz-adv-x="389" d="M121 369L53 417L107 513L9 560L35 639L141 617L152 727H237L248 617L354 639L380 560L282 513L336 416L267 369L194 451L121 369Z" />
<glyph unicode="+" horiz-adv-x="548" d="M189 124V243H49V399H189V517H359V399H499V243H359V124H189Z" />
<glyph unicode="," horiz-adv-x="257" d="M37 100L216 102Q221 86 224 67T228 23Q228 -14 218 -49T187 -118T134 -188L-14 -160Q16 -116 29 -69T43 23Q43 36 42 56T37 100Z" />
<glyph unicode="-" horiz-adv-x="369" d="M39 237V401H330V237H39Z" />
<glyph unicode="." horiz-adv-x="263" d="M25 95Q25 146 49 171T131 197Q189 197 213 172T238 95Q238 44 214 19T131 -7Q74 -7 50 18T25 95Z" />
<glyph unicode="/" horiz-adv-x="464" d="M-1 -210L307 740H465L156 -210H-1Z" />
<glyph unicode="0" horiz-adv-x="657" d="M26 350Q26 453 47 522T107 633T203 692T328 710Q400 710 456 692T551 633T610 522T631 350Q631 248 610 179T548 68T453 9T328 -10Q260 -10 204 8T108 67T47 178T26 350ZM229 343Q229 278 236 238T256 177T288 150T328
142Q350 142 368 149T400 177T421 237T428 343Q428 415 421 458T400 522T368 551T328 558Q307 558 289 551T258 523T237 458T229 343Z" />
<glyph unicode="1" horiz-adv-x="657" d="M97 0V158H264V484L118 432L78 600L363 701H463V158H606V0H97Z" />
<glyph unicode="2" horiz-adv-x="657" d="M56 132Q119 174 167 210T250 278T307 337T340 389T351 435Q351 461 341 479T311 506T256 516Q223 516 185 506T106 475L46 640Q82 662 124 678T213 702T304 710Q386 710 442 683T529 607T559 489Q559 454 554 425T535
366T497 306T437 239T350 158H606V0H57L56 132Z" />
<glyph unicode="3" horiz-adv-x="657" d="M33 42L84 185Q110 175 141 168T206 157T275 153Q321 153 349 160T389 182T401 220Q401 251 373 266T279 281H169V424H273Q315 424 340 430T377 450T389 482Q389 510 359 524T264 539Q219 539 173 532T88 511L43 658Q72
675 113 686T203 704T304 710Q398 710 460 688T554 625T585 527Q585 475 558 434T479 370Q540 350 571 307T602 206Q602 138 567 90T463 16T293 -10Q240 -10 195 -5T111 12T33 42Z" />
<glyph unicode="4" horiz-adv-x="657" d="M18 97V237L359 701L536 700V245H627V97H536V0H335V97H18ZM167 245H340V473L167 245Z" />
<glyph unicode="5" horiz-adv-x="657" d="M40 36L78 187Q102 179 132 172T198 161T272 157Q324 157 355 165T399 189T413 225Q413 241 407 253T383 273T334 285T255 290H89L80 301L128 700H576V537H275L264 433L343 432Q430 431 489 412T580 349T612 233Q612 151
571 97T458 17T289 -10Q241 -10 199 -5T117 10T40 36Z" />
<glyph unicode="6" horiz-adv-x="657" d="M335 -10Q234 -10 166 26T64 137T30 327Q30 453 69 537T185 666T377 710Q424 710 468 706T548 692T612 671L568 518Q538 526 513 532T462 541T407 545Q337 545 299 524T245 460T230 351Q230 287 238 246T261 182T297 151T346
142Q388 142 412 163T437 229Q437 255 425 272T389 299T334 309Q314 309 294 304T254 290T211 266L212 402Q237 420 266 432T329 449T402 454Q477 454 527 430T603 356T629 238Q629 114 555 52T335 -10Z" />
<glyph unicode="7" horiz-adv-x="657" d="M164 0Q164 49 170 93T188 180T221 266T270 355L382 535H57V700H610V572L480 337Q444 271 421 216T386 110T373 0H164Z" />
<glyph unicode="8" horiz-adv-x="657" d="M362 410Q384 425 397 438T415 466T421 501Q421 530 399 546T328 562Q297 562 278 556T251 539T242 512Q242 494 255 480T291 456T343 437T405 418T470 396T532 367T585 327T621 272T634 200Q634 130 601 83T501 13T328
-10Q180 -10 102 42T24 191Q24 228 38 261T82 322T155 366L276 297Q248 275 234 255T220 204Q220 171 250 154T339 136Q383 136 405 149T427 187Q427 207 415 221T380 247T330 268T271 288T209 311T150 340T100 380T66 434T53 507Q53 606 125 658T331 710Q461 710
532 662T603 530Q603 499 592 468T555 409T488 359L362 410Z" />
<glyph unicode="9" horiz-adv-x="657" d="M281 -10Q235 -10 191 -6T110 8T46 30L90 181Q119 172 145 166T197 157T250 153Q320 153 359 175T413 241T429 350Q429 407 423 447T403 511T368 547T314 558Q285 558 264 548T233 519T222 471Q222 445 234 427T269 401T319
392Q343 392 365 397T409 411T449 434L447 297Q424 281 394 270T329 252T259 245Q185 245 134 270T56 343T29 461Q29 543 62 598T162 682T326 710Q429 710 495 673T595 560T628 367Q628 243 589 159T473 33T281 -10Z" />
<glyph unicode=":" horiz-adv-x="263" d="M25 95Q25 146 49 171T131 197Q189 197 213 172T238 95Q238 44 214 19T131 -7Q74 -7 50 18T25 95ZM25 453Q25 504 49 529T131 555Q189 555 213 530T238 453Q238 402 214 377T131 351Q74 351 50 376T25 453Z" />
<glyph unicode=";" horiz-adv-x="263" d="M39 100L218 102Q223 86 226 67T230 23Q230 -14 220 -49T189 -118T136 -188L-12 -160Q18 -116 31 -69T45 23Q45 36 44 56T39 100ZM25 453Q25 504 49 529T131 555Q189 555 213 530T238 453Q238 402 214 377T131 351Q74
351 50 376T25 453Z" />
<glyph unicode="&lt;" horiz-adv-x="548" d="M510 74L38 233V388L510 548V398L211 311L510 224V74Z" />
<glyph unicode="=" horiz-adv-x="538" d="M489 274V118H49V274H489ZM489 505V349H49V505H489Z" />
<glyph unicode="&gt;" horiz-adv-x="548" d="M510 233L38 74V224L338 311L38 398V548L510 388V233Z" />
<glyph unicode="?" horiz-adv-x="503" d="M151 260L147 410Q193 424 220 437T262 464T280 490T285 516Q285 529 280 539T265 557T241 568T207 572Q177 572 143 562T69 530L12 685Q41 704 79 718T159 741T240 749Q293 749 338 737T417 699T471 634T490 540Q490
490 474 449T420 376T320 323L319 260H151ZM129 93Q129 145 153 170T235 196Q292 196 316 171T341 93Q341 42 317 17T235 -9Q178 -9 154 16T129 93Z" />
<glyph unicode="@" horiz-adv-x="899" d="M434 -125Q344 -125 270 -103T141 -33T57 89T27 268Q27 365 56 445T144 585T286 677T482 710Q600 710 687 669T823 546T872 341Q872 278 860 224T821 129T757 66T667 44Q636 44 613 52T573 75T545 110T528 154Q509 122
485 99T434 65T372 53Q329 53 295 74T242 140T222 254Q222 316 238 368T286 458T365 518T474 539Q508 539 541 535T607 523T671 502L650 241Q647 206 652 186T669 156T697 147Q719 146 738 168T770 232T782 332Q782 429 749 495T646 596T467 630Q384 630 320 603T212
526T146 409T123 261Q123 177 147 119T215 26T316 -24T441 -40Q488 -40 535 -33T625 -12L647 -86Q618 -98 582 -106T507 -120T434 -125ZM432 190Q443 190 453 194T473 206T489 229T503 264L518 421Q506 426 494 428T468 430Q450 430 435 416T409 377T391 322T385
258Q385 235 391 220T408 198T432 190Z" />
<glyph unicode="A" horiz-adv-x="690" d="M5 0L220 701H468L686 0H463L434 109H246L218 0H5ZM282 275H398L340 550L282 275Z" />
<glyph unicode="B" horiz-adv-x="674" d="M49 4V696Q110 701 161 704T257 708T338 710Q441 710 503 693T593 638T621 541Q621 487 598 450T522 389V387Q587 367 623 320T659 208Q659 149 643 107T589 40T491 2T339 -10Q306 -10 282 -10T236 -9T191 -6T133 -2T49
4ZM253 421H367Q387 421 401 428T423 449T430 483Q430 507 421 521T392 542T334 549Q324 549 316 549T302 549T289 548T273 547T253 545V421ZM253 154Q264 153 275 152T295 151T314 150T331 150Q378 150 404 156T440 177T450 217Q450 252 431 267T364 282H253V154Z"
/>
<glyph unicode="C" horiz-adv-x="636" d="M25 340Q25 472 63 553T180 672T377 710Q414 710 444 708T501 702T552 692T602 678L562 518Q531 525 503 529T449 536T396 538Q351 538 320 528T269 496T241 435T232 341Q232 291 241 256T269 200T319 170T394 160Q437
160 485 166T576 184L611 26Q586 18 560 12T504 0T439 -7T360 -10Q276 -10 213 9T108 69T46 178T25 340Z" />
<glyph unicode="D" horiz-adv-x="706" d="M336 -10Q278 -10 229 -9T136 -5T49 -1V699Q98 703 142 705T232 709T327 710Q454 710 532 673T645 556T681 350Q681 226 643 147T529 29T336 -10ZM354 149Q392 149 418 168T458 232T472 349Q472 426 459 469T418 531T350
550Q331 550 313 550T280 549T252 547V152Q265 152 277 152T301 151T325 150T354 149Z" />
<glyph unicode="E" horiz-adv-x="617" d="M49 0V700H574V530H250V430H548V275H250V167H592V0H49Z" />
<glyph unicode="F" horiz-adv-x="587" d="M49 0V700H570V526H252V384H527V213H253V0H49Z" />
<glyph unicode="G" horiz-adv-x="674" d="M25 341Q25 467 63 548T179 670T376 710Q411 710 442 708T502 702T558 692T612 678L575 516Q528 527 481 533T393 539Q336 539 300 519T248 454T231 338Q231 268 246 227T291 168T369 150Q394 150 416 152T455 160V253H355V409H637V48Q576
18 504 4T344 -10Q236 -10 166 28T60 143T25 341Z" />
<glyph unicode="H" horiz-adv-x="714" d="M49 0V700H252V412H462V700H665V0H462V231H252V0H49Z" />
<glyph unicode="I" horiz-adv-x="301" d="M49 0V700H252V0H49Z" />
<glyph unicode="J" horiz-adv-x="536" d="M6 28L44 183Q73 177 99 172T148 164T189 161Q224 161 246 171T278 208T289 280V523H59V700H492V231Q492 151 467 97T388 17T249 -10Q209 -10 168 -6T87 7T6 28Z" />
<glyph unicode="K" horiz-adv-x="694" d="M640 -10Q608 -10 576 -3T512 19T450 59L252 219V0H49V700H252V464L492 272Q520 250 542 236T584 213T619 202T650 198Q655 198 660 198T668 199V-8Q661 -9 654 -9T640 -10ZM386 287L255 399Q282 417 309 441T364 494T418
557T468 628T511 707L674 630Q654 576 627 528T563 438T483 358T386 287Z" />
<glyph unicode="L" horiz-adv-x="576" d="M49 0V700H252V177H557V0H49Z" />
<glyph unicode="M" horiz-adv-x="807" d="M49 0V700H260L407 383L557 700H758V0H573V407L449 138H353L234 403V0H49Z" />
<glyph unicode="N" horiz-adv-x="692" d="M49 0V701H241L464 311V700H643V-1H451L229 377V0H49Z" />
<glyph unicode="O" horiz-adv-x="706" d="M354 149Q378 149 397 155T431 175T455 213T470 270T475 351Q475 397 470 431T456 488T432 525T398 545T354 551Q330 551 311 545T278 526T253 489T237 432T232 350Q232 302 237 268T253 211T277 175T311 155T354 149ZM354
-10Q290 -10 238 2T146 40T79 109T39 211T25 350Q25 428 38 487T77 589T142 658T234 697T354 710Q420 710 473 698T565 659T630 590T669 489T682 353Q682 273 669 213T628 111T562 42T471 3T354 -10Z" />
<glyph unicode="P" horiz-adv-x="693" d="M49 0V701Q125 705 184 707T283 709T343 710Q441 710 505 695T606 649T658 567T674 447Q674 376 660 324T613 239T527 190T395 173Q372 173 358 173T335 173T315 173T291 175T252 177V0H49ZM253 547V336Q267 335 277 335T295
334T312 333T330 333Q375 333 402 339T444 360T463 397T468 452Q468 478 463 496T446 526T413 544T358 550Q346 550 336 550T315 550T289 549T253 547Z" />
<glyph unicode="Q" horiz-adv-x="706" d="M536 45Q545 28 555 16T579 -3T606 -10Q618 -10 628 -8T649 -1L671 -167Q646 -175 621 -179T570 -184Q517 -184 479 -163T414 -100T366 8L536 45ZM354 149Q377 149 396 155T430 175T454 213T469 270T475 351Q475 397 470
431T456 488T432 525T398 545T354 551Q330 551 311 545T278 526T253 489T237 432T232 350Q232 302 237 268T252 211T277 174T311 155T354 149ZM353 -10Q287 -10 234 2T142 41T77 110T38 211T25 350Q25 428 37 487T74 589T138 658T231 697T354 710Q423 710 476 698T567
659T631 590T669 489T681 353Q681 273 668 213T629 110T564 42T472 3T353 -10Z" />
<glyph unicode="R" horiz-adv-x="716" d="M648 -10Q615 -10 582 -3T515 21T449 64T381 129T310 217Q306 217 299 217T286 217Q278 217 270 217T252 217V0H49V700Q114 703 168 705T267 708T347 709Q432 709 493 696T592 656T649 587T667 487Q667 429 649 387T599
317T523 276Q544 253 564 236T603 208T639 192T674 186Q678 186 682 186T691 187V-6Q684 -7 674 -8T648 -10ZM348 356Q377 356 397 362T431 380T451 412T458 460Q458 493 449 513T417 543T352 553Q338 553 328 553T308 553T284 552T252 549V359Q265 358 275 358T295
357T318 356T348 356Z" />
<glyph unicode="S" horiz-adv-x="641" d="M596 673L560 518Q538 526 511 532T455 542T397 548T340 550Q288 550 263 539T238 502Q238 486 248 475T280 456T335 438T416 418Q467 407 506 389T573 347T613 289T627 209Q627 139 590 90T478 16T295 -10Q260 -10 222
-7T147 2T75 16T6 37L44 191Q75 180 109 172T177 157T244 148T307 145Q347 145 370 150T403 167T414 194Q414 211 401 221T360 241T292 261T197 286Q157 300 125 318T71 361T36 419T24 494Q24 540 41 579T96 648T194 694T338 710Q390 710 438 705T527 692T596 673Z"
/>
<glyph unicode="T" horiz-adv-x="644" d="M626 521H424V0H221V521H18V700H626V521Z" />
<glyph unicode="U" horiz-adv-x="699" d="M43 233V700H244V232Q244 215 248 202T262 180T285 165T314 156T350 153Q370 153 386 156T415 165T437 180T450 203T454 232V700H656V233Q656 182 644 142T607 73T545 26T459 -1T349 -10Q289 -10 240 -1T155 26T93 73T56
142T43 233Z" />
<glyph unicode="V" horiz-adv-x="677" d="M220 0L-2 699L223 701L341 171L456 701L680 699L462 0H220Z" />
<glyph unicode="W" horiz-adv-x="842" d="M701 0H489L419 392L341 0H137L0 700H217L251 191L333 656H513L589 191L623 700H842L701 0Z" />
<glyph unicode="X" horiz-adv-x="660" d="M-2 1L192 358L15 699L256 701L335 477L416 701L650 699L472 358L661 1L419 -1L334 236L248 -1L-2 1Z" />
<glyph unicode="Y" horiz-adv-x="676" d="M237 0V229L-2 699L227 701L339 353L449 701L678 699L440 229V0H237Z" />
<glyph unicode="Z" horiz-adv-x="636" d="M22 0V161L346 534V536H39V700H597V539L279 166V164H614V0H22Z" />
<glyph unicode="[" horiz-adv-x="336" d="M183 -76H316V-210H33V740H316V606H183V-76Z" />
<glyph unicode="\" horiz-adv-x="464" d="M157 740L465 -210H308L-1 740H157Z" />
<glyph unicode="]" horiz-adv-x="336" d="M20 -76H152V606H20V740H303V-210H20V-76Z" />
<glyph unicode="^" horiz-adv-x="548" d="M47 233L185 701H363L501 233H354L274 502L195 233H47Z" />
<glyph unicode="_" horiz-adv-x="788" d="M17 -199V-52H771V-199H17Z" />
<glyph unicode="`" horiz-adv-x="464" d="M218 595L92 789H292L373 595H218Z" />
<glyph unicode="a" horiz-adv-x="579" d="M17 157Q17 207 35 239T91 290T187 320T328 336V353Q328 376 305 386T239 396Q218 396 191 394T134 387T74 373L44 525Q90 539 147 548T254 557Q350 557 408 534T494 466T521 355V194Q521 172 527 165T541 157Q546 157
551 158T562 160L577 21Q555 7 527 -1T464 -10Q420 -10 391 4T346 47Q320 29 295 16T240 -3T174 -10Q140 -10 111 1T61 35T29 87T17 157ZM215 169Q215 141 226 128T255 115Q265 115 278 118T306 128T328 144V234Q297 233 276 229T241 218T221 199T215 169Z" />
<glyph unicode="b" horiz-adv-x="603" d="M39 19V740H235V511Q274 534 312 545T390 557Q485 557 533 490T582 287Q582 181 552 115T458 20T290 -10Q237 -10 173 -2T39 19ZM235 139Q252 135 268 133T298 130Q326 130 343 143T369 186T378 271Q378 317 372 344T351
382T315 394Q303 394 291 392T265 385T235 372V139Z" />
<glyph unicode="c" horiz-adv-x="533" d="M22 266Q22 362 55 426T155 524T317 557Q351 557 385 554T451 547T507 535L480 372Q455 377 431 380T384 385T339 387Q301 387 276 375T238 337T225 273Q225 234 239 209T279 171T344 158Q368 158 390 159T437 164T488
173L518 19Q473 6 415 -2T300 -10Q159 -10 91 58T22 266Z" />
<glyph unicode="d" horiz-adv-x="605" d="M393 -2L371 38Q332 14 293 2T210 -10Q119 -10 71 60T22 265Q22 363 51 428T140 525T292 557Q310 557 330 556T368 552V740H566V-2H393ZM368 172V405Q352 411 337 413T305 415Q278 415 261 403T235 363T226 284Q226 235
232 206T253 165T289 152Q301 152 313 154T340 161T368 172Z" />
<glyph unicode="e" horiz-adv-x="576" d="M303 -10Q236 -10 184 5T96 53T41 138T22 264Q22 343 42 399T101 490T191 541T305 557Q431 557 490 496T550 298Q550 287 550 270T548 237Q521 235 485 232T406 226T317 221T224 216Q224 214 224 212T224 207Q225 186
235 172T271 150T339 142Q366 142 396 145T458 153T524 166L547 26Q509 13 471 6T391 -6T303 -10ZM225 326Q243 326 261 327T296 328T329 330T355 331Q354 366 347 385T327 413T294 421Q281 421 270 417T249 403T234 374T225 326Z" />
<glyph unicode="f" horiz-adv-x="415" d="M82 0V366H11V496L82 507V524Q82 597 106 647T179 724T298 750Q339 750 377 743T453 721L428 584Q408 590 386 593T345 596Q311 596 293 579T275 521V507H393V366H275V0H82Z" />
<glyph unicode="g" horiz-adv-x="594" d="M256 -220Q134 -220 71 -187T8 -85Q8 -57 17 -35T46 4T95 33L187 -2Q178 -7 172 -12T162 -24T158 -40Q158 -56 168 -65T202 -78T270 -83Q310 -83 337 -78T377 -64T391 -41Q391 -31 387 -26T370 -18T330 -15H229Q169 -15
124 -2T55 39T30 110Q30 154 53 183T114 233L210 209Q194 199 186 190T178 166Q178 151 189 144T224 136H397Q481 136 528 96T575 -17Q575 -82 539 -127T433 -196T256 -220ZM276 177Q155 177 94 225T32 367Q32 462 93 509T276 557Q398 557 459 510T520 367Q520
273 459 225T276 177ZM276 298Q307 298 321 312T336 367Q336 408 322 422T276 437Q246 437 232 423T217 367Q217 327 231 313T276 298ZM490 409L417 508Q431 547 460 566T535 585Q551 585 566 583T592 576L570 429Q561 431 552 432T531 434Q519 434 508 428T490
409Z" />
<glyph unicode="h" horiz-adv-x="593" d="M39 0V740H236V505Q263 523 288 534T339 551T393 557Q446 557 482 538T537 483T556 394V0H359V331Q359 365 345 378T307 392Q296 392 285 390T261 384T236 373V0H39Z" />
<glyph unicode="i" horiz-adv-x="274" d="M137 584Q78 584 50 608T22 681Q22 731 50 755T137 779Q197 779 224 755T252 681Q252 633 225 609T137 584ZM39 0V547H235V0H39Z" />
<glyph unicode="j" horiz-adv-x="284" d="M245 547V31Q245 -87 198 -149T42 -216Q29 -216 13 -215T-20 -212T-52 -207L-36 -43Q-28 -44 -22 -44T-9 -45Q22 -42 35 -23T49 42V547H245ZM147 584Q88 584 60 608T32 681Q32 731 60 755T147 779Q207 779 234 755T262
681Q262 633 235 609T147 584Z" />
<glyph unicode="k" horiz-adv-x="574" d="M510 -10Q492 -10 474 -7T436 6T393 33T340 78L226 180V0H39V740H226V420L378 279Q423 238 451 217T499 188T537 181Q542 181 546 181T554 181L555 -6Q546 -8 536 -9T510 -10ZM347 234L190 306Q227 341 255 372T303 433T336
493T355 556L555 546Q545 505 524 463T473 380T411 302T347 234Z" />
<glyph unicode="l" horiz-adv-x="336" d="M235 740V210Q235 189 240 178T254 162T276 158Q285 158 295 160T320 166L337 17Q314 6 283 -2T215 -10Q156 -10 117 9T59 73T39 191V740H235Z" />
<glyph unicode="m" horiz-adv-x="881" d="M39 0V547H216V500Q247 521 275 533T330 551T384 557Q416 557 439 550T480 530T509 495Q546 518 575 531T633 551T692 557Q721 557 745 550T787 529T817 496T836 451T843 397V0H646V331Q646 345 643 356T635 375T621 387T599
391Q590 391 580 389T559 383T538 373Q539 367 539 361T539 347V0H343V331Q343 345 340 356T331 375T316 387T295 391Q286 391 276 389T256 383T236 373V0H39Z" />
<glyph unicode="n" horiz-adv-x="594" d="M39 0V547H216V500Q250 521 278 533T335 551T393 557Q448 557 484 537T538 481T556 397V0H359V331Q359 365 345 379T308 393Q297 393 285 391T261 384T236 373V0H39Z" />
<glyph unicode="o" horiz-adv-x="595" d="M22 275Q22 339 35 391T79 480T163 537T298 557Q378 557 431 537T515 480T560 391T573 275Q573 210 559 157T513 67T428 10T298 -10Q220 -10 167 10T82 67T36 157T22 275ZM224 275Q224 222 231 192T254 150T298 138Q324
138 340 150T363 192T371 275Q371 327 364 356T342 398T298 410Q270 410 254 398T231 357T224 275Z" />
<glyph unicode="p" horiz-adv-x="604" d="M39 -210V548H216L223 505Q267 532 308 544T394 557Q485 557 533 487T582 283Q582 185 553 120T464 23T312 -10Q295 -10 276 -9T236 -4V-210H39ZM299 132Q326 132 343 144T369 185T378 263Q378 314 372 342T351 383T315
396Q303 396 291 394T265 388T236 376V143Q252 138 268 135T299 132Z" />
<glyph unicode="q" horiz-adv-x="604" d="M565 530V-210H369V36Q332 13 293 2T214 -10Q119 -10 71 60T22 275Q22 372 53 434T149 527T315 557Q371 557 435 550T565 530ZM369 407Q353 412 337 414T306 416Q279 416 261 404T235 361T226 275Q226 230 233 203T254
164T289 152Q302 152 314 154T340 162T369 174V407Z" />
<glyph unicode="r" horiz-adv-x="433" d="M216 547V485Q244 511 266 527T310 550T361 557Q376 557 393 555T429 546L398 368Q380 373 363 375T330 377Q308 377 285 372T235 349V0H39V547H216Z" />
<glyph unicode="s" horiz-adv-x="490" d="M19 20L39 160Q58 154 82 149T133 140T184 134T229 132Q260 132 274 139T288 161Q288 172 278 178T249 188T206 197T154 208Q122 215 98 228T56 261T32 307T24 366Q24 464 83 510T261 557Q298 557 330 553T392 543T448
528L425 386Q401 394 377 399T325 408T261 411Q235 411 221 405T206 384Q206 375 212 370T231 362T263 355T309 347Q345 341 375 330T428 300T463 252T476 180Q476 136 463 104T427 50T372 15T303 -4T225 -10Q189 -10 154 -7T86 3T19 20Z" />
<glyph unicode="t" horiz-adv-x="423" d="M251 -10Q195 -10 156 11T97 79T77 200V406H5V536L77 547L100 659H273V547H393V406H273V216Q273 181 285 169T321 156Q335 156 352 159T390 166L416 17Q373 2 332 -4T251 -10Z" />
<glyph unicode="u" horiz-adv-x="610" d="M205 -10Q156 -10 118 8T59 65T38 162V547H235V210Q235 180 249 167T286 153Q298 153 308 155T330 161T356 172V547H552V190Q552 178 554 171T562 160T574 157Q584 157 593 161L608 20Q595 12 577 5T536 -6T489 -10Q449
-10 423 4T379 44Q352 28 324 16T267 -3T205 -10Z" />
<glyph unicode="v" horiz-adv-x="615" d="M194 0L5 547L214 548L313 164L403 548L610 547L419 0H194Z" />
<glyph unicode="w" horiz-adv-x="830" d="M123 0L8 547H205L248 171L311 547H520L582 171L629 547H822L700 0H473L412 331L356 0H123Z" />
<glyph unicode="x" horiz-adv-x="608" d="M3 0L173 279L16 547L243 548L309 374L377 548L597 547L439 279L606 0L378 -1L308 174L240 -1L3 0Z" />
<glyph unicode="y" horiz-adv-x="620" d="M159 -210L226 0H204L5 547L221 548L315 156L409 548L616 547L368 -211L159 -210Z" />
<glyph unicode="z" horiz-adv-x="540" d="M24 0V134L264 397H37V547H502V415L267 151H516V0H24Z" />
<glyph unicode="{" horiz-adv-x="338" d="M52 -39Q52 5 61 36T80 93T89 142Q89 159 86 171T74 189T50 196H32V333H50Q65 333 73 339T85 358T89 387Q89 411 80 436T62 493T52 568Q52 629 74 667T135 722T218 740H315V606H269Q252 606 241 599T224 578T219 545Q219
521 227 497T242 447T250 393Q250 370 244 347T222 303T176 265Q206 248 222 227T244 183T250 136Q250 108 243 83T227 33T219 -16Q219 -34 224 -48T240 -69T269 -77H315V-211H218Q173 -211 135 -194T75 -138T52 -39Z" />
<glyph unicode="|" horiz-adv-x="238" d="M198 791V-210H39V791H198Z" />
<glyph unicode="}" horiz-adv-x="338" d="M23 -77H60Q78 -77 89 -70T105 -48T110 -16Q110 9 103 33T87 82T79 136Q79 160 85 183T107 227T153 265Q123 282 107 303T85 347T79 393Q79 421 87 446T102 496T110 545Q110 564 105 577T89 598T60 606H23V740H120Q165
740 203 723T263 667T286 568Q286 525 277 493T259 436T249 387Q249 371 252 359T264 340T288 333H305V196H288Q273 196 265 190T253 171T249 142Q249 119 258 94T277 37T286 -39Q286 -100 264 -138T203 -193T120 -211H23V-77Z" />
<glyph unicode="~" horiz-adv-x="548" d="M492 233Q473 215 448 205T395 195Q358 195 328 207T271 234T216 261T155 273Q120 273 96 261T57 238V393Q62 398 75 406T109 422T159 429Q191 429 218 418T271 390T327 363T395 351Q423 351 447 359T492 388V233Z" />
<glyph unicode="&#xa0;" horiz-adv-x="264" />
<glyph unicode="&#xa1;" horiz-adv-x="266" d="M218 287L232 -193H36L51 287H218ZM239 454Q239 402 215 377T133 351Q76 351 52 376T27 454Q27 505 51 530T133 556Q190 556 214 531T239 454Z" />
<glyph unicode="&#xa2;" horiz-adv-x="657" d="M352 -11Q223 -11 157 59T91 264Q91 324 105 377T152 471T236 535T365 558Q404 558 437 555T499 547T554 535L527 372Q505 378 484 381T440 385T395 387Q361 387 337 375T302 337T290 269Q290 212 319 185T401 158Q422
158 443 159T487 164T535 173L564 18Q534 9 499 3T427 -7T352 -11ZM266 -106V16L421 9V-106H266ZM266 528V652H421V540L266 528Z" />
<glyph unicode="&#xa3;" horiz-adv-x="657" d="M80 0V122Q116 147 138 169T171 215T182 263Q182 297 171 326T147 383T123 444T112 517Q112 606 180 658T381 710Q411 710 437 708T488 701T536 689T581 673L555 522Q539 526 523 530T488 536T451 539T412 541Q387
541 365 533T329 508T315 459Q315 437 323 415T342 370T361 322T369 273Q369 248 360 227T336 188T303 154H585V0H80ZM74 301V396H514V301H74Z" />
<glyph unicode="&#xa4;" horiz-adv-x="490" d="M38 407L139 507L201 444Q211 447 222 449T246 451Q258 451 268 450T289 444L352 507L452 407L399 354Q404 341 406 329T409 302Q409 288 407 274T398 247L452 194L352 94L287 158Q278 155 268 154T246 152Q234 152
224 153T203 158L139 94L38 194L92 248Q87 260 85 273T82 302Q82 315 84 328T91 353L38 407ZM245 259Q264 259 276 270T288 301Q288 319 277 331T245 344Q226 344 215 332T203 301Q203 282 214 271T245 259Z" />
<glyph unicode="&#xa5;" horiz-adv-x="657" d="M82 304V389H226L31 699L249 701L331 503L411 701L627 699L432 389H580V304H432V263H580V178H432V0H226V178H82V263H226V304H82Z" />
<glyph unicode="&#xa6;" horiz-adv-x="237" d="M198 391H39V791H198V391ZM39 191H198V-210H39V191Z" />
<glyph unicode="&#xa7;" horiz-adv-x="595" d="M239 -221Q203 -221 170 -217T107 -203T47 -181L80 -18Q93 -25 104 -30T127 -37T150 -39Q169 -39 182 -33T203 -16T211 11Q211 30 203 50T180 102T141 178Q106 246 87 295T59 386T50 467Q48 555 85 618T194 716T369
750Q408 750 447 744T520 725L490 557Q477 562 467 564T446 566Q419 566 405 552T391 514Q391 503 394 490T406 457T427 413T458 353Q482 311 499 274T527 203T542 138T547 75Q547 -13 509 -80T402 -184T239 -221ZM242 -114Q285 -114 315 -101T366 -64T396 -10T406
53Q406 75 402 97T389 148T362 214T320 301Q291 358 275 396T253 464T246 521Q246 553 260 578T298 620T347 638L375 604Q359 614 346 618T313 622Q280 622 254 605T213 558T198 485Q198 460 202 435T215 381T240 319T278 242Q299 200 314 167T338 106T352 57T357
13Q357 -28 338 -59T285 -107T209 -124L172 -98Q188 -106 206 -110T242 -114Z" />
<glyph unicode="&#xa8;" horiz-adv-x="464" d="M334 598Q294 598 274 617T254 683Q254 730 274 749T334 769Q374 769 394 750T414 683Q414 637 394 618T334 598ZM130 598Q91 598 71 617T51 683Q51 730 71 749T130 769Q170 769 190 750T210 683Q210 637 190 618T130 598Z" />
<glyph unicode="&#xa9;" horiz-adv-x="775" d="M388 52Q457 52 509 72T597 132T649 226T667 350Q667 420 650 474T597 567T510 626T388 647Q319 647 267 627T180 568T126 475T108 350Q108 281 126 226T179 132T267 73T388 52ZM388 710Q471 710 535 684T644 611T712
497T735 350Q735 270 712 204T645 90T536 16T388 -10Q305 -10 240 16T131 90T63 204T40 350Q40 431 63 497T131 610T240 684T388 710ZM223 348Q223 428 245 474T308 541T398 562Q432 562 464 557T522 538L502 443Q485 448 461 452T417 457Q392 457 376 447T352
413T344 346Q344 292 360 270T412 248Q437 248 461 253T506 264L523 170Q495 157 461 151T392 144Q342 144 304 165T244 231T223 348Z" />
<glyph unicode="&#xaa;" horiz-adv-x="415" d="M42 214V313H388V214H42ZM27 457Q27 495 46 515T108 545T221 557V566Q221 577 208 583T165 590Q139 590 114 587T64 576L43 668Q73 677 111 682T183 687Q249 687 288 673T344 631T361 565V484Q361 473 364 469T372
464Q375 464 379 465T385 466L396 383Q381 375 362 369T317 363Q289 363 271 370T240 393Q214 378 191 371T132 363Q112 363 93 368T59 386T36 415T27 457ZM157 464Q157 450 164 444T183 438Q194 438 204 442T222 452V498Q203 497 191 495T171 488T160 477T157
464Z" />
<glyph unicode="&#xab;" horiz-adv-x="582" d="M22 156V389L275 546L277 339L135 271L277 202L275 -4L22 156ZM305 156V389L558 546L560 339L418 271L560 202L558 -4L305 156Z" />
<glyph unicode="&#xac;" horiz-adv-x="548" d="M49 299V454H499V169H343V299H49Z" />
<glyph unicode="&#xad;" horiz-adv-x="369" d="M39 237V401H330V237H39Z" />
<glyph unicode="&#xae;" horiz-adv-x="740" d="M365 207Q286 207 226 232T124 303T61 411T40 550Q40 626 61 689T124 797T225 868T365 893Q447 893 508 868T613 798T678 689T700 550Q700 474 678 410T613 302T508 232T365 207ZM365 267Q432 267 482 287T566 344T616
433T633 550Q633 615 617 667T567 756T484 812T365 832Q300 832 252 813T172 756T123 667T106 550Q106 485 122 433T171 344T252 287T365 267ZM526 363Q504 363 483 368T441 386T400 422T361 483Q358 483 356 483T348 483Q344 483 340 483T331 483V367H221V742Q254
744 280 745T331 748T373 749Q430 749 465 736T518 697T535 628Q535 583 517 555T465 517Q475 505 486 495T509 478T535 470Q537 470 538 470T540 470V363Q537 363 534 363T526 363ZM362 553Q388 553 400 559T417 578T422 612Q422 629 419 639T405 654T375 660Q367
660 361 660T349 660T331 658V554Q343 554 349 554T362 553Z" />
<glyph unicode="&#xaf;" horiz-adv-x="464" d="M75 614V751H389V614H75Z" />
<glyph unicode="&#xb0;" horiz-adv-x="370" d="M185 372Q131 372 97 395T45 458T28 542Q28 574 36 604T63 659T112 698T185 713Q228 713 258 698T307 659T334 605T343 542Q343 497 326 458T275 396T185 372ZM185 490Q203 490 213 504T224 541Q224 563 214 577T185
591Q166 591 156 577T146 541Q146 518 156 504T185 490Z" />
<glyph unicode="&#xb1;" horiz-adv-x="551" d="M49 10V166H190V272H49V428H190V545H360V428H502V272H360V166H502V10H49Z" />
<glyph unicode="&#xb2;" horiz-adv-x="402" d="M37 370L36 453Q78 479 108 501T159 544T189 581T199 613Q199 632 187 645T152 658Q132 658 114 653T67 634L29 734Q50 747 76 755T130 769T185 774Q233 774 268 759T322 714T342 641Q342 619 337 599T319 559T284
515T227 462H371V370H37Z" />
<glyph unicode="&#xb3;" horiz-adv-x="411" d="M23 393L56 480Q70 474 85 470T120 464T171 462Q210 462 228 471T246 498Q246 508 241 514T222 524T181 528H107V612H192Q216 612 228 619T240 640Q240 650 229 656T200 667T158 671Q127 671 106 669T73 663T57 657L28
747Q55 760 98 767T194 775Q284 775 327 748T371 673Q371 642 354 619T309 583Q345 570 363 546T382 488Q382 447 358 419T290 378T187 364Q143 364 104 370T23 393Z" />
<glyph unicode="&#xb4;" horiz-adv-x="464" d="M96 595L176 789H369L244 595H96Z" />
<glyph unicode="&#xb5;" horiz-adv-x="611" d="M39 -210V547H236V207Q236 177 250 164T287 151Q299 151 309 152T331 158T357 169V547H553V184Q553 172 556 165T564 154T575 151Q585 151 594 155L609 20Q596 12 578 5T537 -6T490 -10Q447 -10 425 2T386 38Q369
24 352 14T315 -3T273 -9Q260 -9 250 -6T231 2V-210H39Z" />
<glyph unicode="&#xb6;" horiz-adv-x="703" d="M492 -210V740H644V-210H492ZM277 338L258 226Q148 243 97 309T45 482Q45 539 60 586T110 668T203 721T347 740H450V-210H298V583Q270 583 251 570T223 531T214 467Q214 412 232 379T277 338Z" />
<glyph unicode="&#xb7;" horiz-adv-x="258" d="M22 318Q22 370 47 395T129 421Q186 421 210 396T235 318Q235 266 211 241T129 216Q72 216 47 241T22 318Z" />
<glyph unicode="&#xb8;" horiz-adv-x="464" d="M143 -92Q154 -95 163 -96T180 -98Q202 -98 214 -88T227 -58Q227 -49 224 -38T214 -14T198 7H337Q346 -5 353 -23T365 -61T369 -98Q369 -131 356 -159T311 -203T227 -220Q207 -220 186 -217T140 -208L143 -92Z" />
<glyph unicode="&#xb9;" horiz-adv-x="379" d="M44 370V464H137V631L51 604L22 709L209 767H279V464H362V370H44Z" />
<glyph unicode="&#xba;" horiz-adv-x="415" d="M35 214V313H382V214H35ZM25 527Q25 575 41 611T97 667T207 687Q276 687 315 668T371 612T387 527Q387 477 370 440T314 383T207 362Q139 362 99 382T42 440T25 527ZM168 526Q168 497 171 481T183 459T206 452Q220
452 228 458T240 481T244 526Q244 555 241 570T229 592T206 599Q191 599 183 593T172 571T168 526Z" />
<glyph unicode="&#xbb;" horiz-adv-x="582" d="M277 385V160L24 -4L22 205L164 270L22 339L24 546L277 385ZM560 385V160L307 -4L305 205L447 270L305 339L307 546L560 385Z" />
<glyph unicode="&#xbc;" horiz-adv-x="940" d="M44 561V655H137V822L51 795L22 900L209 958H279V655H362V561H44ZM367 -5L243 -4L620 719L744 718L367 -5ZM515 48L514 130L718 397L860 396V134H909V48H860V0H710V48H515ZM602 135H713V279L602 135Z" />
<glyph unicode="&#xbd;" horiz-adv-x="989" d="M44 561V655H137V822L51 795L22 900L209 958H279V655H362V561H44ZM367 -5L243 -4L620 719L744 718L367 -5ZM624 0L623 83Q665 109 695 131T746 174T776 211T786 243Q786 262 774 275T739 288Q719 288 701 283T654
264L616 364Q637 377 663 385T717 399T772 404Q820 404 855 389T909 344T929 271Q929 249 924 229T906 189T871 145T814 92H958V0H624Z" />
<glyph unicode="&#xbe;" horiz-adv-x="944" d="M23 584L56 671Q70 665 85 661T120 655T171 653Q210 653 228 662T246 689Q246 699 241 705T222 715T181 719H107V803H192Q216 803 228 810T240 831Q240 841 229 847T200 858T158 862Q127 862 106 860T73 854T57 848L28
938Q55 951 98 958T194 966Q284 966 327 939T371 864Q371 833 354 810T309 774Q345 761 363 737T382 679Q382 638 358 610T290 569T187 555Q143 555 104 561T23 584ZM371 -5L247 -4L624 719L748 718L371 -5ZM519 48L518 130L722 397L864 396V134H913V48H864V0H714V48H519ZM606
135H717V279L606 135Z" />
<glyph unicode="&#xbf;" horiz-adv-x="512" d="M369 282L374 131Q328 117 300 104T258 77T240 52T235 25Q235 12 240 2T256 -16T280 -26T313 -30Q344 -30 378 -21T451 11L508 -144Q480 -163 442 -177T362 -200T281 -208Q228 -208 183 -196T103 -158T50 -93T31
1Q31 51 47 92T101 165T201 219V282H369ZM391 448Q391 396 367 371T285 345Q229 345 204 370T179 448Q179 500 204 525T285 550Q343 550 367 525T391 448Z" />
<glyph unicode="&#xc0;" horiz-adv-x="691" d="M5 0L220 701H468L686 0H463L434 109H246L218 0H5ZM282 275H398L340 550L282 275ZM270 745L146 935H345L425 745H270Z" />
<glyph unicode="&#xc1;" horiz-adv-x="691" d="M5 0L220 701H468L686 0H463L434 109H246L218 0H5ZM282 275H398L340 550L282 275ZM271 745L350 935H542L417 745H271Z" />
<glyph unicode="&#xc2;" horiz-adv-x="691" d="M5 0L220 701H468L686 0H463L434 109H246L218 0H5ZM282 275H398L340 550L282 275ZM141 745L233 935H460L549 745H393L345 855L296 745H141Z" />
<glyph unicode="&#xc3;" horiz-adv-x="691" d="M5 0L220 701H468L686 0H463L434 109H246L218 0H5ZM282 275H398L340 550L282 275ZM153 750Q151 763 151 775T150 798Q150 860 178 892T266 925Q287 925 307 920T345 907T379 894T407 888Q415 888 421 892T430 902T433
918Q433 921 433 924T433 930H536Q538 918 538 906T539 882Q539 818 510 786T422 754Q401 754 381 760T344 773T310 786T281 792Q270 792 263 784T256 762Q256 760 256 757T257 750H153Z" />
<glyph unicode="&#xc4;" horiz-adv-x="691" d="M5 0L220 701H468L686 0H463L434 109H246L218 0H5ZM282 275H398L340 550L282 275ZM447 737Q407 737 387 756T367 822Q367 869 387 888T447 908Q487 908 507 889T527 822Q527 776 507 757T447 737ZM243 737Q204 737
184 756T164 822Q164 869 184 888T243 908Q283 908 303 889T323 822Q323 776 303 757T243 737Z" />
<glyph unicode="&#xc5;" horiz-adv-x="691" d="M5 0L220 701H468L686 0H463L434 109H246L218 0H5ZM282 275H398L340 550L282 275ZM345 739Q284 739 252 766T220 842Q220 892 252 918T345 945Q406 945 438 919T470 842Q470 793 438 766T345 739ZM345 815Q373 815
373 842Q373 869 345 869Q317 869 317 842Q317 815 345 815Z" />
<glyph unicode="&#xc6;" horiz-adv-x="1024" d="M2 0L359 700H981V530H658V425H955V269H658V167H999V0H469V148H305L228 0H2ZM374 308H468V558L374 308Z" />
<glyph unicode="&#xc7;" horiz-adv-x="636" d="M25 340Q25 472 63 553T180 672T377 710Q414 710 444 708T501 702T552 692T602 678L562 518Q531 525 503 529T449 536T396 538Q351 538 320 528T269 496T241 435T232 341Q232 291 241 256T269 200T319 170T394 160Q437
160 485 166T576 184L611 26Q586 18 560 12T504 0T439 -7T360 -10Q276 -10 213 9T108 69T46 178T25 340ZM227 -92Q238 -95 247 -96T264 -98Q286 -98 298 -88T311 -58Q311 -49 308 -38T298 -14T282 7H421Q430 -5 437 -23T449 -61T453 -98Q453 -131 440 -159T395
-203T311 -220Q291 -220 270 -217T224 -208L227 -92Z" />
<glyph unicode="&#xc8;" horiz-adv-x="616" d="M49 0V700H574V530H250V430H548V275H250V167H592V0H49ZM248 745L124 935H323L403 745H248Z" />
<glyph unicode="&#xc9;" horiz-adv-x="616" d="M49 0V700H574V530H250V430H548V275H250V167H592V0H49ZM249 745L328 935H520L395 745H249Z" />
<glyph unicode="&#xca;" horiz-adv-x="616" d="M49 0V700H574V530H250V430H548V275H250V167H592V0H49ZM119 745L211 935H438L527 745H371L323 855L274 745H119Z" />
<glyph unicode="&#xcb;" horiz-adv-x="616" d="M49 0V700H574V530H250V430H548V275H250V167H592V0H49ZM426 737Q386 737 366 756T346 822Q346 869 366 888T426 908Q466 908 486 889T506 822Q506 776 486 757T426 737ZM222 737Q183 737 163 756T143 822Q143 869
163 888T222 908Q262 908 282 889T302 822Q302 776 282 757T222 737Z" />
<glyph unicode="&#xcc;" horiz-adv-x="301" d="M49 0V700H252V0H49ZM75 745L-49 935H150L230 745H75Z" />
<glyph unicode="&#xcd;" horiz-adv-x="301" d="M49 0V700H252V0H49ZM76 745L155 935H347L222 745H76Z" />
<glyph unicode="&#xce;" horiz-adv-x="301" d="M49 0V700H252V0H49ZM-54 745L38 935H265L354 745H198L150 855L101 745H-54Z" />
<glyph unicode="&#xcf;" horiz-adv-x="301" d="M49 0V700H252V0H49ZM253 737Q213 737 193 756T173 822Q173 869 193 888T253 908Q293 908 313 889T333 822Q333 776 313 757T253 737ZM49 737Q10 737 -10 756T-30 822Q-30 869 -10 888T49 908Q89 908 109 889T129
822Q129 776 109 757T49 737Z" />
<glyph unicode="&#xd0;" horiz-adv-x="708" d="M7 277V428H353V277H7ZM339 -10Q281 -10 232 -9T139 -5T52 -1V699Q101 703 145 705T235 709T330 710Q457 710 535 673T648 556T684 350Q684 226 646 147T532 29T339 -10ZM357 149Q395 149 421 168T461 232T475 349Q475
426 462 469T421 531T353 550Q334 550 316 550T283 549T255 547V152Q268 152 280 152T304 151T328 150T357 149Z" />
<glyph unicode="&#xd1;" horiz-adv-x="692" d="M49 0V701H241L464 311V700H643V-1H451L229 377V0H49ZM154 750Q152 763 152 775T151 798Q151 860 179 892T267 925Q288 925 308 920T346 907T380 894T408 888Q416 888 422 892T431 902T434 918Q434 921 434 924T434
930H537Q539 918 539 906T540 882Q540 818 511 786T423 754Q402 754 382 760T345 773T311 786T282 792Q271 792 264 784T257 762Q257 760 257 757T258 750H154Z" />
<glyph unicode="&#xd2;" horiz-adv-x="706" d="M354 149Q378 149 397 155T431 175T455 213T470 270T475 351Q475 397 470 431T456 488T432 525T398 545T354 551Q330 551 311 545T278 526T253 489T237 432T232 350Q232 302 237 268T253 211T277 175T311 155T354
149ZM354 -10Q290 -10 238 2T146 40T79 109T39 211T25 350Q25 428 38 487T77 589T142 658T234 697T354 710Q420 710 473 698T565 659T630 590T669 489T682 353Q682 273 669 213T628 111T562 42T471 3T354 -10ZM278 745L154 935H353L433 745H278Z" />
<glyph unicode="&#xd3;" horiz-adv-x="706" d="M354 149Q378 149 397 155T431 175T455 213T470 270T475 351Q475 397 470 431T456 488T432 525T398 545T354 551Q330 551 311 545T278 526T253 489T237 432T232 350Q232 302 237 268T253 211T277 175T311 155T354
149ZM354 -10Q290 -10 238 2T146 40T79 109T39 211T25 350Q25 428 38 487T77 589T142 658T234 697T354 710Q420 710 473 698T565 659T630 590T669 489T682 353Q682 273 669 213T628 111T562 42T471 3T354 -10ZM279 745L358 935H550L425 745H279Z" />
<glyph unicode="&#xd4;" horiz-adv-x="706" d="M354 149Q378 149 397 155T431 175T455 213T470 270T475 351Q475 397 470 431T456 488T432 525T398 545T354 551Q330 551 311 545T278 526T253 489T237 432T232 350Q232 302 237 268T253 211T277 175T311 155T354
149ZM354 -10Q290 -10 238 2T146 40T79 109T39 211T25 350Q25 428 38 487T77 589T142 658T234 697T354 710Q420 710 473 698T565 659T630 590T669 489T682 353Q682 273 669 213T628 111T562 42T471 3T354 -10ZM149 745L241 935H468L557 745H401L353 855L304 745H149Z"
/>
<glyph unicode="&#xd5;" horiz-adv-x="706" d="M354 149Q378 149 397 155T431 175T455 213T470 270T475 351Q475 397 470 431T456 488T432 525T398 545T354 551Q330 551 311 545T278 526T253 489T237 432T232 350Q232 302 237 268T253 211T277 175T311 155T354
149ZM354 -10Q290 -10 238 2T146 40T79 109T39 211T25 350Q25 428 38 487T77 589T142 658T234 697T354 710Q420 710 473 698T565 659T630 590T669 489T682 353Q682 273 669 213T628 111T562 42T471 3T354 -10ZM161 750Q159 763 159 775T158 798Q158 860 186 892T274
925Q295 925 315 920T353 907T387 894T415 888Q423 888 429 892T438 902T441 918Q441 921 441 924T441 930H544Q546 918 546 906T547 882Q547 818 518 786T430 754Q409 754 389 760T352 773T318 786T289 792Q278 792 271 784T264 762Q264 760 264 757T265 750H161Z"
/>
<glyph unicode="&#xd6;" horiz-adv-x="706" d="M354 149Q378 149 397 155T431 175T455 213T470 270T475 351Q475 397 470 431T456 488T432 525T398 545T354 551Q330 551 311 545T278 526T253 489T237 432T232 350Q232 302 237 268T253 211T277 175T311 155T354
149ZM354 -10Q290 -10 238 2T146 40T79 109T39 211T25 350Q25 428 38 487T77 589T142 658T234 697T354 710Q420 710 473 698T565 659T630 590T669 489T682 353Q682 273 669 213T628 111T562 42T471 3T354 -10ZM455 737Q415 737 395 756T375 822Q375 869 395 888T455
908Q495 908 515 889T535 822Q535 776 515 757T455 737ZM251 737Q212 737 192 756T172 822Q172 869 192 888T251 908Q291 908 311 889T331 822Q331 776 311 757T251 737Z" />
<glyph unicode="&#xd7;" horiz-adv-x="512" d="M144 112L39 226L140 326L39 425L144 540L256 432L368 540L473 425L372 326L473 227L368 112L256 219L144 112Z" />
<glyph unicode="&#xd8;" horiz-adv-x="706" d="M155 -13H27L150 156L153 157L476 618H479L552 719H680L560 556H556L240 100H237L155 -13ZM354 141Q379 141 399 147T435 167T461 206T477 265T483 351Q483 400 478 435T462 495T436 533T400 553T354 559Q329 559
309 553T273 533T247 495T231 436T225 350Q225 301 230 265T246 206T272 168T308 147T354 141ZM353 -10Q287 -10 234 2T142 41T77 110T38 211T25 350Q25 428 37 487T74 589T139 658T231 697T354 710Q423 710 476 698T568 659T632 591T670 490T682 353Q682 273 669
213T630 110T565 42T473 3T353 -10Z" />
<glyph unicode="&#xd9;" horiz-adv-x="699" d="M43 233V700H244V232Q244 215 248 202T262 180T285 165T314 156T350 153Q370 153 386 156T415 165T437 180T450 203T454 232V700H656V233Q656 182 644 142T607 73T545 26T459 -1T349 -10Q289 -10 240 -1T155 26T93
73T56 142T43 233ZM275 745L151 935H350L430 745H275Z" />
<glyph unicode="&#xda;" horiz-adv-x="699" d="M43 233V700H244V232Q244 215 248 202T262 180T285 165T314 156T350 153Q370 153 386 156T415 165T437 180T450 203T454 232V700H656V233Q656 182 644 142T607 73T545 26T459 -1T349 -10Q289 -10 240 -1T155 26T93
73T56 142T43 233ZM276 745L355 935H547L422 745H276Z" />
<glyph unicode="&#xdb;" horiz-adv-x="699" d="M43 233V700H244V232Q244 215 248 202T262 180T285 165T314 156T350 153Q370 153 386 156T415 165T437 180T450 203T454 232V700H656V233Q656 182 644 142T607 73T545 26T459 -1T349 -10Q289 -10 240 -1T155 26T93
73T56 142T43 233ZM146 745L238 935H465L554 745H398L350 855L301 745H146Z" />
<glyph unicode="&#xdc;" horiz-adv-x="699" d="M43 233V700H244V232Q244 215 248 202T262 180T285 165T314 156T350 153Q370 153 386 156T415 165T437 180T450 203T454 232V700H656V233Q656 182 644 142T607 73T545 26T459 -1T349 -10Q289 -10 240 -1T155 26T93
73T56 142T43 233ZM452 737Q412 737 392 756T372 822Q372 869 392 888T452 908Q492 908 512 889T532 822Q532 776 512 757T452 737ZM248 737Q209 737 189 756T169 822Q169 869 189 888T248 908Q288 908 308 889T328 822Q328 776 308 757T248 737Z" />
<glyph unicode="&#xdd;" horiz-adv-x="676" d="M237 0V229L-2 699L227 701L339 353L449 701L678 699L440 229V0H237ZM264 745L343 935H535L410 745H264Z" />
<glyph unicode="&#xde;" horiz-adv-x="699" d="M49 0V700H253V639Q272 640 289 640T319 640T343 640Q441 640 505 626T606 579T658 497T674 377Q674 306 660 255T613 170T527 120T395 104Q372 104 358 104T335 104T315 104T291 106T252 108V0H49ZM329 269Q376
269 404 277T445 300T463 336T468 383Q468 409 463 427T446 457T413 475T358 481Q346 481 336 481T315 481T289 479T253 477V272Q267 271 277 270T296 269T312 269T329 269Z" />
<glyph unicode="&#xdf;" horiz-adv-x="756" d="M81 0V365H11V496L81 507V523Q81 601 117 651T226 725T406 750Q551 750 626 705T702 566Q702 503 668 468T562 416Q531 407 519 399T506 379Q506 370 513 364T540 352T597 339Q652 330 686 310T737 256T754 171Q754
131 742 101T706 49T653 15T586 -4T511 -10Q478 -10 443 -7T374 2T308 19L327 156Q354 149 387 143T454 134T515 130Q534 130 546 133T566 143T573 159Q573 168 568 173T545 184T492 196Q431 207 395 227T342 282T326 370Q326 407 339 436T379 487T448 517Q484
530 498 539T512 563Q512 576 504 584T474 596T414 600Q371 600 340 588T293 551T277 488V0H81Z" />
<glyph unicode="&#xe0;" horiz-adv-x="579" d="M17 157Q17 207 35 239T91 290T187 320T328 336V353Q328 376 305 386T239 396Q218 396 191 394T134 387T74 373L44 525Q90 539 147 548T254 557Q350 557 408 534T494 466T521 355V194Q521 172 527 165T541 157Q546
157 551 158T562 160L577 21Q555 7 527 -1T464 -10Q420 -10 391 4T346 47Q320 29 295 16T240 -3T174 -10Q140 -10 111 1T61 35T29 87T17 157ZM215 169Q215 141 226 128T255 115Q265 115 278 118T306 128T328 144V234Q297 233 276 229T241 218T221 199T215 169ZM205
595L79 789H279L360 595H205Z" />
<glyph unicode="&#xe1;" horiz-adv-x="579" d="M17 157Q17 207 35 239T91 290T187 320T328 336V353Q328 376 305 386T239 396Q218 396 191 394T134 387T74 373L44 525Q90 539 147 548T254 557Q350 557 408 534T494 466T521 355V194Q521 172 527 165T541 157Q546
157 551 158T562 160L577 21Q555 7 527 -1T464 -10Q420 -10 391 4T346 47Q320 29 295 16T240 -3T174 -10Q140 -10 111 1T61 35T29 87T17 157ZM215 169Q215 141 226 128T255 115Q265 115 278 118T306 128T328 144V234Q297 233 276 229T241 218T221 199T215 169ZM206
595L286 789H479L354 595H206Z" />
<glyph unicode="&#xe2;" horiz-adv-x="579" d="M17 157Q17 207 35 239T91 290T187 320T328 336V353Q328 376 305 386T239 396Q218 396 191 394T134 387T74 373L44 525Q90 539 147 548T254 557Q350 557 408 534T494 466T521 355V194Q521 172 527 165T541 157Q546
157 551 158T562 160L577 21Q555 7 527 -1T464 -10Q420 -10 391 4T346 47Q320 29 295 16T240 -3T174 -10Q140 -10 111 1T61 35T29 87T17 157ZM215 169Q215 141 226 128T255 115Q265 115 278 118T306 128T328 144V234Q297 233 276 229T241 218T221 199T215 169ZM80
595L175 789H392L483 595H327L282 699L237 595H80Z" />
<glyph unicode="&#xe3;" horiz-adv-x="579" d="M17 157Q17 207 35 239T91 290T187 320T328 336V353Q328 376 305 386T239 396Q218 396 191 394T134 387T74 373L44 525Q90 539 147 548T254 557Q350 557 408 534T494 466T521 355V194Q521 172 527 165T541 157Q546
157 551 158T562 160L577 21Q555 7 527 -1T464 -10Q420 -10 391 4T346 47Q320 29 295 16T240 -3T174 -10Q140 -10 111 1T61 35T29 87T17 157ZM215 169Q215 141 226 128T255 115Q265 115 278 118T306 128T328 144V234Q297 233 276 229T241 218T221 199T215 169ZM90
597Q88 610 88 622T87 645Q87 710 115 741T204 772Q225 772 246 767T285 755T319 743T346 737Q354 737 360 740T369 750T372 765Q372 768 372 771T371 777H473Q475 764 475 752T476 728Q476 662 448 632T360 601Q341 601 321 606T282 619T245 631T218 637Q205 637
198 629T191 609Q191 607 191 604T192 597H90Z" />
<glyph unicode="&#xe4;" horiz-adv-x="579" d="M17 157Q17 207 35 239T91 290T187 320T328 336V353Q328 376 305 386T239 396Q218 396 191 394T134 387T74 373L44 525Q90 539 147 548T254 557Q350 557 408 534T494 466T521 355V194Q521 172 527 165T541 157Q546
157 551 158T562 160L577 21Q555 7 527 -1T464 -10Q420 -10 391 4T346 47Q320 29 295 16T240 -3T174 -10Q140 -10 111 1T61 35T29 87T17 157ZM215 169Q215 141 226 128T255 115Q265 115 278 118T306 128T328 144V234Q297 233 276 229T241 218T221 199T215 169ZM384
598Q344 598 324 617T304 683Q304 730 324 749T384 769Q424 769 444 750T464 683Q464 637 444 618T384 598ZM180 598Q141 598 121 617T101 683Q101 730 121 749T180 769Q220 769 240 750T260 683Q260 637 240 618T180 598Z" />
<glyph unicode="&#xe5;" horiz-adv-x="579" d="M17 157Q17 207 35 239T91 290T187 320T328 336V353Q328 376 305 386T239 396Q218 396 191 394T134 387T74 373L44 525Q90 539 147 548T254 557Q350 557 408 534T494 466T521 355V194Q521 172 527 165T541 157Q546
157 551 158T562 160L577 21Q555 7 527 -1T464 -10Q420 -10 391 4T346 47Q320 29 295 16T240 -3T174 -10Q140 -10 111 1T61 35T29 87T17 157ZM215 169Q215 141 226 128T255 115Q265 115 278 118T306 128T328 144V234Q297 233 276 229T241 218T221 199T215 169ZM282
590Q221 590 189 617T157 693Q157 743 189 769T282 796Q343 796 375 770T407 693Q407 644 375 617T282 590ZM282 666Q310 666 310 693Q310 721 282 721Q254 721 254 693Q254 666 282 666Z" />
<glyph unicode="&#xe6;" horiz-adv-x="867" d="M182 -10Q103 -10 60 34T17 157Q17 205 33 237T86 291T181 323T323 338V353Q323 373 303 384T239 395Q221 395 194 393T137 387T74 373L44 525Q93 539 150 548T254 557Q287 557 312 554T358 545T398 529T436 504H437Q457
521 479 533T530 551T594 557Q680 557 734 531T815 447T841 298Q841 285 841 268T840 237Q806 235 757 231T648 223T522 216Q522 215 522 213T522 208Q524 185 535 172T570 154T633 148Q670 148 720 155T817 172L841 25Q803 13 766 6T691 -6T609 -10Q556 -10 517
-2T446 23T388 66H387Q362 46 338 32T290 9T238 -5T182 -10ZM254 119Q266 119 280 123T306 134T326 150Q325 162 325 176T324 204Q324 212 324 220T324 235Q294 233 273 229T238 217T220 198T214 168Q214 143 225 131T254 119ZM522 324Q543 324 564 325T605 327T643
329Q639 363 632 383T613 411T583 420Q567 420 554 412T532 383T522 324Z" />
<glyph unicode="&#xe7;" horiz-adv-x="533" d="M22 266Q22 362 55 426T155 524T317 557Q351 557 385 554T451 547T507 535L480 372Q455 377 431 380T384 385T339 387Q301 387 276 375T238 337T225 273Q225 234 239 209T279 171T344 158Q368 158 390 159T437 164T488
173L518 19Q473 6 415 -2T300 -10Q159 -10 91 58T22 266ZM185 -92Q196 -95 205 -96T222 -98Q244 -98 256 -88T269 -58Q269 -49 266 -38T256 -14T240 7H379Q388 -5 395 -23T407 -61T411 -98Q411 -131 398 -159T353 -203T269 -220Q249 -220 228 -217T182 -208L185
-92Z" />
<glyph unicode="&#xe8;" horiz-adv-x="575" d="M303 -10Q236 -10 184 5T96 53T41 138T22 264Q22 343 42 399T101 490T191 541T305 557Q431 557 490 496T550 298Q550 287 550 270T548 237Q521 235 485 232T406 226T317 221T224 216Q224 214 224 212T224 207Q225
186 235 172T271 150T339 142Q366 142 396 145T458 153T524 166L547 26Q509 13 471 6T391 -6T303 -10ZM225 326Q243 326 261 327T296 328T329 330T355 331Q354 366 347 385T327 413T294 421Q281 421 270 417T249 403T234 374T225 326ZM220 595L94 789H294L375 595H220Z"
/>
<glyph unicode="&#xe9;" horiz-adv-x="575" d="M303 -10Q236 -10 184 5T96 53T41 138T22 264Q22 343 42 399T101 490T191 541T305 557Q431 557 490 496T550 298Q550 287 550 270T548 237Q521 235 485 232T406 226T317 221T224 216Q224 214 224 212T224 207Q225
186 235 172T271 150T339 142Q366 142 396 145T458 153T524 166L547 26Q509 13 471 6T391 -6T303 -10ZM225 326Q243 326 261 327T296 328T329 330T355 331Q354 366 347 385T327 413T294 421Q281 421 270 417T249 403T234 374T225 326ZM221 595L301 789H494L369
595H221Z" />
<glyph unicode="&#xea;" horiz-adv-x="575" d="M303 -10Q236 -10 184 5T96 53T41 138T22 264Q22 343 42 399T101 490T191 541T305 557Q431 557 490 496T550 298Q550 287 550 270T548 237Q521 235 485 232T406 226T317 221T224 216Q224 214 224 212T224 207Q225
186 235 172T271 150T339 142Q366 142 396 145T458 153T524 166L547 26Q509 13 471 6T391 -6T303 -10ZM225 326Q243 326 261 327T296 328T329 330T355 331Q354 366 347 385T327 413T294 421Q281 421 270 417T249 403T234 374T225 326ZM95 595L190 789H407L498 595H342L297
699L252 595H95Z" />
<glyph unicode="&#xeb;" horiz-adv-x="575" d="M303 -10Q236 -10 184 5T96 53T41 138T22 264Q22 343 42 399T101 490T191 541T305 557Q431 557 490 496T550 298Q550 287 550 270T548 237Q521 235 485 232T406 226T317 221T224 216Q224 214 224 212T224 207Q225
186 235 172T271 150T339 142Q366 142 396 145T458 153T524 166L547 26Q509 13 471 6T391 -6T303 -10ZM225 326Q243 326 261 327T296 328T329 330T355 331Q354 366 347 385T327 413T294 421Q281 421 270 417T249 403T234 374T225 326ZM399 598Q359 598 339 617T319
683Q319 730 339 749T399 769Q439 769 459 750T479 683Q479 637 459 618T399 598ZM195 598Q156 598 136 617T116 683Q116 730 136 749T195 769Q235 769 255 750T275 683Q275 637 255 618T195 598Z" />
<glyph unicode="&#xec;" horiz-adv-x="276" d="M39 0V547H237V0H39ZM61 595L-65 789H135L216 595H61Z" />
<glyph unicode="&#xed;" horiz-adv-x="276" d="M39 0V547H237V0H39ZM62 595L142 789H335L210 595H62Z" />
<glyph unicode="&#xee;" horiz-adv-x="276" d="M39 0V547H237V0H39ZM-64 595L31 789H248L339 595H183L138 699L93 595H-64Z" />
<glyph unicode="&#xef;" horiz-adv-x="276" d="M39 0V547H237V0H39ZM240 598Q200 598 180 617T160 683Q160 730 180 749T240 769Q280 769 300 750T320 683Q320 637 300 618T240 598ZM36 598Q-3 598 -23 617T-43 683Q-43 730 -23 749T36 769Q76 769 96 750T116
683Q116 637 96 618T36 598Z" />
<glyph unicode="&#xf0;" horiz-adv-x="584" d="M398 384Q377 393 352 397T305 402Q274 402 256 390T230 346T222 255Q222 182 239 153T294 124Q316 124 330 133T353 168T366 242T370 368Q370 447 362 497T332 576T272 615T172 626Q152 626 133 624T92 619T41 610L23
725Q73 737 121 744T216 751Q300 751 365 729T474 659T541 538T564 360Q564 224 535 143T443 26T276 -10Q190 -10 133 19T48 105T20 250Q20 389 78 460T268 532Q294 532 316 530T360 523T404 508L398 384ZM197 544H51L293 678L291 684L409 752L555 751L363 641L358
634L197 544Z" />
<glyph unicode="&#xf1;" horiz-adv-x="594" d="M39 0V547H216V500Q250 521 278 533T335 551T393 557Q448 557 484 537T538 481T556 397V0H359V331Q359 365 345 379T308 393Q297 393 285 391T261 384T236 373V0H39ZM103 597Q101 610 101 622T100 645Q100 710 128
741T217 772Q238 772 259 767T298 755T332 743T359 737Q367 737 373 740T382 750T385 765Q385 768 385 771T384 777H486Q488 764 488 752T489 728Q489 662 461 632T373 601Q354 601 334 606T295 619T258 631T231 637Q218 637 211 629T204 609Q204 607 204 604T205
597H103Z" />
<glyph unicode="&#xf2;" horiz-adv-x="595" d="M22 275Q22 339 35 391T79 480T163 537T298 557Q378 557 431 537T515 480T560 391T573 275Q573 210 559 157T513 67T428 10T298 -10Q220 -10 167 10T82 67T36 157T22 275ZM224 275Q224 222 231 192T254 150T298 138Q324
138 340 150T363 192T371 275Q371 327 364 356T342 398T298 410Q270 410 254 398T231 357T224 275ZM220 595L94 789H294L375 595H220Z" />
<glyph unicode="&#xf3;" horiz-adv-x="595" d="M22 275Q22 339 35 391T79 480T163 537T298 557Q378 557 431 537T515 480T560 391T573 275Q573 210 559 157T513 67T428 10T298 -10Q220 -10 167 10T82 67T36 157T22 275ZM224 275Q224 222 231 192T254 150T298 138Q324
138 340 150T363 192T371 275Q371 327 364 356T342 398T298 410Q270 410 254 398T231 357T224 275ZM221 595L301 789H494L369 595H221Z" />
<glyph unicode="&#xf4;" horiz-adv-x="595" d="M22 275Q22 339 35 391T79 480T163 537T298 557Q378 557 431 537T515 480T560 391T573 275Q573 210 559 157T513 67T428 10T298 -10Q220 -10 167 10T82 67T36 157T22 275ZM224 275Q224 222 231 192T254 150T298 138Q324
138 340 150T363 192T371 275Q371 327 364 356T342 398T298 410Q270 410 254 398T231 357T224 275ZM95 595L190 789H407L498 595H342L297 699L252 595H95Z" />
<glyph unicode="&#xf5;" horiz-adv-x="595" d="M22 275Q22 339 35 391T79 480T163 537T298 557Q378 557 431 537T515 480T560 391T573 275Q573 210 559 157T513 67T428 10T298 -10Q220 -10 167 10T82 67T36 157T22 275ZM224 275Q224 222 231 192T254 150T298 138Q324
138 340 150T363 192T371 275Q371 327 364 356T342 398T298 410Q270 410 254 398T231 357T224 275ZM105 597Q103 610 103 622T102 645Q102 710 130 741T219 772Q240 772 261 767T300 755T334 743T361 737Q369 737 375 740T384 750T387 765Q387 768 387 771T386
777H488Q490 764 490 752T491 728Q491 662 463 632T375 601Q356 601 336 606T297 619T260 631T233 637Q220 637 213 629T206 609Q206 607 206 604T207 597H105Z" />
<glyph unicode="&#xf6;" horiz-adv-x="595" d="M22 275Q22 339 35 391T79 480T163 537T298 557Q378 557 431 537T515 480T560 391T573 275Q573 210 559 157T513 67T428 10T298 -10Q220 -10 167 10T82 67T36 157T22 275ZM224 275Q224 222 231 192T254 150T298 138Q324
138 340 150T363 192T371 275Q371 327 364 356T342 398T298 410Q270 410 254 398T231 357T224 275ZM399 598Q359 598 339 617T319 683Q319 730 339 749T399 769Q439 769 459 750T479 683Q479 637 459 618T399 598ZM195 598Q156 598 136 617T116 683Q116 730 136
749T195 769Q235 769 255 750T275 683Q275 637 255 618T195 598Z" />
<glyph unicode="&#xf7;" horiz-adv-x="548" d="M183 114Q183 153 204 173T274 193Q322 193 344 173T366 114Q366 75 345 56T274 36Q226 36 205 55T183 114ZM183 527Q183 567 204 586T274 606Q323 606 344 587T366 527Q366 488 345 469T274 449Q226 449 205 468T183
527ZM49 243V399H499V243H49Z" />
<glyph unicode="&#xf8;" horiz-adv-x="595" d="M297 -10Q375 -10 427 10T512 67T558 157T572 275Q572 338 559 390T515 479T431 537T297 557Q217 557 164 537T79 480T35 390T22 275Q22 210 36 158T81 68T166 10T297 -10ZM297 129Q267 129 250 141T224 185T216
275Q216 331 223 362T247 406T297 419Q328 419 346 407T371 363T378 275Q378 217 370 186T345 142T297 129ZM20 -5H130L200 83H202L462 420L464 419L574 557H462L395 470L393 471L134 134L133 135L20 -5Z" />
<glyph unicode="&#xf9;" horiz-adv-x="610" d="M205 -10Q156 -10 118 8T59 65T38 162V547H235V210Q235 180 249 167T286 153Q298 153 308 155T330 161T356 172V547H552V190Q552 178 554 171T562 160T574 157Q584 157 593 161L608 20Q595 12 577 5T536 -6T489 -10Q449
-10 423 4T379 44Q352 28 324 16T267 -3T205 -10ZM222 595L96 789H296L377 595H222Z" />
<glyph unicode="&#xfa;" horiz-adv-x="610" d="M205 -10Q156 -10 118 8T59 65T38 162V547H235V210Q235 180 249 167T286 153Q298 153 308 155T330 161T356 172V547H552V190Q552 178 554 171T562 160T574 157Q584 157 593 161L608 20Q595 12 577 5T536 -6T489 -10Q449
-10 423 4T379 44Q352 28 324 16T267 -3T205 -10ZM223 595L303 789H496L371 595H223Z" />
<glyph unicode="&#xfb;" horiz-adv-x="610" d="M205 -10Q156 -10 118 8T59 65T38 162V547H235V210Q235 180 249 167T286 153Q298 153 308 155T330 161T356 172V547H552V190Q552 178 554 171T562 160T574 157Q584 157 593 161L608 20Q595 12 577 5T536 -6T489 -10Q449
-10 423 4T379 44Q352 28 324 16T267 -3T205 -10ZM97 595L192 789H409L500 595H344L299 699L254 595H97Z" />
<glyph unicode="&#xfc;" horiz-adv-x="610" d="M205 -10Q156 -10 118 8T59 65T38 162V547H235V210Q235 180 249 167T286 153Q298 153 308 155T330 161T356 172V547H552V190Q552 178 554 171T562 160T574 157Q584 157 593 161L608 20Q595 12 577 5T536 -6T489 -10Q449
-10 423 4T379 44Q352 28 324 16T267 -3T205 -10ZM401 598Q361 598 341 617T321 683Q321 730 341 749T401 769Q441 769 461 750T481 683Q481 637 461 618T401 598ZM197 598Q158 598 138 617T118 683Q118 730 138 749T197 769Q237 769 257 750T277 683Q277 637 257
618T197 598Z" />
<glyph unicode="&#xfd;" horiz-adv-x="586" d="M159 -210L226 0H204L5 547L221 548L315 156L409 548L616 547L368 -211L159 -210ZM217 595L297 789H490L365 595H217Z" />
<glyph unicode="&#xfe;" horiz-adv-x="603" d="M39 -210V740H236V517Q272 537 311 547T385 557Q482 557 532 489T582 286Q582 180 553 115T461 20T296 -10Q281 -10 266 -9T235 -7V-210H39ZM298 130Q327 130 344 142T369 185T378 270Q378 317 371 344T349 382T310
394Q293 394 275 390T236 378V139Q252 135 268 133T298 130Z" />
<glyph unicode="&#xff;" horiz-adv-x="586" d="M159 -210L226 0H204L5 547L221 548L315 156L409 548L616 547L368 -211L159 -210ZM395 598Q355 598 335 617T315 683Q315 730 335 749T395 769Q435 769 455 750T475 683Q475 637 455 618T395 598ZM191 598Q152 598
132 617T112 683Q112 730 132 749T191 769Q231 769 251 750T271 683Q271 637 251 618T191 598Z" />
<glyph unicode="&#x2013;" horiz-adv-x="443" d="M19 237V384H424V237H19Z" />
<glyph unicode="&#x2014;" horiz-adv-x="788" d="M17 237V384H771V237H17Z" />
<glyph unicode="&#x2018;" horiz-adv-x="242" d="M23 430Q22 439 22 447T22 465Q22 539 36 594T78 700L223 681Q208 628 202 585T195 499Q195 481 196 465T198 430H23Z" />
<glyph unicode="&#x2019;" horiz-adv-x="240" d="M163 430L18 449Q32 502 38 545T45 631Q45 649 45 665T42 700H218Q219 691 219 682T219 665Q219 591 205 536T163 430Z" />
<glyph unicode="&#x201a;" horiz-adv-x="240" d="M160 -220L15 -201Q29 -148 35 -105T42 -19Q42 -1 42 15T39 50H215Q216 41 216 32T216 15Q216 -59 202 -114T160 -220Z" />
<glyph unicode="&#x201c;" horiz-adv-x="461" d="M23 430Q22 439 22 447T22 465Q22 539 36 594T78 700L223 681Q208 628 202 585T195 499Q195 481 196 465T198 430H23ZM243 430Q242 439 242 447T242 465Q242 539 256 594T298 700L443 681Q428 628 422 585T415
499Q415 481 416 465T418 430H243Z" />
<glyph unicode="&#x201d;" horiz-adv-x="460" d="M163 430L18 449Q32 502 38 545T45 631Q45 649 45 665T42 700H218Q219 691 219 682T219 665Q219 591 205 536T163 430ZM383 430L238 449Q252 502 258 545T265 631Q265 649 265 665T262 700H438Q439 691 439 682T439
665Q439 591 425 536T383 430Z" />
<glyph unicode="&#x201e;" horiz-adv-x="460" d="M160 -220L15 -201Q29 -148 35 -105T42 -19Q42 -1 42 15T39 50H215Q216 41 216 32T216 15Q216 -59 202 -114T160 -220ZM379 -220L234 -201Q248 -148 254 -105T261 -19Q261 -1 261 15T258 50H434Q435 41 435 32T435
15Q435 -59 421 -114T379 -220Z" />
<glyph unicode="&#x2022;" horiz-adv-x="415" d="M207 157Q163 157 126 178T68 237T46 318Q46 363 67 400T126 458T207 480Q252 480 288 459T347 400T369 318Q369 274 347 238T289 179T207 157Z" />
<glyph unicode="&#x2039;" horiz-adv-x="299" d="M22 156V389L275 546L277 339L135 271L277 202L275 -4L22 156Z" />
<glyph unicode="&#x203a;" horiz-adv-x="299" d="M277 385V160L24 -4L22 205L164 270L22 339L24 546L277 385Z" />
</font>
</defs>
</svg>
