<?xml version="1.0" standalone="no"?>
<!DOCTYPE svg PUBLIC "-//W3C//DTD SVG 1.1//EN" "http://www.w3.org/Graphics/SVG/1.1/DTD/svg11.dtd">
<svg xmlns="http://www.w3.org/2000/svg">
<defs >
<font id="Grenze" horiz-adv-x="460" ><font-face
    font-family="Grenze Medium"
    units-per-em="1000"
    panose-1="2 14 6 4 6 4 3 5 4 4"
    ascent="1100"
    descent="-380"
    alphabetic="0" />
<glyph unicode=" " glyph-name="space" horiz-adv-x="131" />
<glyph unicode="!" glyph-name="exclam" horiz-adv-x="269" d="M109 178T103 184T97 192L151 607Q165 609 171 611Q189 614 209 618T241 623Q244 623 253 614T261 602L167 185Q125 178 111 178Q109 178 103 184ZM59 -9T53 1T48 15L70 108H164L152 -2Q98 -9 63
-9Q59 -9 53 1Z" />
<glyph unicode="&quot;" glyph-name="quotedbl" horiz-adv-x="318" d="M116 680Q124 681 147 684T190 687Q194 687 203 679T210 668L187 592Q179 568 172 542T155 489L104 488L116 680ZM268 680Q276 681 299 684T342 687Q346 687 355 679T362 668Q358 656 333
574Q328 557 322 536T307 489L256 488L268 680Z" />
<glyph unicode="#" glyph-name="numbersign" horiz-adv-x="556" d="M415 302L377 179H480L462 117H358L314 -26H253L296 117H198L154 -26H92L136 117H32L50 179H155L192 302H93L111 364H211L251 495H314L274 364H371L411 495H474L434 364H540L522 302H415ZM352
302H255L217 179H315L352 302Z" />
<glyph unicode="$" glyph-name="dollar" horiz-adv-x="487" d="M368 388L373 479Q284 496 248 496Q229 496 214 473T198 414Q198 385 222 364T299 314Q340 291 365 274T407 233T425 176Q425 150 415 122Q398 89 366 59T298 9T233 -10H212L204 -69H141L152 -8H135V-18H51L54
-3L28 -1L63 42L80 129H142L139 70Q207 59 258 59Q269 59 281 73T303 107T312 136Q312 164 288 185T214 233Q175 256 152 272T112 311T95 364Q95 380 99 402T109 436Q127 466 183 506T276 557L289 635H349L336 558Q412 554 463 548L426 388H368Z" />
<glyph unicode="%" glyph-name="percent" horiz-adv-x="818" d="M586 611H654L263 -9H195L586 611ZM150 294T121 320T91 399Q91 487 135 541T261 595Q324 595 353 570T382 492Q382 406 337 350T213 294Q150 294 121 320ZM241 344T276 365Q300 444 300 494Q300
519 292 531T264 544Q234 544 194 523Q173 446 173 397Q173 344 206 344Q241 344 276 365ZM519 -10T490 16T460 95Q460 183 504 237T630 291Q694 291 722 266T751 188Q751 102 706 46T582 -10Q519 -10 490 16ZM611 40T645 61Q669 142 669 190Q669 215 661 227T633
240Q603 240 563 219Q542 144 542 93Q542 40 576 40Q611 40 645 61Z" />
<glyph unicode="&amp;" glyph-name="ampersand" horiz-adv-x="573" d="M515 295L420 168L502 62L541 49L533 0H423Q413 5 354 81L335 56Q313 39 260 15T186 -9Q123 -9 74 21T25 122Q25 187 65 242T168 340Q138 389 138 445Q138 466 144 491T159 529Q175 546 228
579T295 613Q353 613 386 595T419 540Q419 508 389 428H333L342 509Q345 533 328 544T285 555Q271 555 260 552Q246 549 238 533T230 485Q230 441 251 405Q278 354 382 218Q417 267 434 295L378 313L386 356H571L562 305L515 295ZM263 63T317 131Q281 179 196 299Q168
269 151 223T133 135Q133 57 212 57Q228 57 249 60Q263 63 317 131Z" />
<glyph unicode="&apos;" glyph-name="quotesingle" horiz-adv-x="166" d="M116 680Q124 681 147 684T190 687Q194 687 203 679T210 668Q206 656 181 574Q176 557 170 536T155 489L104 488L116 680Z" />
<glyph unicode="(" glyph-name="parenleft" horiz-adv-x="253" d="M45 11T45 177Q45 321 104 451T271 682L304 652Q232 558 187 413T141 139Q141 73 151 13T178 -84L137 -114Q45 11 45 177Z" />
<glyph unicode=")" glyph-name="parenright" horiz-adv-x="253" d="M-16 -84Q56 10 101 155T147 429Q147 495 137 555T110 652L151 682Q243 557 243 391Q243 247 184 117T17 -114L-16 -84Z" />
<glyph unicode="*" glyph-name="asterisk" horiz-adv-x="331" d="M156 397L189 493L106 432L86 436L69 492L172 532L83 573L118 628L139 632L200 572L204 679L266 683L278 668L245 570L327 632L347 627L364 572L260 532L349 492L315 436L293 433L233 492L229 386L167
381L156 397Z" />
<glyph unicode="+" glyph-name="plus" horiz-adv-x="603" d="M512 220H344L312 32H235L267 220H100L113 288H279L311 475H387L355 288H525L512 220Z" />
<glyph unicode="," glyph-name="comma" horiz-adv-x="195" d="M-23 -116Q21 -42 38 -4Q36 -2 26 7T18 23L31 114Q52 119 77 122T115 126Q119 126 131 112T143 92Q124 -26 16 -141L-23 -116Z" />
<glyph unicode="-" glyph-name="hyphen" horiz-adv-x="320" d="M50 283H291L276 205H37L50 283Z" />
<glyph unicode="." glyph-name="period" horiz-adv-x="204" d="M43 -11T31 3T20 23L31 107Q51 112 76 115T115 119Q119 119 131 105T143 85L125 2Q109 -2 85 -6T48 -11Q43 -11 31 3Z" />
<glyph unicode="/" glyph-name="slash" horiz-adv-x="356" d="M325 687H397L66 -118H-6L325 687Z" />
<glyph unicode="0" glyph-name="zero" horiz-adv-x="504" d="M129 -9T84 36T38 164Q38 253 68 324T156 436T295 477Q384 477 429 432T475 304Q475 215 445 144T356 32T218 -9Q129 -9 84 36ZM248 52T270 57T316 76Q336 126 350 195T365 318Q365 417 293 417Q266
417 244 412T197 393Q177 342 163 273T148 151Q148 52 220 52Q248 52 270 57Z" />
<glyph unicode="1" glyph-name="one" horiz-adv-x="362" d="M309 47L302 0H14L21 50L122 68L176 386L73 376L81 427L249 477L293 459L227 64L309 47Z" />
<glyph unicode="2" glyph-name="two" horiz-adv-x="426" d="M203 246Q246 293 263 319T281 376Q281 391 277 402T265 413Q259 413 225 406T163 391L141 316H90L106 453Q154 462 206 469T280 477Q326 477 358 457T390 393Q390 325 305 238L164 90L163 80H308L327
150H379L358 0H16L15 43L203 246Z" />
<glyph unicode="3" glyph-name="three" horiz-adv-x="380" d="M345 222T345 147Q345 89 295 33T165 -60T9 -102L28 -40Q112 -21 172 27T232 140Q232 161 225 173T206 186H111L120 235Q189 251 222 287T255 382Q255 413 241 413Q230 413 135 387L115 311H65L81
452Q121 461 171 468T241 476Q361 476 361 391Q361 307 260 246L259 239Q345 222 345 147Z" />
<glyph unicode="4" glyph-name="four" horiz-adv-x="444" d="M230 42H-4L-2 95Q44 171 107 284T217 481L299 439L296 415Q276 382 211 285T102 123V114H243L264 243L345 272L363 263L338 114H404L392 42H326L303 -92H208L230 42Z" />
<glyph unicode="5" glyph-name="five" horiz-adv-x="371" d="M137 252Q184 276 192 276Q261 276 295 242T329 154Q329 86 285 31T165 -59T0 -102L18 -40Q119 -15 167 26T215 144Q215 203 162 203Q155 203 125 193T87 180L61 171L44 201L110 468H294L307 515H358L342
386H169L137 252Z" />
<glyph unicode="6" glyph-name="six" horiz-adv-x="435" d="M216 446T159 292Q165 295 207 317T258 340Q329 340 362 303T395 210Q395 186 385 148T364 87Q340 60 281 26T197 -9Q116 -9 72 33T28 151Q28 251 78 340T217 488T416 556L398 493Q216 446 159 292ZM225
267T144 240Q135 192 135 145Q135 91 160 72T231 53Q243 53 255 74T276 128T285 196Q285 267 232 267Q225 267 144 240Z" />
<glyph unicode="7" glyph-name="seven" horiz-adv-x="394" d="M396 461T404 444T413 417L109 -106Q97 -109 81 -111T57 -114Q53 -114 39 -98T20 -71L302 368L303 381H131L108 307H58L77 468H391Q396 461 404 444Z" />
<glyph unicode="8" glyph-name="eight" horiz-adv-x="429" d="M353 266T371 238T390 170Q390 128 369 86Q347 60 287 26T201 -9Q120 -9 77 27T33 120Q33 209 142 282Q118 303 105 327T91 382Q91 422 109 456Q131 483 188 518T272 553Q342 553 376 521T410 441Q410
401 385 360T320 289Q353 266 371 238ZM227 493T217 484T200 455T193 410Q193 380 212 361T273 318Q288 341 298 374T309 432Q309 463 292 478T235 493Q227 493 217 484ZM248 52T262 85T277 139Q277 164 265 183T235 216T185 251Q165 226 152 196T139 137Q139 97
163 75T237 52Q248 52 262 85Z" />
<glyph unicode="9" glyph-name="nine" horiz-adv-x="435" d="M325 476T369 434T413 316Q413 216 363 127T223 -21T24 -88L43 -26Q224 20 282 174Q251 157 220 141T183 125Q113 125 80 163T46 257Q46 284 55 320T77 381Q101 408 160 442T244 476Q325 476 369 434ZM214
199T242 208T297 227Q306 266 306 314Q306 374 281 394T209 414Q197 414 185 396T164 344T156 271Q156 199 209 199Q214 199 242 208Z" />
<glyph unicode=":" glyph-name="colon" horiz-adv-x="204" d="M97 333T85 347T73 367L84 451Q105 456 130 459T168 464Q172 464 184 449T196 430L178 346Q162 342 138 338T102 333Q97 333 85 347ZM39 -11T27 2T15 23L26 107Q47 112 72 115T110 119Q114 119 126
105T138 85L120 2Q104 -2 80 -6T44 -11Q39 -11 27 2Z" />
<glyph unicode=";" glyph-name="semicolon" horiz-adv-x="208" d="M102 333T90 347T78 367L89 451Q110 456 135 459T173 464Q177 464 189 449T201 430L183 346Q167 342 143 338T107 333Q102 333 90 347ZM-21 -116Q19 -52 40 -4Q38 -2 28 7T20 23L33 114Q54 119
79 122T117 126Q121 126 133 112T145 92Q126 -26 18 -141L-21 -116Z" />
<glyph unicode="&lt;" glyph-name="less" horiz-adv-x="563" d="M62 188L79 288L506 464L493 382L134 238L444 92L430 12L62 188Z" />
<glyph unicode="=" glyph-name="equal" horiz-adv-x="579" d="M121 365H507L495 297H109L121 365ZM91 184H476L464 117H78L91 184Z" />
<glyph unicode="&gt;" glyph-name="greater" horiz-adv-x="563" d="M71 94L430 238L120 384L133 464L501 288L485 188L57 12L71 94Z" />
<glyph unicode="?" glyph-name="question" horiz-adv-x="395" d="M356 619T386 599T417 529Q417 483 399 448T353 387T279 326Q242 298 239 295Q210 272 196 246T172 168Q136 162 116 162Q114 162 109 168T103 176L115 249Q121 284 144 308T216 370Q278 418 299
449T321 517Q321 554 302 554Q287 554 223 543L190 537L164 445H106L122 603Q252 619 300 619Q356 619 386 599ZM92 110L161 104L153 -4Q108 -9 77 -9Q73 -9 67 2T61 17L92 110Z" />
<glyph unicode="@" glyph-name="at" horiz-adv-x="803" d="M804 332T759 221T645 19L644 20Q608 12 542 2T467 -9Q462 -9 450 5T438 25L463 167Q433 112 396 52T354 -9Q220 -9 220 141Q220 194 236 258T271 362Q292 384 359 422T445 460Q458 460 522 451T611 437L545
68L607 57Q647 138 676 236T705 405Q705 501 651 546T491 591Q440 591 382 576T276 534Q238 500 203 420T147 246T126 83Q126 -14 173 -64T332 -114Q358 -114 416 -110L415 -157Q382 -165 342 -171T267 -177Q204 -177 150 -148T63 -58T30 89Q30 238 88 369T253
579T501 659Q804 659 804 425Q804 332 759 221ZM365 80T460 218L476 241L501 381Q471 392 441 398T401 401Q383 393 366 359T337 272T326 155Q326 118 335 99T358 80Q365 80 460 218Z" />
<glyph unicode="A" glyph-name="A" horiz-adv-x="564" d="M530 44L523 0H297L305 52L369 68L353 197H177L126 69L192 52L183 0H-43L-36 44L29 63L278 605L395 614L408 600L473 62L530 44ZM202 257H347L328 534H322L202 257Z" />
<glyph unicode="B" glyph-name="B" horiz-adv-x="495" d="M418 306T446 277T474 202Q474 111 417 56T265 0H-2L5 44L67 62L150 543L93 561L100 605H355Q418 605 451 580T484 497Q484 429 458 389T372 320L371 314Q418 306 446 277ZM331 554T256 543L220 333H281Q337
333 357 386T378 506Q378 554 348 554Q331 554 256 543ZM314 52T332 80T358 149T367 221Q367 253 351 261T297 270H209L173 66Q269 52 288 52Q314 52 332 80Z" />
<glyph unicode="C" glyph-name="C" horiz-adv-x="445" d="M382 422L388 533Q346 540 288 540Q263 540 251 534Q225 523 202 468T164 337T150 195Q150 143 162 116T195 80T246 71H314L353 191H409L380 14Q356 7 277 -1T181 -9Q144 -9 112 12T60 79T40 192Q40 260
60 349T110 496Q143 528 213 570T305 613Q333 612 382 610T481 603L440 422H382Z" />
<glyph unicode="D" glyph-name="D" horiz-adv-x="560" d="M453 605T500 559T547 417Q547 315 517 219T427 62T284 0H-2L5 44L68 62L150 543L93 561L100 605H384Q453 605 500 559ZM334 57T366 118T417 267T436 423Q436 484 422 516T379 549Q363 549 253 538L174
69Q268 57 293 57Q334 57 366 118Z" />
<glyph unicode="E" glyph-name="E" horiz-adv-x="468" d="M398 421L402 549L255 535L222 346L358 341L348 287L211 282L174 70L341 57L382 189L439 188L407 0H-2L5 44L67 62L150 543L93 561L100 605H488L455 421H398Z" />
<glyph unicode="F" glyph-name="F" horiz-adv-x="431" d="M450 422H393L397 549L255 535L220 333L358 328L348 274L209 269L174 68L274 50L265 0H-2L5 44L67 62L150 543L93 561L100 605H483L450 422Z" />
<glyph unicode="G" glyph-name="G" horiz-adv-x="520" d="M506 250L454 237L424 59Q396 43 314 17T213 -9Q138 -9 89 41T40 192Q40 260 60 349T110 496Q143 528 213 570T305 613Q336 612 400 609T503 602L463 421H404L411 528Q384 533 349 536T288 540Q263 540
251 534Q225 523 202 468T164 337T150 195Q150 123 169 94T235 66L332 75L358 226L274 243L283 295H513L506 250Z" />
<glyph unicode="H" glyph-name="H" horiz-adv-x="607" d="M567 543L484 62L541 44L534 0H307L316 52L379 68L416 281H211L174 68L234 52L226 0H-2L5 44L67 62L150 543L94 561L100 605H328L319 553L255 537L221 340H426L460 537L400 553L409 605H636L629 561L567 543Z" />
<glyph unicode="I" glyph-name="I" horiz-adv-x="299" d="M255 537L174 68L235 52L226 0H-2L5 44L67 62L150 543L94 561L100 605H328L320 553L255 537Z" />
<glyph unicode="J" glyph-name="J" horiz-adv-x="287" d="M319 553L253 537L169 39Q164 10 132 -29T61 -98T7 -128Q-9 -128 -50 -116T-97 -102L-81 -50H-47Q10 -50 20 -47Q50 -42 69 72L149 543L93 561L99 605H327L319 553Z" />
<glyph unicode="K" glyph-name="K" horiz-adv-x="532" d="M174 68L234 52L226 0H-2L5 44L67 62L150 543L94 561L100 605H327L318 553L255 537L174 68ZM525 542L329 324Q352 278 401 192T477 65L524 47L518 0H374L315 127Q259 242 239 290L245 322L425 537L366
553L375 605H596L589 561L525 542Z" />
<glyph unicode="L" glyph-name="L" d="M441 202L407 0H-2L5 44L67 62L150 543L94 561L100 605H349L340 553L255 535L174 70L338 56L384 203L441 202Z" />
<glyph unicode="M" glyph-name="M" horiz-adv-x="761" d="M715 543L652 62L710 44L703 0H478L486 52L549 68L610 480H602Q592 458 569 406T520 302L397 47L295 33L277 41L239 291Q234 323 227 389T218 480H209L130 72L203 52L194 0H-18L-11 44L52 63L152 542L94
561L101 605H295L359 148H371L583 605H783L776 561L715 543Z" />
<glyph unicode="N" glyph-name="N" horiz-adv-x="601" d="M629 561L567 543L474 7L358 -7L342 3L272 272Q263 306 237 435Q234 447 233 455T230 468H222L165 68L226 52L217 0H-2L5 44L67 63L150 544L93 561L100 605H283L361 294Q366 276 387 173Q397 120 400 111H407L470
536L408 553L416 605H636L629 561Z" />
<glyph unicode="O" glyph-name="O" horiz-adv-x="538" d="M149 -10T96 40T42 201Q42 272 63 360T113 497Q132 518 173 545T254 593T306 613Q416 613 471 565T527 411Q527 345 507 261T458 107Q436 84 395 57T316 10T262 -10Q149 -10 96 40ZM277 56T311 72T352
95Q376 156 396 258T416 425Q416 489 391 517T314 545Q280 545 252 534Q226 523 203 468T166 337T152 195Q152 143 162 113T197 70T268 56Q277 56 311 72Z" />
<glyph unicode="P" glyph-name="P" horiz-adv-x="487" d="M431 605T466 576T501 483Q501 410 475 349T397 250T276 213H199L174 70L257 52L248 0H-2L4 44L67 62L150 543L93 561L100 605H368Q431 605 466 576ZM353 276T371 340T390 477Q390 550 354 550Q338 550
256 540L210 276H295Q353 276 371 340Z" />
<glyph unicode="Q" glyph-name="Q" horiz-adv-x="538" d="M416 613T471 565T527 411Q527 345 507 261T458 107Q433 81 384 49T296 0L456 -58L418 -126H369L198 -5Q119 8 81 58T42 201Q42 272 63 360T113 497Q132 518 173 545T254 593T306 613Q416 613 471 565ZM376
156T396 258T416 425Q416 489 391 517T314 545Q280 545 252 534Q226 523 203 468T166 337T152 195Q152 143 162 113T197 70T268 56Q277 56 311 72T352 95Q376 156 396 258Z" />
<glyph unicode="R" glyph-name="R" horiz-adv-x="494" d="M380 186T435 64L486 47L478 0H337L261 257H207L174 68L234 52L225 0H-2L4 44L67 62L150 543L93 561L100 605H361Q426 605 461 579T496 493Q496 421 456 359T351 271L350 262Q380 186 435 64ZM218 320H290Q385
320 385 487Q385 520 376 535T346 550Q332 550 256 540L218 320Z" />
<glyph unicode="S" glyph-name="S" horiz-adv-x="431" d="M344 417L350 523Q260 540 222 540Q207 540 194 518T181 458Q181 431 199 409T253 362L280 343Q319 317 342 298T382 251T399 188Q399 171 395 149T384 114Q367 89 331 60T257 11T200 -9Q121 -9 7 1L49
194H107L100 76Q181 64 237 64Q246 64 258 80T280 116T289 149Q289 174 275 193T243 226T182 268Q130 302 103 333T75 413Q75 431 80 453T91 491Q105 512 143 541T220 592T276 613Q295 613 444 597L403 417H344Z" />
<glyph unicode="T" glyph-name="T" horiz-adv-x="479" d="M496 408H437L448 535L354 546L271 69L342 52L333 0H83L90 44L164 64L248 547L147 536L116 408H59L78 605H540L496 408Z" />
<glyph unicode="U" glyph-name="U" horiz-adv-x="584" d="M542 542L461 62L519 43L512 0H373L361 63Q209 -9 200 -9Q138 -9 107 21T75 113Q75 133 81 175T103 306Q118 389 143 543L86 561L93 605H319L311 553L247 537L210 322Q197 246 191 205T184 145Q184 110
195 97T226 84Q249 84 366 118L437 537L378 553L387 605H613L607 561L542 542Z" />
<glyph unicode="V" glyph-name="V" horiz-adv-x="516" d="M541 561L301 5L174 -8L163 3L125 543L70 561L77 605H294L285 553L231 538L246 221L248 78H258L435 535L369 553L377 605H537L541 561Z" />
<glyph unicode="W" glyph-name="W" horiz-adv-x="787" d="M812 561L573 5L446 -8L434 3L419 303H412L306 5L180 -8L168 3L126 543L70 561L77 605H293L284 553L232 539L251 221L254 78H264L410 487L407 541L346 561L353 605H571L562 553L504 538L519 221L520 78H530L706
535L639 553L648 605H808L812 561Z" />
<glyph unicode="X" glyph-name="X" horiz-adv-x="527" d="M349 320L464 59L519 44L512 0H267L276 52L342 68L264 252L130 69L193 52L184 0H-41L-34 44L30 63L225 310L120 545L71 561L78 605H311L302 553L236 537L311 372L421 536L357 553L366 605H592L586 561L521
542L349 320Z" />
<glyph unicode="Y" glyph-name="Y" horiz-adv-x="477" d="M276 68L345 52L337 0H86L93 44L170 65L198 233L97 542L39 561L45 605H263L254 553L206 540L269 320H278L402 540L337 553L346 605H505L509 561L305 243L276 68Z" />
<glyph unicode="Z" glyph-name="Z" horiz-adv-x="479" d="M138 77L352 66L386 194H443L421 0H-4L5 55L354 531L166 541L138 419H78L98 605H503L494 562L138 77Z" />
<glyph unicode="[" glyph-name="bracketleft" horiz-adv-x="245" d="M143 681H295L287 634L220 620L107 -50L169 -66L162 -113H9L143 681Z" />
<glyph unicode="\" glyph-name="backslash" horiz-adv-x="304" d="M96 687H171L229 -118H154L96 687Z" />
<glyph unicode="]" glyph-name="bracketright" horiz-adv-x="245" d="M-9 -67L59 -52L173 618L109 633L118 681H270L136 -113H-17L-9 -67Z" />
<glyph unicode="^" glyph-name="asciicircum" horiz-adv-x="508" d="M412 250L315 546L119 247L65 278L276 603H374L474 276L412 250Z" />
<glyph unicode="_" glyph-name="underscore" horiz-adv-x="400" d="M-44 -59H344L331 -132H-57L-44 -59Z" />
<glyph unicode="`" glyph-name="grave" horiz-adv-x="188" d="M67 608L74 638L131 689L246 554L215 519L67 608Z" />
<glyph unicode="a" glyph-name="a" horiz-adv-x="448" d="M346 68L391 57L385 21Q382 20 375 18T357 13Q281 -9 272 -9Q268 -9 256 5T244 25L265 164H258L229 113Q159 -9 154 -9Q20 -9 20 141Q20 201 35 264T72 362Q93 384 160 422T245 460Q258 460 322 451T411
437L346 68ZM168 80T278 242L302 382Q277 390 252 395T211 400L203 399Q186 394 168 360T138 272T126 155Q126 118 135 99T158 80Q168 80 278 242Z" />
<glyph unicode="b" glyph-name="b" horiz-adv-x="450" d="M424 460T424 310Q424 251 409 188T373 90Q352 68 285 30T199 -9Q186 -9 122 0T33 14L132 572L87 583L93 619Q116 627 158 638T208 649Q212 649 224 635T236 615L181 288H187L210 329Q237 377 262 418T291
460Q424 460 424 310ZM259 58T277 92T307 180T319 296Q319 333 310 352T287 371Q277 371 168 211L143 70Q168 62 193 57T234 52L242 53Q259 58 277 92Z" />
<glyph unicode="c" glyph-name="c" horiz-adv-x="358" d="M198 393T182 360T154 276T143 171Q143 113 160 91T208 68H305L296 21Q258 10 219 1T170 -9Q104 -9 69 33T34 142Q34 200 49 263T85 362Q106 384 174 422T260 460Q269 460 290 457T324 453Q330 452 371
446L339 295H296L285 386Q245 400 225 400Q220 400 214 398Q198 393 182 360Z" />
<glyph unicode="d" glyph-name="d" horiz-adv-x="444" d="M418 649T430 635T442 615L346 68L390 57L384 21L363 15Q350 11 313 1T270 -9Q265 -9 254 5T242 25L265 164H258L229 113Q159 -9 154 -9Q20 -9 20 141Q20 201 35 264T72 362Q93 384 160 422T245 460Q255
460 293 455L314 452L335 572L290 583L296 619Q320 627 363 638T414 649Q418 649 430 635ZM168 80T279 243L302 381Q278 390 252 395T211 400L203 399Q186 394 168 360T138 272T126 155Q126 118 135 99T158 80Q168 80 279 243Z" />
<glyph unicode="e" glyph-name="e" horiz-adv-x="363" d="M366 321T329 284T237 225T129 199Q128 190 128 171Q128 118 142 93T193 68Q217 68 289 92L310 98L323 53Q288 35 228 13T152 -9Q91 -9 56 33T20 142Q20 200 36 263T72 362Q93 384 161 422T246 460Q366
460 366 369Q366 321 329 284ZM182 392T162 347T133 241Q163 247 193 264T243 307T263 360Q263 381 252 391T222 401Q209 401 200 398Q182 392 162 347Z" />
<glyph unicode="f" glyph-name="f" horiz-adv-x="283" d="M365 638T371 626T377 609Q376 601 346 553Q324 561 291 570T249 580Q242 580 234 563T221 525L209 452L303 450L292 391H198L143 68L192 53L184 7Q73 -9 64 -9Q58 -9 47 6T36 27L98 392H50L57 436L108
454L115 494Q118 514 149 551T217 619T268 649Q283 649 309 648T359 643Q365 638 371 626Z" />
<glyph unicode="g" glyph-name="g" horiz-adv-x="437" d="M255 460T318 451T408 437L327 -20Q323 -45 290 -83T219 -152T165 -182Q147 -182 86 -164T-27 -128L-15 -52L104 45Q68 54 47 87T25 173Q25 218 36 271T68 362Q89 384 156 422T242 460Q255 460 318 451ZM182
392T166 361T140 283T129 187Q129 116 169 108L272 220Q281 269 300 381Q276 389 250 394T209 399Q200 399 198 398Q182 392 166 361ZM201 -127T211 -93T231 -5Q242 45 258 140H250Q189 61 77 -68L75 -77Q97 -90 138 -108T194 -127Q201 -127 211 -93Z" />
<glyph unicode="h" glyph-name="h" horiz-adv-x="468" d="M371 68L416 57L410 20Q383 12 341 2T292 -9Q287 -9 276 5T264 25L316 306Q319 323 319 335Q319 370 294 370Q287 370 255 329T170 214L148 83Q147 78 147 71Q147 51 164 42L163 14Q72 -9 65 -9Q60 -9
48 5T36 25L132 572L87 583L93 619Q116 627 159 638T209 649Q214 649 225 635T236 615L182 287H188Q199 306 201 309Q288 460 294 460Q360 460 389 435T419 354Q419 327 413 291L371 68Z" />
<glyph unicode="i" glyph-name="i" horiz-adv-x="249" d="M67 -9T55 5T44 25L107 383L62 394L68 430Q92 438 135 449T186 460Q191 460 203 446T214 426L151 68L196 57L190 21Q170 14 125 3T72 -9Q67 -9 55 5ZM408 645L494 650L506 627L485 537H397L408 645Z" />
<glyph unicode="j" glyph-name="j" horiz-adv-x="240" d="M-34 -182T-113 -147L-99 -102Q-10 -102 1 -96Q16 -89 25 -59T42 17L107 383L62 394L68 430Q92 438 135 449T186 460Q191 460 203 446T214 426L136 -21Q131 -50 100 -87T33 -153T-18 -182Q-34 -182 -113
-147ZM402 645L488 650L500 627L479 537H391L402 645Z" />
<glyph unicode="k" glyph-name="k" horiz-adv-x="439" d="M295 180T318 139T359 70L415 57L409 22Q303 -9 296 -9Q281 -9 250 59T206 173L213 218Q255 229 288 265T322 340Q322 353 316 362T295 372Q283 372 185 236L170 216L148 83Q147 78 147 71Q147 51 164
42L163 14Q72 -9 65 -9Q60 -9 48 5T36 25L132 572L87 583L93 619Q116 627 159 638T209 649Q214 649 225 635T236 615L182 287H188L216 335Q288 460 294 460Q366 460 395 432T424 362Q424 258 288 195Q295 180 318 139Z" />
<glyph unicode="l" glyph-name="l" horiz-adv-x="242" d="M59 -9T47 5T36 25L132 572L87 583L93 619Q115 626 159 637T211 649Q216 649 228 635T239 615L143 68L188 57L182 21Q179 20 171 18T152 13Q71 -9 64 -9Q59 -9 47 5Z" />
<glyph unicode="m" glyph-name="m" horiz-adv-x="703" d="M607 68L651 57L645 20Q535 -9 528 -9Q523 -9 511 5T499 25L551 306Q554 323 554 335Q554 370 529 370Q522 370 497 337T419 234Q404 213 404 213L392 144Q383 86 383 81Q383 62 387 54T400 42L399 14Q376
8 346 1T301 -9Q296 -9 284 5T272 25L323 306Q326 323 326 335Q326 370 301 370Q295 370 272 341T224 278T193 236L176 212L154 83Q153 78 153 71Q153 51 170 42L169 14Q78 -9 71 -9Q66 -9 54 5T43 25L107 383L62 394L68 430Q98 439 137 449T184 460Q189 460 200
446T211 426L189 287H196Q293 460 300 460Q366 460 395 436T424 355Q424 327 418 291Q418 288 417 287H424Q521 460 528 460Q595 460 624 435T654 354Q654 327 648 291L607 68Z" />
<glyph unicode="n" glyph-name="n" horiz-adv-x="475" d="M379 68L423 57L417 20Q307 -9 300 -9Q295 -9 283 5T271 25L323 306Q326 321 326 335Q326 370 301 370Q294 370 261 327T177 213L154 83Q153 79 153 71Q153 49 170 42L169 14Q78 -9 71 -9Q66 -9 54 5T43
25L107 383L62 394L68 430Q92 438 135 449T185 460Q189 460 200 446T211 426L189 287H195Q294 460 301 460Q368 460 397 435T427 354Q427 327 421 291L379 68Z" />
<glyph unicode="o" glyph-name="o" horiz-adv-x="435" d="M100 -9T61 28T21 149Q21 202 36 265T72 362Q101 388 164 426T246 464Q330 464 370 425T411 309Q411 256 395 194T360 91Q338 68 271 30T186 -9Q100 -9 61 28ZM203 53T208 54Q216 55 232 63T258 77Q305
202 305 304Q305 351 284 377T227 403Q213 403 201 399Q185 394 168 360T139 270T127 150Q127 53 194 53Q203 53 208 54Z" />
<glyph unicode="p" glyph-name="p" horiz-adv-x="457" d="M432 460T432 310Q432 251 417 188T380 90Q360 69 292 30T207 -9Q189 -9 138 -1L120 -105L165 -116L158 -152Q128 -161 88 -171T41 -182Q36 -182 24 -168T13 -148L106 383L62 394L68 430Q87 436 132 448T184
460Q189 460 200 446T211 426L188 288H195Q292 460 298 460Q432 460 432 310ZM266 58T284 92T314 180T326 296Q326 333 318 352T295 371Q290 371 260 330T199 244Q186 228 175 211L151 70Q180 61 210 56T249 53Q266 58 284 92Z" />
<glyph unicode="q" glyph-name="q" horiz-adv-x="448" d="M316 -105L361 -116L355 -152Q351 -152 327 -160Q249 -182 239 -182Q234 -182 222 -168T211 -148L265 164H258L229 113Q159 -9 154 -9Q20 -9 20 141Q20 201 35 264T72 362Q93 384 160 422T245 460Q258
460 322 451T411 437L316 -105ZM169 80T278 243L303 381Q279 390 253 395T211 400L203 399Q186 394 168 360T138 272T126 155Q126 118 135 99T158 80Q169 80 278 243Z" />
<glyph unicode="r" glyph-name="r" horiz-adv-x="353" d="M305 464T334 457T378 444L346 286H310L300 365Q286 371 286 371Q281 371 246 320T178 221L154 83Q153 78 153 71Q153 50 171 42L170 14Q78 -9 71 -9Q66 -9 54 5T43 25L107 383L62 394L68 430Q92 438 135
449T185 460Q189 460 200 446T211 426L189 287H193L212 323Q287 464 293 464Q305 464 334 457Z" />
<glyph unicode="s" glyph-name="s" horiz-adv-x="368" d="M274 240T306 211T338 147Q338 136 335 118T327 88Q308 61 259 26T191 -9Q165 -9 107 -4T10 8L35 155H76L90 79Q119 71 150 65T194 58Q202 58 215 76T228 107Q228 144 149 187Q99 216 77 242T55 305Q55
318 58 336T68 365Q91 391 137 425T195 460Q223 460 275 454T356 442L333 314H293L278 379Q201 396 178 396Q169 396 159 383T148 347Q148 326 165 312T223 273Q274 240 306 211Z" />
<glyph unicode="t" glyph-name="t" horiz-adv-x="298" d="M104 -9T90 5T64 36T54 63Q60 107 107 392H43L49 428L117 456L192 545Q201 545 229 531L217 450H311L301 392H207L192 302Q175 202 167 152T159 88Q159 69 173 66Q180 65 253 65L247 13Q128 -9 110 -9Q104
-9 90 5Z" />
<glyph unicode="u" glyph-name="u" horiz-adv-x="476" d="M409 460T421 446T432 426L370 68L415 57L409 21Q379 12 340 2T293 -9Q289 -9 277 5T265 25L286 162H279Q261 132 257 123Q229 75 204 34T175 -8Q108 -8 79 14T50 91Q50 123 55 153L97 384L52 395L58 431L93
440Q111 444 142 452T176 460Q181 460 192 446T204 426L153 143Q150 127 150 114Q150 81 175 81Q182 81 214 122T298 233L321 369Q322 374 322 381Q322 403 305 409L306 437Q397 460 404 460Q409 460 421 446Z" />
<glyph unicode="v" glyph-name="v" horiz-adv-x="422" d="M121 -4L74 376L21 389L25 426Q26 426 74 440Q136 460 142 460Q146 460 160 447T175 426L192 188L195 70H205Q225 107 268 215T331 386L279 403L285 444L317 448Q403 460 410 460Q415 460 426 445T436
423Q429 389 389 295T303 112T227 -9L121 -4Z" />
<glyph unicode="w" glyph-name="w" horiz-adv-x="618" d="M612 460T623 445T633 423Q565 232 459 41L417 -9L319 -4L304 190H296Q280 140 246 40L203 -9L105 -4L66 388L31 401L38 443Q55 447 91 453T134 460Q138 460 152 447T167 426L179 188L183 68H194Q262 228
295 308L289 384L251 401L257 443Q274 447 304 452T351 460Q355 460 369 447T384 426L393 188L394 67H404Q479 231 530 391L476 404L485 456Q507 457 546 458T607 460Q612 460 623 445Z" />
<glyph unicode="x" glyph-name="x" horiz-adv-x="405" d="M414 460T419 439T422 410L255 232L341 65L376 54L368 7Q352 3 319 -3T279 -9Q275 -9 262 4T246 25L177 170L88 55L135 48L126 -5Q105 -6 64 -7T0 -9Q-6 -9 -11 12T-15 42L153 234L84 389L39 399L47 446Q64
449 96 453T147 460Q152 460 162 448T174 427L231 293L323 399L274 404L283 456Q304 457 345 458T409 460Q414 460 419 439Z" />
<glyph unicode="y" glyph-name="y" horiz-adv-x="408" d="M421 460T432 445T442 423L227 -9L180 -165Q171 -169 151 -175T124 -182Q113 -182 98 -168T77 -146L165 8L104 17L76 376L24 389L28 426Q31 426 70 439Q89 444 115 452T144 460Q148 460 162 447T177 426L187
188L184 72H197L335 386L284 403L290 444Q311 447 352 452T416 460Q421 460 432 445Z" />
<glyph unicode="z" glyph-name="z" horiz-adv-x="400" d="M311 153L365 152L342 0H25Q20 8 15 25T9 51Q60 112 179 265L267 376V390L138 380L119 320H68L81 450H380Q384 441 389 426T395 401L326 312Q301 280 245 208T143 80L142 62L286 74L311 153Z" />
<glyph unicode="{" glyph-name="braceleft" horiz-adv-x="288" d="M107 214L49 273L57 320L135 378L186 680H337L330 633L263 619L216 346L137 299L199 246L150 -49L213 -65L204 -112H53L107 214Z" />
<glyph unicode="|" glyph-name="bar" horiz-adv-x="214" d="M145 680H222L77 -181H0L145 680Z" />
<glyph unicode="}" glyph-name="braceright" horiz-adv-x="288" d="M-9 -66L59 -51L108 242L189 294L126 342L173 617L109 632L117 680H269L218 374L276 315L268 268L190 210L136 -112H-16L-9 -66Z" />
<glyph unicode="~" glyph-name="asciitilde" horiz-adv-x="561" d="M361 271T333 276T257 294Q210 308 191 308Q178 308 156 293T129 274L100 307Q139 345 165 367T211 389Q247 389 333 365Q399 348 418 348Q437 348 474 385L503 351Q480 326 446 299T392 271Q361
271 333 276Z" />
<glyph unicode="&#xa0;" glyph-name="uni00A0" horiz-adv-x="131" />
<glyph unicode="&#xa1;" glyph-name="exclamdown" horiz-adv-x="268" d="M129 445Q185 452 218 452Q222 452 228 442T234 428L211 335H117L129 445ZM37 -180T29 -172T21 -159L115 258Q124 259 143 261T170 264Q173 264 178 259T184 250L130 -164Q47 -180 40 -180Q37
-180 29 -172Z" />
<glyph unicode="&#xa2;" glyph-name="cent" horiz-adv-x="401" d="M220 437T204 403T176 317T164 211Q164 153 181 131T230 108H326L318 61Q288 52 231 38L215 -54H155L169 32Q114 40 85 81T56 182Q56 240 71 303T107 402Q122 417 167 444T247 488L262 581H323L308
498L352 492Q360 491 370 489T392 486L361 335H318L306 428Q267 444 247 444Q242 444 236 442Q220 437 204 403Z" />
<glyph unicode="&#xa3;" glyph-name="sterling" horiz-adv-x="548" d="M422 387L430 479Q394 485 356 489T309 494Q285 494 271 446T244 294H385L374 221H231Q209 122 167 76L307 61L341 180H445L424 38H410L441 0H167Q125 0 83 -7T33 -15L29 43Q65 52 80 66T105
112T127 221H119L136 294H139Q155 391 174 446T228 530T327 559Q360 559 422 553T518 542L480 387H422Z" />
<glyph unicode="&#xa4;" glyph-name="currency" horiz-adv-x="568" d="M523 433T523 387Q523 343 508 302T465 226L517 161L471 118L420 182Q353 133 276 133Q197 133 147 183L74 119L43 162L118 227Q102 264 102 304Q102 349 117 391T159 468L105 534L151 577L203
512Q268 563 349 563Q427 563 476 514L548 577L578 534L506 470Q523 433 523 387ZM357 208T396 258T436 382Q436 430 411 459T336 488Q266 488 228 438T189 313Q189 266 214 237T288 208Q357 208 396 258Z" />
<glyph unicode="&#xa5;" glyph-name="yen" horiz-adv-x="586" d="M533 484L421 329H497L489 277H384L351 232L349 222H480L472 170H341L323 64L384 45L378 0H143L149 44L218 62L236 170H100L108 222H245L225 277H117L126 329H205L148 483L86 503L94 547H325L316
495L255 481L317 305H327L438 479L375 495L384 547H606L598 503L533 484Z" />
<glyph unicode="&#xa6;" glyph-name="brokenbar" horiz-adv-x="210" d="M145 674H217L155 308H83L145 674ZM62 184H134L71 -194H-1L62 184Z" />
<glyph unicode="&#xa7;" glyph-name="section" horiz-adv-x="475" d="M369 449L372 526Q365 528 321 537T262 547Q255 547 242 526T229 488Q229 461 250 440T313 390Q360 358 384 332T409 271Q409 259 404 236T392 201Q383 189 363 171T322 137Q365 99 365 53Q365
39 359 18T348 -15Q329 -42 280 -73T207 -104Q174 -104 121 -102T27 -95L63 64H115L110 -21L137 -25Q209 -37 236 -37Q241 -37 250 -18T260 14Q260 42 241 62T182 109Q136 140 112 166T88 234Q88 247 93 266T104 297Q118 320 176 357Q131 397 131 448Q131 472 147
509Q159 527 193 552T263 595T314 614Q330 614 455 601L420 449H369ZM306 257T288 275T247 309T217 328Q206 315 198 298T189 267Q189 244 207 226T249 192T281 170Q290 183 298 201T306 231Q306 257 288 275Z" />
<glyph unicode="&#xa8;" glyph-name="dieresis" horiz-adv-x="260" d="M74 645L161 650L173 627L153 537H64L74 645ZM233 645L319 650L331 627L310 537H222L233 645Z" />
<glyph unicode="&#xa9;" glyph-name="copyright" horiz-adv-x="810" d="M307 85T244 120T146 220T112 366Q112 476 165 570T308 721T506 777Q590 777 653 742T751 642T785 496Q785 386 733 292T590 141T391 85Q307 85 244 120ZM494 151T565 196T674 320T713 492Q713
591 656 651T496 712Q404 712 333 667T223 544T184 373Q184 272 240 212T401 151Q494 151 565 196ZM363 256T335 289T307 383Q307 420 317 462T344 541Q365 564 412 593T474 622Q490 622 518 620T574 616L544 493H507L511 561Q461 573 439 573Q426 573 413 539T392
458T384 382Q384 339 397 323T438 307L516 317V280Q488 273 449 265T402 256Q363 256 335 289Z" />
<glyph unicode="&#xaa;" glyph-name="ordfeminine" horiz-adv-x="389" d="M384 381L419 372L415 343Q323 320 314 320Q310 320 301 331T292 346L308 439Q281 394 255 357T223 320Q171 320 143 352T115 436Q115 481 127 528T155 608Q171 624 223 654T290 684Q301
684 358 677T435 666L384 381ZM238 396T267 437T320 514L338 618Q314 626 293 631T265 635Q258 633 245 608T221 541T210 452Q210 423 217 410T234 396Q238 396 267 437Z" />
<glyph unicode="&#xab;" glyph-name="guillemotleft" horiz-adv-x="419" d="M29 213L36 260L200 411L232 384L132 240L131 233L178 77L138 49L29 213ZM201 213L208 260L372 411L404 384L305 240L304 233L352 77L311 49L201 213Z" />
<glyph unicode="&#xac;" glyph-name="logicalnot" horiz-adv-x="457" d="M448 251L431 152H362L379 251H36L47 319H459L448 251Z" />
<glyph unicode="&#xad;" glyph-name="uni00AD" horiz-adv-x="320" d="M50 283H291L276 205H37L50 283Z" />
<glyph unicode="&#xae;" glyph-name="registered" horiz-adv-x="678" d="M272 235T221 262T142 339T114 451Q114 539 156 614T272 733T435 778Q505 778 557 751T636 674T664 562Q664 474 622 399T505 280T342 235Q272 235 221 262ZM423 296T478 330T565 423T596
552Q596 626 552 671T426 717Q354 717 299 683T214 590T183 460Q183 386 226 341T352 296Q423 296 478 330ZM262 393L289 400L327 612L301 620L306 645H430Q468 645 485 629T503 586Q503 553 484 524T435 483L434 477L462 403L484 397L481 370H419L388 476H356L343
402L369 397L365 370H258L262 393ZM396 511Q424 511 435 532T446 593Q446 605 442 611T426 617L384 611L365 511H396Z" />
<glyph unicode="&#xaf;" glyph-name="overscore" horiz-adv-x="281" d="M70 619H350L337 547H57L70 619Z" />
<glyph unicode="&#xb0;" glyph-name="degree" horiz-adv-x="301" d="M138 380T111 406T84 473Q84 509 101 540T149 591T217 611Q261 611 288 584T315 514Q315 480 297 449T249 399T181 380Q138 380 111 406ZM214 440T232 459T250 506Q250 526 239 538T208 551Q184
551 166 532T148 484Q148 464 159 452T190 440Q214 440 232 459Z" />
<glyph unicode="&#xb1;" glyph-name="plusminus" horiz-adv-x="547" d="M481 335L468 267H318L292 116H215L241 267H93L106 335H253L279 485H355L329 335H481ZM56 56H433L421 -12H44L56 56Z" />
<glyph unicode="&#xb2;" glyph-name="uni00B2" horiz-adv-x="397" d="M222 431L221 426H323L339 482H381L363 363H89L88 394L234 541Q284 592 288 622Q289 626 289 634Q289 645 286 653T278 661Q268 661 199 645L184 586H140L152 696Q189 702 231 707T293 713Q332
713 357 698T383 648Q383 619 367 594T321 536L222 431Z" />
<glyph unicode="&#xb3;" glyph-name="uni00B3" horiz-adv-x="375" d="M357 535T357 487Q357 456 335 425T278 375T206 355Q191 356 164 358T109 365L118 405Q160 403 191 403Q220 403 226 406Q241 412 255 432T269 492Q269 509 263 516T247 523H184L191 560Q236
568 256 588T277 647Q277 671 267 671Q255 671 202 660L187 611H145L160 708Q228 717 270 717Q363 717 363 652Q363 597 292 561V558Q357 535 357 487Z" />
<glyph unicode="&#xb4;" glyph-name="acute" horiz-adv-x="186" d="M58 554L214 689L258 634L251 604L78 519L58 554Z" />
<glyph unicode="&#xb5;" glyph-name="uni00B5" horiz-adv-x="500" d="M399 76T405 68T422 56T459 50V17Q436 7 411 -1T380 -9Q357 -9 337 10T306 57Q213 -9 208 -9Q165 -9 131 5Q121 -60 121 -86Q121 -128 129 -143T155 -162T228 -168V-211Q219 -214 180 -227T127
-240Q114 -240 92 -214T53 -152T36 -86Q36 -68 66 107L70 131L114 387L83 401L89 443Q116 448 146 453T192 459Q197 459 209 445T221 425Q203 319 198 294Q185 217 179 176T172 122Q172 67 217 67Q246 67 297 95V96Q297 109 339 344Q343 372 346 387L314 401L321
443Q417 459 424 459Q429 459 441 445T452 425Q436 338 428 283Q424 260 416 215T404 137T399 94Q399 76 405 68Z" />
<glyph unicode="&#xb6;" glyph-name="paragraph" horiz-adv-x="581" d="M610 552L545 541L469 97Q464 68 432 29T362 -40T309 -70Q290 -70 204 -44L218 8Q307 8 321 11Q352 16 371 130L441 538L385 540L327 205L231 206Q163 207 121 246T79 368Q79 474 128 539T273
605H619L610 552Z" />
<glyph unicode="&#xb7;" glyph-name="middot" horiz-adv-x="200" d="M90 305T78 318T67 339L77 422Q98 427 123 430T161 435Q166 435 178 421T189 401L171 317Q156 313 131 310T95 305Q90 305 78 318Z" />
<glyph unicode="&#xb8;" glyph-name="cedilla" horiz-adv-x="163" d="M-72 -183Q-27 -161 -9 -150T10 -124Q10 -106 -42 -91L-45 -64L-10 11L41 8L33 -45Q63 -53 82 -70T102 -111Q102 -122 97 -135T84 -159Q56 -181 -55 -222L-72 -183Z" />
<glyph unicode="&#xb9;" glyph-name="uni00B9" horiz-adv-x="359" d="M337 402L330 363H98L105 404L189 419L226 640L139 632L146 674L282 714L320 698L273 415L337 402Z" />
<glyph unicode="&#xba;" glyph-name="ordmasculine" horiz-adv-x="376" d="M182 317T149 350T115 446Q115 465 118 484Q123 517 132 548T152 597Q174 618 228 652T298 686Q364 686 396 652T429 558Q429 539 426 518Q422 491 413 459T393 406Q373 386 316 352T246
317Q182 317 149 350ZM262 368T268 371Q278 374 290 381T304 389Q310 406 317 440T329 509Q334 536 334 559Q334 617 302 632Q290 637 262 637Q258 636 249 615T230 561T215 493Q212 471 212 452Q212 413 224 391T256 368Q262 368 268 371Z" />
<glyph unicode="&#xbb;" glyph-name="guillemotright" horiz-adv-x="440" d="M34 78L134 232L135 240L82 385L123 411L236 260L229 213L66 49L34 78ZM207 78L307 232L308 240L255 385L296 411L409 260L403 213L239 49L207 78Z" />
<glyph unicode="&#xbc;" glyph-name="onequarter" horiz-adv-x="850" d="M577 568L570 529H338L345 570L429 585L466 806L379 798L386 840L522 880L560 864L513 581L577 568ZM762 79H703L689 0H606L620 79H474L470 134L613 344H749L714 141H772L762 79ZM631 141L655
280H648L559 147V141H631ZM602 614H676L284 -10H209L602 614Z" />
<glyph unicode="&#xbd;" glyph-name="onehalf" horiz-adv-x="865" d="M577 568L570 529H338L345 570L429 585L466 806L379 798L386 840L522 880L560 864L513 581L577 568ZM626 68L625 63H727L743 119H785L767 0H493L492 31L638 178Q688 229 692 259Q693 263 693
271Q693 282 690 290T682 298Q672 298 603 282L588 223H544L556 333Q593 339 635 344T697 350Q736 350 761 335T787 285Q787 256 771 231T725 173L626 68ZM602 614H676L284 -10H209L602 614Z" />
<glyph unicode="&#xbe;" glyph-name="threequarters" horiz-adv-x="811" d="M597 701T597 653Q597 622 575 591T518 541T446 521Q431 522 404 524T349 531L358 571Q400 569 431 569Q460 569 466 572Q481 578 495 598T509 658Q509 675 503 682T487 689H424L431
726Q476 734 496 754T517 813Q517 837 507 837Q495 837 442 826L427 777H385L400 874Q468 883 510 883Q603 883 603 818Q603 763 532 727V724Q597 701 597 653ZM723 79H664L650 0H567L581 79H435L431 134L574 344H710L675 141H733L723 79ZM592 141L616 280H609L520
147V141H592ZM571 614H645L253 -10H178L571 614Z" />
<glyph unicode="&#xbf;" glyph-name="questiondown" horiz-adv-x="400" d="M339 447T345 436T350 421L320 328L251 334L258 442Q303 447 335 447Q339 447 345 436ZM134 20T113 -10T91 -79Q91 -116 110 -116Q125 -116 189 -105L222 -99L248 -7H306L290 -164Q173
-180 112 -180Q56 -180 26 -160T-5 -91Q-5 -45 13 -10T59 51T133 112Q170 140 173 143Q202 167 216 193T240 271Q249 272 269 274T296 277Q298 277 303 272T309 263L296 190Q290 155 267 130T196 68Q134 20 113 -10Z" />
<glyph unicode="&#xc0;" glyph-name="Agrave" horiz-adv-x="564" d="M530 44L523 0H297L305 52L369 68L353 197H177L126 69L192 52L183 0H-43L-36 44L29 63L278 605L395 614L408 600L473 62L530 44ZM202 257H347L328 534H322L202 257ZM255 702L253 732L306 798L450
701L427 660L255 702Z" />
<glyph unicode="&#xc1;" glyph-name="Aacute" horiz-adv-x="564" d="M530 44L523 0H297L305 52L369 68L353 197H177L126 69L192 52L183 0H-43L-36 44L29 63L278 605L395 614L408 600L473 62L530 44ZM202 257H347L328 534H322L202 257ZM256 701L433 798L465 732L454
702L265 660L256 701Z" />
<glyph unicode="&#xc2;" glyph-name="Acircumflex" horiz-adv-x="564" d="M530 44L523 0H297L305 52L369 68L353 197H177L126 69L192 52L183 0H-43L-36 44L29 63L278 605L395 614L408 600L473 62L530 44ZM202 257H347L328 534H322L202 257ZM219 694L334 793H396L484
693L442 660L358 712H348L250 660L219 694Z" />
<glyph unicode="&#xc3;" glyph-name="Atilde" horiz-adv-x="564" d="M530 44L523 0H297L305 52L369 68L353 197H177L126 69L192 52L183 0H-43L-36 44L29 63L278 605L395 614L408 600L473 62L530 44ZM202 257H347L328 534H322L202 257ZM386 658T368 664T323 684Q318
686 307 691T291 696Q282 696 258 680T232 662L203 694Q228 721 258 748T304 775Q319 775 338 768T383 749Q417 733 425 733Q432 733 449 745T479 770L511 736Q492 714 457 686T406 658Q386 658 368 664Z" />
<glyph unicode="&#xc4;" glyph-name="Adieresis" horiz-adv-x="564" d="M530 44L523 0H297L305 52L369 68L353 197H177L126 69L192 52L183 0H-43L-36 44L29 63L278 605L395 614L408 600L473 62L530 44ZM202 257H347L328 534H322L202 257ZM226 768L313 773L324
750L304 660H216L226 768ZM401 768L487 773L499 750L478 660H390L401 768Z" />
<glyph unicode="&#xc5;" glyph-name="Aring" horiz-adv-x="564" d="M530 44L523 0H297L305 52L369 68L353 197H177L126 69L192 52L183 0H-43L-36 44L29 63L278 605L395 614L408 600L473 62L530 44ZM202 257H347L328 534H322L202 257ZM258 655T258 730Q258 791
290 828T381 866Q471 866 471 788Q471 728 436 692T344 655Q258 655 258 730ZM373 703T391 713Q396 728 400 749T405 784Q405 804 398 811T373 818Q355 818 337 808Q331 790 327 769T322 732Q322 715 329 709T352 703Q373 703 391 713Z" />
<glyph unicode="&#xc6;" glyph-name="AE" horiz-adv-x="695" d="M626 421L630 553L482 543L448 346L585 341L576 287L437 282L400 70L568 55L610 189L666 188L635 0H224L231 44L293 62L316 197H164L91 68L154 52L145 0H-81L-74 44L-8 63L282 540L213 561L220 605H715L682
421H626ZM375 535L355 534L198 257H327L375 535Z" />
<glyph unicode="&#xc7;" glyph-name="Ccedilla" horiz-adv-x="445" d="M382 422L388 533Q346 540 288 540Q263 540 251 534Q225 523 202 468T164 337T150 195Q150 143 162 116T195 80T246 71H314L353 191H409L380 14Q353 6 275 -1L268 -45Q298 -53 318 -70T338
-111Q338 -122 333 -135T320 -159Q292 -181 181 -222L164 -183Q209 -161 227 -150T246 -124Q246 -106 194 -91L191 -64L218 -6L181 -9Q144 -9 112 12T60 79T40 192Q40 260 60 349T110 496Q143 528 213 570T305 613Q333 612 382 610T481 603L440 422H382Z" />
<glyph unicode="&#xc8;" glyph-name="Egrave" horiz-adv-x="468" d="M398 421L402 549L255 535L222 346L358 341L348 287L211 282L174 70L341 57L382 189L439 188L407 0H-2L5 44L67 62L150 543L93 561L100 605H488L455 421H398ZM219 702L217 732L270 798L414 701L391
660L219 702Z" />
<glyph unicode="&#xc9;" glyph-name="Eacute" horiz-adv-x="468" d="M398 421L402 549L255 535L222 346L358 341L348 287L211 282L174 70L341 57L382 189L439 188L407 0H-2L5 44L67 62L150 543L93 561L100 605H488L455 421H398ZM219 701L396 798L428 732L417 702L228
660L219 701Z" />
<glyph unicode="&#xca;" glyph-name="Ecircumflex" horiz-adv-x="468" d="M398 421L402 549L255 535L222 346L358 341L348 287L211 282L174 70L341 57L382 189L439 188L407 0H-2L5 44L67 62L150 543L93 561L100 605H488L455 421H398ZM183 694L298 793H360L448
693L406 660L322 712H312L214 660L183 694Z" />
<glyph unicode="&#xcb;" glyph-name="Edieresis" horiz-adv-x="468" d="M398 421L402 549L255 535L222 346L358 341L348 287L211 282L174 70L341 57L382 189L439 188L407 0H-2L5 44L67 62L150 543L93 561L100 605H488L455 421H398ZM190 768L277 773L288 750L268
660H180L190 768ZM365 768L451 773L463 750L442 660H354L365 768Z" />
<glyph unicode="&#xcc;" glyph-name="Igrave" horiz-adv-x="299" d="M255 537L174 68L235 52L226 0H-2L5 44L67 62L150 543L94 561L100 605H328L320 553L255 537ZM131 702L129 732L182 798L326 701L303 660L131 702Z" />
<glyph unicode="&#xcd;" glyph-name="Iacute" horiz-adv-x="299" d="M255 537L174 68L235 52L226 0H-2L5 44L67 62L150 543L94 561L100 605H328L320 553L255 537ZM131 701L308 798L340 732L329 702L140 660L131 701Z" />
<glyph unicode="&#xce;" glyph-name="Icircumflex" horiz-adv-x="299" d="M255 537L174 68L235 52L226 0H-2L5 44L67 62L150 543L94 561L100 605H328L320 553L255 537ZM95 694L210 793H272L360 693L318 660L234 712H224L126 660L95 694Z" />
<glyph unicode="&#xcf;" glyph-name="Idieresis" horiz-adv-x="299" d="M255 537L174 68L235 52L226 0H-2L5 44L67 62L150 543L94 561L100 605H328L320 553L255 537ZM102 768L189 773L200 750L180 660H92L102 768ZM277 768L363 773L375 750L354 660H266L277 768Z" />
<glyph unicode="&#xd0;" glyph-name="Eth" horiz-adv-x="560" d="M453 605T500 559T547 417Q547 315 517 219T427 62T284 0H-2L5 44L68 62L105 282H57L66 333H114L150 543L93 561L100 605H384Q453 605 500 559ZM334 57T366 118T417 267T436 423Q436 484 422 516T379
549Q363 549 253 538L218 333H319L309 282H210L174 69Q268 57 293 57Q334 57 366 118Z" />
<glyph unicode="&#xd1;" glyph-name="Ntilde" horiz-adv-x="601" d="M629 561L567 543L474 7L358 -7L342 3L272 272Q263 306 237 435Q234 447 233 455T230 468H222L165 68L226 52L217 0H-2L5 44L67 63L150 544L93 561L100 605H283L361 294Q366 276 387 173Q397
120 400 111H407L470 536L408 553L416 605H636L629 561ZM410 658T392 664T347 684Q342 686 331 691T315 696Q306 696 282 680T256 662L227 694Q252 721 282 748T328 775Q343 775 362 768T407 749Q441 733 449 733Q456 733 473 745T503 770L535 736Q516 714 481
686T430 658Q410 658 392 664Z" />
<glyph unicode="&#xd2;" glyph-name="Ograve" horiz-adv-x="538" d="M149 -10T96 40T42 201Q42 272 63 360T113 497Q132 518 173 545T254 593T306 613Q416 613 471 565T527 411Q527 345 507 261T458 107Q436 84 395 57T316 10T262 -10Q149 -10 96 40ZM277 56T311
72T352 95Q376 156 396 258T416 425Q416 489 391 517T314 545Q280 545 252 534Q226 523 203 468T166 337T152 195Q152 143 162 113T197 70T268 56Q277 56 311 72ZM247 702L245 732L298 798L442 701L419 660L247 702Z" />
<glyph unicode="&#xd3;" glyph-name="Oacute" horiz-adv-x="538" d="M149 -10T96 40T42 201Q42 272 63 360T113 497Q132 518 173 545T254 593T306 613Q416 613 471 565T527 411Q527 345 507 261T458 107Q436 84 395 57T316 10T262 -10Q149 -10 96 40ZM277 56T311
72T352 95Q376 156 396 258T416 425Q416 489 391 517T314 545Q280 545 252 534Q226 523 203 468T166 337T152 195Q152 143 162 113T197 70T268 56Q277 56 311 72ZM248 701L425 798L457 732L446 702L257 660L248 701Z" />
<glyph unicode="&#xd4;" glyph-name="Ocircumflex" horiz-adv-x="538" d="M149 -10T96 40T42 201Q42 272 63 360T113 497Q132 518 173 545T254 593T306 613Q416 613 471 565T527 411Q527 345 507 261T458 107Q436 84 395 57T316 10T262 -10Q149 -10 96 40ZM277
56T311 72T352 95Q376 156 396 258T416 425Q416 489 391 517T314 545Q280 545 252 534Q226 523 203 468T166 337T152 195Q152 143 162 113T197 70T268 56Q277 56 311 72ZM211 694L326 793H388L476 693L434 660L350 712H340L242 660L211 694Z" />
<glyph unicode="&#xd5;" glyph-name="Otilde" horiz-adv-x="538" d="M149 -10T96 40T42 201Q42 272 63 360T113 497Q132 518 173 545T254 593T306 613Q416 613 471 565T527 411Q527 345 507 261T458 107Q436 84 395 57T316 10T262 -10Q149 -10 96 40ZM277 56T311
72T352 95Q376 156 396 258T416 425Q416 489 391 517T314 545Q280 545 252 534Q226 523 203 468T166 337T152 195Q152 143 162 113T197 70T268 56Q277 56 311 72ZM378 658T360 664T315 684Q310 686 299 691T283 696Q274 696 250 680T224 662L195 694Q220 721 250
748T296 775Q311 775 330 768T375 749Q409 733 417 733Q424 733 441 745T471 770L503 736Q484 714 449 686T398 658Q378 658 360 664Z" />
<glyph unicode="&#xd6;" glyph-name="Odieresis" horiz-adv-x="538" d="M149 -10T96 40T42 201Q42 272 63 360T113 497Q132 518 173 545T254 593T306 613Q416 613 471 565T527 411Q527 345 507 261T458 107Q436 84 395 57T316 10T262 -10Q149 -10 96 40ZM277 56T311
72T352 95Q376 156 396 258T416 425Q416 489 391 517T314 545Q280 545 252 534Q226 523 203 468T166 337T152 195Q152 143 162 113T197 70T268 56Q277 56 311 72ZM218 768L305 773L316 750L296 660H208L218 768ZM393 768L479 773L491 750L470 660H382L393 768Z"
/>
<glyph unicode="&#xd7;" glyph-name="multiply" horiz-adv-x="537" d="M325 230L437 88L377 36L265 177L107 39L62 98L218 236L108 375L169 426L278 289L440 432L488 373L325 230Z" />
<glyph unicode="&#xd8;" glyph-name="Oslash" horiz-adv-x="538" d="M479 558Q527 509 527 411Q527 345 507 261T458 107Q436 84 395 57T316 10T262 -10Q181 -10 131 15L84 -58L35 -60L24 -46L86 51Q42 101 42 201Q42 272 63 360T113 497Q132 518 173 545T254
593T306 613Q383 613 431 591L491 684L541 685L549 667L479 558ZM152 168T154 156L387 521Q363 545 314 545Q280 545 252 534Q226 523 203 468T166 337T152 195Q152 168 154 156ZM416 437T414 457L177 86Q201 56 268 56Q277 56 311 72T352 95Q376 156 396 258T416
425Q416 437 414 457Z" />
<glyph unicode="&#xd9;" glyph-name="Ugrave" horiz-adv-x="584" d="M542 542L461 62L519 43L512 0H373L361 63Q209 -9 200 -9Q138 -9 107 21T75 113Q75 133 81 175T103 306Q118 389 143 543L86 561L93 605H319L311 553L247 537L210 322Q197 246 191 205T184 145Q184
110 195 97T226 84Q249 84 366 118L437 537L378 553L387 605H613L607 561L542 542ZM266 702L264 732L317 798L461 701L438 660L266 702Z" />
<glyph unicode="&#xda;" glyph-name="Uacute" horiz-adv-x="584" d="M542 542L461 62L519 43L512 0H373L361 63Q209 -9 200 -9Q138 -9 107 21T75 113Q75 133 81 175T103 306Q118 389 143 543L86 561L93 605H319L311 553L247 537L210 322Q197 246 191 205T184 145Q184
110 195 97T226 84Q249 84 366 118L437 537L378 553L387 605H613L607 561L542 542ZM267 701L444 798L476 732L465 702L276 660L267 701Z" />
<glyph unicode="&#xdb;" glyph-name="Ucircumflex" horiz-adv-x="584" d="M542 542L461 62L519 43L512 0H373L361 63Q209 -9 200 -9Q138 -9 107 21T75 113Q75 133 81 175T103 306Q118 389 143 543L86 561L93 605H319L311 553L247 537L210 322Q197 246 191 205T184
145Q184 110 195 97T226 84Q249 84 366 118L437 537L378 553L387 605H613L607 561L542 542ZM230 694L345 793H407L495 693L453 660L369 712H359L261 660L230 694Z" />
<glyph unicode="&#xdc;" glyph-name="Udieresis" horiz-adv-x="584" d="M542 542L461 62L519 43L512 0H373L361 63Q209 -9 200 -9Q138 -9 107 21T75 113Q75 133 81 175T103 306Q118 389 143 543L86 561L93 605H319L311 553L247 537L210 322Q197 246 191 205T184
145Q184 110 195 97T226 84Q249 84 366 118L437 537L378 553L387 605H613L607 561L542 542ZM237 768L324 773L335 750L315 660H227L237 768ZM412 768L498 773L510 750L489 660H401L412 768Z" />
<glyph unicode="&#xdd;" glyph-name="Yacute" horiz-adv-x="477" d="M276 68L345 52L337 0H86L93 44L170 65L198 233L97 542L39 561L45 605H263L254 553L206 540L269 320H278L402 540L337 553L346 605H505L509 561L305 243L276 68ZM219 701L396 798L428 732L417
702L228 660L219 701Z" />
<glyph unicode="&#xde;" glyph-name="Thorn" horiz-adv-x="465" d="M409 491T444 462T480 374Q480 309 452 255T374 168T258 136H186L174 70L256 52L247 0H-2L5 44L67 62L150 543L94 561L100 605H328L319 554L255 538L247 491H346Q409 491 444 462ZM327 200T347
244T368 368Q368 436 330 436Q310 436 236 428L197 200H269Q327 200 347 244Z" />
<glyph unicode="&#xdf;" glyph-name="germandbls" horiz-adv-x="471" d="M342 331T353 316T389 276Q422 243 440 217T458 157Q458 131 442 92Q423 65 377 28T310 -9Q260 -9 136 3L132 -21Q127 -50 97 -88T31 -154T-19 -182Q-32 -182 -68 -169T-113 -152L-100 -106Q-80
-106 -45 -103T-2 -96Q12 -89 21 -59T38 17L119 494Q122 514 153 551T221 619T273 649Q347 649 402 625T457 538Q457 500 438 472T385 410Q362 387 352 374T342 347Q342 331 353 316ZM321 57T333 79T345 120Q345 145 333 167T295 217Q270 246 258 266T246 310Q246
347 266 377T324 443Q349 469 359 483T370 510Q370 547 341 557Q313 566 286 573T253 580Q246 580 238 563T225 525L150 87Q196 76 245 67T310 57Q321 57 333 79Z" />
<glyph unicode="&#xe0;" glyph-name="agrave" horiz-adv-x="448" d="M346 68L391 57L385 21Q382 20 375 18T357 13Q281 -9 272 -9Q268 -9 256 5T244 25L265 164H258L229 113Q159 -9 154 -9Q20 -9 20 141Q20 201 35 264T72 362Q93 384 160 422T245 460Q258 460
322 451T411 437L346 68ZM168 80T278 242L302 382Q277 390 252 395T211 400L203 399Q186 394 168 360T138 272T126 155Q126 118 135 99T158 80Q168 80 278 242ZM177 608L184 638L241 689L356 554L325 519L177 608Z" />
<glyph unicode="&#xe1;" glyph-name="aacute" horiz-adv-x="448" d="M346 68L391 57L385 21Q382 20 375 18T357 13Q281 -9 272 -9Q268 -9 256 5T244 25L265 164H258L229 113Q159 -9 154 -9Q20 -9 20 141Q20 201 35 264T72 362Q93 384 160 422T245 460Q258 460
322 451T411 437L346 68ZM168 80T278 242L302 382Q277 390 252 395T211 400L203 399Q186 394 168 360T138 272T126 155Q126 118 135 99T158 80Q168 80 278 242ZM194 554L350 689L394 634L387 604L214 519L194 554Z" />
<glyph unicode="&#xe2;" glyph-name="acircumflex" horiz-adv-x="448" d="M346 68L391 57L385 21Q382 20 375 18T357 13Q281 -9 272 -9Q268 -9 256 5T244 25L265 164H258L229 113Q159 -9 154 -9Q20 -9 20 141Q20 201 35 264T72 362Q93 384 160 422T245 460Q258
460 322 451T411 437L346 68ZM168 80T278 242L302 382Q277 390 252 395T211 400L203 399Q186 394 168 360T138 272T126 155Q126 118 135 99T158 80Q168 80 278 242ZM145 549L265 687H336L411 548L375 519L292 602H285L173 519L145 549Z" />
<glyph unicode="&#xe3;" glyph-name="atilde" horiz-adv-x="448" d="M346 68L391 57L385 21Q382 20 375 18T357 13Q281 -9 272 -9Q268 -9 256 5T244 25L265 164H258L229 113Q159 -9 154 -9Q20 -9 20 141Q20 201 35 264T72 362Q93 384 160 422T245 460Q258 460
322 451T411 437L346 68ZM168 80T278 242L302 382Q277 390 252 395T211 400L203 399Q186 394 168 360T138 272T126 155Q126 118 135 99T158 80Q168 80 278 242ZM309 529T290 536T246 555Q242 557 231 562T213 567Q204 567 180 551T154 533L125 565Q149 592 180
619T227 646Q242 646 261 639T306 620Q310 618 325 612T348 605Q355 605 372 617T401 641L433 607Q414 585 380 557T329 529Q309 529 290 536Z" />
<glyph unicode="&#xe4;" glyph-name="adieresis" horiz-adv-x="448" d="M346 68L391 57L385 21Q382 20 375 18T357 13Q281 -9 272 -9Q268 -9 256 5T244 25L265 164H258L229 113Q159 -9 154 -9Q20 -9 20 141Q20 201 35 264T72 362Q93 384 160 422T245 460Q258 460
322 451T411 437L346 68ZM168 80T278 242L302 382Q277 390 252 395T211 400L203 399Q186 394 168 360T138 272T126 155Q126 118 135 99T158 80Q168 80 278 242ZM162 645L249 650L261 627L241 537H152L162 645ZM321 645L407 650L419 627L398 537H310L321 645Z" />
<glyph unicode="&#xe5;" glyph-name="aring" horiz-adv-x="448" d="M346 68L391 57L385 21Q382 20 375 18T357 13Q281 -9 272 -9Q268 -9 256 5T244 25L265 164H258L229 113Q159 -9 154 -9Q20 -9 20 141Q20 201 35 264T72 362Q93 384 160 422T245 460Q258 460 322
451T411 437L346 68ZM168 80T278 242L302 382Q277 390 252 395T211 400L203 399Q186 394 168 360T138 272T126 155Q126 118 135 99T158 80Q168 80 278 242ZM227 518T206 536T184 593Q184 653 217 690T308 728Q351 728 373 710T396 650Q396 590 362 554T270 518Q227
518 206 536ZM297 565T317 576Q322 589 327 611T332 647Q332 666 325 673T300 681Q290 681 281 678T264 671Q259 658 254 632T249 594Q249 578 256 572T279 565Q297 565 317 576Z" />
<glyph unicode="&#xe6;" glyph-name="ae" horiz-adv-x="609" d="M612 321T575 284T483 226T375 199Q374 190 374 171Q374 118 388 93T439 68Q459 68 503 81T555 98L568 53Q534 35 474 13T398 -9Q337 -9 302 33T266 142Q266 162 267 172Q232 111 195 51T154 -9Q20
-9 20 141Q20 201 35 264T72 362Q93 384 160 422T245 460Q257 460 327 450T429 434Q479 460 492 460Q547 460 579 439T612 369Q612 321 575 284ZM455 405T446 402Q428 395 409 348T379 241Q427 251 468 285T509 363Q509 405 467 405Q455 405 446 402ZM329 373Q298
385 261 394T207 403Q190 403 171 369T139 278T126 155Q126 118 135 99T158 80Q169 80 276 240Q291 315 317 362L329 373Z" />
<glyph unicode="&#xe7;" glyph-name="ccedilla" horiz-adv-x="358" d="M198 393T182 360T154 276T143 171Q143 113 160 91T208 68H305L296 21Q239 5 211 -2L204 -45Q234 -53 253 -70T273 -111Q273 -122 268 -135T255 -159Q227 -181 116 -222L99 -183Q144 -161
162 -150T181 -124Q181 -106 129 -91L127 -64L152 -8Q95 -2 65 39T34 142Q34 200 49 263T85 362Q106 384 174 422T260 460Q269 460 290 457T324 453Q330 452 371 446L339 295H296L285 386Q245 400 225 400Q220 400 214 398Q198 393 182 360Z" />
<glyph unicode="&#xe8;" glyph-name="egrave" horiz-adv-x="363" d="M366 321T329 284T237 225T129 199Q128 190 128 171Q128 118 142 93T193 68Q217 68 289 92L310 98L323 53Q288 35 228 13T152 -9Q91 -9 56 33T20 142Q20 200 36 263T72 362Q93 384 161 422T246
460Q366 460 366 369Q366 321 329 284ZM182 392T162 347T133 241Q163 247 193 264T243 307T263 360Q263 381 252 391T222 401Q209 401 200 398Q182 392 162 347ZM149 608L156 638L213 689L328 554L297 519L149 608Z" />
<glyph unicode="&#xe9;" glyph-name="eacute" horiz-adv-x="363" d="M366 321T329 284T237 225T129 199Q128 190 128 171Q128 118 142 93T193 68Q217 68 289 92L310 98L323 53Q288 35 228 13T152 -9Q91 -9 56 33T20 142Q20 200 36 263T72 362Q93 384 161 422T246
460Q366 460 366 369Q366 321 329 284ZM182 392T162 347T133 241Q163 247 193 264T243 307T263 360Q263 381 252 391T222 401Q209 401 200 398Q182 392 162 347ZM165 554L321 689L365 634L358 604L185 519L165 554Z" />
<glyph unicode="&#xea;" glyph-name="ecircumflex" horiz-adv-x="363" d="M366 321T329 284T237 225T129 199Q128 190 128 171Q128 118 142 93T193 68Q217 68 289 92L310 98L323 53Q288 35 228 13T152 -9Q91 -9 56 33T20 142Q20 200 36 263T72 362Q93 384 161
422T246 460Q366 460 366 369Q366 321 329 284ZM182 392T162 347T133 241Q163 247 193 264T243 307T263 360Q263 381 252 391T222 401Q209 401 200 398Q182 392 162 347ZM116 549L236 687H307L382 548L346 519L263 602H256L144 519L116 549Z" />
<glyph unicode="&#xeb;" glyph-name="edieresis" horiz-adv-x="363" d="M366 321T329 284T237 225T129 199Q128 190 128 171Q128 118 142 93T193 68Q217 68 289 92L310 98L323 53Q288 35 228 13T152 -9Q91 -9 56 33T20 142Q20 200 36 263T72 362Q93 384 161 422T246
460Q366 460 366 369Q366 321 329 284ZM182 392T162 347T133 241Q163 247 193 264T243 307T263 360Q263 381 252 391T222 401Q209 401 200 398Q182 392 162 347ZM134 645L221 650L233 627L213 537H124L134 645ZM293 645L379 650L391 627L370 537H282L293 645Z"
/>
<glyph unicode="&#xec;" glyph-name="igrave" horiz-adv-x="249" d="M67 -9T55 5T44 25L107 383L62 394L68 430Q92 438 135 449T186 460Q191 460 203 446T214 426L151 68L196 57L190 21Q170 14 125 3T72 -9Q67 -9 55 5ZM87 608L94 638L151 689L266 554L235 519L87 608Z" />
<glyph unicode="&#xed;" glyph-name="iacute" horiz-adv-x="249" d="M67 -9T55 5T44 25L107 383L62 394L68 430Q92 438 135 449T186 460Q191 460 203 446T214 426L151 68L196 57L190 21Q170 14 125 3T72 -9Q67 -9 55 5ZM103 554L259 689L303 634L296 604L123 519L103
554Z" />
<glyph unicode="&#xee;" glyph-name="icircumflex" horiz-adv-x="249" d="M67 -9T55 5T44 25L107 383L62 394L68 430Q92 438 135 449T186 460Q191 460 203 446T214 426L151 68L196 57L190 21Q170 14 125 3T72 -9Q67 -9 55 5ZM54 549L174 687H245L320 548L284 519L201
602H194L82 519L54 549Z" />
<glyph unicode="&#xef;" glyph-name="idieresis" horiz-adv-x="249" d="M67 -9T55 5T44 25L107 383L62 394L68 430Q92 438 135 449T186 460Q191 460 203 446T214 426L151 68L196 57L190 21Q170 14 125 3T72 -9Q67 -9 55 5ZM72 645L159 650L171 627L151 537H62L72
645ZM231 645L317 650L329 627L308 537H220L231 645Z" />
<glyph unicode="&#xf0;" glyph-name="eth" horiz-adv-x="407" d="M446 557L373 523Q403 471 403 391Q403 289 375 198T289 49T146 -9Q136 -9 110 9T59 51T28 90Q21 121 21 156Q21 220 44 271T110 352T210 382Q216 382 243 368T295 340Q297 367 297 415Q297 456
290 484L204 444L171 468L177 484L269 527Q242 560 185 560L175 615Q286 617 343 561L424 599L452 574L446 557ZM210 45T245 113T291 287Q273 299 250 309T216 319Q167 319 144 256T120 119Q120 83 124 64T137 45Q210 45 245 113Z" />
<glyph unicode="&#xf1;" glyph-name="ntilde" horiz-adv-x="475" d="M379 68L423 57L417 20Q307 -9 300 -9Q295 -9 283 5T271 25L323 306Q326 321 326 335Q326 370 301 370Q294 370 261 327T177 213L154 83Q153 79 153 71Q153 49 170 42L169 14Q78 -9 71 -9Q66
-9 54 5T43 25L107 383L62 394L68 430Q92 438 135 449T185 460Q189 460 200 446T211 426L189 287H195Q294 460 301 460Q368 460 397 435T427 354Q427 327 421 291L379 68ZM326 529T307 536T263 555Q259 557 248 562T230 567Q221 567 197 551T171 533L142 565Q166
592 197 619T244 646Q259 646 278 639T323 620Q327 618 342 612T365 605Q372 605 389 617T418 641L450 607Q431 585 397 557T346 529Q326 529 307 536Z" />
<glyph unicode="&#xf2;" glyph-name="ograve" horiz-adv-x="435" d="M100 -9T61 28T21 149Q21 202 36 265T72 362Q101 388 164 426T246 464Q330 464 370 425T411 309Q411 256 395 194T360 91Q338 68 271 30T186 -9Q100 -9 61 28ZM203 53T208 54Q216 55 232 63T258
77Q305 202 305 304Q305 351 284 377T227 403Q213 403 201 399Q185 394 168 360T139 270T127 150Q127 53 194 53Q203 53 208 54ZM173 608L180 638L237 689L352 554L321 519L173 608Z" />
<glyph unicode="&#xf3;" glyph-name="oacute" horiz-adv-x="435" d="M100 -9T61 28T21 149Q21 202 36 265T72 362Q101 388 164 426T246 464Q330 464 370 425T411 309Q411 256 395 194T360 91Q338 68 271 30T186 -9Q100 -9 61 28ZM203 53T208 54Q216 55 232 63T258
77Q305 202 305 304Q305 351 284 377T227 403Q213 403 201 399Q185 394 168 360T139 270T127 150Q127 53 194 53Q203 53 208 54ZM190 554L346 689L390 634L383 604L210 519L190 554Z" />
<glyph unicode="&#xf4;" glyph-name="ocircumflex" horiz-adv-x="435" d="M100 -9T61 28T21 149Q21 202 36 265T72 362Q101 388 164 426T246 464Q330 464 370 425T411 309Q411 256 395 194T360 91Q338 68 271 30T186 -9Q100 -9 61 28ZM203 53T208 54Q216 55 232
63T258 77Q305 202 305 304Q305 351 284 377T227 403Q213 403 201 399Q185 394 168 360T139 270T127 150Q127 53 194 53Q203 53 208 54ZM140 549L260 687H331L406 548L370 519L287 602H280L168 519L140 549Z" />
<glyph unicode="&#xf5;" glyph-name="otilde" horiz-adv-x="435" d="M100 -9T61 28T21 149Q21 202 36 265T72 362Q101 388 164 426T246 464Q330 464 370 425T411 309Q411 256 395 194T360 91Q338 68 271 30T186 -9Q100 -9 61 28ZM203 53T208 54Q216 55 232 63T258
77Q305 202 305 304Q305 351 284 377T227 403Q213 403 201 399Q185 394 168 360T139 270T127 150Q127 53 194 53Q203 53 208 54ZM305 529T286 536T242 555Q238 557 227 562T209 567Q200 567 176 551T150 533L121 565Q145 592 176 619T223 646Q238 646 257 639T302
620Q306 618 321 612T344 605Q351 605 368 617T397 641L429 607Q410 585 376 557T325 529Q305 529 286 536Z" />
<glyph unicode="&#xf6;" glyph-name="odieresis" horiz-adv-x="435" d="M100 -9T61 28T21 149Q21 202 36 265T72 362Q101 388 164 426T246 464Q330 464 370 425T411 309Q411 256 395 194T360 91Q338 68 271 30T186 -9Q100 -9 61 28ZM203 53T208 54Q216 55 232
63T258 77Q305 202 305 304Q305 351 284 377T227 403Q213 403 201 399Q185 394 168 360T139 270T127 150Q127 53 194 53Q203 53 208 54ZM158 645L245 650L257 627L237 537H148L158 645ZM317 645L403 650L415 627L394 537H306L317 645Z" />
<glyph unicode="&#xf7;" glyph-name="divide" horiz-adv-x="595" d="M241 -1T229 13T218 33L229 117Q249 122 274 125T313 129Q317 129 329 115T341 95L323 12Q307 8 283 4T246 -1Q241 -1 229 13ZM360 289H772L760 221H348L360 289ZM301 377T289 391T278 411L289
495Q309 500 334 503T373 507Q377 507 389 493T401 473L383 390Q367 386 343 382T306 377Q301 377 289 391Z" />
<glyph unicode="&#xf8;" glyph-name="oslash" horiz-adv-x="435" d="M411 386T411 309Q411 256 395 194T360 91Q338 68 271 30T186 -9Q134 -9 101 4L49 -77L14 -78L2 -60L59 30Q21 67 21 149Q21 202 36 265T72 362Q101 388 164 426T246 464Q297 464 329 451L389
544L427 545L436 527L371 425Q411 386 411 309ZM127 136L283 378Q261 403 227 403Q213 403 201 399Q185 394 168 360T139 270T127 150V136ZM305 202T305 304Q305 316 304 321L146 75Q164 53 194 53Q203 53 208 54Q216 55 232 63T258 77Q305 202 305 304Z" />
<glyph unicode="&#xf9;" glyph-name="ugrave" horiz-adv-x="476" d="M409 460T421 446T432 426L370 68L415 57L409 21Q379 12 340 2T293 -9Q289 -9 277 5T265 25L286 162H279Q261 132 257 123Q229 75 204 34T175 -8Q108 -8 79 14T50 91Q50 123 55 153L97 384L52
395L58 431L93 440Q111 444 142 452T176 460Q181 460 192 446T204 426L153 143Q150 127 150 114Q150 81 175 81Q182 81 214 122T298 233L321 369Q322 374 322 381Q322 403 305 409L306 437Q397 460 404 460Q409 460 421 446ZM170 608L177 638L234 689L349 554L318
519L170 608Z" />
<glyph unicode="&#xfa;" glyph-name="uacute" horiz-adv-x="476" d="M409 460T421 446T432 426L370 68L415 57L409 21Q379 12 340 2T293 -9Q289 -9 277 5T265 25L286 162H279Q261 132 257 123Q229 75 204 34T175 -8Q108 -8 79 14T50 91Q50 123 55 153L97 384L52
395L58 431L93 440Q111 444 142 452T176 460Q181 460 192 446T204 426L153 143Q150 127 150 114Q150 81 175 81Q182 81 214 122T298 233L321 369Q322 374 322 381Q322 403 305 409L306 437Q397 460 404 460Q409 460 421 446ZM187 554L343 689L387 634L380 604L207
519L187 554Z" />
<glyph unicode="&#xfb;" glyph-name="ucircumflex" horiz-adv-x="476" d="M409 460T421 446T432 426L370 68L415 57L409 21Q379 12 340 2T293 -9Q289 -9 277 5T265 25L286 162H279Q261 132 257 123Q229 75 204 34T175 -8Q108 -8 79 14T50 91Q50 123 55 153L97
384L52 395L58 431L93 440Q111 444 142 452T176 460Q181 460 192 446T204 426L153 143Q150 127 150 114Q150 81 175 81Q182 81 214 122T298 233L321 369Q322 374 322 381Q322 403 305 409L306 437Q397 460 404 460Q409 460 421 446ZM138 549L258 687H329L404 548L368
519L285 602H278L166 519L138 549Z" />
<glyph unicode="&#xfc;" glyph-name="udieresis" horiz-adv-x="476" d="M409 460T421 446T432 426L370 68L415 57L409 21Q379 12 340 2T293 -9Q289 -9 277 5T265 25L286 162H279Q261 132 257 123Q229 75 204 34T175 -8Q108 -8 79 14T50 91Q50 123 55 153L97 384L52
395L58 431L93 440Q111 444 142 452T176 460Q181 460 192 446T204 426L153 143Q150 127 150 114Q150 81 175 81Q182 81 214 122T298 233L321 369Q322 374 322 381Q322 403 305 409L306 437Q397 460 404 460Q409 460 421 446ZM155 645L242 650L254 627L234 537H145L155
645ZM314 645L400 650L412 627L391 537H303L314 645Z" />
<glyph unicode="&#xfd;" glyph-name="yacute" horiz-adv-x="408" d="M421 460T432 445T442 423L227 -9L180 -165Q171 -169 151 -175T124 -182Q113 -182 98 -168T77 -146L165 8L104 17L76 376L24 389L28 426Q31 426 70 439Q89 444 115 452T144 460Q148 460 162
447T177 426L187 188L184 72H197L335 386L284 403L290 444Q311 447 352 452T416 460Q421 460 432 445ZM169 554L325 689L369 634L362 604L189 519L169 554Z" />
<glyph unicode="&#xfe;" glyph-name="thorn" horiz-adv-x="449" d="M424 460T424 310Q424 251 409 188T372 90Q352 69 284 30T199 -9Q181 -9 130 -1L112 -105L156 -116L150 -152Q127 -159 83 -170T31 -182Q27 -182 16 -167T5 -146L132 571L87 583L93 619Q116 626
159 637T210 649Q215 649 226 634T237 613L180 284H185Q283 460 290 460Q424 460 424 310ZM258 54T276 89T306 179T318 296Q318 333 309 352T286 371Q281 371 249 326T183 233L167 210L142 70Q172 59 201 53T241 49Q258 54 276 89Z" />
<glyph unicode="&#xff;" glyph-name="ydieresis" horiz-adv-x="408" d="M421 460T432 445T442 423L227 -9L180 -165Q171 -169 151 -175T124 -182Q113 -182 98 -168T77 -146L165 8L104 17L76 376L24 389L28 426Q31 426 70 439Q89 444 115 452T144 460Q148 460 162
447T177 426L187 188L184 72H197L335 386L284 403L290 444Q311 447 352 452T416 460Q421 460 432 445ZM137 645L224 650L236 627L216 537H127L137 645ZM296 645L382 650L394 627L373 537H285L296 645Z" />
<glyph unicode="&#x2013;" glyph-name="endash" horiz-adv-x="457" d="M50 283H427L416 214H37L50 283Z" />
<glyph unicode="&#x2014;" glyph-name="emdash" horiz-adv-x="835" d="M50 283H805L793 214H37L50 283Z" />
<glyph unicode="&#x2018;" glyph-name="quoteleft" horiz-adv-x="221" d="M106 405T94 419T82 439Q101 557 209 672L248 648Q206 577 188 535Q190 533 199 525T208 508L194 418Q173 413 148 410T111 405Q106 405 94 419Z" />
<glyph unicode="&#x2019;" glyph-name="quoteright" horiz-adv-x="221" d="M82 432Q119 494 143 544Q136 550 129 557T122 571L136 662Q157 667 182 670T219 675Q224 675 236 661T248 641Q229 523 121 408L82 432Z" />
<glyph unicode="&#x201a;" glyph-name="quotesinglbase" horiz-adv-x="216" d="M0 -91Q42 -23 52 -3L32 19L50 107Q96 111 125 111Q129 111 137 98T144 80L137 33Q134 16 103 -27T34 -113L0 -91Z" />
<glyph unicode="&#x201c;" glyph-name="quotedblleft" horiz-adv-x="373" d="M106 405T94 419T82 439Q101 557 209 672L248 647Q208 579 188 535Q190 533 199 524T208 508L194 418Q173 413 148 410T111 405Q106 405 94 419ZM258 405T246 419T235 439Q246 508 282
567T361 672L400 647Q360 579 340 535Q342 533 351 524T360 508L346 418Q326 413 301 410T263 405Q258 405 246 419Z" />
<glyph unicode="&#x201d;" glyph-name="quotedblright" horiz-adv-x="373" d="M82 432Q119 494 143 544Q136 550 129 557T122 571L136 662Q157 667 182 670T219 675Q224 675 236 661T248 641Q229 523 121 408L82 432ZM234 432Q278 506 295 544Q293 546 283 555T275
571L288 662Q309 667 334 670T372 675Q376 675 388 661T400 641Q381 523 273 408L234 432Z" />
<glyph unicode="&#x201e;" glyph-name="quotedblbase" horiz-adv-x="360" d="M0 -91Q42 -23 52 -3L32 19L50 107Q96 111 125 111Q129 111 137 98T144 80L137 33Q134 16 103 -27T34 -113L0 -91ZM144 -91Q186 -23 196 -3L176 19L194 107Q240 111 269 111Q273 111
281 98T288 80L281 33Q278 16 247 -27T178 -113L144 -91Z" />
<glyph unicode="&#x2022;" glyph-name="bullet" horiz-adv-x="392" d="M150 166T125 189T99 253Q99 288 116 318T162 366T226 384Q265 384 290 361T315 297Q315 262 298 232T252 184T189 166Q150 166 125 189Z" />
<glyph unicode="&#x2039;" glyph-name="guilsinglleft" horiz-adv-x="247" d="M29 213L36 260L200 411L232 384L132 240L131 233L178 77L138 49L29 213Z" />
<glyph unicode="&#x203a;" glyph-name="guilsinglright" horiz-adv-x="266" d="M34 78L134 232L135 240L82 385L123 411L236 260L229 213L66 49L34 78Z" />
</font>
</defs>
</svg>
