<?xml version="1.0" standalone="no"?>
<!DOCTYPE svg PUBLIC "-//W3C//DTD SVG 1.1//EN" "http://www.w3.org/Graphics/SVG/1.1/DTD/svg11.dtd">
<svg xmlns="http://www.w3.org/2000/svg">
<defs >
<font id="Grenze" horiz-adv-x="472" ><font-face
    font-family="Grenze Medium"
    units-per-em="1000"
    panose-1="2 14 6 4 6 4 3 5 4 4"
    ascent="1100"
    descent="-380"
    alphabetic="0" />
<glyph unicode=" " glyph-name="space" horiz-adv-x="160" />
<glyph unicode="!" glyph-name="exclam" horiz-adv-x="271" d="M114 185T107 191T100 199L80 614Q158 629 168 629Q170 629 180 621T191 609L171 191Q162 190 143 188T116 185Q114 185 107 191ZM98 -2T90 8T82 22L87 115H181L189 4Q129 -2 102 -2Q98 -2 90 8Z" />
<glyph unicode="&quot;" glyph-name="quotedbl" horiz-adv-x="322" d="M33 678Q80 687 107 687Q112 687 122 678T132 665Q123 595 105 489L54 488L33 678ZM190 678Q237 687 264 687Q269 687 279 678T288 665Q280 595 262 489L211 488L190 678Z" />
<glyph unicode="#" glyph-name="numbersign" horiz-adv-x="555" d="M397 298L380 192H488L476 117H368L349 -5H289L308 117H202L183 -5H123L142 117H32L44 192H154L171 298H63L74 372H183L202 495H262L243 372H349L368 495H428L409 372H518L507 298H397ZM337 298H231L214
192H320L337 298Z" />
<glyph unicode="$" glyph-name="dollar" horiz-adv-x="499" d="M285 316Q359 280 402 247T446 166Q446 137 441 110Q421 72 370 33T283 -10V-106H217V-9Q155 -7 63 0L69 160H129L143 75Q231 58 292 58Q308 58 320 87T333 136Q333 161 303 181T197 238Q127 270
96 304T65 382Q65 409 70 431Q79 452 106 481T166 532T221 558V662H287V557Q338 556 418 547L408 391H348L339 477Q234 496 203 496Q188 496 177 477T165 431Q165 395 185 376T255 331L285 316Z" />
<glyph unicode="%" glyph-name="percent" horiz-adv-x="918" d="M571 611H641L346 -9H276L571 611ZM155 281T120 319T84 438Q85 506 119 550T234 594Q314 594 349 556T385 439Q384 372 349 327T235 281Q155 281 120 319ZM254 331T293 355Q298 395 298 440Q298
500 288 522T246 544Q211 544 173 520Q169 476 169 438Q169 377 179 354T221 331Q254 331 293 355ZM605 7T570 44T534 160Q534 230 568 275T683 320Q763 320 798 282T834 165Q834 97 799 52T684 7Q605 7 570 44ZM705 58T743 81Q747 129 747 167Q747 208 743 230T728
261T696 271Q662 271 623 247Q619 201 619 165Q619 104 629 81T670 58Q705 58 743 81Z" />
<glyph unicode="&amp;" glyph-name="ampersand" horiz-adv-x="591" d="M578 49V0H464Q452 1 379 79L365 56Q345 39 294 15T221 -9Q144 -9 86 29T28 155Q28 210 62 258T144 341Q116 376 105 411T94 476Q94 488 96 503T103 528Q116 546 164 579T228 613Q294 613
332 591T371 524Q371 496 358 428H300L295 509Q294 539 269 547T206 555Q195 555 188 542T181 508Q181 450 226 395Q289 318 385 216Q401 243 427 295L366 313L367 356H557V305L514 295Q471 228 432 166L534 62L578 49ZM293 65T333 129Q269 200 180 300Q159 273
148 238T137 168Q137 111 165 84T236 56Q261 56 278 61Q293 65 333 129Z" />
<glyph unicode="&apos;" glyph-name="quotesingle" horiz-adv-x="165" d="M33 678Q80 687 107 687Q112 687 122 678T132 665Q123 595 105 489L54 488L33 678Z" />
<glyph unicode="(" glyph-name="parenleft" horiz-adv-x="255" d="M125 -45T80 52T34 284Q34 419 79 517T189 682L227 652Q186 584 162 486T138 286Q138 182 162 83T227 -84L189 -114Q125 -45 80 52Z" />
<glyph unicode=")" glyph-name="parenright" horiz-adv-x="255" d="M28 -84Q69 -16 93 82T118 282Q118 385 94 484T28 652L66 682Q130 614 175 516T221 284Q221 148 176 50T66 -114L28 -84Z" />
<glyph unicode="*" glyph-name="asterisk" horiz-adv-x="323" d="M129 397L145 493L69 432L48 436L22 492L122 532L23 573L48 628L68 632L145 571L129 679L191 683L204 668L189 571L265 632L285 627L312 572L210 532L311 492L285 436L265 433L189 494L205 386L143
381L129 397Z" />
<glyph unicode="+" glyph-name="plus" horiz-adv-x="623" d="M525 220H352V32H271V220H98V288H271V475H352V288H525V220Z" />
<glyph unicode="," glyph-name="comma" horiz-adv-x="224" d="M49 -109Q59 -86 70 -55T87 -4Q80 1 73 6T65 17L69 105Q121 113 148 113Q153 113 164 101T175 83V33Q175 9 149 -40T91 -130L49 -109Z" />
<glyph unicode="-" glyph-name="hyphen" horiz-adv-x="325" d="M38 283H286V205H38V283Z" />
<glyph unicode="." glyph-name="period" horiz-adv-x="203" d="M74 -11T61 2T47 23L44 106Q64 111 88 114T125 119Q130 119 144 105T159 85L152 2Q137 -2 114 -6T80 -11Q74 -11 61 2Z" />
<glyph unicode="/" glyph-name="slash" horiz-adv-x="363" d="M246 687H320L117 -118H43L246 687Z" />
<glyph unicode="0" glyph-name="zero" horiz-adv-x="493" d="M145 -10T94 53T43 235Q43 296 63 350T128 441T246 477Q349 477 399 415T450 235Q450 174 430 118T365 26T248 -10Q145 -10 94 53ZM255 51T277 58T324 81Q330 104 332 138T334 235Q334 334 318 375T263
416Q217 416 169 386Q162 362 161 329T159 235Q159 135 175 93T229 51Q255 51 277 58Z" />
<glyph unicode="1" glyph-name="one" horiz-adv-x="378" d="M55 43L154 65V387L49 377V426L210 477L257 460V65L343 43V0H55V43Z" />
<glyph unicode="2" glyph-name="two" horiz-adv-x="445" d="M35 52L201 254Q231 291 242 313T253 360Q253 379 247 396T230 414Q222 414 188 408T135 396L125 313H70L63 456Q99 463 163 470T246 477Q298 477 335 452T372 374Q372 342 356 308T313 241L185 86V78H327L335
149H392L396 0H44L35 52Z" />
<glyph unicode="3" glyph-name="three" horiz-adv-x="398" d="M57 -35Q133 -17 189 24T245 122Q245 153 234 173T208 194H106V241Q174 257 201 285T229 361Q229 379 222 396T205 414Q198 414 163 408T109 396L99 324H44L37 456Q72 463 122 470T189 477Q252 477
291 451T330 369Q330 342 314 317T277 273T242 251V245Q300 236 328 209T356 131Q356 83 312 34T198 -50T57 -94V-35Z" />
<glyph unicode="4" glyph-name="four" horiz-adv-x="479" d="M272 42H27L21 94Q56 170 104 284T184 478L275 441V417Q256 377 205 277T122 123L124 114H272V243L349 272L371 263V114H437V42H371V-92H272V42Z" />
<glyph unicode="5" glyph-name="five" horiz-adv-x="396" d="M54 -35Q113 -20 153 -3T218 47T244 130Q244 176 223 197T169 218Q163 218 105 198Q80 189 65 185L46 210L70 468H255L261 514H316L321 389H137L126 259Q186 287 197 287Q275 287 314 247T353 149Q353
82 310 29T198 -55T54 -94V-35Z" />
<glyph unicode="6" glyph-name="six" horiz-adv-x="452" d="M154 -10T99 49T44 213Q44 317 88 391T203 506T358 557V498Q272 480 219 426T156 301L159 299Q239 341 248 341Q336 341 373 294T411 175Q411 157 408 131T400 92Q377 60 328 25T251 -10Q154 -10 99
49ZM301 53T301 177Q301 232 285 252T237 272Q231 272 203 264T154 248Q153 229 153 196Q153 121 176 87T265 53Q301 53 301 177Z" />
<glyph unicode="7" glyph-name="seven" horiz-adv-x="425" d="M152 -101T124 -88T72 -63L296 377L294 389H111L102 312H46L38 468H386L398 418L182 -90Q165 -101 159 -101Q152 -101 124 -88Z" />
<glyph unicode="8" glyph-name="eight" horiz-adv-x="447" d="M167 -10T124 14T63 74T45 144Q45 184 65 216T128 280V285Q95 308 77 336T58 404Q58 439 64 456Q73 469 102 494T165 538T221 558Q298 558 343 522T388 430Q388 346 318 284V279Q357 253 379 223T402
148Q402 124 393 92Q384 78 355 53T292 9T235 -10Q167 -10 124 14ZM290 362T290 405Q290 447 271 470T194 494Q180 494 172 480T163 435Q163 403 177 381T211 346T271 310Q290 362 290 405ZM269 53T277 63T291 90T297 128Q297 156 280 177T244 210T172 253Q161
234 152 210T143 163Q143 115 168 84T264 53Q269 53 277 63Z" />
<glyph unicode="9" glyph-name="nine" horiz-adv-x="452" d="M91 -35Q179 -16 234 39T298 166L294 168Q223 126 213 126Q125 126 84 177T43 299Q43 317 46 339T55 375Q78 407 126 441T202 476Q301 476 355 418T409 254Q409 149 365 74T249 -42T91 -94V-35ZM229
194T299 218Q300 235 300 265Q300 343 277 378T189 414Q152 414 152 306Q152 194 225 194Q229 194 299 218Z" />
<glyph unicode=":" glyph-name="colon" horiz-adv-x="204" d="M74 -11T61 2T47 23L44 106Q64 111 88 114T125 119Q130 119 144 105T159 85L152 2Q137 -2 114 -6T80 -11Q74 -11 61 2ZM74 343T61 356T47 377L44 460Q64 465 88 468T125 473Q130 473 144 459T159 439L152
356Q137 352 114 348T80 343Q74 343 61 356Z" />
<glyph unicode=";" glyph-name="semicolon" horiz-adv-x="204" d="M74 343T61 356T47 377L44 460Q64 465 88 468T125 473Q130 473 144 459T159 439L152 356Q137 352 114 348T80 343Q74 343 61 356ZM295 -109Q305 -86 316 -55T333 -4Q326 1 319 6T311 17L315 105Q367
113 394 113Q399 113 410 101T421 83V33Q421 9 395 -40T337 -130L295 -109Z" />
<glyph unicode="&lt;" glyph-name="less" horiz-adv-x="578" d="M83 187V288L494 464V382L140 238L494 93V11L83 187Z" />
<glyph unicode="=" glyph-name="equal" horiz-adv-x="595" d="M98 365H496V297H98V365ZM98 184H496V117H98V184Z" />
<glyph unicode="&gt;" glyph-name="greater" horiz-adv-x="578" d="M83 93L438 238L83 382V464L494 288V187L83 11V93Z" />
<glyph unicode="?" glyph-name="question" horiz-adv-x="422" d="M313 618T347 590T382 494Q382 455 367 424T330 369T270 314Q249 296 248 295Q222 272 212 247T201 169Q192 168 173 166T146 163Q144 163 137 169T130 177L128 246Q127 272 137 293T162 328T208
370Q252 408 270 437T289 497Q289 519 282 536T257 554Q231 554 147 539L136 448H77L68 603Q182 618 239 618Q313 618 347 590ZM201 109L211 -4Q166 -9 136 -9Q132 -9 124 1T116 16L130 109H201Z" />
<glyph unicode="@" glyph-name="at" horiz-adv-x="824" d="M255 -177T187 -136T76 -11T34 195Q34 332 80 436T216 599T429 657Q615 657 702 577T789 352Q789 280 769 205T725 75T691 10Q649 4 594 -2T515 -10Q510 -10 495 5T480 25V61Q473 56 465 49T445 35Q386
-10 382 -10Q339 -10 303 14T244 86T222 203Q222 248 229 291T247 359Q258 374 290 398T354 441T399 460Q410 460 477 451T580 435V67L649 57Q668 121 679 195T691 326Q691 460 627 525T431 590Q379 590 322 575T219 532Q199 511 179 456T147 334T134 212Q134 108
153 38T229 -73T391 -115Q416 -115 478 -111L485 -158Q397 -177 334 -177Q255 -177 187 -136ZM402 71T476 108V377Q381 401 369 398Q332 384 332 217Q332 169 342 136T366 87T393 71Q402 71 476 108Z" />
<glyph unicode="A" glyph-name="A" horiz-adv-x="589" d="M4 43L66 63L228 598Q252 602 293 606T349 612Q353 612 367 604L531 63L593 43V0H348V49L416 68L380 197H198L165 68L236 49V0H4V43ZM363 257L295 515H283L215 257H363Z" />
<glyph unicode="B" glyph-name="B" horiz-adv-x="524" d="M39 43L100 64V540L39 561V604H306Q384 604 422 570T460 449Q460 393 434 366T370 320V314Q428 304 463 267T498 174Q498 80 449 40T316 0H39V43ZM272 333Q312 333 330 353T348 432Q348 497 339 525T305
551L209 539V333H272ZM359 51T372 81T385 186Q385 224 376 242T350 265T303 270H209V67L329 54Q359 51 372 81Z" />
<glyph unicode="C" glyph-name="C" horiz-adv-x="462" d="M177 -10T134 21T65 117T39 279Q39 346 47 402T69 493Q86 517 122 545T194 593T247 613Q276 612 328 609T431 601L419 421H360L347 527Q323 532 287 535T231 539Q212 539 200 533Q178 522 166 463T153
311Q153 176 186 124T278 71H345L362 197L419 196L421 14Q395 7 321 -1T231 -10Q177 -10 134 21Z" />
<glyph unicode="D" glyph-name="D" horiz-adv-x="580" d="M39 43L100 64V540L39 561V604H330Q385 604 433 577T511 485T541 319Q541 156 486 78T330 0H39V43ZM379 54T403 123T427 312Q427 377 416 431T385 518T338 551L209 538V69L338 54Q379 54 403 123Z" />
<glyph unicode="E" glyph-name="E" horiz-adv-x="488" d="M39 43L100 64V540L39 561V604H454L441 426H381L370 549L209 535V346L353 341V286L209 281V71L379 55L395 182H455L459 0H39V43Z" />
<glyph unicode="F" glyph-name="F" horiz-adv-x="455" d="M39 43L100 64V540L39 561V604H435L422 425H362L351 549L209 535V328L350 323V269L209 264V71L309 48V0H39V43Z" />
<glyph unicode="G" glyph-name="G" horiz-adv-x="544" d="M163 -10T101 63T39 279Q39 346 47 402T69 493Q86 517 122 545T194 593T247 613Q280 612 347 608T457 599L445 423H385L373 524Q348 529 300 534T231 539Q212 539 200 533Q178 522 166 463T153 311Q153
174 183 120T268 65L371 75V227L278 244V295H522V251L468 238V58Q447 44 365 17T266 -10Q163 -10 101 63Z" />
<glyph unicode="H" glyph-name="H" horiz-adv-x="632" d="M39 43L100 64V540L39 561V604H273V556L208 534V341H424V534L360 556V604H594V561L532 540V64L594 43V0H360V50L424 70V281H208V70L273 50V0H39V43Z" />
<glyph unicode="I" glyph-name="I" horiz-adv-x="315" d="M39 43L102 64V540L39 561V604H276V557L210 536V68L276 48V0H39V43Z" />
<glyph unicode="J" glyph-name="J" horiz-adv-x="308" d="M51 -128T-3 -113L-41 -104V-50Q53 -50 68 -47Q100 -42 100 70V540L35 561V604H273V561L208 540V41Q208 11 181 -29T119 -98T67 -128Q51 -128 -3 -113Z" />
<glyph unicode="K" glyph-name="K" horiz-adv-x="559" d="M39 43L100 64V540L39 561V604H273V556L208 534V70L273 50V0H39V43ZM365 95Q267 240 236 289V322L387 536L323 556V604H555V561L493 541L333 322Q372 267 435 182T528 64L578 47V0H429L365 95Z" />
<glyph unicode="L" glyph-name="L" horiz-adv-x="470" d="M39 43L100 64V540L39 561V604H284V557L209 536V71L381 55L398 185H458L462 0H39V43Z" />
<glyph unicode="M" glyph-name="M" horiz-adv-x="799" d="M37 43L99 64L117 540L55 561V604H264L395 144H407L538 604H747V561L686 540L705 64L767 43V0H530V49L596 70L589 470H581Q576 448 560 389T531 291L455 46Q426 42 396 38T352 32Q348 32 334 40L258 286Q243
336 208 470H200L192 70L259 49V0H37V43Z" />
<glyph unicode="N" glyph-name="N" horiz-adv-x="608" d="M392 -8T378 1L262 279Q238 334 191 466H184L194 106V70L260 49V0H39V43L100 64V540L39 561V604H236L371 285Q386 249 431 113H439L429 500V535L363 556V604H584V561L522 540V7Q490 2 452 -2T396 -8Q392
-8 378 1Z" />
<glyph unicode="O" glyph-name="O" horiz-adv-x="558" d="M173 -10T106 61T39 284Q39 350 47 404T69 493Q86 517 122 545T194 593T247 613Q384 613 451 543T519 319Q519 199 493 109Q476 87 439 59T364 10T310 -10Q173 -10 106 61ZM314 56T348 72T387 95Q404 178
404 301Q404 426 375 486T270 546Q222 546 200 535Q178 524 166 464T153 304Q153 208 167 155T213 79T303 56Q314 56 348 72Z" />
<glyph unicode="P" glyph-name="P" horiz-adv-x="515" d="M39 43L100 64V540L39 561V604H321Q399 604 440 563T482 427Q482 316 429 265T292 214H209V70L296 48V0H39V43ZM291 278Q322 278 337 284T362 316T371 397Q371 469 357 508T314 547L209 537V278H291Z" />
<glyph unicode="Q" glyph-name="Q" horiz-adv-x="560" d="M521 -59L493 -126H443L243 -5Q140 11 90 81T39 284Q39 350 47 404T69 493Q86 517 122 545T194 593T247 613Q384 613 451 543T519 319Q519 199 493 109Q473 84 428 51T345 1L521 -59ZM153 208T167 155T213
79T303 56Q314 56 348 72T387 95Q404 178 404 301Q404 426 375 486T270 546Q222 546 200 535Q178 524 166 464T153 304Q153 208 167 155Z" />
<glyph unicode="R" glyph-name="R" horiz-adv-x="543" d="M39 43L100 64V540L39 561V604H311Q393 604 432 567T472 439Q472 368 442 325T360 268V262Q442 127 482 63L536 47V0H390Q382 19 345 88Q335 108 307 163T262 256H209V70L275 50V0H39V43ZM282 319Q310
319 326 326T351 355T360 419Q360 485 346 516T304 547L209 537V319H282Z" />
<glyph unicode="S" glyph-name="S" horiz-adv-x="444" d="M162 -10T40 2L47 187H108L125 77Q164 72 205 67T270 62Q275 62 284 74T301 103T308 135Q308 172 280 197T195 257Q148 283 118 305T68 359T47 436Q47 465 52 487Q64 509 98 539T168 591T223 613Q246 613
399 596L391 421H330L316 521Q283 527 241 533T178 539Q166 539 158 522T150 472Q150 433 177 406T256 349Q314 316 343 296T394 244T417 166Q417 140 411 116Q398 91 365 61T297 11T241 -10Q162 -10 40 2Z" />
<glyph unicode="T" glyph-name="T" horiz-adv-x="496" d="M128 43L194 64V541L91 534L80 412H21L8 604H488L475 412H416L405 534L302 541V68L372 48V0H128V43Z" />
<glyph unicode="U" glyph-name="U" horiz-adv-x="609" d="M170 -9T132 36T94 176V540L32 561V604H265V556L201 534V199Q201 130 217 107T261 84Q286 84 401 116V534L337 556V604H571V561L509 540V64L571 43V0H425L404 59L352 35Q258 -9 250 -9Q170 -9 132 36Z" />
<glyph unicode="V" glyph-name="V" horiz-adv-x="568" d="M229 -8T216 1L71 541L9 561V604H253V556L186 536L257 250L287 105H298L328 232Q385 470 399 536L329 556V604H559V561L497 541L355 7Q323 2 286 -2T233 -8Q229 -8 216 1Z" />
<glyph unicode="W" glyph-name="W" horiz-adv-x="841" d="M218 -8T204 1L71 541L9 561V604H241V556L186 536L249 250Q258 206 278 105H289Q293 121 323 227Q372 402 385 450L363 541L309 564V604H539V553L475 536L533 250Q543 206 564 105H574L579 125Q586 155
623 307T675 536L607 556V604H835V561L773 541L631 7Q599 2 562 -2T509 -8Q505 -8 492 1L428 282H418L343 7Q311 2 274 -2T221 -8Q218 -8 204 1Z" />
<glyph unicode="X" glyph-name="X" horiz-adv-x="553" d="M-8 43L53 64L209 308L64 540L11 561V604H253V556L186 537L287 376H292L378 537L313 556V604H542V561L480 540L345 320L507 64L568 43V0H312V50L379 69L269 252H264L156 69L225 50V0H-8V43Z" />
<glyph unicode="Y" glyph-name="Y" horiz-adv-x="531" d="M148 43L213 64V227L56 541L-6 561V604H235V556L171 536L271 321H280Q294 351 355 488L376 536L310 556V604H537V561L475 541L321 230V64L386 43V0H148V43Z" />
<glyph unicode="Z" glyph-name="Z" horiz-adv-x="483" d="M40 43L298 535L136 549L126 426H66L53 604H432V561L176 71L371 55L384 188H444L455 0H40V43Z" />
<glyph unicode="[" glyph-name="bracketleft" horiz-adv-x="250" d="M58 -106V674L213 682L219 640L147 620V-50L219 -71L214 -114L58 -106Z" />
<glyph unicode="\" glyph-name="backslash" horiz-adv-x="310" d="M14 687H93L296 -118H217L14 687Z" />
<glyph unicode="]" glyph-name="bracketright" horiz-adv-x="250" d="M31 -72L103 -52V618L31 638L37 682L192 674V-106L37 -114L31 -72Z" />
<glyph unicode="^" glyph-name="asciicircum" horiz-adv-x="523" d="M48 277L211 603H311L474 277L415 248L261 548L108 248L48 277Z" />
<glyph unicode="_" glyph-name="underscore" horiz-adv-x="481" d="M23 -72H458V-129H23V-72Z" />
<glyph unicode="`" glyph-name="grave" horiz-adv-x="193" d="M1 604L0 634L55 688L193 553L166 519L1 604Z" />
<glyph unicode="a" glyph-name="a" horiz-adv-x="457" d="M151 -10T115 14T57 88T35 208Q35 255 42 295T60 359Q77 382 135 421T213 460Q224 460 291 451T394 435V64L429 50V7Q338 -10 328 -10Q324 -10 309 5T293 25V61Q202 -10 195 -10Q151 -10 115 14ZM216 71T290
108V377Q266 386 230 393T181 399Q163 395 154 354T145 217Q145 169 155 136T180 87T206 71Q216 71 290 108Z" />
<glyph unicode="b" glyph-name="b" horiz-adv-x="455" d="M231 -10T160 -1T61 15V576L25 590V632Q50 637 81 642T129 649Q134 649 149 634T165 614L159 394L165 392L187 409Q196 415 225 437T260 460Q303 460 339 436T397 364T419 246Q419 196 413 155T395 91Q378
68 320 29T242 -10Q231 -10 160 -1ZM291 56T300 96T309 232Q309 280 299 313T275 362T249 379Q244 379 214 366T165 342V73Q190 64 226 57T274 52Q291 56 300 96Z" />
<glyph unicode="c" glyph-name="c" horiz-adv-x="353" d="M145 -10T111 14T56 86T35 203Q35 251 42 294T60 358Q71 373 103 397T167 441T212 460Q236 460 267 455T327 440L324 307H258L243 378Q232 384 216 389T186 394Q177 394 172 390Q159 380 152 334T145 219Q145
170 155 137T182 87T214 71H327V25Q287 13 243 2T185 -10Q145 -10 111 14Z" />
<glyph unicode="d" glyph-name="d" horiz-adv-x="460" d="M152 -10T116 14T57 86T35 203Q35 253 42 294T60 359Q77 382 135 421T213 460Q232 460 294 450V576L257 590V632Q354 649 363 649Q368 649 383 635T399 614L394 429V64L429 50V7Q338 -10 328 -10Q324 -10
309 5T293 25V61Q280 52 270 43Q261 36 231 13T195 -10Q152 -10 116 14ZM215 71T290 108V377Q261 386 227 394T181 399Q163 395 154 354T145 217Q145 169 155 136T180 87T206 71Q215 71 290 108Z" />
<glyph unicode="e" glyph-name="e" horiz-adv-x="412" d="M161 -10T122 14T59 86T35 203Q35 252 42 295T60 359Q71 374 104 399T170 444T217 463Q272 463 307 445T361 378T380 238L144 218Q144 163 158 130T193 83T231 69L365 74V29Q330 17 276 4T208 -10Q161
-10 122 14ZM273 281Q273 399 211 400H203Q187 400 174 395Q162 391 154 352T146 264L273 281Z" />
<glyph unicode="f" glyph-name="f" horiz-adv-x="272" d="M98 -10T82 5T66 25V392H18V436L66 455V493Q66 513 92 550T150 618T198 649Q214 649 242 647T296 643Q302 638 309 627T317 610Q317 607 309 586T295 554Q289 556 246 568T189 580Q183 580 177 563T171
526L170 450H268V391H170V69L224 52V8Q113 -10 103 -10Q98 -10 82 5Z" />
<glyph unicode="g" glyph-name="g" horiz-adv-x="435" d="M193 -182T125 -173T23 -155L32 -79L155 32Q126 34 99 58T55 126T37 228Q37 261 43 299T59 359Q75 381 133 420T210 460Q221 460 285 450T383 434V-21Q383 -52 355 -90T288 -155T228 -182Q193 -182 125
-173ZM222 85T279 125V377Q260 384 232 391T189 399Q145 399 145 231Q145 180 156 148T184 100T213 85Q222 85 279 125ZM269 -131T276 -85T283 12V61L278 63Q243 31 113 -94V-100Q128 -106 183 -118T258 -131Q269 -131 276 -85Z" />
<glyph unicode="h" glyph-name="h" horiz-adv-x="480" d="M95 -10T80 5T64 25V576L28 590V632Q123 649 133 649Q138 649 153 635T168 614L163 392L168 391Q197 413 229 436T266 459Q340 459 376 423T413 295V65L449 50V8Q355 -10 346 -10Q341 -10 325 5T309 25V295Q309
349 293 364T255 379Q251 379 196 356Q189 353 182 350T168 344V65L204 50V8Q110 -10 100 -10Q95 -10 80 5Z" />
<glyph unicode="i" glyph-name="i" horiz-adv-x="236" d="M103 -10T85 6T67 28V389L30 401V443Q120 459 130 459Q136 459 153 444T170 421V61L206 50V8Q119 -10 109 -10Q103 -10 85 6ZM316 645L403 650L420 627L414 537H324L316 645Z" />
<glyph unicode="j" glyph-name="j" horiz-adv-x="226" d="M66 644L154 649L171 626L165 536H74L66 644ZM31 -182T-58 -154V-108Q-39 -108 -1 -105T43 -97Q67 -84 67 13V388L20 399V443Q121 459 130 459Q136 459 153 443T170 421V-22Q170 -51 147 -88T93 -154T46
-182Q31 -182 -58 -154Z" />
<glyph unicode="k" glyph-name="k" horiz-adv-x="450" d="M96 -10T81 5T65 25V576L28 590V632Q125 649 134 649Q139 649 153 635T168 614V65L203 50V8Q111 -10 101 -10Q96 -10 81 5ZM351 -10T335 3T314 22L187 218V262L301 391L253 398V450L395 458Q400 458 407
438T415 408L270 255L407 66L447 50V8Q363 -10 355 -10Q351 -10 335 3Z" />
<glyph unicode="l" glyph-name="l" horiz-adv-x="235" d="M96 -10T81 5T65 25V576L28 590V632Q125 649 134 649Q139 649 153 635T168 614V65L204 50V8Q111 -10 101 -10Q96 -10 81 5Z" />
<glyph unicode="m" glyph-name="m" horiz-adv-x="699" d="M98 -10T83 5T67 25V386L30 401V443Q124 459 134 459Q139 459 153 445T167 425V390Q193 412 222 435T255 459Q306 459 340 443T389 390Q413 412 441 435T472 459Q553 459 593 423T633 295V65L668 50V8Q576
-10 567 -10Q562 -10 546 5T529 25V295Q529 349 511 363T471 378Q463 378 402 343V65L436 50V8Q345 -10 336 -10Q331 -10 315 5T298 25V295Q298 349 282 363T244 378Q235 378 171 343V65L205 50V8Q113 -10 103 -10Q98 -10 83 5Z" />
<glyph unicode="n" glyph-name="n" horiz-adv-x="482" d="M98 -10T83 5T67 25V386L30 401V443Q124 459 134 459Q139 459 153 445T167 425V390Q196 412 230 435T268 459Q341 459 378 423T415 295V65L451 50V8Q358 -10 349 -10Q344 -10 328 5T311 25V295Q311 379
259 379Q254 379 233 370T201 357Q191 352 171 344V65L206 50V8Q113 -10 103 -10Q98 -10 83 5Z" />
<glyph unicode="o" glyph-name="o" horiz-adv-x="462" d="M143 -10T89 43T35 209Q35 254 42 296T60 358Q71 373 104 398T171 443T217 463Q321 463 374 409T427 250Q427 202 421 160T404 91Q387 69 328 30T250 -10Q143 -10 89 43ZM260 53T301 74Q317 145 317 237Q317
312 291 356T212 401Q190 401 176 394Q162 387 154 342T145 223Q145 127 176 89T254 51Q260 53 301 74Z" />
<glyph unicode="p" glyph-name="p" horiz-adv-x="459" d="M91 -182T76 -167T60 -147L66 17V387L30 401V443Q55 448 90 454T131 460Q136 460 151 446T166 425V389L185 403Q193 409 226 434T264 460Q307 460 343 436T402 364T424 246Q424 196 418 155T400 91Q383
68 325 29T247 -10Q242 -10 192 -4Q184 -2 166 0V-104L206 -120V-165Q180 -170 147 -175T96 -182Q91 -182 76 -167ZM296 56T305 96T314 232Q314 280 304 313T280 363T253 379Q249 379 221 366T170 342V73Q195 64 231 57T279 52Q296 56 305 96Z" />
<glyph unicode="q" glyph-name="q" horiz-adv-x="451" d="M320 -182T305 -167T290 -147L295 57L290 58Q281 51 270 43T246 26Q201 -10 195 -10Q152 -10 116 14T57 86T35 203Q35 253 42 294T60 359Q77 382 135 421T213 460Q223 460 296 451T394 436V-108L430 -123V-165Q334
-182 325 -182Q320 -182 305 -167ZM215 71T290 108V377Q266 386 230 393T181 399Q163 395 154 354T145 217Q145 170 155 137T180 88T206 71Q215 71 290 108Z" />
<glyph unicode="r" glyph-name="r" horiz-adv-x="323" d="M98 -10T83 5T67 25V388L30 401V443Q119 459 129 459Q134 459 151 443T169 422L167 385Q240 464 246 464Q264 464 315 448Q318 441 320 432T322 414Q322 406 309 380T291 351Q252 366 236 366Q229 366
210 358T171 337V70L225 54V8Q113 -10 103 -10Q98 -10 83 5Z" />
<glyph unicode="s" glyph-name="s" horiz-adv-x="369" d="M202 -10T137 -6T36 3L38 152L93 153L114 76Q136 68 168 62T216 55Q224 55 234 75T244 111Q244 135 229 149T165 189Q153 195 147 199Q85 233 62 259T38 321Q38 355 44 371Q61 397 99 428T155 459Q190
459 244 457T327 451L324 325H263L256 378Q248 381 205 388T151 395Q131 395 131 357Q131 339 146 326T179 301T204 286L228 272Q283 242 316 214T349 151Q349 125 342 98Q326 68 286 29T224 -10Q202 -10 137 -6Z" />
<glyph unicode="t" glyph-name="t" horiz-adv-x="293" d="M133 -10T115 5T83 40T69 72V392H4V428L69 459L134 536Q143 537 173 522V450H271V388H173V116Q173 87 178 77T197 66L281 63V10Q250 3 204 -3T145 -10Q133 -10 115 5Z" />
<glyph unicode="u" glyph-name="u" horiz-adv-x="475" d="M137 -10T101 27T64 155V386L29 401V443Q121 459 130 459Q135 459 151 445T168 425V156Q168 71 221 71Q231 71 305 106V386L269 401V443Q363 459 372 459Q377 459 393 445T409 425V65L444 50V7Q351 -10
342 -10Q337 -10 323 5T308 25V60Q282 39 248 15T210 -10Q137 -10 101 27Z" />
<glyph unicode="v" glyph-name="v" horiz-adv-x="413" d="M157 -11T146 -3L37 388L-2 399V444Q87 458 96 458Q101 458 117 446T136 427L194 187L212 101H223L301 391L241 398V450L367 458Q372 458 384 443T397 421L266 7Q168 -11 160 -11Q157 -11 146 -3Z" />
<glyph unicode="w" glyph-name="w" horiz-adv-x="637" d="M151 -11T139 -3L37 388L-2 399V444Q86 458 95 458Q100 458 117 446T136 427L190 187L208 103H219L288 322L268 388L229 399V444Q317 458 326 458Q331 458 348 446T367 427L423 187L442 103H453L525 391L458
398V450L589 458Q594 458 606 443T619 421L496 7Q400 -11 393 -11Q390 -11 378 -3L321 208H315L257 7Q161 -11 154 -11Q151 -11 139 -3Z" />
<glyph unicode="x" glyph-name="x" horiz-adv-x="424" d="M25 -10T18 9T10 38L154 230L54 386L17 397V445Q101 457 110 457Q114 457 126 446T142 427L227 290L295 394L247 399V450L381 457Q386 457 393 438T401 409L265 230L372 68L413 54V6Q335 -10 326 -10Q321
-10 307 3T287 23L193 170L119 59L168 52V0L30 -10Q25 -10 18 9Z" />
<glyph unicode="y" glyph-name="y" horiz-adv-x="415" d="M164 -182T154 -163T143 -138L190 1Q164 -3 159 -3Q156 -3 143 6L39 388L-1 399V444Q87 458 96 458Q101 458 118 446T137 427L192 196L212 91H222L302 391L241 398V450L367 458Q373 458 385 443T397 421L265
3L237 -109L279 -127L278 -169Q177 -182 168 -182Q164 -182 154 -163Z" />
<glyph unicode="z" glyph-name="z" horiz-adv-x="398" d="M46 12T32 46Q81 126 153 254L221 373L219 385L115 391L106 324H49L41 450H329Q346 422 353 405Q262 242 169 83V69L295 63L308 148H364L367 0H56Q46 12 32 46Z" />
<glyph unicode="{" glyph-name="braceleft" horiz-adv-x="295" d="M102 -106V204L31 254V300L102 350V674L257 682L262 640L191 620V326L113 280L191 228V-50L262 -71L257 -114L102 -106Z" />
<glyph unicode="|" glyph-name="bar" horiz-adv-x="212" d="M68 674H144V-193H68V674Z" />
<glyph unicode="}" glyph-name="braceright" horiz-adv-x="295" d="M32 -72L103 -52V228L181 280L103 326V618L32 638L37 682L192 674V350L262 300V254L192 204V-106L37 -114L32 -72Z" />
<glyph unicode="~" glyph-name="asciitilde" horiz-adv-x="575" d="M359 271T325 277T247 295Q195 309 175 309Q162 309 142 293T118 274L83 307Q113 342 138 365T183 389Q206 389 235 383T316 365Q386 348 404 348Q421 348 455 385L491 351Q472 326 442 299T391
271Q359 271 325 277Z" />
<glyph unicode="&#xa0;" glyph-name="uni00A0" horiz-adv-x="160" />
<glyph unicode="&#xa1;" glyph-name="exclamdown" horiz-adv-x="271" d="M82 445L103 447Q140 452 169 452Q173 452 181 442T188 428L183 335H89L82 445ZM99 -180T90 -171T80 -159L99 258Q108 259 127 261T154 264Q157 264 163 259T170 250L190 -164Q107 -180
102 -180Q99 -180 90 -171Z" />
<glyph unicode="&#xa2;" glyph-name="cent" horiz-adv-x="374" d="M160 211T170 178T197 128T229 112H342V66Q299 52 251 41V-54H191V31Q153 34 121 59T70 131T50 244Q50 292 57 335T75 399Q86 415 120 441T187 485V581H247V500Q295 497 342 481L339 348H273L258
419Q247 425 231 430T201 435Q192 435 187 431Q174 421 167 375T160 260Q160 211 170 178Z" />
<glyph unicode="&#xa3;" glyph-name="sterling" horiz-adv-x="539" d="M491 0H208Q163 0 93 -12L73 -15L59 43Q91 51 105 63T124 100T129 175L128 256H57L62 311H128Q129 413 142 465T185 539T275 560Q310 560 375 554T475 543L464 389H405L396 481Q383 484 333
489T269 495Q254 495 247 480T237 426T235 311H364L359 256H234Q232 180 223 141T195 76L411 55L426 160H486L491 0Z" />
<glyph unicode="&#xa4;" glyph-name="currency" horiz-adv-x="674" d="M83 175L152 242Q118 296 118 365Q118 432 155 490L83 563L125 606L195 536Q256 591 343 591Q426 591 484 542L549 606L590 563L524 497Q560 442 560 373Q560 305 520 244L591 174L550 131L480
200Q451 175 414 161T335 147Q249 147 191 197L125 132L83 175ZM407 220T442 259T478 369Q478 435 443 476T340 518Q272 518 237 479T201 369Q201 303 236 262T339 220Q407 220 442 259Z" />
<glyph unicode="&#xa5;" glyph-name="yen" horiz-adv-x="596" d="M179 43L248 62V164H106L111 219H247L221 267H106L111 322H197L99 485L33 505V549H273L274 497L210 482L306 305H316L401 481L335 497V549H563V505L498 485L398 322H496L491 267H372L353 232V219H496L491
164H353V64L421 45V0H179V43Z" />
<glyph unicode="&#xa6;" glyph-name="brokenbar" horiz-adv-x="212" d="M68 674H144V308H68V674ZM68 184H144V-194H68V184Z" />
<glyph unicode="&#xa7;" glyph-name="section" horiz-adv-x="485" d="M236 -104T182 -102T84 -95L93 64H146L155 -21L180 -25Q262 -37 291 -37Q295 -37 301 -20T307 9Q307 54 216 105Q152 141 120 175T88 255Q88 275 94 297Q101 309 118 325T158 357Q95 404 95
467Q95 487 101 509Q111 527 142 552T206 595T255 614Q270 614 403 601L393 449H340L331 526Q235 547 213 547Q206 547 197 528T188 496Q188 467 213 444T295 389Q351 357 383 325T415 259Q415 245 413 228T407 201Q391 174 347 137Q409 91 409 38Q409 27 407 11T401
-15Q385 -42 340 -73T271 -104Q236 -104 182 -102ZM306 181T310 196T315 223Q315 252 289 273T238 309T204 328Q197 317 192 302T186 277Q186 255 203 236T242 204T301 171Q306 181 310 196Z" />
<glyph unicode="&#xa8;" glyph-name="dieresis" horiz-adv-x="269" d="M0 645L87 650L104 627L98 537H8L0 645ZM164 645L252 650L269 627L262 537H172L164 645Z" />
<glyph unicode="&#xa9;" glyph-name="copyright" horiz-adv-x="844" d="M319 86T242 130T122 253T79 431Q79 530 122 608T243 731T423 776Q525 776 602 732T722 609T765 431Q765 332 722 254T601 131T421 86Q319 86 242 130ZM505 149T566 185T659 285T692 431Q692
513 660 577T566 677T422 713Q339 713 278 677T185 577T152 431Q152 349 184 285T278 185T422 149Q505 149 566 185ZM372 257T344 276T299 335T281 431Q281 463 285 492T296 541Q314 564 356 592T414 620Q430 620 460 618T518 614L509 494H471L463 561Q408 573
386 573Q373 573 365 537T356 453Q356 372 375 339T432 306L512 316L517 280Q491 273 453 265T405 257Q372 257 344 276Z" />
<glyph unicode="&#xaa;" glyph-name="ordfeminine" horiz-adv-x="397" d="M136 319T105 338T54 395T34 489Q34 521 38 551T50 598Q66 618 114 652T177 686Q194 686 331 665V383L363 370V333L330 328Q276 319 272 319Q268 319 255 331T242 348V381L213 354Q209
350 193 335T172 319Q136 319 105 338ZM189 389T213 405T239 423V615L207 625Q165 639 160 639Q152 639 143 596T133 501Q133 468 141 443T162 403T183 389Q189 389 213 405Z" />
<glyph unicode="&#xab;" glyph-name="guillemotleft" horiz-adv-x="445" d="M33 212V259L177 411L214 384L135 239V231L211 78L173 49L33 212ZM211 212V259L354 411L391 384L313 239V231L389 78L352 49L211 212Z" />
<glyph unicode="&#xac;" glyph-name="logicalnot" horiz-adv-x="473" d="M445 153H375V251H18V319H445V153Z" />
<glyph unicode="&#xad;" glyph-name="uni00AD" horiz-adv-x="325" d="M38 283H286V205H38V283Z" />
<glyph unicode="&#xae;" glyph-name="registered" horiz-adv-x="678" d="M258 235T197 270T103 368T69 506Q69 582 103 644T198 742T340 778Q419 778 480 742T575 644T609 506Q609 430 575 368T480 271T338 235Q258 235 197 270ZM433 296T487 353T541 506Q541
566 517 614T447 689T339 717Q244 717 191 660T137 506Q137 447 161 399T230 324T339 296Q433 296 487 353ZM231 392L258 400V612L231 620V645H356Q399 645 419 624T440 568Q440 533 425 512T389 483V477L430 403L454 397V370H392L343 476H311V402L339 397V370H231V392ZM346
510Q367 510 374 519T382 557Q382 590 378 603T356 617L315 611V510H346Z" />
<glyph unicode="&#xaf;" glyph-name="overscore" horiz-adv-x="290" d="M0 619H290V547H0V619Z" />
<glyph unicode="&#xb0;" glyph-name="degree" horiz-adv-x="312" d="M102 380T70 411T38 493Q38 542 72 576T157 611Q208 611 240 579T273 498Q273 448 239 414T154 380Q102 380 70 411ZM177 440T192 455T208 495Q208 519 193 535T155 551Q133 551 119 535T104
495Q104 471 118 456T155 440Q177 440 192 455Z" />
<glyph unicode="&#xb1;" glyph-name="plusminus" horiz-adv-x="556" d="M473 334V267H318V116H237V267H83V334H237V484H318V334H473ZM83 56H473V-12H83V56Z" />
<glyph unicode="&#xb2;" glyph-name="uni00B2" horiz-adv-x="389" d="M340 363H58L52 394L179 540Q223 588 223 621Q223 635 218 648T205 661Q199 661 175 655T133 644L126 587H84L78 696Q111 702 153 707T211 713Q256 713 286 694T317 631Q317 606 304 583T270
534L179 428V423H289L295 482H338L340 363Z" />
<glyph unicode="&#xb3;" glyph-name="uni00B3" horiz-adv-x="389" d="M319 539T319 472Q319 445 302 418T254 373T187 355Q176 355 145 359T83 369L87 406Q131 404 163 404Q190 404 199 407Q209 410 218 429T227 472Q227 497 220 510T202 523H138V560Q185 568
199 584T214 631Q214 646 210 658T198 671Q191 671 169 667T130 659L122 612H81L80 708Q150 717 192 717Q243 717 271 697T300 637Q300 595 241 561V558Q319 539 319 472Z" />
<glyph unicode="&#xb4;" glyph-name="acute" horiz-adv-x="193" d="M0 553L137 688L193 634L192 604L27 519L0 553Z" />
<glyph unicode="&#xb5;" glyph-name="uni00B5" horiz-adv-x="519" d="M489 17Q465 6 442 -1T411 -9Q385 -9 358 9T317 53Q290 31 264 11T234 -9Q188 -9 153 6V-40Q153 -86 164 -117T190 -158Q196 -163 228 -165T282 -168L290 -211Q282 -214 243 -227T191 -240Q175
-240 145 -211T91 -142T67 -73V387L32 401L31 443Q38 444 82 451T133 459Q138 459 154 445T170 425V154Q170 110 183 91T208 70T243 68Q255 68 307 95V387L272 401L271 443Q367 459 374 459Q379 459 394 445T410 425V131Q410 96 415 81T434 59T482 50L489 17Z"
/>
<glyph unicode="&#xb6;" glyph-name="paragraph" horiz-adv-x="703" d="M466 605L621 604V558L550 538V65L618 44V0H466V605ZM238 50L319 68V206L244 207Q160 207 107 262T54 427Q54 604 218 604H404V0H238V50Z" />
<glyph unicode="&#xb7;" glyph-name="middot" horiz-adv-x="201" d="M74 253T61 266T47 287L44 370Q64 375 88 378T125 383Q130 383 144 369T159 349L152 266Q137 262 114 258T80 253Q74 253 61 266Z" />
<glyph unicode="&#xb8;" glyph-name="cedilla" horiz-adv-x="163" d="M0 -183Q43 -161 59 -150T75 -124Q75 -111 57 -103T13 -91L6 -64L33 11L81 8L75 -45Q112 -50 137 -69T163 -112Q163 -138 153 -159Q128 -181 23 -222L0 -183Z" />
<glyph unicode="&#xb9;" glyph-name="uni00B9" horiz-adv-x="371" d="M318 402V363H79V404L159 418V639L74 632V674L207 714L249 698V414L318 402Z" />
<glyph unicode="&#xba;" glyph-name="ordmasculine" horiz-adv-x="385" d="M122 317T78 361T34 489Q34 520 38 550T50 596Q65 615 117 650T183 686Q265 686 308 640T351 511Q351 485 347 455T336 407Q321 388 269 353T201 317Q122 317 78 361ZM245 390Q252 429
252 500Q252 546 242 582T204 630Q188 637 159 637Q156 637 150 618T138 567T133 501Q133 441 152 406T199 370L245 390Z" />
<glyph unicode="&#xbb;" glyph-name="guillemotright" horiz-adv-x="445" d="M56 78L132 231V239L53 384L91 411L234 259V212L93 49L56 78ZM234 78L310 231V239L231 384L268 411L411 259V212L271 49L234 78Z" />
<glyph unicode="&#xbc;" glyph-name="onequarter" horiz-adv-x="869" d="M318 560V521H79V562L159 576V797L74 790V832L207 872L249 856V572L318 560ZM800 78H742V0H660V78H513L499 133L607 344H742V140H800V78ZM660 140V280H653L586 146L587 140H660ZM557 614H630L334
-10H261L557 614Z" />
<glyph unicode="&#xbd;" glyph-name="onehalf" horiz-adv-x="846" d="M318 560V521H79V562L159 576V797L74 790V832L207 872L249 856V572L318 560ZM545 614H618L322 -10H249L545 614ZM796 0H514L508 31L635 177Q679 225 679 258Q679 272 674 285T661 298Q655 298
631 292T589 281L582 224H540L534 333Q567 339 609 344T667 350Q712 350 742 331T773 268Q773 243 760 220T726 171L635 65V60H745L751 119H794L796 0Z" />
<glyph unicode="&#xbe;" glyph-name="threequarters" horiz-adv-x="815" d="M319 697T319 630Q319 603 302 576T254 531T187 513Q176 513 145 517T83 527L87 564Q131 562 163 562Q190 562 199 565Q209 568 218 587T227 630Q227 655 220 668T202 681H138V718Q185
726 199 742T214 789Q214 804 210 816T198 829Q191 829 169 825T130 817L122 770H81L80 866Q150 875 192 875Q243 875 271 855T300 795Q300 753 241 719V716Q319 697 319 630ZM747 78H689V0H607V78H460L446 133L554 344H689V140H747V78ZM607 140V280H600L533 146L534
140H607ZM518 614H591L295 -10H222L518 614Z" />
<glyph unicode="&#xbf;" glyph-name="questiondown" horiz-adv-x="427" d="M241 331L231 444Q276 449 306 449Q310 449 318 439T326 424L312 331H241ZM374 -163Q260 -178 203 -178Q129 -178 95 -150T60 -54Q60 -15 75 16T112 71T172 126Q193 144 194 145Q220 168
230 193T241 271Q289 277 296 277Q298 277 305 271T312 263L314 194Q315 157 296 132T234 70Q190 32 172 3T153 -57Q153 -79 160 -96T185 -114Q211 -114 295 -99L306 -8H365L374 -163Z" />
<glyph unicode="&#xc0;" glyph-name="Agrave" horiz-adv-x="589" d="M4 43L66 63L228 598Q252 602 293 606T349 612Q353 612 367 604L531 63L593 43V0H348V49L416 68L380 197H198L165 68L236 49V0H4V43ZM363 257L295 515H283L215 257H363ZM188 702L181 732L224
798L391 701L375 660L188 702Z" />
<glyph unicode="&#xc1;" glyph-name="Aacute" horiz-adv-x="589" d="M4 43L66 63L228 598Q252 602 293 606T349 612Q353 612 367 604L531 63L593 43V0H348V49L416 68L380 197H198L165 68L236 49V0H4V43ZM363 257L295 515H283L215 257H363ZM197 701L364 797L407
732L400 702L213 660L197 701Z" />
<glyph unicode="&#xc2;" glyph-name="Acircumflex" horiz-adv-x="589" d="M4 43L66 63L228 598Q252 602 293 606T349 612Q353 612 367 604L531 63L593 43V0H348V49L416 68L380 197H198L165 68L236 49V0H4V43ZM363 257L295 515H283L215 257H363ZM158 696L264 791H327L433
696L402 658L301 712H290L189 658L158 696Z" />
<glyph unicode="&#xc3;" glyph-name="Atilde" horiz-adv-x="589" d="M4 43L66 63L228 598Q252 602 293 606T349 612Q353 612 367 604L531 63L593 43V0H348V49L416 68L380 197H198L165 68L236 49V0H4V43ZM363 257L295 515H283L215 257H363ZM327 658T270 683Q240
696 233 696Q222 696 178 662L143 694Q164 722 191 748T234 775Q250 775 270 768T321 748Q359 733 366 733Q373 733 389 745T416 770L453 736Q438 715 408 687T360 658Q327 658 270 683Z" />
<glyph unicode="&#xc4;" glyph-name="Adieresis" horiz-adv-x="589" d="M4 43L66 63L228 598Q252 602 293 606T349 612Q353 612 367 604L531 63L593 43V0H348V49L416 68L380 197H198L165 68L236 49V0H4V43ZM363 257L295 515H283L215 257H363ZM152 768L239 773L256
750L250 660H160L152 768ZM335 768L422 773L439 750L433 660H342L335 768Z" />
<glyph unicode="&#xc5;" glyph-name="Aring" horiz-adv-x="589" d="M4 43L66 63L228 598Q252 602 293 606T349 612Q353 612 367 604L531 63L593 43V0H348V49L416 68L380 197H198L165 68L236 49V0H4V43ZM363 257L295 515H283L215 257H363ZM243 655T217 680T191
762Q191 811 218 838T296 866Q348 866 375 841T403 759Q403 710 374 683T295 655Q243 655 217 680ZM315 703T333 713Q337 733 337 759Q337 794 328 806T296 818Q279 818 261 808Q257 795 257 762Q257 727 265 715T295 703Q315 703 333 713Z" />
<glyph unicode="&#xc6;" glyph-name="AE" horiz-adv-x="779" d="M5 43L67 63L290 540L222 561V604H732L719 426H660L648 549L499 535V346L638 341V286L499 281V71L670 55L686 182H746L750 0H329V43L391 64V198H225L168 68L237 49V0H5V43ZM391 258V534H370L244 258H391Z" />
<glyph unicode="&#xc7;" glyph-name="Ccedilla" horiz-adv-x="462" d="M380 4T282 -6L278 -45Q315 -50 340 -69T366 -112Q366 -138 356 -159Q331 -181 226 -222L203 -183Q246 -161 262 -150T278 -124Q278 -111 260 -103T216 -91L209 -64L228 -10Q176 -9 133 22T65
118T39 279Q39 346 47 402T69 493Q86 517 122 545T194 593T247 613Q276 612 328 609T431 601L419 421H360L347 527Q323 532 287 535T231 539Q212 539 200 533Q178 522 166 463T153 311Q153 176 186 124T278 71H345L362 197L419 196L421 14Q380 4 282 -6Z" />
<glyph unicode="&#xc8;" glyph-name="Egrave" horiz-adv-x="488" d="M39 43L100 64V540L39 561V604H454L441 426H381L370 549L209 535V346L353 341V286L209 281V71L379 55L395 182H455L459 0H39V43ZM152 702L145 732L188 798L355 701L339 660L152 702Z" />
<glyph unicode="&#xc9;" glyph-name="Eacute" horiz-adv-x="488" d="M39 43L100 64V540L39 561V604H454L441 426H381L370 549L209 535V346L353 341V286L209 281V71L379 55L395 182H455L459 0H39V43ZM161 701L328 797L371 732L364 702L177 660L161 701Z" />
<glyph unicode="&#xca;" glyph-name="Ecircumflex" horiz-adv-x="488" d="M39 43L100 64V540L39 561V604H454L441 426H381L370 549L209 535V346L353 341V286L209 281V71L379 55L395 182H455L459 0H39V43ZM122 696L228 791H291L397 696L366 658L265 712H254L153
658L122 696Z" />
<glyph unicode="&#xcb;" glyph-name="Edieresis" horiz-adv-x="488" d="M39 43L100 64V540L39 561V604H454L441 426H381L370 549L209 535V346L353 341V286L209 281V71L379 55L395 182H455L459 0H39V43ZM116 768L203 773L220 750L214 660H124L116 768ZM299 768L386
773L403 750L397 660H306L299 768Z" />
<glyph unicode="&#xcc;" glyph-name="Igrave" horiz-adv-x="315" d="M39 43L102 64V540L39 561V604H276V557L210 536V68L276 48V0H39V43ZM51 702L44 732L87 798L254 701L238 660L51 702Z" />
<glyph unicode="&#xcd;" glyph-name="Iacute" horiz-adv-x="315" d="M39 43L102 64V540L39 561V604H276V557L210 536V68L276 48V0H39V43ZM60 701L227 797L270 732L263 702L76 660L60 701Z" />
<glyph unicode="&#xce;" glyph-name="Icircumflex" horiz-adv-x="315" d="M39 43L102 64V540L39 561V604H276V557L210 536V68L276 48V0H39V43ZM21 696L127 791H190L296 696L265 658L164 712H153L52 658L21 696Z" />
<glyph unicode="&#xcf;" glyph-name="Idieresis" horiz-adv-x="315" d="M39 43L102 64V540L39 561V604H276V557L210 536V68L276 48V0H39V43ZM15 768L102 773L119 750L113 660H23L15 768ZM198 768L285 773L302 750L296 660H205L198 768Z" />
<glyph unicode="&#xd0;" glyph-name="Eth" horiz-adv-x="580" d="M385 604T433 577T511 485T541 319Q541 156 486 78T330 0H39V43L100 64V282H35V333H100V540L39 561V604H330Q385 604 433 577ZM379 54T403 123T427 312Q427 377 416 431T385 518T338 551L209 538V333H298L297
282H209V69L338 54Q379 54 403 123Z" />
<glyph unicode="&#xd1;" glyph-name="Ntilde" horiz-adv-x="608" d="M392 -8T378 1L262 279Q238 334 191 466H184L194 106V70L260 49V0H39V43L100 64V540L39 561V604H236L371 285Q386 249 431 113H439L429 500V535L363 556V604H584V561L522 540V7Q490 2 452 -2T396
-8Q392 -8 378 1ZM338 658T281 683Q251 696 244 696Q233 696 189 662L154 694Q175 722 202 748T245 775Q261 775 281 768T332 748Q370 733 377 733Q384 733 400 745T427 770L464 736Q449 715 419 687T371 658Q338 658 281 683Z" />
<glyph unicode="&#xd2;" glyph-name="Ograve" horiz-adv-x="558" d="M173 -10T106 61T39 284Q39 350 47 404T69 493Q86 517 122 545T194 593T247 613Q384 613 451 543T519 319Q519 199 493 109Q476 87 439 59T364 10T310 -10Q173 -10 106 61ZM314 56T348 72T387
95Q404 178 404 301Q404 426 375 486T270 546Q222 546 200 535Q178 524 166 464T153 304Q153 208 167 155T213 79T303 56Q314 56 348 72ZM169 702L162 732L205 798L372 701L356 660L169 702Z" />
<glyph unicode="&#xd3;" glyph-name="Oacute" horiz-adv-x="558" d="M173 -10T106 61T39 284Q39 350 47 404T69 493Q86 517 122 545T194 593T247 613Q384 613 451 543T519 319Q519 199 493 109Q476 87 439 59T364 10T310 -10Q173 -10 106 61ZM314 56T348 72T387
95Q404 178 404 301Q404 426 375 486T270 546Q222 546 200 535Q178 524 166 464T153 304Q153 208 167 155T213 79T303 56Q314 56 348 72ZM178 701L345 797L388 732L381 702L194 660L178 701Z" />
<glyph unicode="&#xd4;" glyph-name="Ocircumflex" horiz-adv-x="558" d="M173 -10T106 61T39 284Q39 350 47 404T69 493Q86 517 122 545T194 593T247 613Q384 613 451 543T519 319Q519 199 493 109Q476 87 439 59T364 10T310 -10Q173 -10 106 61ZM314 56T348
72T387 95Q404 178 404 301Q404 426 375 486T270 546Q222 546 200 535Q178 524 166 464T153 304Q153 208 167 155T213 79T303 56Q314 56 348 72ZM139 696L245 791H308L414 696L383 658L282 712H271L170 658L139 696Z" />
<glyph unicode="&#xd5;" glyph-name="Otilde" horiz-adv-x="558" d="M173 -10T106 61T39 284Q39 350 47 404T69 493Q86 517 122 545T194 593T247 613Q384 613 451 543T519 319Q519 199 493 109Q476 87 439 59T364 10T310 -10Q173 -10 106 61ZM314 56T348 72T387
95Q404 178 404 301Q404 426 375 486T270 546Q222 546 200 535Q178 524 166 464T153 304Q153 208 167 155T213 79T303 56Q314 56 348 72ZM308 658T251 683Q221 696 214 696Q203 696 159 662L124 694Q145 722 172 748T215 775Q231 775 251 768T302 748Q340 733 347
733Q354 733 370 745T397 770L434 736Q419 715 389 687T341 658Q308 658 251 683Z" />
<glyph unicode="&#xd6;" glyph-name="Odieresis" horiz-adv-x="558" d="M173 -10T106 61T39 284Q39 350 47 404T69 493Q86 517 122 545T194 593T247 613Q384 613 451 543T519 319Q519 199 493 109Q476 87 439 59T364 10T310 -10Q173 -10 106 61ZM314 56T348 72T387
95Q404 178 404 301Q404 426 375 486T270 546Q222 546 200 535Q178 524 166 464T153 304Q153 208 167 155T213 79T303 56Q314 56 348 72ZM133 768L220 773L237 750L231 660H141L133 768ZM316 768L403 773L420 750L414 660H323L316 768Z" />
<glyph unicode="&#xd7;" glyph-name="multiply" horiz-adv-x="513" d="M377 57L255 195L132 56L144 149L220 235L145 319L137 416L259 279L381 417L369 323L294 239L369 155L377 57Z" />
<glyph unicode="&#xd8;" glyph-name="Oslash" horiz-adv-x="558" d="M519 481T519 319Q519 199 493 109Q476 87 439 59T364 10T310 -10Q224 -10 169 16L119 -82L68 -84L57 -70L118 50Q39 120 39 284Q39 350 47 404T69 493Q86 517 122 545T194 593T247 613Q332
613 390 586L428 660H480L488 643L442 552Q519 481 519 319ZM153 206T168 149L354 515Q323 546 270 546Q222 546 200 535Q178 524 166 464T153 304Q153 206 168 149ZM404 178T404 301Q404 396 389 449L204 86Q237 56 303 56Q314 56 348 72T387 95Q404 178 404 301Z"
/>
<glyph unicode="&#xd9;" glyph-name="Ugrave" horiz-adv-x="609" d="M170 -9T132 36T94 176V540L32 561V604H265V556L201 534V199Q201 130 217 107T261 84Q286 84 401 116V534L337 556V604H571V561L509 540V64L571 43V0H425L404 59L352 35Q258 -9 250 -9Q170 -9
132 36ZM193 702L186 732L229 798L396 701L380 660L193 702Z" />
<glyph unicode="&#xda;" glyph-name="Uacute" horiz-adv-x="609" d="M170 -9T132 36T94 176V540L32 561V604H265V556L201 534V199Q201 130 217 107T261 84Q286 84 401 116V534L337 556V604H571V561L509 540V64L571 43V0H425L404 59L352 35Q258 -9 250 -9Q170 -9
132 36ZM202 701L369 797L412 732L405 702L218 660L202 701Z" />
<glyph unicode="&#xdb;" glyph-name="Ucircumflex" horiz-adv-x="609" d="M170 -9T132 36T94 176V540L32 561V604H265V556L201 534V199Q201 130 217 107T261 84Q286 84 401 116V534L337 556V604H571V561L509 540V64L571 43V0H425L404 59L352 35Q258 -9 250 -9Q170
-9 132 36ZM163 696L269 791H332L438 696L407 658L306 712H295L194 658L163 696Z" />
<glyph unicode="&#xdc;" glyph-name="Udieresis" horiz-adv-x="609" d="M170 -9T132 36T94 176V540L32 561V604H265V556L201 534V199Q201 130 217 107T261 84Q286 84 401 116V534L337 556V604H571V561L509 540V64L571 43V0H425L404 59L352 35Q258 -9 250 -9Q170
-9 132 36ZM157 768L244 773L261 750L255 660H165L157 768ZM340 768L427 773L444 750L438 660H347L340 768Z" />
<glyph unicode="&#xdd;" glyph-name="Yacute" horiz-adv-x="531" d="M148 43L213 64V227L56 541L-6 561V604H235V556L171 536L271 321H280Q294 351 355 488L376 536L310 556V604H537V561L475 541L321 230V64L386 43V0H148V43ZM176 701L343 797L386 732L379 702L192
660L176 701Z" />
<glyph unicode="&#xde;" glyph-name="Thorn" horiz-adv-x="509" d="M391 492T432 455T473 333Q473 230 420 184T284 137H210V68L275 48V0H39V43L101 64V540L39 561V604H275V557L210 536V492H313Q391 492 432 455ZM315 201T330 205T353 232T362 303Q362 366 348
400T306 435L210 425V201H283Q315 201 330 205Z" />
<glyph unicode="&#xdf;" glyph-name="germandbls" horiz-adv-x="478" d="M322 335T336 319T382 276Q428 239 453 208T478 139Q478 120 471 92Q456 64 415 28T352 -9Q300 -9 170 3V-21Q170 -50 146 -88T90 -154T43 -182Q34 -182 10 -175T-39 -159L-61 -152L-55
-107Q-30 -106 5 -103T45 -97Q68 -84 68 16V494Q68 514 93 551T151 619T199 649Q283 649 346 620T410 515Q410 485 397 463T358 413Q340 393 331 379T322 350Q322 335 336 319ZM349 57T358 73T368 107Q368 136 352 159T299 216Q265 247 247 271T229 324Q229 359
243 383T285 440Q304 460 314 475T324 508Q324 523 314 537T286 557Q256 566 226 573T190 580Q183 580 178 563T172 524L170 87Q219 76 273 67T341 57Q349 57 358 73Z" />
<glyph unicode="&#xe0;" glyph-name="agrave" horiz-adv-x="457" d="M151 -10T115 14T57 88T35 208Q35 255 42 295T60 359Q77 382 135 421T213 460Q224 460 291 451T394 435V64L429 50V7Q338 -10 328 -10Q324 -10 309 5T293 25V61Q202 -10 195 -10Q151 -10 115
14ZM216 71T290 108V377Q266 386 230 393T181 399Q163 395 154 354T145 217Q145 169 155 136T180 87T206 71Q216 71 290 108ZM128 604L127 634L182 688L320 553L293 519L128 604Z" />
<glyph unicode="&#xe1;" glyph-name="aacute" horiz-adv-x="457" d="M151 -10T115 14T57 88T35 208Q35 255 42 295T60 359Q77 382 135 421T213 460Q224 460 291 451T394 435V64L429 50V7Q338 -10 328 -10Q324 -10 309 5T293 25V61Q202 -10 195 -10Q151 -10 115
14ZM216 71T290 108V377Q266 386 230 393T181 399Q163 395 154 354T145 217Q145 169 155 136T180 87T206 71Q216 71 290 108ZM155 553L292 688L348 634L347 604L182 519L155 553Z" />
<glyph unicode="&#xe2;" glyph-name="acircumflex" horiz-adv-x="457" d="M151 -10T115 14T57 88T35 208Q35 255 42 295T60 359Q77 382 135 421T213 460Q224 460 291 451T394 435V64L429 50V7Q338 -10 328 -10Q324 -10 309 5T293 25V61Q202 -10 195 -10Q151 -10
115 14ZM216 71T290 108V377Q266 386 230 393T181 399Q163 395 154 354T145 217Q145 169 155 136T180 87T206 71Q216 71 290 108ZM95 550L197 687H269L370 550L336 519L237 603H229L129 519L95 550Z" />
<glyph unicode="&#xe3;" glyph-name="atilde" horiz-adv-x="457" d="M151 -10T115 14T57 88T35 208Q35 255 42 295T60 359Q77 382 135 421T213 460Q224 460 291 451T394 435V64L429 50V7Q338 -10 328 -10Q324 -10 309 5T293 25V61Q202 -10 195 -10Q151 -10 115
14ZM216 71T290 108V377Q266 386 230 393T181 399Q163 395 154 354T145 217Q145 169 155 136T180 87T206 71Q216 71 290 108ZM275 529T254 536T205 555Q175 568 168 568Q157 568 113 534L78 566Q99 593 126 619T169 646Q185 646 205 639T256 619Q294 604 301 604Q308
604 324 616T351 641L388 607Q373 586 343 558T295 529Q275 529 254 536Z" />
<glyph unicode="&#xe4;" glyph-name="adieresis" horiz-adv-x="457" d="M151 -10T115 14T57 88T35 208Q35 255 42 295T60 359Q77 382 135 421T213 460Q224 460 291 451T394 435V64L429 50V7Q338 -10 328 -10Q324 -10 309 5T293 25V61Q202 -10 195 -10Q151 -10
115 14ZM216 71T290 108V377Q266 386 230 393T181 399Q163 395 154 354T145 217Q145 169 155 136T180 87T206 71Q216 71 290 108ZM99 645L186 650L203 627L197 537H107L99 645ZM263 645L351 650L368 627L361 537H271L263 645Z" />
<glyph unicode="&#xe5;" glyph-name="aring" horiz-adv-x="457" d="M151 -10T115 14T57 88T35 208Q35 255 42 295T60 359Q77 382 135 421T213 460Q224 460 291 451T394 435V64L429 50V7Q338 -10 328 -10Q324 -10 309 5T293 25V61Q202 -10 195 -10Q151 -10 115
14ZM216 71T290 108V377Q266 386 230 393T181 399Q163 395 154 354T145 217Q145 169 155 136T180 87T206 71Q216 71 290 108ZM182 517T156 542T130 623Q130 672 157 699T235 727Q287 727 314 702T342 620Q342 571 313 544T234 517Q182 517 156 542ZM254 564T272
574Q276 596 276 620Q276 655 267 667T235 680Q222 680 212 676T200 670Q196 655 196 624Q196 588 204 576T234 564Q254 564 272 574Z" />
<glyph unicode="&#xe6;" glyph-name="ae" horiz-adv-x="654" d="M387 163T401 130T436 83T474 69L608 74V29Q572 17 518 4T450 -10Q407 -10 370 11T309 72L276 47Q200 -10 195 -10Q151 -10 115 14T57 88T35 208Q35 255 42 295T60 359Q77 382 135 421T213 460Q223
460 285 451T395 434Q443 463 459 463Q514 463 549 445T603 378T622 238L387 218Q387 163 401 130ZM405 395T397 354T388 264L515 281Q515 402 453 405Q429 405 417 399Q405 395 397 354ZM211 71T292 110Q278 150 278 203Q278 253 284 296T302 359Q306 365 311
370Q281 380 241 391T185 403Q166 403 156 361T145 217Q145 169 155 136T180 87T206 71Q211 71 292 110Z" />
<glyph unicode="&#xe7;" glyph-name="ccedilla" horiz-adv-x="353" d="M145 170T155 137T182 87T214 71H327V25Q286 12 219 -5L214 -45Q251 -50 276 -69T302 -112Q302 -138 292 -159Q267 -181 162 -222L139 -183Q182 -161 198 -150T214 -124Q214 -111 196 -103T152
-91L145 -64L165 -8Q109 1 72 55T35 203Q35 251 42 294T60 358Q71 373 103 397T167 441T212 460Q236 460 267 455T327 440L324 307H258L243 378Q232 384 216 389T186 394Q177 394 172 390Q159 380 152 334T145 219Q145 170 155 137Z" />
<glyph unicode="&#xe8;" glyph-name="egrave" horiz-adv-x="412" d="M161 -10T122 14T59 86T35 203Q35 252 42 295T60 359Q71 374 104 399T170 444T217 463Q272 463 307 445T361 378T380 238L144 218Q144 163 158 130T193 83T231 69L365 74V29Q330 17 276 4T208
-10Q161 -10 122 14ZM273 281Q273 399 211 400H203Q187 400 174 395Q162 391 154 352T146 264L273 281ZM102 604L101 634L156 688L294 553L267 519L102 604Z" />
<glyph unicode="&#xe9;" glyph-name="eacute" horiz-adv-x="412" d="M161 -10T122 14T59 86T35 203Q35 252 42 295T60 359Q71 374 104 399T170 444T217 463Q272 463 307 445T361 378T380 238L144 218Q144 163 158 130T193 83T231 69L365 74V29Q330 17 276 4T208
-10Q161 -10 122 14ZM273 281Q273 399 211 400H203Q187 400 174 395Q162 391 154 352T146 264L273 281ZM129 553L266 688L322 634L321 604L156 519L129 553Z" />
<glyph unicode="&#xea;" glyph-name="ecircumflex" horiz-adv-x="412" d="M161 -10T122 14T59 86T35 203Q35 252 42 295T60 359Q71 374 104 399T170 444T217 463Q272 463 307 445T361 378T380 238L144 218Q144 163 158 130T193 83T231 69L365 74V29Q330 17 276
4T208 -10Q161 -10 122 14ZM273 281Q273 399 211 400H203Q187 400 174 395Q162 391 154 352T146 264L273 281ZM69 550L171 687H243L344 550L310 519L211 603H203L103 519L69 550Z" />
<glyph unicode="&#xeb;" glyph-name="edieresis" horiz-adv-x="412" d="M161 -10T122 14T59 86T35 203Q35 252 42 295T60 359Q71 374 104 399T170 444T217 463Q272 463 307 445T361 378T380 238L144 218Q144 163 158 130T193 83T231 69L365 74V29Q330 17 276 4T208
-10Q161 -10 122 14ZM273 281Q273 399 211 400H203Q187 400 174 395Q162 391 154 352T146 264L273 281ZM72 645L159 650L176 627L170 537H80L72 645ZM236 645L324 650L341 627L334 537H244L236 645Z" />
<glyph unicode="&#xec;" glyph-name="igrave" horiz-adv-x="236" d="M103 -10T85 6T67 28V389L30 401V443Q120 459 130 459Q136 459 153 444T170 421V61L206 50V8Q119 -10 109 -10Q103 -10 85 6ZM6 604L5 634L60 688L198 553L171 519L6 604Z" />
<glyph unicode="&#xed;" glyph-name="iacute" horiz-adv-x="236" d="M103 -10T85 6T67 28V389L30 401V443Q120 459 130 459Q136 459 153 444T170 421V61L206 50V8Q119 -10 109 -10Q103 -10 85 6ZM33 553L170 688L226 634L225 604L60 519L33 553Z" />
<glyph unicode="&#xee;" glyph-name="icircumflex" horiz-adv-x="236" d="M103 -10T85 6T67 28V389L30 401V443Q120 459 130 459Q136 459 153 444T170 421V61L206 50V8Q119 -10 109 -10Q103 -10 85 6ZM-27 550L75 687H147L248 550L214 519L115 603H107L7 519L-27 550Z" />
<glyph unicode="&#xef;" glyph-name="idieresis" horiz-adv-x="236" d="M103 -10T85 6T67 28V389L30 401V443Q120 459 130 459Q136 459 153 444T170 421V61L206 50V8Q119 -10 109 -10Q103 -10 85 6ZM-24 645L63 650L80 627L74 537H-16L-24 645ZM140 645L228 650L245
627L238 537H148L140 645Z" />
<glyph unicode="&#xf0;" glyph-name="eth" horiz-adv-x="441" d="M416 554L344 519Q399 440 399 303Q399 122 344 57T196 -9Q185 -9 154 9T91 50T48 90Q41 111 37 146T33 212Q33 253 50 292T104 356T196 382Q203 382 233 369T288 341Q282 434 263 479L183 440L137
472L141 489L227 531Q197 557 140 560L122 615Q232 616 298 566L374 603L419 570L416 554ZM232 45T261 80T291 211Q291 265 290 290Q269 300 246 309T212 319Q182 319 162 286T142 194Q142 136 149 91T174 45Q232 45 261 80Z" />
<glyph unicode="&#xf1;" glyph-name="ntilde" horiz-adv-x="482" d="M98 -10T83 5T67 25V386L30 401V443Q124 459 134 459Q139 459 153 445T167 425V390Q196 412 230 435T268 459Q341 459 378 423T415 295V65L451 50V8Q358 -10 349 -10Q344 -10 328 5T311 25V295Q311
379 259 379Q254 379 233 370T201 357Q191 352 171 344V65L206 50V8Q113 -10 103 -10Q98 -10 83 5ZM278 529T257 536T208 555Q178 568 171 568Q160 568 116 534L81 566Q102 593 129 619T172 646Q188 646 208 639T259 619Q297 604 304 604Q311 604 327 616T354 641L391
607Q376 586 346 558T298 529Q278 529 257 536Z" />
<glyph unicode="&#xf2;" glyph-name="ograve" horiz-adv-x="462" d="M143 -10T89 43T35 209Q35 254 42 296T60 358Q71 373 104 398T171 443T217 463Q321 463 374 409T427 250Q427 202 421 160T404 91Q387 69 328 30T250 -10Q143 -10 89 43ZM260 53T301 74Q317
145 317 237Q317 312 291 356T212 401Q190 401 176 394Q162 387 154 342T145 223Q145 127 176 89T254 51Q260 53 301 74ZM126 604L125 634L180 688L318 553L291 519L126 604Z" />
<glyph unicode="&#xf3;" glyph-name="oacute" horiz-adv-x="462" d="M143 -10T89 43T35 209Q35 254 42 296T60 358Q71 373 104 398T171 443T217 463Q321 463 374 409T427 250Q427 202 421 160T404 91Q387 69 328 30T250 -10Q143 -10 89 43ZM260 53T301 74Q317
145 317 237Q317 312 291 356T212 401Q190 401 176 394Q162 387 154 342T145 223Q145 127 176 89T254 51Q260 53 301 74ZM153 553L290 688L346 634L345 604L180 519L153 553Z" />
<glyph unicode="&#xf4;" glyph-name="ocircumflex" horiz-adv-x="462" d="M143 -10T89 43T35 209Q35 254 42 296T60 358Q71 373 104 398T171 443T217 463Q321 463 374 409T427 250Q427 202 421 160T404 91Q387 69 328 30T250 -10Q143 -10 89 43ZM260 53T301 74Q317
145 317 237Q317 312 291 356T212 401Q190 401 176 394Q162 387 154 342T145 223Q145 127 176 89T254 51Q260 53 301 74ZM93 550L195 687H267L368 550L334 519L235 603H227L127 519L93 550Z" />
<glyph unicode="&#xf5;" glyph-name="otilde" horiz-adv-x="462" d="M143 -10T89 43T35 209Q35 254 42 296T60 358Q71 373 104 398T171 443T217 463Q321 463 374 409T427 250Q427 202 421 160T404 91Q387 69 328 30T250 -10Q143 -10 89 43ZM260 53T301 74Q317
145 317 237Q317 312 291 356T212 401Q190 401 176 394Q162 387 154 342T145 223Q145 127 176 89T254 51Q260 53 301 74ZM273 529T252 536T203 555Q173 568 166 568Q155 568 111 534L76 566Q97 593 124 619T167 646Q183 646 203 639T254 619Q292 604 299 604Q306
604 322 616T349 641L386 607Q371 586 341 558T293 529Q273 529 252 536Z" />
<glyph unicode="&#xf6;" glyph-name="odieresis" horiz-adv-x="462" d="M143 -10T89 43T35 209Q35 254 42 296T60 358Q71 373 104 398T171 443T217 463Q321 463 374 409T427 250Q427 202 421 160T404 91Q387 69 328 30T250 -10Q143 -10 89 43ZM260 53T301 74Q317
145 317 237Q317 312 291 356T212 401Q190 401 176 394Q162 387 154 342T145 223Q145 127 176 89T254 51Q260 53 301 74ZM96 645L183 650L200 627L194 537H104L96 645ZM260 645L348 650L365 627L358 537H268L260 645Z" />
<glyph unicode="&#xf7;" glyph-name="divide" horiz-adv-x="615" d="M279 371T266 384T252 405L249 488Q269 493 293 496T330 501Q335 501 349 487T364 467L357 384Q342 380 319 376T285 371Q279 371 266 384ZM98 540H516V472H98V540ZM279 -8T266 5T252 26L249
109Q269 114 293 117T330 122Q335 122 349 108T364 88L357 5Q342 1 319 -3T285 -8Q279 -8 266 5Z" />
<glyph unicode="&#xf8;" glyph-name="oslash" horiz-adv-x="462" d="M427 375T427 250Q427 202 421 160T404 91Q387 69 328 30T250 -10Q193 -10 154 4L110 -92L76 -93L61 -75L108 27Q35 79 35 209Q35 254 42 296T60 358Q71 373 104 398T171 443T217 463Q267 463
305 450L341 529L379 530L390 512L351 428Q427 375 427 250ZM145 167T157 131L272 379Q247 401 212 401Q190 401 176 394Q162 387 154 342T145 223Q145 167 157 131ZM317 145T317 237Q317 291 304 327L188 76Q214 51 254 51Q260 53 301 74Q317 145 317 237Z" />
<glyph unicode="&#xf9;" glyph-name="ugrave" horiz-adv-x="475" d="M137 -10T101 27T64 155V386L29 401V443Q121 459 130 459Q135 459 151 445T168 425V156Q168 71 221 71Q231 71 305 106V386L269 401V443Q363 459 372 459Q377 459 393 445T409 425V65L444 50V7Q351
-10 342 -10Q337 -10 323 5T308 25V60Q282 39 248 15T210 -10Q137 -10 101 27ZM121 604L120 634L175 688L313 553L286 519L121 604Z" />
<glyph unicode="&#xfa;" glyph-name="uacute" horiz-adv-x="475" d="M137 -10T101 27T64 155V386L29 401V443Q121 459 130 459Q135 459 151 445T168 425V156Q168 71 221 71Q231 71 305 106V386L269 401V443Q363 459 372 459Q377 459 393 445T409 425V65L444 50V7Q351
-10 342 -10Q337 -10 323 5T308 25V60Q282 39 248 15T210 -10Q137 -10 101 27ZM148 553L285 688L341 634L340 604L175 519L148 553Z" />
<glyph unicode="&#xfb;" glyph-name="ucircumflex" horiz-adv-x="475" d="M137 -10T101 27T64 155V386L29 401V443Q121 459 130 459Q135 459 151 445T168 425V156Q168 71 221 71Q231 71 305 106V386L269 401V443Q363 459 372 459Q377 459 393 445T409 425V65L444
50V7Q351 -10 342 -10Q337 -10 323 5T308 25V60Q282 39 248 15T210 -10Q137 -10 101 27ZM88 550L190 687H262L363 550L329 519L230 603H222L122 519L88 550Z" />
<glyph unicode="&#xfc;" glyph-name="udieresis" horiz-adv-x="475" d="M137 -10T101 27T64 155V386L29 401V443Q121 459 130 459Q135 459 151 445T168 425V156Q168 71 221 71Q231 71 305 106V386L269 401V443Q363 459 372 459Q377 459 393 445T409 425V65L444
50V7Q351 -10 342 -10Q337 -10 323 5T308 25V60Q282 39 248 15T210 -10Q137 -10 101 27ZM91 645L178 650L195 627L189 537H99L91 645ZM255 645L343 650L360 627L353 537H263L255 645Z" />
<glyph unicode="&#xfd;" glyph-name="yacute" horiz-adv-x="415" d="M164 -182T154 -163T143 -138L190 1Q164 -3 159 -3Q156 -3 143 6L39 388L-1 399V444Q87 458 96 458Q101 458 118 446T137 427L192 196L212 91H222L302 391L241 398V450L367 458Q373 458 385
443T397 421L265 3L237 -109L279 -127L278 -169Q177 -182 168 -182Q164 -182 154 -163ZM130 553L267 688L323 634L322 604L157 519L130 553Z" />
<glyph unicode="&#xfe;" glyph-name="thorn" horiz-adv-x="458" d="M90 -182T75 -167T59 -147L64 17L65 576L28 590V632Q125 649 134 649Q139 649 153 635T168 614L167 391Q174 396 186 406Q192 411 225 435T263 460Q306 460 342 436T401 364T423 246Q423 197
416 156T398 91Q381 68 323 29T245 -10Q233 -10 188 -3L164 0V-104L205 -120V-165Q104 -182 95 -182Q90 -182 75 -167ZM295 52T304 94T313 232Q313 280 303 313T278 362T252 379Q245 379 168 342L165 69Q173 67 220 56T278 47Q295 52 304 94Z" />
<glyph unicode="&#xff;" glyph-name="ydieresis" horiz-adv-x="415" d="M164 -182T154 -163T143 -138L190 1Q164 -3 159 -3Q156 -3 143 6L39 388L-1 399V444Q87 458 96 458Q101 458 118 446T137 427L192 196L212 91H222L302 391L241 398V450L367 458Q373 458 385
443T397 421L265 3L237 -109L279 -127L278 -169Q177 -182 168 -182Q164 -182 154 -163ZM72 645L159 650L176 627L170 537H80L72 645ZM236 645L324 650L341 627L334 537H244L236 645Z" />
<glyph unicode="&#x2013;" glyph-name="endash" horiz-adv-x="468" d="M38 283H429V214H38V283Z" />
<glyph unicode="&#x2014;" glyph-name="emdash" horiz-adv-x="859" d="M38 283H820V214H38V283Z" />
<glyph unicode="&#x2018;" glyph-name="quoteleft" horiz-adv-x="224" d="M71 415T60 427T48 445V495Q48 518 74 567T132 657L175 637L159 594Q143 554 136 532Q139 529 148 522T158 511L155 423Q103 415 76 415Q71 415 60 427Z" />
<glyph unicode="&#x2019;" glyph-name="quoteright" horiz-adv-x="224" d="M49 439Q82 528 87 543Q84 545 75 552T65 565L69 652Q121 660 148 660Q153 660 164 648T175 631V580Q175 557 149 508T91 418L49 439Z" />
<glyph unicode="&#x201a;" glyph-name="quotesinglbase" horiz-adv-x="217" d="M49 -92Q80 -26 89 -3Q86 -1 79 4T68 12T64 18L68 106Q116 112 143 112Q147 112 158 99T169 81V34Q169 17 145 -26T90 -113L49 -92Z" />
<glyph unicode="&#x201c;" glyph-name="quotedblleft" horiz-adv-x="377" d="M71 415T60 427T48 445V495Q48 518 74 567T132 657L175 637L159 594Q143 554 136 532Q139 529 148 522T158 511L155 423Q103 415 76 415Q71 415 60 427ZM224 415T213 427T201 445V495Q201
518 227 566T285 657L328 637L312 594Q296 554 289 532Q292 529 302 522T311 511L308 423Q256 415 229 415Q224 415 213 427Z" />
<glyph unicode="&#x201d;" glyph-name="quotedblright" horiz-adv-x="377" d="M49 439Q82 528 87 543Q84 545 75 552T65 565L69 652Q121 660 148 660Q153 660 164 648T175 631V580Q175 557 149 508T91 418L49 439ZM202 439L212 467Q234 522 241 543Q239 544 229
552T218 565L222 652Q274 660 301 660Q306 660 317 648T328 631V580Q328 557 302 508T244 418L202 439Z" />
<glyph unicode="&#x201e;" glyph-name="quotedblbase" horiz-adv-x="367" d="M49 -92Q80 -26 89 -3Q86 -1 79 4T68 12T64 18L68 106Q116 112 143 112Q147 112 158 99T169 81V34Q169 17 145 -26T90 -113L49 -92ZM198 -92Q229 -26 238 -3Q235 -1 228 4T217 12T213
18L217 106Q265 112 292 112Q296 112 307 99T318 81V34Q318 17 294 -26T239 -113L198 -92Z" />
<glyph unicode="&#x2022;" glyph-name="bullet" horiz-adv-x="401" d="M154 166T123 195T91 275Q91 325 122 354T200 384Q246 384 277 355T309 275Q309 225 278 196T200 166Q154 166 123 195Z" />
<glyph unicode="&#x2039;" glyph-name="guilsinglleft" horiz-adv-x="267" d="M33 212V259L177 411L214 384L135 239V231L211 78L173 49L33 212Z" />
<glyph unicode="&#x203a;" glyph-name="guilsinglright" horiz-adv-x="267" d="M56 78L132 231V239L53 384L91 411L234 259V212L93 49L56 78Z" />
</font>
</defs>
</svg>
