<?xml version="1.0" standalone="no"?>
<!DOCTYPE svg PUBLIC "-//W3C//DTD SVG 1.1//EN" "http://www.w3.org/Graphics/SVG/1.1/DTD/svg11.dtd">
<svg xmlns="http://www.w3.org/2000/svg">
<defs >
<font id="Grenze" horiz-adv-x="448" ><font-face
    font-family="Grenze"
    units-per-em="1000"
    panose-1="2 14 5 4 6 4 3 5 4 4"
    ascent="1100"
    descent="-380"
    alphabetic="0" />
<glyph unicode=" " glyph-name="space" horiz-adv-x="131" />
<glyph unicode="!" glyph-name="exclam" horiz-adv-x="251" d="M103 176T98 181T93 189L148 602Q152 603 158 604T171 606Q219 616 226 616Q229 616 237 608T244 597L152 181Q114 176 105 176Q103 176 98 181ZM54 -9T49 0T44 13L65 104H149L137 -3Q81 -9 57 -9Q54
-9 49 0Z" />
<glyph unicode="&quot;" glyph-name="quotedbl" horiz-adv-x="295" d="M114 679Q158 685 178 685Q182 685 190 678T197 668Q184 630 167 571L142 490L103 489L114 679ZM258 679Q302 685 322 685Q326 685 334 678T341 668Q328 630 311 571L286 490L247 489L258 679Z" />
<glyph unicode="#" glyph-name="numbersign" horiz-adv-x="551" d="M407 306L367 175H474L458 121H351L306 -25H253L297 121H194L150 -25H96L140 121H33L49 175H157L196 306H94L110 360H212L253 494H308L267 360H369L410 494H465L424 360H534L518 306H407ZM353
306H251L211 175H314L353 306Z" />
<glyph unicode="$" glyph-name="dollar" horiz-adv-x="485" d="M367 395L372 481Q275 499 243 499Q222 499 205 473T188 408Q188 379 213 359T291 310Q333 287 358 271T400 231T418 176Q418 152 410 126Q384 72 331 31T231 -10L219 -83H168L180 -9Q121 -8 33 -1L64
152H117L115 70Q149 62 189 58T260 53Q272 53 286 69T309 106T319 138Q319 165 295 185T220 232Q161 263 130 290T98 360Q98 374 102 396T112 431Q124 451 156 480T224 531T281 556L293 628H344L332 555Q389 554 455 546L418 395H367Z" />
<glyph unicode="%" glyph-name="percent" horiz-adv-x="809" d="M586 611H646L255 -9H195L586 611ZM150 295T121 320T92 398Q92 484 136 537T260 591Q322 591 350 567T379 490Q379 405 334 350T212 295Q150 295 121 320ZM241 340T276 362Q302 447 302 496Q302
546 266 546Q234 546 192 523Q170 445 170 392Q170 340 202 340Q241 340 276 362ZM512 -9T483 16T454 94Q454 180 498 233T622 287Q684 287 712 263T741 186Q741 101 696 46T574 -9Q512 -9 483 16ZM603 36T638 58Q664 143 664 192Q664 242 628 242Q596 242 554
219Q532 141 532 88Q532 36 564 36Q603 36 638 58Z" />
<glyph unicode="&amp;" glyph-name="ampersand" horiz-adv-x="561" d="M505 297Q489 273 439 206L410 165Q433 134 491 58L528 45L521 0H429Q419 5 355 88L336 61Q317 43 262 17T183 -9Q122 -9 75 20T27 119Q27 185 67 242T172 343Q144 389 144 443Q144 463 150
489T164 527Q176 543 225 577T287 611Q344 611 376 593T408 538Q408 511 379 427H330L339 507Q342 532 323 543T277 555Q262 555 251 552Q219 543 219 482Q219 439 239 403Q262 362 376 210Q411 260 432 295L374 315L381 353H557L549 307L505 297ZM260 59T320 135Q271
201 195 308Q164 279 143 229T121 134Q121 92 144 74T209 55Q227 55 248 58Q260 59 320 135Z" />
<glyph unicode="&apos;" glyph-name="quotesingle" horiz-adv-x="151" d="M114 679Q158 685 178 685Q182 685 190 678T197 668Q184 630 167 571L142 490L103 489L114 679Z" />
<glyph unicode="(" glyph-name="parenleft" horiz-adv-x="237" d="M43 14T43 173Q43 317 100 447T263 680L289 654Q217 560 171 415T125 144Q125 75 135 14T163 -86L129 -112Q43 14 43 173Z" />
<glyph unicode=")" glyph-name="parenright" horiz-adv-x="237" d="M-17 -86Q55 8 101 153T147 424Q147 493 137 554T109 654L143 680Q229 554 229 395Q229 251 172 121T9 -112L-17 -86Z" />
<glyph unicode="*" glyph-name="asterisk" horiz-adv-x="320" d="M152 397L186 498L99 435L81 439L65 489L171 532L81 575L113 625L133 629L197 567L202 677L258 681L269 667L235 565L322 629L340 625L356 575L249 532L340 489L308 439L288 435L224 497L219 387L163
383L152 397Z" />
<glyph unicode="+" glyph-name="plus" horiz-adv-x="604" d="M516 224H343L311 33H243L275 224H104L115 284H286L318 474H386L354 284H527L516 224Z" />
<glyph unicode="," glyph-name="comma" horiz-adv-x="185" d="M-25 -116Q13 -54 38 -4Q36 -2 27 6T19 21L33 111Q52 116 74 119T106 123Q110 123 122 110T133 92Q122 24 86 -35T10 -136L-25 -116Z" />
<glyph unicode="-" glyph-name="hyphen" horiz-adv-x="315" d="M48 279H287L274 209H36L48 279Z" />
<glyph unicode="." glyph-name="period" horiz-adv-x="188" d="M40 -10T29 2T18 21L29 104Q48 109 70 112T102 116Q106 116 118 103T129 85L112 2Q91 -3 73 -6T45 -10Q40 -10 29 2Z" />
<glyph unicode="/" glyph-name="slash" horiz-adv-x="341" d="M324 687H384L53 -118H-7L324 687Z" />
<glyph unicode="0" glyph-name="zero" horiz-adv-x="501" d="M129 -9T85 36T41 164Q41 252 70 322T156 433T292 474Q379 474 423 429T467 301Q467 213 438 143T351 32T216 -9Q129 -9 85 36ZM244 47T269 53T321 74Q341 125 356 196T371 316Q371 418 294 418Q264
418 239 412T187 391Q167 340 152 269T137 149Q137 47 214 47Q244 47 269 53Z" />
<glyph unicode="1" glyph-name="one" horiz-adv-x="348" d="M292 42L286 0H17L23 45L123 63L178 391L76 381L83 425L240 474L279 459L212 60L292 42Z" />
<glyph unicode="2" glyph-name="two" horiz-adv-x="409" d="M203 246Q246 294 263 320T281 379Q281 395 278 405T267 416Q260 416 225 410T163 397L141 324H95L110 453Q152 460 203 467T272 474Q315 474 345 455T376 395Q376 329 292 241L143 84L142 74H296L315
145H362L342 0H16L15 39L203 246Z" />
<glyph unicode="3" glyph-name="three" horiz-adv-x="362" d="M330 227T330 156Q330 101 280 46T155 -47T11 -92L29 -35Q111 -14 171 34T232 148Q232 170 225 183T206 196H107L115 239Q186 255 219 289T253 385Q253 415 241 415Q234 415 159 399L131 393L112 319H67L82
452Q118 459 165 466T228 473Q344 473 344 393Q344 310 247 252L246 246Q330 227 330 156Z" />
<glyph unicode="4" glyph-name="four" horiz-adv-x="426" d="M226 43H-6L-4 92Q42 168 108 283T219 478L289 439L286 418Q267 386 205 291T90 119L91 111H238L261 248L331 273L346 266L320 111H386L375 43H309L286 -90H204L226 43Z" />
<glyph unicode="5" glyph-name="five" horiz-adv-x="354" d="M124 252Q146 265 159 272T179 279Q248 279 281 246T314 160Q314 92 270 38T154 -49T2 -92L20 -35Q120 -8 167 33T215 153Q215 215 159 215Q152 215 79 189L58 181L44 203L109 465H284L296 510H342L328
391H157L124 252Z" />
<glyph unicode="6" glyph-name="six" horiz-adv-x="424" d="M201 443T146 288L165 299Q172 303 205 320T244 338Q315 338 348 301T381 209Q381 187 371 149T352 89Q326 60 272 26T191 -9Q114 -9 72 31T30 144Q30 245 79 335T214 483T402 552L385 495Q201 443 146
288ZM218 273T134 244Q123 197 123 139Q123 85 151 67T228 49Q239 49 252 71T275 128T284 199Q284 240 269 256T225 273Q218 273 134 244Z" />
<glyph unicode="7" glyph-name="seven" horiz-adv-x="380" d="M388 459T393 444T400 420L95 -97Q85 -100 72 -102T49 -104Q45 -104 34 -90T19 -67L300 374L301 386H124L102 317H57L74 465H384Q388 459 393 444Z" />
<glyph unicode="8" glyph-name="eight" horiz-adv-x="420" d="M341 266T359 239T378 171Q378 133 359 89Q335 61 279 26T197 -9Q116 -9 76 28T36 119Q36 206 143 285Q120 305 107 328T94 382Q94 419 112 455Q134 483 188 518T268 553Q334 553 365 522T397 444Q397
405 373 362T309 287Q341 266 359 239ZM221 497T210 486T192 454T184 404Q184 374 204 355T266 313Q284 338 296 374T308 435Q308 467 290 482T229 497Q221 497 210 486ZM246 49T261 85T277 144Q277 170 264 189T235 221T181 258Q159 232 144 199T129 136Q129 94
155 72T235 49Q246 49 261 85Z" />
<glyph unicode="9" glyph-name="nine" horiz-adv-x="424" d="M314 473T356 433T399 320Q399 219 349 129T214 -19T26 -88L44 -31Q227 20 283 177Q256 160 224 143T185 126Q114 126 81 163T48 255Q48 281 57 317T77 375Q102 404 156 438T237 473Q314 473 356 433ZM210
191T240 201T296 221Q306 268 306 316Q306 377 279 396T201 415Q189 415 176 396T154 343T145 265Q145 224 160 208T204 191Q210 191 240 201Z" />
<glyph unicode=":" glyph-name="colon" horiz-adv-x="188" d="M93 335T82 348T71 366L82 449Q101 454 123 457T155 461Q159 461 171 448T182 430L165 347Q144 342 126 339T98 335Q93 335 82 348ZM35 -10T24 2T13 21L24 104Q43 109 65 112T97 116Q101 116 113 103T124
85L107 2Q86 -3 68 -6T40 -10Q35 -10 24 2Z" />
<glyph unicode=";" glyph-name="semicolon" horiz-adv-x="200" d="M102 335T91 348T80 366L91 449Q110 454 132 457T164 461Q168 461 180 448T191 430L174 347Q153 342 135 339T107 335Q102 335 91 348ZM-22 -116Q16 -54 41 -4Q39 -2 30 6T22 21L36 111Q55 116
77 119T109 123Q113 123 125 110T136 92Q125 24 89 -35T13 -136L-22 -116Z" />
<glyph unicode="&lt;" glyph-name="less" horiz-adv-x="556" d="M62 193L77 283L499 458L488 386L122 238L437 90L425 18L62 193Z" />
<glyph unicode="=" glyph-name="equal" horiz-adv-x="575" d="M119 358H503L492 298H109L119 358ZM89 178H472L461 118H78L89 178Z" />
<glyph unicode="&gt;" glyph-name="greater" horiz-adv-x="556" d="M69 90L434 238L120 386L131 458L494 283L480 193L57 18L69 90Z" />
<glyph unicode="?" glyph-name="question" horiz-adv-x="376" d="M341 610T369 591T398 526Q398 479 379 444T334 383T261 323Q230 300 219 291Q191 269 179 244T157 164Q117 159 109 159Q107 159 103 164T98 172L110 242Q116 275 138 298T210 360Q272 408 293
440T315 511Q315 551 295 551Q286 551 216 541L182 536L158 447H106L120 598Q244 610 288 610Q341 610 369 591ZM89 106L144 101L136 -4Q98 -9 70 -9Q67 -9 62 1T58 15L89 106Z" />
<glyph unicode="@" glyph-name="at" horiz-adv-x="763" d="M766 336T723 226T613 20L612 21Q577 13 524 4T450 -9Q445 -9 434 4T423 22L450 172Q416 113 379 52T338 -9Q208 -9 208 141Q208 194 223 256T258 358Q276 379 340 418T422 457Q435 457 497 449T583 435L517
63L578 52Q618 133 648 235T678 405Q678 498 627 542T470 586Q422 586 365 571T261 529Q223 496 189 414T133 237T112 74Q112 -14 155 -61T307 -108Q335 -108 395 -104L394 -146Q362 -154 320 -160T244 -166Q189 -166 140 -139T60 -56T29 85Q29 230 84 359T241
568T479 647Q766 647 766 426Q766 336 723 226ZM341 65T463 248L486 381Q421 404 390 404Q368 404 347 370T313 277T300 147Q300 108 309 87T332 65Q341 65 463 248Z" />
<glyph unicode="A" glyph-name="A" horiz-adv-x="552" d="M515 38L509 0H297L304 46L368 63L350 203H172L115 63L179 46L171 0H-41L-35 38L28 58L275 603L379 612L391 600L459 58L515 38ZM194 256H344L324 545H318L194 256Z" />
<glyph unicode="B" glyph-name="B" horiz-adv-x="481" d="M402 305T430 276T458 201Q458 110 402 55T252 0H3L9 38L70 57L155 545L98 565L105 603H342Q405 603 436 579T468 497Q468 429 442 388T356 319L355 313Q402 305 430 276ZM346 556T276 548L246 545L208
330H280Q335 330 355 385T376 509Q376 556 347 556Q346 556 276 548ZM313 47T331 77T358 148T367 222Q367 255 351 264T297 273H199L162 61Q279 47 287 47Q313 47 331 77Z" />
<glyph unicode="C" glyph-name="C" horiz-adv-x="435" d="M379 428L385 535Q343 542 276 542Q253 542 241 537Q214 525 190 471T152 342T137 196Q137 141 149 112T182 74T233 65H309L348 185L398 184L369 14Q345 7 268 -1T175 -9Q118 -9 81 42T43 193Q43 262 63
349T112 494Q141 525 208 568T295 611Q323 610 372 608T471 601L431 428H379Z" />
<glyph unicode="D" glyph-name="D" horiz-adv-x="550" d="M440 603T487 557T534 416Q534 314 504 219T415 62T272 0H3L9 38L72 58L155 545L98 565L105 603H371Q440 603 487 557ZM336 52T369 114T420 263T439 420Q439 481 425 516T382 551Q362 551 285 544L243
541L163 64Q283 52 295 52Q336 52 369 114Z" />
<glyph unicode="E" glyph-name="E" horiz-adv-x="456" d="M392 428L396 553L246 539L212 342L350 337L342 290L202 285L163 64L336 51L378 180L428 179L397 0H3L9 38L71 58L156 545L98 565L105 603H474L442 428H392Z" />
<glyph unicode="F" glyph-name="F" horiz-adv-x="417" d="M437 428H387L391 553L246 540L210 330L350 325L342 278L199 273L163 63L263 44L255 0H3L9 38L71 58L156 545L98 565L105 603H469L437 428Z" />
<glyph unicode="G" glyph-name="G" horiz-adv-x="511" d="M493 252L441 238L411 59Q388 44 306 18T208 -9Q132 -9 88 41T43 193Q43 262 63 349T112 494Q141 525 208 568T295 611Q326 610 382 607T491 599L451 427H399L405 531Q382 535 344 538T276 542Q253 542
241 537Q214 525 190 471T152 342T137 196Q137 120 156 90T223 59L330 69L357 228L270 245L278 291H500L493 252Z" />
<glyph unicode="H" glyph-name="H" horiz-adv-x="597" d="M554 545L469 58L526 38L520 0H307L315 46L379 63L417 284H201L163 63L224 46L216 0H3L9 38L71 58L156 545L99 565L105 603H318L310 557L246 540L211 337H427L462 540L401 557L409 603H622L616 565L554 545Z" />
<glyph unicode="I" glyph-name="I" horiz-adv-x="293" d="M246 540L163 63L224 46L216 0H3L9 38L71 58L156 545L99 565L105 603H318L310 557L246 540Z" />
<glyph unicode="J" glyph-name="J" horiz-adv-x="281" d="M310 557L244 540L159 38Q154 9 123 -29T54 -95T2 -123Q-8 -123 -56 -109Q-58 -108 -89 -99L-74 -52Q9 -52 24 -49Q56 -43 75 70L156 545H157L99 565L105 603H318L310 557Z" />
<glyph unicode="K" glyph-name="K" horiz-adv-x="516" d="M163 63L224 46L216 0H3L9 38L71 58L156 545L99 565L105 603H318L310 557L246 540L163 63ZM511 545L308 320Q331 275 384 186T465 58L510 42L504 0H374Q346 58 321 106Q250 250 231 292L236 320L420 540L360
557L368 603H580L574 565L511 545Z" />
<glyph unicode="L" glyph-name="L" horiz-adv-x="450" d="M431 199L397 0H3L9 38L71 58L156 545L99 565L105 603H338L330 557L246 538L163 64L334 49L381 200L431 199Z" />
<glyph unicode="M" glyph-name="M" horiz-adv-x="745" d="M697 545L633 58L690 38L684 0H472L480 46L543 63L609 499H602Q540 363 511 301L388 48L289 34L275 42L237 295Q229 344 215 499H208L123 66L195 46L187 0H-14L-8 38L54 59L154 545L96 565L103 603H280L347
121H358L582 603H765L758 565L697 545Z" />
<glyph unicode="N" glyph-name="N" horiz-adv-x="591" d="M616 565L554 545L460 7L351 -7L337 1L264 295Q252 344 226 496H219L156 62L216 46L208 0H3L9 38L71 59L156 545L98 565L105 603H277L360 268Q369 235 395 81H402L469 539L408 557L416 603H622L616 565Z" />
<glyph unicode="O" glyph-name="O" horiz-adv-x="526" d="M148 -9T97 42T45 203Q45 274 66 362T116 495Q133 515 171 542T247 590T297 611Q405 611 458 562T512 409Q512 343 492 261T444 108Q424 86 386 58T311 11T260 -9Q148 -9 97 42ZM273 51T310 69T352 94Q376
157 396 260T417 427Q417 491 390 519T308 548Q270 548 243 537Q216 526 192 472T154 343T139 196Q139 142 149 111T186 66T262 51Q273 51 310 69Z" />
<glyph unicode="P" glyph-name="P" horiz-adv-x="476" d="M420 603T453 575T486 483Q486 410 460 349T384 252T263 215H188L162 65L243 46L235 0H2L8 38L70 58L155 545L98 565L105 603H357Q420 603 453 575ZM351 272T370 339T390 478Q390 552 354 552Q336 552
271 545Q261 545 245 543L198 272H294Q351 272 370 339Z" />
<glyph unicode="Q" glyph-name="Q" horiz-adv-x="526" d="M420 82T371 48T285 -2L441 -62L409 -118H364L200 -5Q120 8 83 58T45 203Q45 274 66 362T116 495Q133 515 171 542T247 590T297 611Q405 611 458 562T512 409Q512 343 492 261T444 108Q420 82 371 48ZM376
157T396 260T417 427Q417 491 390 519T308 548Q270 548 243 537Q216 526 192 472T154 343T139 196Q139 142 149 111T186 66T262 51Q273 51 310 69T352 94Q376 157 396 260Z" />
<glyph unicode="R" glyph-name="R" horiz-adv-x="480" d="M364 176T419 57L468 42L461 0H335L254 260H196L162 63L223 46L215 0H2L8 38L70 58L155 545L98 565L105 603H347Q412 603 446 578T480 492Q480 419 439 358T330 272L329 262Q364 176 419 57ZM206 317H288Q342
317 362 367T383 489Q383 522 374 537T344 552Q329 552 245 542L206 317Z" />
<glyph unicode="S" glyph-name="S" horiz-adv-x="423" d="M340 422L345 524Q252 542 214 542Q199 542 185 517T170 452Q170 425 188 404T242 358L269 340Q308 315 331 296T371 250T388 188Q388 171 384 149T373 114Q356 89 321 60T249 11T194 -9Q124 -9 10 1L51
184H103L96 72Q194 58 237 58Q247 58 260 75T282 116T292 151Q292 176 277 196T244 229T182 270Q132 301 105 332T78 410Q78 429 82 451T94 488Q108 510 145 539T219 589T273 611Q280 611 388 600Q418 596 432 595L392 422H340Z" />
<glyph unicode="T" glyph-name="T" horiz-adv-x="460" d="M479 415H427L438 541L338 550L253 64L324 46L316 0H83L89 38L161 59L247 550L141 541L110 415H59L78 603H523L479 415Z" />
<glyph unicode="U" glyph-name="U" horiz-adv-x="573" d="M529 544L447 58L503 38L497 0H370L362 59Q210 -8 199 -8Q81 -8 81 113Q81 131 85 163T97 237T108 300Q145 512 150 545L93 565L99 603H312L304 557L239 540L209 366Q191 262 183 210T174 135Q174 98 185
86T216 73Q230 73 275 84T366 108L439 540L379 557L387 603H600L594 565L529 544Z" />
<glyph unicode="V" glyph-name="V" horiz-adv-x="505" d="M527 563L290 6L174 -8L164 2L128 546L73 565L79 603H282L274 557L220 541L236 209L238 65H248L433 538L365 557L373 603H525L527 563Z" />
<glyph unicode="W" glyph-name="W" horiz-adv-x="768" d="M790 563L555 6L439 -8L429 2L413 322H407L298 6L182 -8L172 2L129 546L73 565L79 603H282L274 557L221 542L241 209L246 65H256L405 488L402 543L339 565L345 603H552L544 557L485 541L502 209L503 65H513L696
538L628 557L636 603H788L790 563Z" />
<glyph unicode="X" glyph-name="X" horiz-adv-x="510" d="M332 319L447 54L501 38L495 0H265L273 46L341 64L260 253L118 63L182 46L174 0H-39L-33 38L32 59L227 307L122 548L74 565L80 603H300L292 557L221 540L300 369L417 540L353 557L361 603H573L567 565L504
545L332 319Z" />
<glyph unicode="Y" glyph-name="Y" horiz-adv-x="462" d="M259 63L328 46L320 0H87L93 38L169 60L198 231L95 546L39 565L45 603H247L239 557L188 542L258 314H266L397 544L330 557L338 603H491L493 563L289 241L259 63Z" />
<glyph unicode="Z" glyph-name="Z" horiz-adv-x="471" d="M121 71L346 61L379 184H430L410 0H-2L6 50L361 535L166 544L138 428H85L103 603H490L483 565L121 71Z" />
<glyph unicode="[" glyph-name="bracketleft" horiz-adv-x="227" d="M142 680H279L272 639L207 624L92 -56L152 -72L146 -112H8L142 680Z" />
<glyph unicode="\" glyph-name="backslash" horiz-adv-x="291" d="M95 687H160L218 -118H153L95 687Z" />
<glyph unicode="]" glyph-name="bracketright" horiz-adv-x="227" d="M-11 -72L55 -56L171 624L109 639L116 680H253L120 -112H-18L-11 -72Z" />
<glyph unicode="^" glyph-name="asciicircum" horiz-adv-x="498" d="M415 251L314 561L110 251L65 276L276 603H367L467 276L415 251Z" />
<glyph unicode="_" glyph-name="underscore" horiz-adv-x="400" d="M-44 -59H345L334 -123H-56L-44 -59Z" />
<glyph unicode="`" glyph-name="grave" horiz-adv-x="178" d="M67 605L72 630L126 680L235 549L208 519L67 605Z" />
<glyph unicode="a" glyph-name="a" horiz-adv-x="437" d="M331 63L376 52L371 22Q275 -9 268 -9Q265 -9 253 4T241 22L264 166H257L234 126Q158 -9 152 -9Q22 -9 22 141Q22 202 37 262T72 358Q90 379 154 418T236 457Q249 457 311 449T397 435L331 63ZM153 65T185
112T278 250L301 381Q277 390 250 395T206 400Q198 400 195 399Q176 394 157 359T126 268T114 147Q114 108 123 87T146 65Q153 65 185 112Z" />
<glyph unicode="b" glyph-name="b" horiz-adv-x="440" d="M412 457T412 307Q412 247 397 186T362 90Q344 69 280 30T198 -9Q185 -9 123 -1T37 13L136 574L91 585L96 615Q124 624 160 635T201 646Q205 646 217 633T228 615L171 282H177Q209 340 243 398T282 457Q412
457 412 307ZM258 54T277 89T308 180T320 301Q320 341 311 362T288 383Q277 383 157 200L134 67Q158 58 184 53T228 48Q236 48 239 49Q258 54 277 89Z" />
<glyph unicode="c" glyph-name="c" horiz-adv-x="348" d="M192 394T175 361T145 278T133 172Q133 64 199 64H295L287 21Q250 9 214 0T167 -9Q104 -9 71 33T38 141Q38 201 53 262T88 358Q106 379 171 418T252 457Q264 457 310 449L360 442L330 297H293L281 388Q244
401 220 401Q214 401 208 399Q192 394 175 361Z" />
<glyph unicode="d" glyph-name="d" horiz-adv-x="434" d="M405 646T417 633T428 615L331 63L376 52L371 22Q273 -9 266 -9Q261 -9 250 4T239 22L264 166H257L234 126Q158 -9 152 -9Q22 -9 22 141Q22 202 37 262T72 358Q90 379 154 418T236 457Q251 457 312 448L334
574L289 585L294 615Q323 624 360 635T401 646Q405 646 417 633ZM157 65T279 251L301 381Q277 390 250 395T206 400Q198 400 195 399Q176 394 157 359T126 268T114 147Q114 108 123 87T146 65Q157 65 279 251Z" />
<glyph unicode="e" glyph-name="e" horiz-adv-x="350" d="M351 321T314 285T223 227T117 200Q116 191 116 172Q116 116 130 90T183 64Q208 64 298 94L310 54Q278 36 219 14T143 -9Q87 -9 55 34T22 141Q22 201 37 262T72 358Q90 379 154 418T236 457Q351 457 351
367Q351 321 314 285ZM173 393T152 347T121 239Q151 245 183 263T237 307T259 361Q259 402 215 402Q201 402 192 399Q173 393 152 347Z" />
<glyph unicode="f" glyph-name="f" horiz-adv-x="276" d="M353 635T359 625T364 610Q363 604 336 560Q315 566 283 574T240 582Q233 582 225 565T212 526L199 451L291 448L281 394H190L133 63L179 48L173 7Q75 -9 66 -9Q61 -9 50 5T39 24L102 395H58L64 434L111
452L118 491Q121 511 151 548T215 616T264 646Q277 646 301 644T347 640Q353 635 359 625Z" />
<glyph unicode="g" glyph-name="g" horiz-adv-x="424" d="M245 457T306 449T393 435L312 -21Q308 -45 277 -83T209 -151T158 -181Q126 -181 -28 -124L-17 -55L104 49Q70 58 49 89T27 173Q27 218 37 270T68 358Q86 379 150 418T232 457Q245 457 306 449ZM173 392T156
360T128 279T117 179Q117 140 128 122T157 101L270 224L297 380Q274 389 249 394T205 400Q196 400 190 398Q173 392 156 360ZM240 54T256 146H250Q170 45 64 -72L63 -80Q87 -94 130 -113T189 -132Q195 -132 206 -96T228 -6Q240 54 256 146Z" />
<glyph unicode="h" glyph-name="h" horiz-adv-x="460" d="M359 63L404 52L399 22Q383 16 341 4T292 -9Q287 -9 276 4T265 22L320 318Q323 333 323 346Q323 382 297 382Q289 382 259 343T176 229L159 205L138 78Q137 73 137 66Q137 44 154 38V16Q74 -9 67 -9Q62
-9 51 4T40 22L136 574L91 585L96 615Q125 624 162 635T203 646Q207 646 218 633T228 615L173 282H178L193 308Q223 360 252 408T286 457Q350 457 378 432T407 351Q407 324 401 288L359 63Z" />
<glyph unicode="i" glyph-name="i" horiz-adv-x="244" d="M70 -9T59 4T48 22L112 385L67 396L72 426Q101 435 138 446T179 457Q183 457 195 444T206 426L142 63L187 52L182 22Q165 15 123 3T75 -9Q70 -9 59 4ZM413 641L487 646L498 624L478 537H401L413 641Z" />
<glyph unicode="j" glyph-name="j" horiz-adv-x="234" d="M-28 -181T-55 -170T-110 -146L-96 -108Q-73 -108 -39 -107T2 -102Q29 -88 46 13L112 385L67 396L72 426Q101 435 138 446T179 457Q183 457 195 444T206 426L127 -22Q122 -51 93 -88T29 -153T-19 -181Q-28
-181 -55 -170ZM407 641L481 646L492 624L472 537H395L407 641Z" />
<glyph unicode="k" glyph-name="k" horiz-adv-x="430" d="M283 167T345 66L404 52L399 22Q300 -9 293 -9Q279 -9 249 58T202 175L209 219Q235 226 262 246T306 293T324 349Q324 382 296 382Q283 382 160 206L138 78Q137 74 137 66Q137 44 154 38V16Q74 -9 67 -9Q62
-9 51 4T40 22L136 574L91 585L96 615Q125 624 162 635T203 646Q207 646 218 633T228 615L172 282H178L200 320Q279 457 286 457Q358 457 385 429T413 362Q413 300 370 259T270 194Q283 167 345 66Z" />
<glyph unicode="l" glyph-name="l" horiz-adv-x="236" d="M61 -9T50 4T39 22L136 574L91 585L96 615Q125 624 162 635T203 646Q207 646 219 633T230 615L133 63L178 52L173 22Q73 -9 66 -9Q61 -9 50 4Z" />
<glyph unicode="m" glyph-name="m" horiz-adv-x="695" d="M594 63L639 52L634 22Q534 -9 527 -9Q522 -9 511 4T500 22L554 318Q557 333 557 346Q557 382 531 382Q517 382 393 203Q373 92 373 78Q373 58 377 50T389 38V16Q368 9 337 0T302 -9Q297 -9 286 4T275
22L328 318Q331 333 331 346Q331 382 305 382Q290 382 167 204L145 78Q144 73 144 66Q144 44 161 38V16Q81 -9 74 -9Q69 -9 58 4T47 22L112 385L67 396L72 426Q100 435 137 446T178 457Q182 457 193 444T204 426L180 282H187Q287 457 294 457Q358 457 385 432T413
352Q413 324 407 288L406 282H413Q513 457 520 457Q584 457 612 432T641 351Q641 324 635 288L594 63Z" />
<glyph unicode="n" glyph-name="n" horiz-adv-x="468" d="M367 63L412 52L407 22Q307 -9 300 -9Q295 -9 284 4T273 22L328 318Q331 333 331 346Q331 382 305 382Q291 382 168 205L145 78Q144 74 144 67Q144 45 161 38V16Q81 -9 74 -9Q69 -9 58 4T47 22L112 385L67
396L72 426Q101 435 138 446T179 457Q183 457 194 444T204 426L181 282H186Q287 457 294 457Q358 457 386 432T415 351Q415 324 409 288L367 63Z" />
<glyph unicode="o" glyph-name="o" horiz-adv-x="424" d="M98 -9T60 28T22 149Q22 202 37 263T72 358Q93 380 156 420T236 461Q319 461 358 422T398 307Q398 254 383 192T348 90Q330 69 266 30T184 -9Q98 -9 60 28ZM198 50T203 51Q212 52 229 60T258 76Q279 132
292 186T306 301Q306 350 283 376T220 403Q205 403 192 399Q176 394 158 360T127 269T114 147Q114 98 133 74T188 50Q198 50 203 51Z" />
<glyph unicode="p" glyph-name="p" horiz-adv-x="449" d="M421 457T421 307Q421 247 406 186T371 90Q353 69 288 30T207 -9Q192 -9 131 0L112 -109L157 -120L152 -150Q123 -159 86 -170T45 -181Q41 -181 29 -168T18 -150L112 385L67 396L72 426Q172 457 179 457Q183
457 193 444T204 426L180 282H186Q218 340 252 398T291 457Q421 457 421 307ZM267 54T286 89T317 180T329 301Q329 341 320 362T297 383Q287 383 166 199L143 67Q167 58 193 53T237 48Q245 48 248 49Q267 54 286 89Z" />
<glyph unicode="q" glyph-name="q" horiz-adv-x="438" d="M301 -109L346 -120L341 -150Q241 -181 234 -181Q229 -181 218 -168T207 -150L263 166H257L234 126Q158 -9 152 -9Q22 -9 22 141Q22 202 37 262T72 358Q90 379 154 418T236 457Q249 457 311 449T397 435L301
-109ZM153 65T185 112T278 250L302 380Q279 389 252 394T206 400Q198 400 195 399Q176 394 157 359T126 268T114 147Q114 108 123 87T146 65Q153 65 185 112Z" />
<glyph unicode="r" glyph-name="r" horiz-adv-x="343" d="M297 461T324 455T366 442L335 296H304L293 375Q283 379 282 379Q277 379 242 327T169 213L145 78Q144 73 144 66Q144 44 161 38V16Q81 -9 74 -9Q69 -9 58 4T47 22L112 385L67 396L72 426Q101 435 138
446T179 457Q183 457 194 444T204 426L181 282H184L204 320Q279 461 285 461Q297 461 324 455Z" />
<glyph unicode="s" glyph-name="s" horiz-adv-x="357" d="M257 241T291 210T326 147Q326 136 323 118T315 90Q297 64 249 28T182 -9Q161 -9 103 -3T12 9L36 149H71L87 76Q113 68 146 62T192 55Q200 55 214 75T229 107Q229 145 147 190Q96 218 76 243T56 304Q56
315 59 332T69 361Q91 387 136 422T192 457Q215 457 267 451T343 438L321 317H287L271 380Q246 386 214 391T171 397Q160 397 149 383T138 342Q138 323 153 309T187 283T211 269Q257 241 291 210Z" />
<glyph unicode="t" glyph-name="t" horiz-adv-x="291" d="M107 -9T93 4T68 34T58 59Q61 88 112 395H50L55 425L121 453L186 534Q193 534 218 520L208 448H301L292 395H199Q197 382 195 372T192 354Q170 225 160 162T150 82Q150 64 163 61Q171 59 244 59L239 13Q206
6 165 -1T113 -9Q107 -9 93 4Z" />
<glyph unicode="u" glyph-name="u" horiz-adv-x="470" d="M358 63L403 52L398 22Q370 13 333 2T292 -9Q288 -9 276 4T265 22L288 164H281L257 123Q182 -8 176 -8Q111 -8 83 14T54 90Q54 117 60 153L101 385L56 396L61 426Q161 457 168 457Q173 457 184 444T195
426L142 130Q139 115 139 102Q139 66 165 66Q173 66 213 119T300 239L323 370Q324 375 324 382Q324 404 307 410V432Q387 457 394 457Q399 457 410 444T421 426L358 63Z" />
<glyph unicode="v" glyph-name="v" horiz-adv-x="412" d="M124 -4L76 378L23 391L26 421Q126 457 132 457Q136 457 149 445T163 425L183 181L188 61H198Q217 96 265 211T334 389L281 405L286 440Q396 457 403 457Q408 457 417 443T426 422Q420 392 379 296T290
108T216 -9L124 -4Z" />
<glyph unicode="w" glyph-name="w" horiz-adv-x="601" d="M597 457T606 443T615 422Q541 226 439 41L395 -9L314 -4L299 204H292L238 42L192 -9L109 -4L66 392L32 405L38 442Q113 457 122 457Q126 457 140 445T154 425L172 181L178 58H189L292 309L286 387L251
405L256 442Q327 457 335 457Q339 457 352 445T366 425L377 182L379 58H389Q471 231 525 395L470 406L478 454L592 457Q597 457 606 443Z" />
<glyph unicode="x" glyph-name="x" horiz-adv-x="392" d="M403 457T407 438T409 411L241 233L333 58L365 48L357 5Q290 -9 281 -9Q277 -9 265 3T249 23L176 172L79 49L128 42L120 -6L-2 -9Q-7 -9 -11 10T-14 37L156 234L84 394L40 403L48 446Q130 457 138 457Q142
457 151 446T162 427L221 290L321 402L270 406L278 454L398 457Q403 457 407 438Z" />
<glyph unicode="y" glyph-name="y" horiz-adv-x="394" d="M410 457T419 443T428 422L215 -9L167 -165Q130 -181 120 -181Q109 -181 94 -168T75 -147L162 9L106 18L78 378L25 391L28 421Q128 457 134 457Q138 457 151 445T165 425L178 181L177 61H189L334 389L283
405L288 440Q398 457 405 457Q410 457 419 443Z" />
<glyph unicode="z" glyph-name="z" horiz-adv-x="390" d="M302 145L351 144L330 0H25Q21 6 16 23T10 46Q78 128 161 236Q255 357 275 381V395L138 384L120 326H73L85 448H369Q373 440 378 426T384 403L316 315Q227 199 128 73L127 55L278 67L302 145Z" />
<glyph unicode="{" glyph-name="braceleft" horiz-adv-x="269" d="M106 222L49 279L54 313L131 370L183 680H320L314 639L248 624L200 344L123 299L184 248L133 -56L194 -72L187 -112H50L106 222Z" />
<glyph unicode="|" glyph-name="bar" horiz-adv-x="201" d="M144 680H211L66 -181H-1L144 680Z" />
<glyph unicode="}" glyph-name="braceright" horiz-adv-x="269" d="M-11 -72L55 -56L106 248L185 299L123 344L171 624L109 639L116 680H253L201 370L259 313L253 279L176 222L120 -112H-18L-11 -72Z" />
<glyph unicode="~" glyph-name="asciitilde" horiz-adv-x="545" d="M355 276T327 281T251 299Q204 313 185 313Q173 313 151 297T126 279L99 306Q104 311 126 332T169 369T203 384Q239 384 325 360Q391 343 410 343Q426 343 463 380L490 352Q468 328 436 302T386
276Q355 276 327 281Z" />
<glyph unicode="&#xa0;" glyph-name="uni00A0" horiz-adv-x="131" />
<glyph unicode="&#xa1;" glyph-name="exclamdown" horiz-adv-x="251" d="M126 442Q182 448 206 448Q209 448 214 439T219 426L198 335H114L126 442ZM35 -177T27 -169T19 -158L111 258Q149 263 158 263Q160 263 165 258T170 250L115 -163Q111 -164 105 -165T92
-167Q44 -177 37 -177Q35 -177 27 -169Z" />
<glyph unicode="&#xa2;" glyph-name="cent" horiz-adv-x="392" d="M213 439T196 405T166 319T154 212Q154 104 220 104H316L308 61Q276 51 225 38L209 -52H158L172 32Q117 38 88 79T59 181Q59 241 74 302T109 398Q123 414 169 444T249 489L264 577H316L301 494L343
488Q350 487 360 485T381 482L351 337H314L302 431Q264 446 241 446Q235 446 229 444Q213 439 196 405Z" />
<glyph unicode="&#xa3;" glyph-name="sterling" horiz-adv-x="538" d="M415 395L422 486Q313 499 299 499Q277 499 262 453T234 312H358L349 265H227Q204 122 155 70Q310 55 365 50L397 152H450L429 0H165Q124 0 85 -7T36 -15L32 38Q69 47 84 62T108 110T132 235L137
265H68L76 312H145Q160 400 177 450T227 529T319 557Q351 557 415 551T503 541L467 395H415Z" />
<glyph unicode="&#xa4;" glyph-name="currency" horiz-adv-x="556" d="M510 431T510 386Q510 343 495 303T452 228L504 164L464 126L413 190Q348 140 271 140Q232 140 200 153T146 190L72 127L45 165L119 229Q103 266 103 305Q103 349 117 390T159 465L106 531L147
569L198 505Q262 556 342 556Q419 556 466 507L538 569L565 531L493 468Q510 431 510 386ZM329 204T363 228T416 294T434 383Q434 432 409 462T331 492Q259 492 220 441T180 312Q180 263 205 234T282 204Q329 204 363 228Z" />
<glyph unicode="&#xa5;" glyph-name="yen" horiz-adv-x="578" d="M526 489L407 326H487L480 281H375L339 232L337 222H470L463 177H330L310 58L368 38L363 0H149L154 38L221 58L241 177H101L108 222H248L226 281H118L126 326H209L147 489L90 509L97 547H317L309
501L241 484L310 299H319L439 484L375 501L383 547H595L588 509L526 489Z" />
<glyph unicode="&#xa6;" glyph-name="brokenbar" horiz-adv-x="197" d="M143 673H206L144 308H82L143 673ZM61 184H123L59 -196H-3L61 184Z" />
<glyph unicode="&#xa7;" glyph-name="section" horiz-adv-x="453" d="M355 450L358 526L334 531Q259 547 243 547Q236 547 223 524T210 483Q210 455 231 434T294 385Q341 353 364 329T388 269Q388 258 383 235T371 200Q362 188 343 171T306 139Q351 99 351 52Q351
39 345 19T334 -14Q314 -41 267 -72T196 -104Q122 -104 25 -95L60 62H107L101 -23L135 -28Q211 -40 238 -40Q243 -40 252 -20T262 14Q262 42 243 61T183 108Q136 140 112 166T87 234Q87 246 92 265T102 295Q109 306 128 323T170 354Q122 395 122 447Q122 472 138
506Q151 524 184 549T251 592T301 611Q318 611 404 601L436 598L401 450H355ZM300 257T281 276T221 319Q216 323 212 325T204 330Q192 317 183 298T173 265Q173 242 192 224T250 180Q257 174 273 164Q283 178 291 199T300 231Q300 257 281 276Z" />
<glyph unicode="&#xa8;" glyph-name="dieresis" horiz-adv-x="236" d="M74 641L149 646L160 624L141 537H64L74 641ZM222 641L297 646L307 624L288 537H211L222 641Z" />
<glyph unicode="&#xa9;" glyph-name="copyright" horiz-adv-x="804" d="M306 92T244 127T149 224T115 367Q115 473 167 566T309 714T503 770Q585 770 647 735T742 638T776 495Q776 389 724 296T582 148T389 92Q306 92 244 127ZM490 151T561 197T672 321T712 492Q712
590 654 651T493 712Q402 712 331 666T219 542T179 373Q179 273 236 212T398 151Q490 151 561 197ZM362 256T334 289T306 383Q306 419 317 461T343 541Q364 564 410 593T471 622Q486 622 513 620T567 616L538 498H503L507 564Q501 565 474 570T433 576Q420 576
407 541T386 458T378 382Q378 339 392 322T433 305L511 315V281Q486 274 447 265T400 256Q362 256 334 289Z" />
<glyph unicode="&#xaa;" glyph-name="ordfeminine" horiz-adv-x="374" d="M370 377L406 368L402 344Q315 320 309 320Q305 320 297 330T288 344L305 444Q231 320 219 320Q169 320 142 352T114 437Q114 483 126 528T153 607Q167 623 218 653T282 684Q293 684 347
678T422 667L370 377ZM229 387T261 434T317 520L334 619Q310 629 287 635T256 639Q249 637 235 610T211 539T200 448Q200 417 207 402T225 387Q229 387 261 434Z" />
<glyph unicode="&#xab;" glyph-name="guillemotleft" horiz-adv-x="392" d="M27 218L33 255L193 406L220 383L118 239L117 233L164 79L130 54L27 218ZM187 218L193 255L353 406L380 383L279 239L278 233L326 79L291 54L187 218Z" />
<glyph unicode="&#xac;" glyph-name="logicalnot" horiz-adv-x="456" d="M431 159H373L389 256H39L49 314H457L431 159Z" />
<glyph unicode="&#xad;" glyph-name="uni00AD" horiz-adv-x="315" d="M48 279H287L274 209H36L48 279Z" />
<glyph unicode="&#xae;" glyph-name="registered" horiz-adv-x="674" d="M275 239T224 266T144 342T116 453Q116 537 158 610T273 727T432 771Q499 771 550 744T630 668T658 557Q658 473 616 400T501 283T342 239Q275 239 224 266ZM421 295T477 329T564 421T595
550Q595 624 550 670T424 716Q352 716 297 682T210 589T179 460Q179 386 224 341T350 295Q421 295 477 329ZM262 389L290 397L328 611L302 619L306 643H426Q464 643 481 626T499 583Q499 550 480 521T429 480L428 475L456 400L478 394L474 368H417L387 474H353L339
400L367 394L363 368H258L262 389ZM396 507Q424 507 435 529T446 593Q446 605 442 610T426 616L381 610L362 507H396Z" />
<glyph unicode="&#xaf;" glyph-name="overscore" horiz-adv-x="274" d="M69 613H343L331 547H57L69 613Z" />
<glyph unicode="&#xb0;" glyph-name="degree" horiz-adv-x="297" d="M139 384T113 408T86 473Q86 509 103 539T150 588T215 607Q256 607 283 581T310 514Q310 480 293 450T245 402T180 384Q139 384 113 408ZM212 439T231 458T250 507Q250 527 238 539T207 552Q182
552 164 533T145 484Q145 463 156 451T188 439Q212 439 231 458Z" />
<glyph unicode="&#xb1;" glyph-name="plusminus" horiz-adv-x="537" d="M472 324L461 264H308L282 113H214L240 264H89L100 324H250L276 474H344L318 324H472ZM51 51H425L415 -9H42L51 51Z" />
<glyph unicode="&#xb2;" glyph-name="uni00B2" horiz-adv-x="384" d="M203 427L202 423H313L328 479H366L349 363H89L88 389L235 535Q291 591 295 621Q297 631 297 637Q297 649 294 657T285 666Q275 666 200 651L185 593H145L157 696Q259 713 289 713Q324 713
348 698T373 650Q373 619 356 593T305 533L203 427Z" />
<glyph unicode="&#xb3;" glyph-name="uni00B3" horiz-adv-x="359" d="M339 534T339 486Q339 455 318 425T264 375T196 355Q185 355 111 364L119 399Q163 397 193 397Q221 397 227 400Q242 407 256 429T271 494Q271 513 264 520T247 527H184L190 559Q237 567 256
587T276 649Q276 675 266 675Q252 675 202 666L186 617H148L163 708Q191 712 218 714T262 717Q345 717 345 654Q345 599 273 561V559Q339 534 339 486Z" />
<glyph unicode="&#xb4;" glyph-name="acute" horiz-adv-x="177" d="M57 549L210 680L249 630L244 605L74 519L57 549Z" />
<glyph unicode="&#xb5;" glyph-name="uni00B5" horiz-adv-x="492" d="M387 72T393 64T412 52T451 46V17Q427 7 405 -1T376 -9Q352 -9 334 11T306 59Q215 -9 210 -9Q157 -9 123 10Q112 -69 112 -90Q112 -128 119 -144T142 -165T198 -171Q215 -171 224 -172V-211Q215
-214 176 -227T123 -240Q110 -240 90 -214T54 -152T39 -86Q39 -78 45 -43T55 16L74 131L118 389L88 404L94 441Q117 446 147 451T183 456Q188 456 200 442T211 424L205 389Q183 260 173 199T163 122Q163 64 209 64Q242 64 299 97Q299 108 344 365L348 389L318 404L324
441Q406 456 414 456Q419 456 430 442T441 424L420 305Q404 211 396 159T387 90Q387 72 393 64Z" />
<glyph unicode="&#xb6;" glyph-name="paragraph" horiz-adv-x="563" d="M590 557L525 547L448 96Q443 67 412 29T344 -37T292 -65Q279 -65 227 -49L200 -41L214 6Q299 6 314 9Q346 15 365 128L436 542L376 545L319 214L224 215Q156 216 115 253T73 371Q73 476
121 539T263 603H598L590 557Z" />
<glyph unicode="&#xb7;" glyph-name="middot" horiz-adv-x="184" d="M86 306T75 318T64 337L75 420Q94 425 116 428T148 432Q152 432 164 419T175 401L158 318Q137 313 119 310T91 306Q86 306 75 318Z" />
<glyph unicode="&#xb8;" glyph-name="cedilla" horiz-adv-x="153" d="M-72 -185Q-28 -164 -10 -152T9 -124Q9 -105 -44 -90L-46 -66L-12 11L33 8L25 -46Q54 -54 73 -70T93 -110Q93 -133 75 -156Q45 -179 -57 -218L-72 -185Z" />
<glyph unicode="&#xb9;" glyph-name="uni00B9" horiz-adv-x="345" d="M320 397L314 363H99L105 399L189 415L228 647L141 638L147 673L273 713L305 701L256 411L320 397Z" />
<glyph unicode="&#xba;" glyph-name="ordmasculine" horiz-adv-x="363" d="M178 317T146 350T113 445Q113 469 117 490Q131 568 149 595Q166 614 220 650T288 686Q353 686 385 652T418 557Q418 533 414 510Q409 484 400 454T383 408Q365 389 310 353T241 317Q178
317 146 350ZM255 367T262 370Q276 376 301 390Q317 433 327 498Q332 526 332 553Q332 617 299 633Q290 637 275 638T253 640Q250 640 240 620T220 568T204 502Q200 481 200 456Q200 415 213 391T249 367Q255 367 262 370Z" />
<glyph unicode="&#xbb;" glyph-name="guillemotright" horiz-adv-x="413" d="M32 79L134 233L135 239L81 383L116 406L224 255L218 218L59 54L32 79ZM193 79L294 233L295 239L241 383L276 406L384 255L379 218L220 54L193 79Z" />
<glyph unicode="&#xbc;" glyph-name="onequarter" horiz-adv-x="808" d="M560 563L554 529H339L345 565L429 581L468 813L381 804L387 839L513 879L545 867L496 577L560 563ZM720 80H661L647 0H576L590 80H453L448 130L590 344H707L671 137H730L720 80ZM600 137L626
285H619L525 143V137H600ZM588 611H651L261 -9H197L588 611Z" />
<glyph unicode="&#xbd;" glyph-name="onehalf" horiz-adv-x="829" d="M560 563L554 529H339L345 565L429 581L468 813L381 804L387 839L513 879L545 867L496 577L560 563ZM584 64L583 60H694L709 116H747L730 0H470L469 26L616 172Q672 228 676 258Q678 268 678
274Q678 286 675 294T666 303Q656 303 581 288L566 230H526L538 333Q640 350 670 350Q705 350 729 335T754 287Q754 256 737 230T686 170L584 64ZM589 611H652L262 -9H198L589 611Z" />
<glyph unicode="&#xbe;" glyph-name="threequarters" horiz-adv-x="767" d="M579 700T579 652Q579 621 558 591T504 541T436 521Q425 521 351 530L359 565Q403 563 433 563Q461 563 467 566Q482 573 496 595T511 660Q511 679 504 686T487 693H424L430 725Q477
733 496 753T516 815Q516 841 506 841Q492 841 442 832L426 783H388L403 874Q431 878 458 880T502 883Q585 883 585 820Q585 765 513 727V725Q579 700 579 652ZM679 80H620L606 0H535L549 80H412L407 130L549 344H666L630 137H689L679 80ZM559 137L585 285H578L484
143V137H559ZM556 611H619L229 -9H165L556 611Z" />
<glyph unicode="&#xbf;" glyph-name="questiondown" horiz-adv-x="381" d="M326 444T331 434T335 420L304 329L249 334L257 439Q295 444 323 444Q326 444 331 434ZM121 27T100 -5T78 -76Q78 -116 98 -116Q107 -116 177 -106L211 -101L235 -12H287L273 -163Q149
-175 105 -175Q52 -175 24 -156T-5 -91Q-5 -44 14 -9T59 52T132 112Q163 135 174 144Q202 166 214 191T236 271Q276 276 284 276Q286 276 290 271T295 263L283 193Q277 160 255 137T183 75Q121 27 100 -5Z" />
<glyph unicode="&#xc0;" glyph-name="Agrave" horiz-adv-x="552" d="M515 38L509 0H297L304 46L368 63L350 203H172L115 63L179 46L171 0H-41L-35 38L28 58L275 603L379 612L391 600L459 58L515 38ZM194 256H344L324 545H318L194 256ZM249 704V730L298 790L438
696L418 660L249 704Z" />
<glyph unicode="&#xc1;" glyph-name="Aacute" horiz-adv-x="552" d="M515 38L509 0H297L304 46L368 63L350 203H172L115 63L179 46L171 0H-41L-35 38L28 58L275 603L379 612L391 600L459 58L515 38ZM194 256H344L324 545H318L194 256ZM250 696L423 790L451 730L443
704L259 660L250 696Z" />
<glyph unicode="&#xc2;" glyph-name="Acircumflex" horiz-adv-x="552" d="M515 38L509 0H297L304 46L368 63L350 203H172L115 63L179 46L171 0H-41L-35 38L28 58L275 603L379 612L391 600L459 58L515 38ZM194 256H344L324 545H318L194 256ZM216 690L327 784H381L468
690L431 660L349 712H339L244 660L216 690Z" />
<glyph unicode="&#xc3;" glyph-name="Atilde" horiz-adv-x="552" d="M515 38L509 0H297L304 46L368 63L350 203H172L115 63L179 46L171 0H-41L-35 38L28 58L275 603L379 612L391 600L459 58L515 38ZM194 256H344L324 545H318L194 256ZM376 657T357 663T313 682Q289
694 281 694Q272 694 248 678T222 660L196 687Q221 714 249 739T294 765Q309 765 328 758T373 739Q377 737 392 731T415 724Q422 724 439 736T469 761L497 732Q478 710 445 684T396 657Q376 657 357 663Z" />
<glyph unicode="&#xc4;" glyph-name="Adieresis" horiz-adv-x="552" d="M515 38L509 0H297L304 46L368 63L350 203H172L115 63L179 46L171 0H-41L-35 38L28 58L275 603L379 612L391 600L459 58L515 38ZM194 256H344L324 545H318L194 256ZM227 764L302 769L312
747L293 660H216L227 764ZM394 764L469 769L479 747L460 660H383L394 764Z" />
<glyph unicode="&#xc5;" glyph-name="Aring" horiz-adv-x="552" d="M515 38L509 0H297L304 46L368 63L350 203H172L115 63L179 46L171 0H-41L-35 38L28 58L275 603L379 612L391 600L459 58L515 38ZM194 256H344L324 545H318L194 256ZM249 655T249 728Q249 788
281 825T370 862Q458 862 458 786Q458 726 424 691T333 655Q249 655 249 728ZM360 696T382 707Q388 722 393 746T398 784Q398 805 390 813T363 821Q346 821 324 810Q317 791 313 768T308 728Q308 710 315 703T340 696Q360 696 382 707Z" />
<glyph unicode="&#xc6;" glyph-name="AE" horiz-adv-x="680" d="M616 428L620 558L471 547L436 342L574 337L566 290L426 285L387 64L559 49L602 180L652 179L621 0H227L233 38L295 58L320 203H167L89 62L151 46L143 0H-69L-63 38L0 58L288 545L225 565L232 603H698L666
428H616ZM379 541L354 539L197 256H330L379 541Z" />
<glyph unicode="&#xc7;" glyph-name="Ccedilla" horiz-adv-x="435" d="M379 428L385 535Q343 542 276 542Q253 542 241 537Q214 525 190 471T152 342T137 196Q137 141 149 112T182 74T233 65H309L348 185L398 184L369 14Q352 9 270 -1L263 -46Q292 -54 311 -70T331
-110Q331 -133 313 -156Q283 -179 181 -218L166 -185Q210 -164 228 -152T247 -124Q247 -105 194 -90L192 -66L219 -6L175 -9Q118 -9 81 42T43 193Q43 262 63 349T112 494Q141 525 208 568T295 611Q323 610 372 608T471 601L431 428H379Z" />
<glyph unicode="&#xc8;" glyph-name="Egrave" horiz-adv-x="456" d="M392 428L396 553L246 539L212 342L350 337L342 290L202 285L163 64L336 51L378 180L428 179L397 0H3L9 38L71 58L156 545L98 565L105 603H474L442 428H392ZM219 704V730L268 790L408 696L388
660L219 704Z" />
<glyph unicode="&#xc9;" glyph-name="Eacute" horiz-adv-x="456" d="M392 428L396 553L246 539L212 342L350 337L342 290L202 285L163 64L336 51L378 180L428 179L397 0H3L9 38L71 58L156 545L98 565L105 603H474L442 428H392ZM220 696L393 790L421 730L413 704L229
660L220 696Z" />
<glyph unicode="&#xca;" glyph-name="Ecircumflex" horiz-adv-x="456" d="M392 428L396 553L246 539L212 342L350 337L342 290L202 285L163 64L336 51L378 180L428 179L397 0H3L9 38L71 58L156 545L98 565L105 603H474L442 428H392ZM186 690L297 784H351L438 690L401
660L319 712H309L214 660L186 690Z" />
<glyph unicode="&#xcb;" glyph-name="Edieresis" horiz-adv-x="456" d="M392 428L396 553L246 539L212 342L350 337L342 290L202 285L163 64L336 51L378 180L428 179L397 0H3L9 38L71 58L156 545L98 565L105 603H474L442 428H392ZM197 764L272 769L282 747L263
660H186L197 764ZM364 764L439 769L449 747L430 660H353L364 764Z" />
<glyph unicode="&#xcc;" glyph-name="Igrave" horiz-adv-x="293" d="M246 540L163 63L224 46L216 0H3L9 38L71 58L156 545L99 565L105 603H318L310 557L246 540ZM131 704V730L180 790L320 696L300 660L131 704Z" />
<glyph unicode="&#xcd;" glyph-name="Iacute" horiz-adv-x="293" d="M246 540L163 63L224 46L216 0H3L9 38L71 58L156 545L99 565L105 603H318L310 557L246 540ZM132 696L305 790L333 730L325 704L141 660L132 696Z" />
<glyph unicode="&#xce;" glyph-name="Icircumflex" horiz-adv-x="293" d="M246 540L163 63L224 46L216 0H3L9 38L71 58L156 545L99 565L105 603H318L310 557L246 540ZM98 690L209 784H263L350 690L313 660L231 712H221L126 660L98 690Z" />
<glyph unicode="&#xcf;" glyph-name="Idieresis" horiz-adv-x="293" d="M246 540L163 63L224 46L216 0H3L9 38L71 58L156 545L99 565L105 603H318L310 557L246 540ZM109 764L184 769L194 747L175 660H98L109 764ZM276 764L351 769L361 747L342 660H265L276 764Z" />
<glyph unicode="&#xd0;" glyph-name="Eth" horiz-adv-x="550" d="M440 603T487 557T534 416Q534 314 504 219T415 62T272 0H3L9 38L72 58L110 283H63L72 332H119L155 545L98 565L105 603H371Q440 603 487 557ZM336 52T369 114T420 263T439 420Q439 481 425 516T382
551Q362 551 285 544L243 541L208 332H309L299 283H199L163 64Q283 52 295 52Q336 52 369 114Z" />
<glyph unicode="&#xd1;" glyph-name="Ntilde" horiz-adv-x="591" d="M616 565L554 545L460 7L351 -7L337 1L264 295Q252 344 226 496H219L156 62L216 46L208 0H3L9 38L71 59L156 545L98 565L105 603H277L360 268Q369 235 395 81H402L469 539L408 557L416 603H622L616
565ZM403 657T384 663T340 682Q316 694 308 694Q299 694 275 678T249 660L223 687Q248 714 276 739T321 765Q336 765 355 758T400 739Q404 737 419 731T442 724Q449 724 466 736T496 761L524 732Q505 710 472 684T423 657Q403 657 384 663Z" />
<glyph unicode="&#xd2;" glyph-name="Ograve" horiz-adv-x="526" d="M148 -9T97 42T45 203Q45 274 66 362T116 495Q133 515 171 542T247 590T297 611Q405 611 458 562T512 409Q512 343 492 261T444 108Q424 86 386 58T311 11T260 -9Q148 -9 97 42ZM273 51T310
69T352 94Q376 157 396 260T417 427Q417 491 390 519T308 548Q270 548 243 537Q216 526 192 472T154 343T139 196Q139 142 149 111T186 66T262 51Q273 51 310 69ZM244 704V730L293 790L433 696L413 660L244 704Z" />
<glyph unicode="&#xd3;" glyph-name="Oacute" horiz-adv-x="526" d="M148 -9T97 42T45 203Q45 274 66 362T116 495Q133 515 171 542T247 590T297 611Q405 611 458 562T512 409Q512 343 492 261T444 108Q424 86 386 58T311 11T260 -9Q148 -9 97 42ZM273 51T310
69T352 94Q376 157 396 260T417 427Q417 491 390 519T308 548Q270 548 243 537Q216 526 192 472T154 343T139 196Q139 142 149 111T186 66T262 51Q273 51 310 69ZM245 696L418 790L446 730L438 704L254 660L245 696Z" />
<glyph unicode="&#xd4;" glyph-name="Ocircumflex" horiz-adv-x="526" d="M148 -9T97 42T45 203Q45 274 66 362T116 495Q133 515 171 542T247 590T297 611Q405 611 458 562T512 409Q512 343 492 261T444 108Q424 86 386 58T311 11T260 -9Q148 -9 97 42ZM273 51T310
69T352 94Q376 157 396 260T417 427Q417 491 390 519T308 548Q270 548 243 537Q216 526 192 472T154 343T139 196Q139 142 149 111T186 66T262 51Q273 51 310 69ZM211 690L322 784H376L463 690L426 660L344 712H334L239 660L211 690Z" />
<glyph unicode="&#xd5;" glyph-name="Otilde" horiz-adv-x="526" d="M148 -9T97 42T45 203Q45 274 66 362T116 495Q133 515 171 542T247 590T297 611Q405 611 458 562T512 409Q512 343 492 261T444 108Q424 86 386 58T311 11T260 -9Q148 -9 97 42ZM273 51T310
69T352 94Q376 157 396 260T417 427Q417 491 390 519T308 548Q270 548 243 537Q216 526 192 472T154 343T139 196Q139 142 149 111T186 66T262 51Q273 51 310 69ZM371 657T352 663T308 682Q284 694 276 694Q267 694 243 678T217 660L191 687Q216 714 244 739T289
765Q304 765 323 758T368 739Q372 737 387 731T410 724Q417 724 434 736T464 761L492 732Q473 710 440 684T391 657Q371 657 352 663Z" />
<glyph unicode="&#xd6;" glyph-name="Odieresis" horiz-adv-x="526" d="M148 -9T97 42T45 203Q45 274 66 362T116 495Q133 515 171 542T247 590T297 611Q405 611 458 562T512 409Q512 343 492 261T444 108Q424 86 386 58T311 11T260 -9Q148 -9 97 42ZM273 51T310
69T352 94Q376 157 396 260T417 427Q417 491 390 519T308 548Q270 548 243 537Q216 526 192 472T154 343T139 196Q139 142 149 111T186 66T262 51Q273 51 310 69ZM222 764L297 769L307 747L288 660H211L222 764ZM389 764L464 769L474 747L455 660H378L389 764Z"
/>
<glyph unicode="&#xd7;" glyph-name="multiply" horiz-adv-x="525" d="M315 230L429 86L376 39L262 183L102 43L61 96L220 236L108 377L162 423L273 283L437 429L481 376L315 230Z" />
<glyph unicode="&#xd8;" glyph-name="Oslash" horiz-adv-x="526" d="M465 556Q512 506 512 409Q512 343 492 261T444 108Q424 86 386 58T311 11T260 -9Q179 -9 131 17L84 -58L35 -59L26 -46L87 52Q45 103 45 203Q45 274 66 362T116 495Q133 515 171 542T247 590T297
611Q372 611 419 589L480 687H529L536 670L465 556ZM139 166T142 142L381 528Q355 548 308 548Q270 548 243 537Q216 526 192 472T154 343T139 196Q139 166 142 142ZM417 455T413 472L169 79Q183 64 205 58T262 51Q273 51 310 69T352 94Q376 157 396 260T417 427Q417
455 413 472Z" />
<glyph unicode="&#xd9;" glyph-name="Ugrave" horiz-adv-x="573" d="M529 544L447 58L503 38L497 0H370L362 59Q210 -8 199 -8Q81 -8 81 113Q81 131 85 163T97 237T108 300Q145 512 150 545L93 565L99 603H312L304 557L239 540L209 366Q191 262 183 210T174 135Q174
98 185 86T216 73Q230 73 275 84T366 108L439 540L379 557L387 603H600L594 565L529 544ZM266 704V730L315 790L455 696L435 660L266 704Z" />
<glyph unicode="&#xda;" glyph-name="Uacute" horiz-adv-x="573" d="M529 544L447 58L503 38L497 0H370L362 59Q210 -8 199 -8Q81 -8 81 113Q81 131 85 163T97 237T108 300Q145 512 150 545L93 565L99 603H312L304 557L239 540L209 366Q191 262 183 210T174 135Q174
98 185 86T216 73Q230 73 275 84T366 108L439 540L379 557L387 603H600L594 565L529 544ZM267 696L440 790L468 730L460 704L276 660L267 696Z" />
<glyph unicode="&#xdb;" glyph-name="Ucircumflex" horiz-adv-x="573" d="M529 544L447 58L503 38L497 0H370L362 59Q210 -8 199 -8Q81 -8 81 113Q81 131 85 163T97 237T108 300Q145 512 150 545L93 565L99 603H312L304 557L239 540L209 366Q191 262 183 210T174
135Q174 98 185 86T216 73Q230 73 275 84T366 108L439 540L379 557L387 603H600L594 565L529 544ZM233 690L344 784H398L485 690L448 660L366 712H356L261 660L233 690Z" />
<glyph unicode="&#xdc;" glyph-name="Udieresis" horiz-adv-x="573" d="M529 544L447 58L503 38L497 0H370L362 59Q210 -8 199 -8Q81 -8 81 113Q81 131 85 163T97 237T108 300Q145 512 150 545L93 565L99 603H312L304 557L239 540L209 366Q191 262 183 210T174
135Q174 98 185 86T216 73Q230 73 275 84T366 108L439 540L379 557L387 603H600L594 565L529 544ZM244 764L319 769L329 747L310 660H233L244 764ZM411 764L486 769L496 747L477 660H400L411 764Z" />
<glyph unicode="&#xdd;" glyph-name="Yacute" horiz-adv-x="462" d="M259 63L328 46L320 0H87L93 38L169 60L198 231L95 546L39 565L45 603H247L239 557L188 542L258 314H266L397 544L330 557L338 603H491L493 563L289 241L259 63ZM211 696L384 790L412 730L404
704L220 660L211 696Z" />
<glyph unicode="&#xde;" glyph-name="Thorn" horiz-adv-x="452" d="M396 490T430 461T465 373Q465 309 437 255T359 168T245 136H176L163 65L244 46L236 0H3L9 38L71 58L156 545L99 565L105 603H318L310 557L246 540L237 490H333Q396 490 430 461ZM325 193T346
238T368 366Q368 400 359 419T331 439Q305 439 227 431L186 193H267Q325 193 346 238Z" />
<glyph unicode="&#xdf;" glyph-name="germandbls" horiz-adv-x="453" d="M442 498T423 469T367 407Q344 385 334 373T324 347Q324 331 335 316T371 275Q404 243 422 217T440 157Q440 131 424 92Q404 64 359 28T293 -9Q248 -9 126 3L122 -22Q117 -51 89 -88T27
-153T-21 -181Q-33 -181 -67 -168T-111 -152L-98 -113Q-13 -109 -2 -102Q24 -88 41 13L122 491Q125 511 155 548T219 616T268 646Q337 646 389 622T442 537Q442 498 423 469ZM341 146T329 168T291 218Q266 247 254 267T242 311Q242 347 262 376T318 442Q343 467
354 482T366 512Q366 552 336 560Q307 568 278 575T244 582Q237 582 229 565T216 526L140 81Q186 70 237 61T303 52Q315 52 328 77T341 121Q341 146 329 168Z" />
<glyph unicode="&#xe0;" glyph-name="agrave" horiz-adv-x="437" d="M331 63L376 52L371 22Q275 -9 268 -9Q265 -9 253 4T241 22L264 166H257L234 126Q158 -9 152 -9Q22 -9 22 141Q22 202 37 262T72 358Q90 379 154 418T236 457Q249 457 311 449T397 435L331 63ZM153
65T185 112T278 250L301 381Q277 390 250 395T206 400Q198 400 195 399Q176 394 157 359T126 268T114 147Q114 108 123 87T146 65Q153 65 185 112ZM179 605L184 630L238 680L347 549L320 519L179 605Z" />
<glyph unicode="&#xe1;" glyph-name="aacute" horiz-adv-x="437" d="M331 63L376 52L371 22Q275 -9 268 -9Q265 -9 253 4T241 22L264 166H257L234 126Q158 -9 152 -9Q22 -9 22 141Q22 202 37 262T72 358Q90 379 154 418T236 457Q249 457 311 449T397 435L331 63ZM153
65T185 112T278 250L301 381Q277 390 250 395T206 400Q198 400 195 399Q176 394 157 359T126 268T114 147Q114 108 123 87T146 65Q153 65 185 112ZM193 549L346 680L385 630L380 605L210 519L193 549Z" />
<glyph unicode="&#xe2;" glyph-name="acircumflex" horiz-adv-x="437" d="M331 63L376 52L371 22Q275 -9 268 -9Q265 -9 253 4T241 22L264 166H257L234 126Q158 -9 152 -9Q22 -9 22 141Q22 202 37 262T72 358Q90 379 154 418T236 457Q249 457 311 449T397 435L331
63ZM153 65T185 112T278 250L301 381Q277 390 250 395T206 400Q198 400 195 399Q176 394 157 359T126 268T114 147Q114 108 123 87T146 65Q153 65 185 112ZM146 544L263 680H327L398 544L367 519L286 603H279L169 519L146 544Z" />
<glyph unicode="&#xe3;" glyph-name="atilde" horiz-adv-x="437" d="M331 63L376 52L371 22Q275 -9 268 -9Q265 -9 253 4T241 22L264 166H257L234 126Q158 -9 152 -9Q22 -9 22 141Q22 202 37 262T72 358Q90 379 154 418T236 457Q249 457 311 449T397 435L331 63ZM153
65T185 112T278 250L301 381Q277 390 250 395T206 400Q198 400 195 399Q176 394 157 359T126 268T114 147Q114 108 123 87T146 65Q153 65 185 112ZM291 529T241 554Q217 566 208 566Q199 566 175 550T149 532L123 559Q147 585 176 611T222 637Q237 637 256 630T301
611Q305 609 320 603T343 596Q350 596 367 608T396 633L424 604Q405 582 373 556T324 529Q291 529 241 554Z" />
<glyph unicode="&#xe4;" glyph-name="adieresis" horiz-adv-x="437" d="M331 63L376 52L371 22Q275 -9 268 -9Q265 -9 253 4T241 22L264 166H257L234 126Q158 -9 152 -9Q22 -9 22 141Q22 202 37 262T72 358Q90 379 154 418T236 457Q249 457 311 449T397 435L331
63ZM153 65T185 112T278 250L301 381Q277 390 250 395T206 400Q198 400 195 399Q176 394 157 359T126 268T114 147Q114 108 123 87T146 65Q153 65 185 112ZM170 641L245 646L256 624L237 537H160L170 641ZM318 641L393 646L403 624L384 537H307L318 641Z" />
<glyph unicode="&#xe5;" glyph-name="aring" horiz-adv-x="437" d="M331 63L376 52L371 22Q275 -9 268 -9Q265 -9 253 4T241 22L264 166H257L234 126Q158 -9 152 -9Q22 -9 22 141Q22 202 37 262T72 358Q90 379 154 418T236 457Q249 457 311 449T397 435L331 63ZM153
65T185 112T278 250L301 381Q277 390 250 395T206 400Q198 400 195 399Q176 394 157 359T126 268T114 147Q114 108 123 87T146 65Q153 65 185 112ZM224 518T203 535T181 592Q181 651 214 688T303 725Q390 725 390 648Q390 588 356 553T266 518Q224 518 203 535ZM293
559T315 570Q321 585 326 609T331 647Q331 668 323 676T296 684Q279 684 257 673Q252 660 247 631T241 590Q241 573 248 566T273 559Q293 559 315 570Z" />
<glyph unicode="&#xe6;" glyph-name="ae" horiz-adv-x="593" d="M594 321T557 285T466 227T360 200Q359 191 359 172Q359 116 373 90T426 64Q451 64 541 94L553 54Q521 36 462 14T386 -9Q330 -9 298 34T265 141Q265 154 267 178Q232 116 194 54T152 -9Q22 -9 22
141Q22 202 37 262T72 358Q90 379 154 418T236 457Q248 457 319 447T420 431Q467 457 479 457Q594 457 594 367Q594 321 557 285ZM444 407T435 404Q416 396 395 348T364 239Q395 245 427 263T480 308T502 365Q502 388 491 397T458 407Q444 407 435 404ZM318 362T329
371Q298 383 258 394T200 405Q181 405 161 370T128 274T114 147Q114 108 123 87T146 65Q153 65 186 112T277 248Q290 314 315 358Q318 362 329 371Z" />
<glyph unicode="&#xe7;" glyph-name="ccedilla" horiz-adv-x="348" d="M192 394T175 361T145 278T133 172Q133 64 199 64H295L287 21Q227 3 207 -2L200 -46Q229 -54 248 -70T268 -110Q268 -133 250 -156Q220 -179 118 -218L103 -185Q147 -164 165 -152T184 -124Q184
-105 131 -90L129 -66L154 -9Q97 -4 68 38T38 141Q38 201 53 262T88 358Q106 379 171 418T252 457Q264 457 310 449L360 442L330 297H293L281 388Q244 401 220 401Q214 401 208 399Q192 394 175 361Z" />
<glyph unicode="&#xe8;" glyph-name="egrave" horiz-adv-x="350" d="M351 321T314 285T223 227T117 200Q116 191 116 172Q116 116 130 90T183 64Q208 64 298 94L310 54Q278 36 219 14T143 -9Q87 -9 55 34T22 141Q22 201 37 262T72 358Q90 379 154 418T236 457Q351
457 351 367Q351 321 314 285ZM173 393T152 347T121 239Q151 245 183 263T237 307T259 361Q259 402 215 402Q201 402 192 399Q173 393 152 347ZM150 605L155 630L209 680L318 549L291 519L150 605Z" />
<glyph unicode="&#xe9;" glyph-name="eacute" horiz-adv-x="350" d="M351 321T314 285T223 227T117 200Q116 191 116 172Q116 116 130 90T183 64Q208 64 298 94L310 54Q278 36 219 14T143 -9Q87 -9 55 34T22 141Q22 201 37 262T72 358Q90 379 154 418T236 457Q351
457 351 367Q351 321 314 285ZM173 393T152 347T121 239Q151 245 183 263T237 307T259 361Q259 402 215 402Q201 402 192 399Q173 393 152 347ZM164 549L317 680L356 630L351 605L181 519L164 549Z" />
<glyph unicode="&#xea;" glyph-name="ecircumflex" horiz-adv-x="350" d="M351 321T314 285T223 227T117 200Q116 191 116 172Q116 116 130 90T183 64Q208 64 298 94L310 54Q278 36 219 14T143 -9Q87 -9 55 34T22 141Q22 201 37 262T72 358Q90 379 154 418T236
457Q351 457 351 367Q351 321 314 285ZM173 393T152 347T121 239Q151 245 183 263T237 307T259 361Q259 402 215 402Q201 402 192 399Q173 393 152 347ZM117 544L234 680H298L369 544L338 519L257 603H250L140 519L117 544Z" />
<glyph unicode="&#xeb;" glyph-name="edieresis" horiz-adv-x="350" d="M351 321T314 285T223 227T117 200Q116 191 116 172Q116 116 130 90T183 64Q208 64 298 94L310 54Q278 36 219 14T143 -9Q87 -9 55 34T22 141Q22 201 37 262T72 358Q90 379 154 418T236 457Q351
457 351 367Q351 321 314 285ZM173 393T152 347T121 239Q151 245 183 263T237 307T259 361Q259 402 215 402Q201 402 192 399Q173 393 152 347ZM141 641L216 646L227 624L208 537H131L141 641ZM289 641L364 646L374 624L355 537H278L289 641Z" />
<glyph unicode="&#xec;" glyph-name="igrave" horiz-adv-x="244" d="M70 -9T59 4T48 22L112 385L67 396L72 426Q101 435 138 446T179 457Q183 457 195 444T206 426L142 63L187 52L182 22Q165 15 123 3T75 -9Q70 -9 59 4ZM92 605L97 630L151 680L260 549L233 519L92 605Z" />
<glyph unicode="&#xed;" glyph-name="iacute" horiz-adv-x="244" d="M70 -9T59 4T48 22L112 385L67 396L72 426Q101 435 138 446T179 457Q183 457 195 444T206 426L142 63L187 52L182 22Q165 15 123 3T75 -9Q70 -9 59 4ZM106 549L259 680L298 630L293 605L123
519L106 549Z" />
<glyph unicode="&#xee;" glyph-name="icircumflex" horiz-adv-x="244" d="M70 -9T59 4T48 22L112 385L67 396L72 426Q101 435 138 446T179 457Q183 457 195 444T206 426L142 63L187 52L182 22Q165 15 123 3T75 -9Q70 -9 59 4ZM59 544L176 680H240L311 544L280
519L199 603H192L82 519L59 544Z" />
<glyph unicode="&#xef;" glyph-name="idieresis" horiz-adv-x="244" d="M70 -9T59 4T48 22L112 385L67 396L72 426Q101 435 138 446T179 457Q183 457 195 444T206 426L142 63L187 52L182 22Q165 15 123 3T75 -9Q70 -9 59 4ZM83 641L158 646L169 624L150 537H73L83
641ZM231 641L306 646L316 624L297 537H220L231 641Z" />
<glyph unicode="&#xf0;" glyph-name="eth" horiz-adv-x="392" d="M433 558L358 523Q387 471 387 395Q387 296 361 204T279 51T136 -9Q125 -9 102 9T56 50T28 89Q22 122 22 153Q22 218 45 269T110 350T210 380Q216 380 242 365T293 335Q295 365 295 415Q295 459
286 490L196 448L165 471L172 485L266 528Q240 560 184 560L175 611Q278 611 331 558L413 596L440 572L433 558ZM201 40T239 110T289 287Q270 299 245 310T209 322Q173 322 150 288T117 205T106 108Q106 40 121 40Q201 40 239 110Z" />
<glyph unicode="&#xf1;" glyph-name="ntilde" horiz-adv-x="468" d="M367 63L412 52L407 22Q307 -9 300 -9Q295 -9 284 4T273 22L328 318Q331 333 331 346Q331 382 305 382Q291 382 168 205L145 78Q144 74 144 67Q144 45 161 38V16Q81 -9 74 -9Q69 -9 58 4T47
22L112 385L67 396L72 426Q101 435 138 446T179 457Q183 457 194 444T204 426L181 282H186Q287 457 294 457Q358 457 386 432T415 351Q415 324 409 288L367 63ZM311 529T261 554Q237 566 228 566Q219 566 195 550T169 532L143 559Q167 585 196 611T242 637Q257
637 276 630T321 611Q325 609 340 603T363 596Q370 596 387 608T416 633L444 604Q425 582 393 556T344 529Q311 529 261 554Z" />
<glyph unicode="&#xf2;" glyph-name="ograve" horiz-adv-x="424" d="M98 -9T60 28T22 149Q22 202 37 263T72 358Q93 380 156 420T236 461Q319 461 358 422T398 307Q398 254 383 192T348 90Q330 69 266 30T184 -9Q98 -9 60 28ZM198 50T203 51Q212 52 229 60T258
76Q279 132 292 186T306 301Q306 350 283 376T220 403Q205 403 192 399Q176 394 158 360T127 269T114 147Q114 98 133 74T188 50Q198 50 203 51ZM174 605L179 630L233 680L342 549L315 519L174 605Z" />
<glyph unicode="&#xf3;" glyph-name="oacute" horiz-adv-x="424" d="M98 -9T60 28T22 149Q22 202 37 263T72 358Q93 380 156 420T236 461Q319 461 358 422T398 307Q398 254 383 192T348 90Q330 69 266 30T184 -9Q98 -9 60 28ZM198 50T203 51Q212 52 229 60T258
76Q279 132 292 186T306 301Q306 350 283 376T220 403Q205 403 192 399Q176 394 158 360T127 269T114 147Q114 98 133 74T188 50Q198 50 203 51ZM188 549L341 680L380 630L375 605L205 519L188 549Z" />
<glyph unicode="&#xf4;" glyph-name="ocircumflex" horiz-adv-x="424" d="M98 -9T60 28T22 149Q22 202 37 263T72 358Q93 380 156 420T236 461Q319 461 358 422T398 307Q398 254 383 192T348 90Q330 69 266 30T184 -9Q98 -9 60 28ZM198 50T203 51Q212 52 229 60T258
76Q279 132 292 186T306 301Q306 350 283 376T220 403Q205 403 192 399Q176 394 158 360T127 269T114 147Q114 98 133 74T188 50Q198 50 203 51ZM141 544L258 680H322L393 544L362 519L281 603H274L164 519L141 544Z" />
<glyph unicode="&#xf5;" glyph-name="otilde" horiz-adv-x="424" d="M98 -9T60 28T22 149Q22 202 37 263T72 358Q93 380 156 420T236 461Q319 461 358 422T398 307Q398 254 383 192T348 90Q330 69 266 30T184 -9Q98 -9 60 28ZM198 50T203 51Q212 52 229 60T258
76Q279 132 292 186T306 301Q306 350 283 376T220 403Q205 403 192 399Q176 394 158 360T127 269T114 147Q114 98 133 74T188 50Q198 50 203 51ZM286 529T236 554Q212 566 203 566Q194 566 170 550T144 532L118 559Q142 585 171 611T217 637Q232 637 251 630T296
611Q300 609 315 603T338 596Q345 596 362 608T391 633L419 604Q400 582 368 556T319 529Q286 529 236 554Z" />
<glyph unicode="&#xf6;" glyph-name="odieresis" horiz-adv-x="424" d="M98 -9T60 28T22 149Q22 202 37 263T72 358Q93 380 156 420T236 461Q319 461 358 422T398 307Q398 254 383 192T348 90Q330 69 266 30T184 -9Q98 -9 60 28ZM198 50T203 51Q212 52 229 60T258
76Q279 132 292 186T306 301Q306 350 283 376T220 403Q205 403 192 399Q176 394 158 360T127 269T114 147Q114 98 133 74T188 50Q198 50 203 51ZM165 641L240 646L251 624L232 537H155L165 641ZM313 641L388 646L398 624L379 537H302L313 641Z" />
<glyph unicode="&#xf7;" glyph-name="divide" horiz-adv-x="594" d="M245 0T234 12T223 31L234 114Q253 119 275 122T307 126Q311 126 323 113T334 95L317 12Q296 7 278 4T250 0Q245 0 234 12ZM358 285H770L760 225H348L358 285ZM305 380T294 392T283 411L294
494Q313 499 335 502T367 506Q371 506 383 493T394 475L377 392Q356 387 338 384T310 380Q305 380 294 392Z" />
<glyph unicode="&#xf8;" glyph-name="oslash" horiz-adv-x="424" d="M398 384T398 307Q398 254 383 192T348 90Q330 69 266 30T184 -9Q129 -9 93 6L41 -75H11L1 -58L58 31Q22 67 22 149Q22 202 37 263T72 358Q93 380 156 420T236 461Q289 461 324 445L388 546H421L428
529L359 422Q398 384 398 307ZM114 137T116 121L281 379Q259 403 220 403Q205 403 192 399Q176 394 158 360T127 269T114 147Q114 137 116 121ZM279 132T292 186T306 301Q306 319 303 334L135 72Q154 50 188 50Q198 50 203 51Q212 52 229 60T258 76Q279 132 292
186Z" />
<glyph unicode="&#xf9;" glyph-name="ugrave" horiz-adv-x="470" d="M358 63L403 52L398 22Q370 13 333 2T292 -9Q288 -9 276 4T265 22L288 164H281L257 123Q182 -8 176 -8Q111 -8 83 14T54 90Q54 117 60 153L101 385L56 396L61 426Q161 457 168 457Q173 457 184
444T195 426L142 130Q139 115 139 102Q139 66 165 66Q173 66 213 119T300 239L323 370Q324 375 324 382Q324 404 307 410V432Q387 457 394 457Q399 457 410 444T421 426L358 63ZM174 605L179 630L233 680L342 549L315 519L174 605Z" />
<glyph unicode="&#xfa;" glyph-name="uacute" horiz-adv-x="470" d="M358 63L403 52L398 22Q370 13 333 2T292 -9Q288 -9 276 4T265 22L288 164H281L257 123Q182 -8 176 -8Q111 -8 83 14T54 90Q54 117 60 153L101 385L56 396L61 426Q161 457 168 457Q173 457 184
444T195 426L142 130Q139 115 139 102Q139 66 165 66Q173 66 213 119T300 239L323 370Q324 375 324 382Q324 404 307 410V432Q387 457 394 457Q399 457 410 444T421 426L358 63ZM188 549L341 680L380 630L375 605L205 519L188 549Z" />
<glyph unicode="&#xfb;" glyph-name="ucircumflex" horiz-adv-x="470" d="M358 63L403 52L398 22Q370 13 333 2T292 -9Q288 -9 276 4T265 22L288 164H281L257 123Q182 -8 176 -8Q111 -8 83 14T54 90Q54 117 60 153L101 385L56 396L61 426Q161 457 168 457Q173
457 184 444T195 426L142 130Q139 115 139 102Q139 66 165 66Q173 66 213 119T300 239L323 370Q324 375 324 382Q324 404 307 410V432Q387 457 394 457Q399 457 410 444T421 426L358 63ZM141 544L258 680H322L393 544L362 519L281 603H274L164 519L141 544Z" />
<glyph unicode="&#xfc;" glyph-name="udieresis" horiz-adv-x="470" d="M358 63L403 52L398 22Q370 13 333 2T292 -9Q288 -9 276 4T265 22L288 164H281L257 123Q182 -8 176 -8Q111 -8 83 14T54 90Q54 117 60 153L101 385L56 396L61 426Q161 457 168 457Q173 457
184 444T195 426L142 130Q139 115 139 102Q139 66 165 66Q173 66 213 119T300 239L323 370Q324 375 324 382Q324 404 307 410V432Q387 457 394 457Q399 457 410 444T421 426L358 63ZM165 641L240 646L251 624L232 537H155L165 641ZM313 641L388 646L398 624L379
537H302L313 641Z" />
<glyph unicode="&#xfd;" glyph-name="yacute" horiz-adv-x="394" d="M410 457T419 443T428 422L215 -9L167 -165Q130 -181 120 -181Q109 -181 94 -168T75 -147L162 9L106 18L78 378L25 391L28 421Q128 457 134 457Q138 457 151 445T165 425L178 181L177 61H189L334
389L283 405L288 440Q398 457 405 457Q410 457 419 443ZM167 549L320 680L359 630L354 605L184 519L167 549Z" />
<glyph unicode="&#xfe;" glyph-name="thorn" horiz-adv-x="439" d="M411 457T411 307Q411 247 396 186T361 90Q343 69 278 30T197 -9Q182 -9 121 0L102 -109L147 -120L142 -150Q133 -154 86 -167T33 -181Q29 -181 18 -167T8 -148L136 573L91 585L96 615Q117 622
157 634T203 646Q208 646 218 632T228 613L170 278H174Q207 337 241 397T281 457Q411 457 411 307ZM257 49T276 85T307 179T319 301Q319 341 310 362T287 383Q281 383 241 326T156 199L133 67Q163 55 195 48T238 44Q257 49 276 85Z" />
<glyph unicode="&#xff;" glyph-name="ydieresis" horiz-adv-x="394" d="M410 457T419 443T428 422L215 -9L167 -165Q130 -181 120 -181Q109 -181 94 -168T75 -147L162 9L106 18L78 378L25 391L28 421Q128 457 134 457Q138 457 151 445T165 425L178 181L177 61H189L334
389L283 405L288 440Q398 457 405 457Q410 457 419 443ZM144 641L219 646L230 624L211 537H134L144 641ZM292 641L367 646L377 624L358 537H281L292 641Z" />
<glyph unicode="&#x2013;" glyph-name="endash" horiz-adv-x="456" d="M48 279H427L417 219H37L48 279Z" />
<glyph unicode="&#x2014;" glyph-name="emdash" horiz-adv-x="835" d="M48 279H806L796 219H37L48 279Z" />
<glyph unicode="&#x2018;" glyph-name="quoteleft" horiz-adv-x="209" d="M105 406T93 419T82 437Q93 505 129 564T205 665L240 645Q202 583 177 533Q179 531 188 523T196 508L182 418Q163 413 141 410T109 406Q105 406 93 419Z" />
<glyph unicode="&#x2019;" glyph-name="quoteright" horiz-adv-x="209" d="M78 429Q116 491 141 541Q139 543 130 551T122 566L136 656Q155 661 177 664T209 668Q213 668 225 655T236 637Q225 569 189 510T113 409L78 429Z" />
<glyph unicode="&#x201a;" glyph-name="quotesinglbase" horiz-adv-x="204" d="M-3 -90Q41 -22 51 -3L32 16L49 101Q91 105 116 105Q119 105 126 93T133 77L125 31Q122 15 93 -25T27 -108L-3 -90Z" />
<glyph unicode="&#x201c;" glyph-name="quotedblleft" horiz-adv-x="350" d="M105 406T93 419T82 437Q93 505 129 564T205 665L240 645Q202 583 177 533Q179 531 188 523T196 508L182 418Q163 413 141 410T109 406Q105 406 93 419ZM246 406T234 419T223 437Q234
505 270 564T346 665L381 645Q343 583 318 533Q320 531 329 523T337 508L323 418Q304 413 282 410T250 406Q246 406 234 419Z" />
<glyph unicode="&#x201d;" glyph-name="quotedblright" horiz-adv-x="350" d="M78 429Q116 491 141 541Q139 543 130 551T122 566L136 656Q155 661 177 664T209 668Q213 668 225 655T236 637Q225 569 189 510T113 409L78 429ZM219 429Q257 491 282 541Q280 543
271 551T263 566L277 656Q296 661 318 664T350 668Q354 668 366 655T377 637Q366 569 330 510T254 409L219 429Z" />
<glyph unicode="&#x201e;" glyph-name="quotedblbase" horiz-adv-x="336" d="M-3 -90Q41 -22 51 -3L32 16L49 101Q91 105 116 105Q119 105 126 93T133 77L125 31Q122 15 93 -25T27 -108L-3 -90ZM129 -90Q173 -22 183 -3L164 16L181 101Q223 105 248 105Q251 105
258 93T265 77L257 31Q254 15 225 -25T159 -108L129 -90Z" />
<glyph unicode="&#x2022;" glyph-name="bullet" horiz-adv-x="367" d="M143 177T121 198T98 255Q98 303 131 338T211 373Q246 373 268 352T291 295Q291 247 258 212T178 177Q143 177 121 198Z" />
<glyph unicode="&#x2039;" glyph-name="guilsinglleft" horiz-adv-x="232" d="M27 218L33 255L193 406L220 383L118 239L117 233L164 79L130 54L27 218Z" />
<glyph unicode="&#x203a;" glyph-name="guilsinglright" horiz-adv-x="252" d="M32 79L134 233L135 239L81 383L116 406L224 255L218 218L59 54L32 79Z" />
</font>
</defs>
</svg>
